<svg xmlns="http://www.w3.org/2000/svg" width="544" height="378" fill="none"><circle cx="238.5" cy="157.5" r="157.5" fill="#D7DEFF"/><circle cx="448.5" cy="177.5" r="95.5" fill="#DFE9FF"/><circle cx="361.5" cy="303.5" r="74.5" fill="#F2F7FF"/><circle cx="61.5" cy="229.5" r="61.5" fill="#EFF2FF"/><path fill="#0C204E" d="M405.7 205.128c-2.232 0-4.137-.789-5.715-2.367-1.578-1.578-2.367-3.483-2.367-5.715 0-2.232.789-4.137 2.367-5.715 1.578-1.578 3.483-2.367 5.715-2.367.385 0 .77.02 1.155.058.385.039.885.135 1.501.289l23.091-23.091a11.122 11.122 0 0 1-.289-1.501c-.038-.385-.058-.77-.058-1.155 0-2.232.789-4.137 2.367-5.715 1.578-1.578 3.483-2.367 5.715-2.367 2.232 0 4.137.789 5.715 2.367 1.578 1.578 2.367 3.483 2.367 5.715 0 .154-.115 1.039-.346 2.656l12.7 12.7c.616-.154 1.116-.251 1.501-.289a11.749 11.749 0 0 1 2.309 0c.385.038.885.135 1.501.289l18.473-18.473a11.093 11.093 0 0 1-.289-1.501c-.038-.385-.058-.77-.058-1.155 0-2.232.789-4.137 2.367-5.715 1.578-1.578 3.483-2.367 5.715-2.367 2.232 0 4.137.789 5.715 2.367 1.578 1.578 2.367 3.483 2.367 5.715 0 2.232-.789 4.137-2.367 5.715-1.578 1.578-3.483 2.367-5.715 2.367-.385 0-.769-.019-1.154-.058-.385-.038-.885-.134-1.501-.288L470.009 184c.154.615.25 1.116.289 1.501.038.384.057.769.057 1.154 0 2.232-.789 4.137-2.367 5.715-1.577 1.578-3.482 2.367-5.715 2.367-2.232 0-4.137-.789-5.715-2.367-1.578-1.578-2.366-3.483-2.366-5.715 0-.385.019-.77.057-1.154.039-.385.135-.886.289-1.501l-12.7-12.7c-.616.154-1.116.25-1.501.288-.385.039-.77.058-1.155.058-.154 0-1.039-.116-2.655-.346l-23.091 23.091c.154.615.25 1.116.288 1.501.039.384.058.769.058 1.154 0 2.232-.789 4.137-2.367 5.715-1.578 1.578-3.483 2.367-5.715 2.367Z"/><g clip-path="url(#a)"><path fill="#4989FF" d="M357.52 341.239c-9.036-.884-16.715-4.487-23.034-10.806-6.319-6.319-9.922-13.998-10.806-23.034h26.921c.505 1.643 1.374 3.033 2.606 4.17a11.065 11.065 0 0 0 4.313 2.465v27.205Zm-5.687-7.204v-16.494a20.928 20.928 0 0 1-2.56-1.943 8.966 8.966 0 0 1-1.99-2.512h-16.399c1.58 5.056 4.202 9.432 7.868 13.129 3.665 3.697 8.025 6.303 13.081 7.82Zm13.46 7.204v-27.205a11.652 11.652 0 0 0 5.356-4.266c1.359-1.959 2.038-4.139 2.038-6.54 0-2.275-.679-4.329-2.038-6.162-1.359-1.832-3.144-3.159-5.356-3.981v-27.3c9.669.885 17.742 4.898 24.22 12.039 6.477 7.141 9.716 15.609 9.716 25.404s-3.223 18.342-9.669 25.641c-6.446 7.299-14.535 11.422-24.267 12.37Zm5.688-7.204c6.888-1.896 12.37-5.719 16.446-11.47 4.076-5.75 6.114-12.196 6.114-19.337 0-7.015-2.085-13.318-6.256-18.911-4.171-5.593-9.606-9.4-16.304-11.423v16.494c2.338 1.58 4.155 3.571 5.45 5.972 1.296 2.401 1.944 5.024 1.944 7.868 0 2.844-.632 5.529-1.896 8.057-1.264 2.528-3.097 4.613-5.498 6.256v16.494Zm-20.38-34.409H323.68c.884-9.037 4.487-16.715 10.806-23.035 6.319-6.319 13.998-9.921 23.034-10.806v27.3c-1.643.506-3.08 1.311-4.313 2.417-1.232 1.106-2.101 2.481-2.606 4.124Zm-3.318-5.688a31.434 31.434 0 0 1 2.038-2.559 8.97 8.97 0 0 1 2.512-1.991v-16.399c-5.056 1.454-9.416 4.045-13.081 7.773-3.666 3.729-6.288 8.121-7.868 13.176h16.399Z"/></g><path fill="#2240C4" d="M238.365 242.032c-14.368 0-28.223-4.233-41.565-12.7-13.341-8.467-23.86-18.152-31.557-29.056v26.362h-11.546v-46.182h46.182v11.545h-26.362c6.542 9.878 15.875 18.762 27.998 26.651 12.123 7.89 24.406 11.834 36.85 11.834 10.006 0 19.467-1.924 28.382-5.772 8.916-3.849 16.677-9.076 23.284-15.683 6.607-6.607 11.834-14.368 15.683-23.284 3.848-8.915 5.772-18.376 5.772-28.382h11.546c0 11.673-2.213 22.642-6.639 32.904-4.425 10.263-10.487 19.243-18.184 26.94-7.697 7.697-16.677 13.759-26.94 18.184-10.262 4.426-21.231 6.639-32.904 6.639Zm-5.581-29.441V202.2c-5.773-1.54-10.615-4.009-14.528-7.409-3.913-3.399-7.216-8.049-9.91-13.95l9.814-3.272c1.539 4.875 4.265 8.724 8.178 11.546 3.913 2.822 8.37 4.233 13.374 4.233 5.131 0 9.396-1.251 12.796-3.752 3.399-2.502 5.099-5.805 5.099-9.91 0-4.233-1.603-7.793-4.811-10.68-3.207-2.886-9.108-6.125-17.703-9.717-7.697-3.207-13.47-6.671-17.318-10.391-3.849-3.72-5.773-8.724-5.773-15.009 0-5.645 1.924-10.456 5.773-14.432 3.848-3.977 8.98-6.415 15.394-7.313v-9.813h10.583v9.813c4.875.514 9.109 2.053 12.701 4.619 3.592 2.565 6.478 6.093 8.659 10.583l-9.237 4.426c-1.924-3.592-4.297-6.286-7.119-8.082-2.823-1.796-6.158-2.694-10.007-2.694-5.003 0-8.947 1.155-11.834 3.464-2.886 2.309-4.329 5.452-4.329 9.429 0 4.105 1.667 7.376 5.003 9.813 3.335 2.438 8.723 5.196 16.163 8.275 8.852 3.72 15.138 7.632 18.858 11.738 3.72 4.105 5.581 9.428 5.581 15.971 0 3.207-.578 6.158-1.732 8.852-1.155 2.694-2.79 5.003-4.907 6.927-2.117 1.924-4.715 3.496-7.793 4.714-3.079 1.219-6.543 2.021-10.391 2.406v10.006h-10.584Zm-79.087-55.226c0-11.674 2.213-22.643 6.639-32.905 4.426-10.263 10.487-19.243 18.184-26.94 7.697-7.697 16.677-13.758 26.94-18.184 10.262-4.426 21.231-6.639 32.905-6.639 14.367 0 28.222 4.233 41.564 12.7 13.341 8.467 23.86 18.152 31.557 29.057V88.091h11.546v46.182H276.85v-11.545h26.362c-6.542-9.878-15.843-18.762-27.902-26.651-12.058-7.89-24.374-11.834-36.945-11.834-10.007 0-19.468 1.924-28.383 5.772-8.916 3.849-16.677 9.076-23.284 15.683-6.607 6.607-11.834 14.368-15.683 23.284-3.848 8.915-5.772 18.376-5.772 28.383h-11.546Z"/><path fill="#1A3B8B" d="M45.644 254.083c-1.803 0-3.33-.624-4.579-1.874-1.25-1.25-1.874-2.776-1.874-4.579v-7.682h7.805v-35.031l3.687 3.687 3.688-3.687 3.626 3.687 3.687-3.687 3.688 3.687 3.687-3.687 3.688 3.687 3.687-3.687 3.688 3.687 3.687-3.687v42.713c0 1.803-.624 3.329-1.874 4.579-1.25 1.25-2.776 1.874-4.579 1.874H45.644Zm31.712-3.687c.82 0 1.486-.256 1.998-.768.512-.513.768-1.178.768-1.998v-36.568H50.683v28.886h23.908v7.682c0 .82.256 1.485.768 1.998.512.512 1.178.768 1.997.768Zm-23.415-29.623v-3.688h14.75v3.688H53.94Zm0 8.235v-3.687h14.75v3.687H53.94Zm20.465-8.235c-.491 0-.922-.184-1.29-.553-.37-.369-.553-.799-.553-1.291 0-.492.184-.922.553-1.29.368-.369.799-.554 1.29-.554.492 0 .922.185 1.29.554.37.368.554.798.554 1.29s-.184.922-.553 1.291c-.369.369-.8.553-1.29.553Zm0 7.928c-.491 0-.922-.184-1.29-.553-.37-.369-.553-.799-.553-1.291 0-.491.184-.922.553-1.29.368-.369.799-.553 1.29-.553.492 0 .922.184 1.29.553.37.368.554.799.554 1.29 0 .492-.184.922-.553 1.291-.369.369-.8.553-1.29.553Zm-28.824 21.695h25.321v-6.761H42.878v3.995c0 .82.256 1.485.768 1.998.512.512 1.158.768 1.936.768Z"/><defs><clipPath id="a"><path fill="#fff" d="m305.774 271.327 87.9-23.553 23.552 87.9-87.9 23.552z"/></clipPath></defs></svg>