<svg xmlns="http://www.w3.org/2000/svg" xmlns:xlink="http://www.w3.org/1999/xlink" width="190" height="235"><defs><path id="a" d="M5.338 0h161.324A5.338 5.338 0 0 1 172 5.338v206.324a5.338 5.338 0 0 1-5.338 5.338H5.338A5.338 5.338 0 0 1 0 211.662V5.338A5.338 5.338 0 0 1 5.338 0z"/><path id="c" d="M18.5 37C28.717 37 37 28.717 37 18.5S28.717 0 18.5 0 0 8.283 0 18.5 8.283 37 18.5 37z"/><path id="d" d="M18.5 37C28.717 37 37 28.717 37 18.5S28.717 0 18.5 0 0 8.283 0 18.5 8.283 37 18.5 37z"/><filter id="b" width="115.7%" height="112.4%" x="-7.8%" y="-6.2%" filterUnits="objectBoundingBox"><feMorphology in="SourceAlpha" operator="dilate" radius="1" result="shadowSpreadOuter1"/><feOffset in="shadowSpreadOuter1" result="shadowOffsetOuter1"/><feGaussianBlur in="shadowOffsetOuter1" result="shadowBlurOuter1" stdDeviation="3.5"/><feColorMatrix in="shadowBlurOuter1" values="0 0 0 0 0 0 0 0 0 0 0 0 0 0 0 0 0 0 0.05 0"/></filter></defs><g fill="none" fill-rule="evenodd" transform="translate(9 9)"><use xlink:href="#a" fill="#000" filter="url(#b)"/><use xlink:href="#a" fill="#FFF"/><g transform="translate(50 182)"><rect width="74" height="14" fill="#EBEBEB" rx="7"/><path fill="#565D6E" fill-rule="nonzero" d="M14.097 10.932v-.857c.536-.059.957-.24 1.263-.543.307-.303.46-.708.46-1.215 0-.352-.072-.65-.216-.894a1.821 1.821 0 0 0-.61-.618 5.261 5.261 0 0 0-1.016-.474c-.27-.1-.48-.199-.633-.297a.95.95 0 0 1-.327-.325.87.87 0 0 1-.099-.429c0-.266.073-.478.22-.635.146-.156.366-.235.66-.235.283 0 .505.104.665.312.16.208.24.495.24.861h1.094c0-.585-.142-1.056-.427-1.41-.284-.355-.678-.567-1.182-.637v-.967h-.703v.958a2.112 2.112 0 0 0-.874.285 1.584 1.584 0 0 0-.578.607c-.137.252-.205.54-.205.866 0 .354.074.654.222.9.148.247.355.453.622.62.267.167.605.321 1.015.462.378.131.646.279.804.441a.85.85 0 0 1 .238.618c0 .266-.087.477-.262.632-.174.156-.42.233-.74.233-.296 0-.545-.088-.747-.265-.202-.178-.304-.471-.304-.882h-1.094c0 .437.083.801.249 1.092.165.292.384.512.657.662.272.15.575.242.91.277v.857h.698zM19.66 10V3.58h-.136l-2.518.922v.915l1.56-.523V10h1.094zm4.18.088c.413 0 .783-.074 1.111-.222a1.78 1.78 0 0 0 .774-.648c.187-.284.281-.621.281-1.011 0-.343-.088-.646-.264-.91-.175-.263-.446-.458-.813-.584.314-.14.556-.338.726-.593a1.4 1.4 0 0 0 .254-.787c0-.393-.085-.725-.257-.998a1.594 1.594 0 0 0-.723-.615 2.67 2.67 0 0 0-1.09-.206c-.386 0-.735.075-1.047.226-.313.15-.556.36-.732.626a1.6 1.6 0 0 0-.264.901h1.094c0-.176.042-.33.126-.461a.832.832 0 0 1 .345-.306c.146-.072.312-.107.496-.107.317 0 .555.082.716.246.162.164.242.395.242.694 0 .296-.09.532-.272.708-.182.175-.447.263-.796.263h-.637v.862h.637c.37 0 .656.084.86.254.203.17.305.431.305.783 0 .319-.093.567-.28.742-.185.176-.444.264-.775.264a1.2 1.2 0 0 1-.54-.116.854.854 0 0 1-.36-.33.928.928 0 0 1-.128-.486h-1.094c0 .384.096.712.287.985.192.272.449.478.77.617.32.14.67.209 1.048.209zm5.348 0c.427 0 .799-.095 1.114-.286.315-.19.556-.452.723-.784a2.46 2.46 0 0 0 .25-1.119c0-.386-.067-.742-.202-1.067a1.771 1.771 0 0 0-.615-.783c-.276-.196-.613-.294-1.011-.294-.264 0-.507.045-.73.136-.222.09-.414.223-.575.396.04-.355.143-.668.305-.939a1.73 1.73 0 0 1 .697-.643c.302-.159.672-.238 1.112-.238h.074v-.9h-.132c-.729 0-1.331.16-1.806.478a2.79 2.79 0 0 0-1.041 1.286c-.22.537-.33 1.143-.33 1.817v.426c0 .457.086.877.257 1.26.172.382.421.686.75.913.328.227.714.34 1.16.34zm-.013-.883a.881.881 0 0 1-.534-.176 1.175 1.175 0 0 1-.38-.52 2.205 2.205 0 0 1-.141-.834v-.338c.082-.202.218-.37.409-.501.19-.132.404-.198.641-.198.214 0 .398.057.552.172.153.114.27.268.349.463.08.195.119.413.119.653 0 .249-.041.47-.123.663-.082.194-.2.345-.352.453a.908.908 0 0 1-.54.163zm3.691.848a.628.628 0 0 0 .461-.17.577.577 0 0 0 .172-.428.59.59 0 0 0-.172-.435.624.624 0 0 0-.461-.171c-.196 0-.352.057-.466.171a.59.59 0 0 0-.171.435c0 .173.057.316.171.429.114.112.27.169.466.169zM37.559 10V3.58h-.136l-2.518.922v.915l1.56-.523V10h1.094zm6.522 0v-.879h-2.945l1.39-1.485c.427-.449.752-.86.975-1.233.222-.373.334-.748.334-1.123 0-.36-.08-.673-.238-.938a1.559 1.559 0 0 0-.69-.613c-.301-.144-.665-.215-1.09-.215-.448 0-.836.09-1.164.272a1.88 1.88 0 0 0-.751.738c-.173.311-.26.655-.26 1.033h1.095c0-.351.091-.633.274-.846.183-.212.448-.318.793-.318.293 0 .523.092.688.276.166.185.248.427.248.726 0 .146-.027.293-.08.439a2.234 2.234 0 0 1-.275.494 7.462 7.462 0 0 1-.537.657l-2.083 2.26V10h4.316zm5.52.088a2.88 2.88 0 0 0 1.225-.253c.364-.168.65-.42.86-.753.209-.334.314-.739.314-1.213V3.602h-1.138v4.267c0 .442-.11.77-.328.984-.218.214-.53.32-.934.32-.398 0-.708-.107-.93-.322-.22-.216-.33-.543-.33-.982V3.602h-1.135v4.267c0 .477.102.882.306 1.215.203.332.486.583.848.751a2.91 2.91 0 0 0 1.241.253zm5.77 0c.46 0 .861-.071 1.206-.213.344-.142.61-.345.797-.609.188-.264.282-.574.282-.932 0-.336-.077-.63-.229-.883-.152-.252-.383-.47-.692-.655-.31-.184-.707-.348-1.193-.492-.466-.135-.807-.281-1.024-.44-.217-.157-.325-.35-.325-.58 0-.257.096-.466.287-.626.192-.16.473-.24.842-.24.393 0 .69.096.89.287.2.19.3.445.3.764h1.135c0-.36-.094-.689-.282-.986a1.957 1.957 0 0 0-.806-.708c-.35-.174-.758-.261-1.224-.261-.445 0-.84.075-1.186.226-.346.15-.615.361-.807.63-.192.27-.288.576-.288.92 0 .488.184.885.55 1.19.366.305.886.561 1.56.769.369.111.65.218.841.32.192.103.325.214.398.333.073.118.11.265.11.441a.738.738 0 0 1-.294.615c-.197.153-.48.229-.849.229-.416 0-.749-.093-1-.279-.25-.186-.375-.471-.375-.855h-1.138c0 .434.12.804.358 1.112.239.308.55.538.936.692.385.154.792.23 1.22.23zM60.476 10c.586 0 1.1-.125 1.542-.376.443-.25.785-.605 1.026-1.063.242-.459.363-.993.363-1.602v-.312c0-.606-.12-1.14-.363-1.6a2.602 2.602 0 0 0-1.017-1.068c-.436-.251-.939-.377-1.507-.377h-1.899V10h1.855zm0-.914h-.717V4.52h.76c.566 0 .998.182 1.297.545.299.363.448.888.448 1.573v.321c0 .677-.151 1.2-.454 1.571-.304.37-.748.556-1.334.556z"/></g><use xlink:href="#c" fill="#4F6EF7" opacity=".1" transform="translate(68.5 137)"/><path fill="#4F6EF7" d="M91.317 155.637c-.728-.422-1.819-.855-3.266-1.299v-5.956c1.436.108 2.851.42 4.242.945l.747-1.791a15.215 15.215 0 0 0-4.99-1.004V144h-2.1v2.574c-2.762.318-5.177 1.699-5.177 4.312 0 2.956 2.189 4.133 5.176 5.055v6.056c-1.71-.023-3.904-.488-5.449-1.144v2.133c1.496.659 3.798.889 5.45.899V167h2.1v-3.251c1.7-.218 3.03-.72 3.985-1.509.976-.806 1.465-1.83 1.465-3.07 0-1.53-.623-2.628-2.183-3.533zm-5.368-1.974c-1.607-.585-2.748-1.198-2.748-2.804 0-1.444 1.262-2.148 2.748-2.406v5.21zm2.102 8.182v-5.261c1.698.567 3.007 1.12 3.007 2.765 0 1.377-1.007 2.207-3.007 2.496z"/><rect width="74" height="14" x="50" y="65" fill="#EBEBEB" rx="7"/><g transform="translate(68 20)"><mask id="e" fill="#fff"><use xlink:href="#d"/></mask><use xlink:href="#d" fill="#F7931A"/><path fill="#FFF" d="M23.319 16.354c-.491 2.054-3.717 1.061-4.769.808l.889-3.647c1.028.254 4.394.693 3.88 2.839zm-.515 5.885c-.537 2.261-4.418 1.084-5.657.784l.96-4.015c1.261.3 5.258.854 4.697 3.23zm4.16-5.885c.305-2.216-1.402-3.37-3.74-4.154l.726-3-1.847-.438-.7 2.93c-.492-.115-.983-.23-1.474-.323l.701-2.93L18.76 8l-.724 3c-.398-.092-.795-.161-1.192-.254l-2.548-.6-.468 1.939s1.38.3 1.333.323c.748.184.888.67.865 1.038l-.818 3.416c.046.023.117.023.187.069-.07-.023-.117-.023-.187-.046l-1.123 4.776c-.093.231-.327.554-.84.44.022.022-1.356-.324-1.356-.324l-.889 2.1 2.407.554c.445.115.889.207 1.31.323l-.725 3.023 1.847.438.724-3c.514.139 1.005.254 1.473.37l-.725 2.977 1.847.438.725-3.023c3.155.554 5.516.3 6.474-2.538.772-2.262-.07-3.554-1.753-4.408 1.24-.277 2.127-1.061 2.36-2.677z" mask="url(#e)"/></g><path stroke="#979AA1" d="M86.5 88.378v36.244"/><path fill="#979AA1" d="m83 124 3.528 4L90 124z"/><path fill="#565D6E" fill-rule="nonzero" d="M61.992 75.209c1.32 0 1.98-.874 1.98-2.623v-.988c0-.91-.174-1.57-.521-1.982-.347-.41-.836-.616-1.467-.616-.631 0-1.12.205-1.465.616-.346.411-.519 1.072-.519 1.982v.988c0 .913.175 1.578.525 1.996.35.418.84.627 1.467.627zm0-.83a.792.792 0 0 1-.716-.388c-.162-.259-.243-.679-.243-1.26v-1.286c0-.581.08-.996.24-1.243.158-.248.395-.372.71-.372.322 0 .561.124.719.372.158.247.236.662.236 1.243v1.286c0 .587-.078 1.008-.234 1.264-.156.256-.394.384-.712.384zm3.574.797a.593.593 0 0 0 .435-.16.545.545 0 0 0 .162-.405.557.557 0 0 0-.162-.41.589.589 0 0 0-.435-.162.594.594 0 0 0-.44.161.557.557 0 0 0-.162.411c0 .164.054.298.162.405.108.107.254.16.44.16zm3.652.033c1.32 0 1.98-.874 1.98-2.623v-.988c0-.91-.174-1.57-.521-1.982-.347-.41-.836-.616-1.467-.616-.631 0-1.12.205-1.465.616-.346.411-.52 1.072-.52 1.982v.988c0 .913.176 1.578.526 1.996.35.418.839.627 1.467.627zm0-.83a.792.792 0 0 1-.716-.388c-.162-.259-.243-.679-.243-1.26v-1.286c0-.581.08-.996.239-1.243.159-.248.396-.372.712-.372.32 0 .56.124.718.372.157.247.236.662.236 1.243v1.286c0 .587-.078 1.008-.234 1.264-.157.256-.394.384-.712.384zm5.62.747v-6.064h-.129l-2.378.872v.863l1.473-.494v4.823h1.034zm3.947.083c.39 0 .74-.07 1.05-.21.31-.14.553-.343.73-.612.177-.268.266-.586.266-.954 0-.324-.083-.61-.25-.86-.165-.249-.421-.433-.767-.552.296-.132.524-.32.685-.56.16-.24.24-.488.24-.743 0-.37-.08-.685-.242-.942a1.505 1.505 0 0 0-.683-.58 2.52 2.52 0 0 0-1.03-.196 2.24 2.24 0 0 0-.99.214c-.294.142-.524.34-.69.591a1.511 1.511 0 0 0-.25.851h1.034c0-.166.04-.311.118-.436a.786.786 0 0 1 .326-.288c.139-.068.295-.102.47-.102.298 0 .524.078.676.233.152.154.228.373.228.655 0 .28-.086.502-.257.668-.172.166-.422.25-.751.25h-.602v.813h.602c.348 0 .619.08.81.24.193.161.29.407.29.74 0 .301-.088.535-.264.7-.176.167-.42.25-.733.25a1.13 1.13 0 0 1-.51-.11.807.807 0 0 1-.34-.311.876.876 0 0 1-.12-.459h-1.034c0 .362.09.672.271.93.182.257.424.451.727.583.303.131.633.197.99.197zm5.731-.083v-6.064h-.128l-2.378.872v.863l1.473-.494v4.823h1.033zm4.06.083c1.32 0 1.98-.874 1.98-2.623v-.988c0-.91-.174-1.57-.522-1.982-.347-.41-.836-.616-1.467-.616-.63 0-1.12.205-1.465.616-.346.411-.519 1.072-.519 1.982v.988c0 .913.175 1.578.525 1.996.35.418.84.627 1.467.627zm0-.83a.792.792 0 0 1-.717-.388c-.161-.259-.242-.679-.242-1.26v-1.286c0-.581.08-.996.238-1.243.16-.248.397-.372.712-.372.321 0 .56.124.718.372.158.247.237.662.237 1.243v1.286c0 .587-.078 1.008-.235 1.264-.156.256-.393.384-.712.384zm6.291.747v-1.34h.748v-.83h-.748v-3.873h-1.062l-2.594 4.072.029.63h2.594v1.341h1.033zm-1.033-2.17h-1.548l1.473-2.341.075-.133v2.473zm6.948 2.17c.667 0 1.184-.152 1.552-.454.368-.303.552-.741.552-1.314 0-.33-.086-.62-.257-.87-.172-.25-.425-.42-.76-.508a1.41 1.41 0 0 0 .65-.506 1.31 1.31 0 0 0 .226-.756c0-.55-.183-.96-.548-1.23-.365-.27-.888-.405-1.569-.405h-2.075v6.043h2.229zm-.146-3.503h-1.008V69.95h1c.36 0 .624.066.793.198.169.131.253.343.253.637 0 .265-.09.471-.272.618-.181.147-.436.22-.766.22zm.146 2.64h-1.154v-1.851h1.2c.658 0 .987.315.987.946 0 .274-.089.493-.268.658-.178.164-.433.247-.765.247zm5.657.863V69.95h1.88v-.867h-4.81v.867h1.859v5.176h1.07zm4.918.083c.481 0 .894-.087 1.237-.261a1.95 1.95 0 0 0 .799-.727c.19-.31.302-.667.338-1.07h-1.07a1.89 1.89 0 0 1-.19.657.915.915 0 0 1-.41.395c-.182.09-.416.134-.704.134-.468 0-.811-.174-1.031-.523-.22-.348-.33-.838-.33-1.469v-.485c0-.642.118-1.134.354-1.476.237-.342.586-.512 1.048-.512.413 0 .715.101.907.305.193.203.312.507.36.91h1.07a2.616 2.616 0 0 0-.342-1.089 1.937 1.937 0 0 0-.783-.734c-.334-.176-.738-.264-1.212-.264-.5 0-.938.118-1.313.353a2.31 2.31 0 0 0-.868 1c-.203.432-.305.937-.305 1.515v.477c0 .579.1 1.083.3 1.515.198.432.482.764.85.998.368.234.8.351 1.295.351z"/></g></svg>