<svg width="32" height="32" viewBox="0 0 32 32" fill="none" xmlns="http://www.w3.org/2000/svg">
<g clip-path="url(#clip0_930_2884)">
<g filter="url(#filter0_i_930_2884)">
<path d="M23.5001 31C27.6422 31 31.0001 27.6421 31.0001 23.5C31.0001 19.3579 27.6422 16 23.5001 16C19.3579 16 16.0001 19.3579 16.0001 23.5C16.0001 27.6421 19.3579 31 23.5001 31Z" fill="white"/>
</g>
<path d="M23.5001 31C27.6422 31 31.0001 27.6421 31.0001 23.5C31.0001 19.3579 27.6422 16 23.5001 16C19.3579 16 16.0001 19.3579 16.0001 23.5C16.0001 27.6421 19.3579 31 23.5001 31Z" stroke="#375BD2" stroke-width="1.5" stroke-linecap="round" stroke-linejoin="round"/>
<path d="M23.5 20.6152V26.3845" stroke="#375BD2" stroke-width="1.5" stroke-linecap="round" stroke-linejoin="round"/>
<path d="M20.6154 23.499H26.3846" stroke="#375BD2" stroke-width="1.5" stroke-linecap="round" stroke-linejoin="round"/>
<g filter="url(#filter1_i_930_2884)">
<path d="M13.6923 10.7846C20.7021 10.7846 26.3846 8.59425 26.3846 5.89231C26.3846 3.19036 20.7021 1 13.6923 1C6.68254 1 1 3.19036 1 5.89231C1 8.59425 6.68254 10.7846 13.6923 10.7846Z" fill="white"/>
</g>
<path d="M13.6923 10.7846C20.7021 10.7846 26.3846 8.59425 26.3846 5.89231C26.3846 3.19036 20.7021 1 13.6923 1C6.68254 1 1 3.19036 1 5.89231C1 8.59425 6.68254 10.7846 13.6923 10.7846Z" stroke="#375BD2" stroke-width="1.5" stroke-linecap="round" stroke-linejoin="round"/>
<path d="M26.3845 10.231V5.89258" stroke="#375BD2" stroke-width="1.5" stroke-linecap="round" stroke-linejoin="round"/>
<path d="M1 5.89258V21.4926C1 23.6387 4.55385 25.4387 9.51538 26.108" stroke="#375BD2" stroke-width="1.5" stroke-linecap="round" stroke-linejoin="round"/>
<path d="M10.2077 18.3078C4.9 17.8001 1 16.0001 1 13.6924" stroke="#375BD2" stroke-width="1.5" stroke-linecap="round" stroke-linejoin="round"/>
</g>
<defs>
<filter id="filter0_i_930_2884" x="15.2501" y="15.25" width="16.5" height="16.5" filterUnits="userSpaceOnUse" color-interpolation-filters="sRGB">
<feFlood flood-opacity="0" result="BackgroundImageFix"/>
<feBlend mode="normal" in="SourceGraphic" in2="BackgroundImageFix" result="shape"/>
<feColorMatrix in="SourceAlpha" type="matrix" values="0 0 0 0 0 0 0 0 0 0 0 0 0 0 0 0 0 0 127 0" result="hardAlpha"/>
<feOffset dx="-3" dy="1"/>
<feComposite in2="hardAlpha" operator="arithmetic" k2="-1" k3="1"/>
<feColorMatrix type="matrix" values="0 0 0 0 0.87451 0 0 0 0 0.905882 0 0 0 0 0.984314 0 0 0 1 0"/>
<feBlend mode="normal" in2="shape" result="effect1_innerShadow_930_2884"/>
</filter>
<filter id="filter1_i_930_2884" x="0.25" y="0.25" width="26.8846" height="11.2842" filterUnits="userSpaceOnUse" color-interpolation-filters="sRGB">
<feFlood flood-opacity="0" result="BackgroundImageFix"/>
<feBlend mode="normal" in="SourceGraphic" in2="BackgroundImageFix" result="shape"/>
<feColorMatrix in="SourceAlpha" type="matrix" values="0 0 0 0 0 0 0 0 0 0 0 0 0 0 0 0 0 0 127 0" result="hardAlpha"/>
<feOffset dx="-3" dy="1"/>
<feComposite in2="hardAlpha" operator="arithmetic" k2="-1" k3="1"/>
<feColorMatrix type="matrix" values="0 0 0 0 0.87451 0 0 0 0 0.905882 0 0 0 0 0.984314 0 0 0 1 0"/>
<feBlend mode="normal" in2="shape" result="effect1_innerShadow_930_2884"/>
</filter>
<clipPath id="clip0_930_2884">
<rect width="32" height="32" fill="white"/>
</clipPath>
</defs>
</svg>
