<svg width="32" height="32" viewBox="0 0 32 32" fill="none" xmlns="http://www.w3.org/2000/svg">
<g clip-path="url(#clip0_1_1239)">
<g filter="url(#filter0_i_1_1239)">
<path d="M1 4V10C1 11.656 3.23867 13 6 13C8.76133 13 11 11.6573 11 10V4" fill="white"/>
</g>
<path d="M1 4V10C1 11.656 3.23867 13 6 13C8.76133 13 11 11.6573 11 10V4" stroke="#375BD2" stroke-width="1.5" stroke-linecap="round" stroke-linejoin="round"/>
<g filter="url(#filter1_i_1_1239)">
<path d="M1 4.00122C1 4.79687 1.52678 5.55993 2.46447 6.12254C3.40215 6.68515 4.67392 7.00122 6 7.00122C7.32608 7.00122 8.59785 6.68515 9.53553 6.12254C10.4732 5.55993 11 4.79687 11 4.00122C11 3.20557 10.4732 2.44251 9.53553 1.8799C8.59785 1.31729 7.32608 1.00122 6 1.00122C4.67392 1.00122 3.40215 1.31729 2.46447 1.8799C1.52678 2.44251 1 3.20557 1 4.00122Z" fill="white"/>
</g>
<path d="M1 4.00122C1 4.79687 1.52678 5.55993 2.46447 6.12254C3.40215 6.68515 4.67392 7.00122 6 7.00122C7.32608 7.00122 8.59785 6.68515 9.53553 6.12254C10.4732 5.55993 11 4.79687 11 4.00122C11 3.20557 10.4732 2.44251 9.53553 1.8799C8.59785 1.31729 7.32608 1.00122 6 1.00122C4.67392 1.00122 3.40215 1.31729 2.46447 1.8799C1.52678 2.44251 1 3.20557 1 4.00122Z" stroke="#375BD2" stroke-width="1.5" stroke-linecap="round" stroke-linejoin="round"/>
<g filter="url(#filter2_i_1_1239)">
<path d="M1 22V28C1 29.656 3.23867 31 6 31C8.76133 31 11 29.6573 11 28V22" fill="white"/>
</g>
<path d="M1 22V28C1 29.656 3.23867 31 6 31C8.76133 31 11 29.6573 11 28V22" stroke="#375BD2" stroke-width="1.5" stroke-linecap="round" stroke-linejoin="round"/>
<g filter="url(#filter3_i_1_1239)">
<path d="M1 22.0012C1 22.7969 1.52678 23.5599 2.46447 24.1225C3.40215 24.6851 4.67392 25.0012 6 25.0012C7.32608 25.0012 8.59785 24.6851 9.53553 24.1225C10.4732 23.5599 11 22.7969 11 22.0012C11 21.2056 10.4732 20.4425 9.53553 19.8799C8.59785 19.3173 7.32608 19.0012 6 19.0012C4.67392 19.0012 3.40215 19.3173 2.46447 19.8799C1.52678 20.4425 1 21.2056 1 22.0012Z" fill="white"/>
</g>
<path d="M1 22.0012C1 22.7969 1.52678 23.5599 2.46447 24.1225C3.40215 24.6851 4.67392 25.0012 6 25.0012C7.32608 25.0012 8.59785 24.6851 9.53553 24.1225C10.4732 23.5599 11 22.7969 11 22.0012C11 21.2056 10.4732 20.4425 9.53553 19.8799C8.59785 19.3173 7.32608 19.0012 6 19.0012C4.67392 19.0012 3.40215 19.3173 2.46447 19.8799C1.52678 20.4425 1 21.2056 1 22.0012Z" stroke="#375BD2" stroke-width="1.5" stroke-linecap="round" stroke-linejoin="round"/>
<g filter="url(#filter4_i_1_1239)">
<path d="M21 4V10C21 11.656 23.2387 13 26 13C28.7613 13 31 11.656 31 10V4" fill="white"/>
</g>
<path d="M21 4V10C21 11.656 23.2387 13 26 13C28.7613 13 31 11.656 31 10V4" stroke="#375BD2" stroke-width="1.5" stroke-linecap="round" stroke-linejoin="round"/>
<g filter="url(#filter5_i_1_1239)">
<path d="M21 4.00122C21 4.79687 21.5268 5.55993 22.4645 6.12254C23.4021 6.68515 24.6739 7.00122 26 7.00122C27.3261 7.00122 28.5979 6.68515 29.5355 6.12254C30.4732 5.55993 31 4.79687 31 4.00122C31 3.20557 30.4732 2.44251 29.5355 1.8799C28.5979 1.31729 27.3261 1.00122 26 1.00122C24.6739 1.00122 23.4021 1.31729 22.4645 1.8799C21.5268 2.44251 21 3.20557 21 4.00122Z" fill="white"/>
</g>
<path d="M21 4.00122C21 4.79687 21.5268 5.55993 22.4645 6.12254C23.4021 6.68515 24.6739 7.00122 26 7.00122C27.3261 7.00122 28.5979 6.68515 29.5355 6.12254C30.4732 5.55993 31 4.79687 31 4.00122C31 3.20557 30.4732 2.44251 29.5355 1.8799C28.5979 1.31729 27.3261 1.00122 26 1.00122C24.6739 1.00122 23.4021 1.31729 22.4645 1.8799C21.5268 2.44251 21 3.20557 21 4.00122Z" stroke="#375BD2" stroke-width="1.5" stroke-linecap="round" stroke-linejoin="round"/>
<g filter="url(#filter6_i_1_1239)">
<path d="M21 22V28C21 29.656 23.2387 31 26 31C28.7613 31 31 29.656 31 28V22" fill="white"/>
</g>
<path d="M21 22V28C21 29.656 23.2387 31 26 31C28.7613 31 31 29.656 31 28V22" stroke="#375BD2" stroke-width="1.5" stroke-linecap="round" stroke-linejoin="round"/>
<g filter="url(#filter7_i_1_1239)">
<path d="M21 22.0012C21 22.7969 21.5268 23.5599 22.4645 24.1225C23.4021 24.6851 24.6739 25.0012 26 25.0012C27.3261 25.0012 28.5979 24.6851 29.5355 24.1225C30.4732 23.5599 31 22.7969 31 22.0012C31 21.2056 30.4732 20.4425 29.5355 19.8799C28.5979 19.3173 27.3261 19.0012 26 19.0012C24.6739 19.0012 23.4021 19.3173 22.4645 19.8799C21.5268 20.4425 21 21.2056 21 22.0012Z" fill="white"/>
</g>
<path d="M21 22.0012C21 22.7969 21.5268 23.5599 22.4645 24.1225C23.4021 24.6851 24.6739 25.0012 26 25.0012C27.3261 25.0012 28.5979 24.6851 29.5355 24.1225C30.4732 23.5599 31 22.7969 31 22.0012C31 21.2056 30.4732 20.4425 29.5355 19.8799C28.5979 19.3173 27.3261 19.0012 26 19.0012C24.6739 19.0012 23.4021 19.3173 22.4645 19.8799C21.5268 20.4425 21 21.2056 21 22.0012Z" stroke="#375BD2" stroke-width="1.5" stroke-linecap="round" stroke-linejoin="round"/>
<path d="M10.7214 10.9919L21.1081 21.3786" stroke="#375BD2" stroke-width="1.5" stroke-linecap="round" stroke-linejoin="round"/>
<path d="M11 22L21.588 11.4133" stroke="#375BD2" stroke-width="1.5" stroke-linecap="round" stroke-linejoin="round"/>
</g>
<defs>
<filter id="filter0_i_1_1239" x="0.25" y="3.25" width="11.5" height="10.5" filterUnits="userSpaceOnUse" color-interpolation-filters="sRGB">
<feFlood flood-opacity="0" result="BackgroundImageFix"/>
<feBlend mode="normal" in="SourceGraphic" in2="BackgroundImageFix" result="shape"/>
<feColorMatrix in="SourceAlpha" type="matrix" values="0 0 0 0 0 0 0 0 0 0 0 0 0 0 0 0 0 0 127 0" result="hardAlpha"/>
<feOffset dx="-3" dy="-1"/>
<feComposite in2="hardAlpha" operator="arithmetic" k2="-1" k3="1"/>
<feColorMatrix type="matrix" values="0 0 0 0 0.87451 0 0 0 0 0.905882 0 0 0 0 0.984314 0 0 0 1 0"/>
<feBlend mode="normal" in2="shape" result="effect1_innerShadow_1_1239"/>
</filter>
<filter id="filter1_i_1_1239" x="0.25" y="0.251221" width="11.5" height="7.5" filterUnits="userSpaceOnUse" color-interpolation-filters="sRGB">
<feFlood flood-opacity="0" result="BackgroundImageFix"/>
<feBlend mode="normal" in="SourceGraphic" in2="BackgroundImageFix" result="shape"/>
<feColorMatrix in="SourceAlpha" type="matrix" values="0 0 0 0 0 0 0 0 0 0 0 0 0 0 0 0 0 0 127 0" result="hardAlpha"/>
<feOffset dx="-3" dy="-1"/>
<feComposite in2="hardAlpha" operator="arithmetic" k2="-1" k3="1"/>
<feColorMatrix type="matrix" values="0 0 0 0 0.87451 0 0 0 0 0.905882 0 0 0 0 0.984314 0 0 0 1 0"/>
<feBlend mode="normal" in2="shape" result="effect1_innerShadow_1_1239"/>
</filter>
<filter id="filter2_i_1_1239" x="0.25" y="21.25" width="11.5" height="10.5" filterUnits="userSpaceOnUse" color-interpolation-filters="sRGB">
<feFlood flood-opacity="0" result="BackgroundImageFix"/>
<feBlend mode="normal" in="SourceGraphic" in2="BackgroundImageFix" result="shape"/>
<feColorMatrix in="SourceAlpha" type="matrix" values="0 0 0 0 0 0 0 0 0 0 0 0 0 0 0 0 0 0 127 0" result="hardAlpha"/>
<feOffset dx="-3" dy="-1"/>
<feComposite in2="hardAlpha" operator="arithmetic" k2="-1" k3="1"/>
<feColorMatrix type="matrix" values="0 0 0 0 0.87451 0 0 0 0 0.905882 0 0 0 0 0.984314 0 0 0 1 0"/>
<feBlend mode="normal" in2="shape" result="effect1_innerShadow_1_1239"/>
</filter>
<filter id="filter3_i_1_1239" x="0.25" y="18.2512" width="11.5" height="7.5" filterUnits="userSpaceOnUse" color-interpolation-filters="sRGB">
<feFlood flood-opacity="0" result="BackgroundImageFix"/>
<feBlend mode="normal" in="SourceGraphic" in2="BackgroundImageFix" result="shape"/>
<feColorMatrix in="SourceAlpha" type="matrix" values="0 0 0 0 0 0 0 0 0 0 0 0 0 0 0 0 0 0 127 0" result="hardAlpha"/>
<feOffset dx="-3" dy="-1"/>
<feComposite in2="hardAlpha" operator="arithmetic" k2="-1" k3="1"/>
<feColorMatrix type="matrix" values="0 0 0 0 0.87451 0 0 0 0 0.905882 0 0 0 0 0.984314 0 0 0 1 0"/>
<feBlend mode="normal" in2="shape" result="effect1_innerShadow_1_1239"/>
</filter>
<filter id="filter4_i_1_1239" x="20.25" y="3.25" width="11.5" height="10.5" filterUnits="userSpaceOnUse" color-interpolation-filters="sRGB">
<feFlood flood-opacity="0" result="BackgroundImageFix"/>
<feBlend mode="normal" in="SourceGraphic" in2="BackgroundImageFix" result="shape"/>
<feColorMatrix in="SourceAlpha" type="matrix" values="0 0 0 0 0 0 0 0 0 0 0 0 0 0 0 0 0 0 127 0" result="hardAlpha"/>
<feOffset dx="-3" dy="-1"/>
<feComposite in2="hardAlpha" operator="arithmetic" k2="-1" k3="1"/>
<feColorMatrix type="matrix" values="0 0 0 0 0.87451 0 0 0 0 0.905882 0 0 0 0 0.984314 0 0 0 1 0"/>
<feBlend mode="normal" in2="shape" result="effect1_innerShadow_1_1239"/>
</filter>
<filter id="filter5_i_1_1239" x="20.25" y="0.251221" width="11.5" height="7.5" filterUnits="userSpaceOnUse" color-interpolation-filters="sRGB">
<feFlood flood-opacity="0" result="BackgroundImageFix"/>
<feBlend mode="normal" in="SourceGraphic" in2="BackgroundImageFix" result="shape"/>
<feColorMatrix in="SourceAlpha" type="matrix" values="0 0 0 0 0 0 0 0 0 0 0 0 0 0 0 0 0 0 127 0" result="hardAlpha"/>
<feOffset dx="-3" dy="-1"/>
<feComposite in2="hardAlpha" operator="arithmetic" k2="-1" k3="1"/>
<feColorMatrix type="matrix" values="0 0 0 0 0.87451 0 0 0 0 0.905882 0 0 0 0 0.984314 0 0 0 1 0"/>
<feBlend mode="normal" in2="shape" result="effect1_innerShadow_1_1239"/>
</filter>
<filter id="filter6_i_1_1239" x="20.25" y="21.25" width="11.5" height="10.5" filterUnits="userSpaceOnUse" color-interpolation-filters="sRGB">
<feFlood flood-opacity="0" result="BackgroundImageFix"/>
<feBlend mode="normal" in="SourceGraphic" in2="BackgroundImageFix" result="shape"/>
<feColorMatrix in="SourceAlpha" type="matrix" values="0 0 0 0 0 0 0 0 0 0 0 0 0 0 0 0 0 0 127 0" result="hardAlpha"/>
<feOffset dx="-3" dy="-1"/>
<feComposite in2="hardAlpha" operator="arithmetic" k2="-1" k3="1"/>
<feColorMatrix type="matrix" values="0 0 0 0 0.87451 0 0 0 0 0.905882 0 0 0 0 0.984314 0 0 0 1 0"/>
<feBlend mode="normal" in2="shape" result="effect1_innerShadow_1_1239"/>
</filter>
<filter id="filter7_i_1_1239" x="20.25" y="18.2512" width="11.5" height="7.5" filterUnits="userSpaceOnUse" color-interpolation-filters="sRGB">
<feFlood flood-opacity="0" result="BackgroundImageFix"/>
<feBlend mode="normal" in="SourceGraphic" in2="BackgroundImageFix" result="shape"/>
<feColorMatrix in="SourceAlpha" type="matrix" values="0 0 0 0 0 0 0 0 0 0 0 0 0 0 0 0 0 0 127 0" result="hardAlpha"/>
<feOffset dx="-3" dy="-1"/>
<feComposite in2="hardAlpha" operator="arithmetic" k2="-1" k3="1"/>
<feColorMatrix type="matrix" values="0 0 0 0 0.87451 0 0 0 0 0.905882 0 0 0 0 0.984314 0 0 0 1 0"/>
<feBlend mode="normal" in2="shape" result="effect1_innerShadow_1_1239"/>
</filter>
<clipPath id="clip0_1_1239">
<rect width="32" height="32" fill="white"/>
</clipPath>
</defs>
</svg>
