<svg xmlns="http://www.w3.org/2000/svg" xmlns:xlink="http://www.w3.org/1999/xlink" width="62" height="62"><defs><circle id="a" cx="31" cy="31" r="31"/></defs><g fill="none" fill-rule="evenodd"><mask id="b" fill="#fff"><use xlink:href="#a"/></mask><use xlink:href="#a" fill="#214497" fill-rule="nonzero"/><g fill-rule="nonzero" mask="url(#b)"><path fill="#4F6EF7" d="M31 51c-11.028 0-20-8.972-20-20s8.972-20 20-20 20 8.972 20 20a.8.8 0 1 1-1.6 0c0-10.146-8.254-18.4-18.4-18.4-10.146 0-18.4 8.254-18.4 18.4 0 10.146 8.254 18.4 18.4 18.4a.8.8 0 1 1 0 1.6Z"/><path fill="#BADEFC" d="m60.764 51.57-9.097-9.098 5.875-5.875a.805.805 0 0 0-.464-1.367l-24.166-3.223a.806.806 0 0 0-.905.905l3.222 24.167a.804.804 0 0 0 1.368.463l5.875-5.875 9.097 9.097a.803.803 0 0 0 1.14 0l8.055-8.056a.805.805 0 0 0 0-1.139Z"/><path fill="#4F6EF7" d="M29.943 42a.778.778 0 0 1-.136-.011A10.53 10.53 0 0 1 21 31.567C21 25.741 25.74 21 31.568 21a10.53 10.53 0 0 1 10.42 8.808.813.813 0 0 1-.667.935.808.808 0 0 1-.936-.667 8.907 8.907 0 0 0-8.817-7.45c-4.93 0-8.942 4.011-8.942 8.941a8.91 8.91 0 0 0 7.45 8.819.814.814 0 0 1-.133 1.614Z"/></g></g></svg>