<svg xmlns="http://www.w3.org/2000/svg" xmlns:xlink="http://www.w3.org/1999/xlink" width="190" height="235"><defs><path id="a" d="M5.338 0h161.324A5.338 5.338 0 0 1 172 5.338v206.324a5.338 5.338 0 0 1-5.338 5.338H5.338A5.338 5.338 0 0 1 0 211.662V5.338A5.338 5.338 0 0 1 5.338 0z"/><path id="c" d="M3.494 5.5v-.66H1.285V3.443h1.889v-.647H1.285V1.542h2.19V.88H.463V5.5h3.031zm1.15 0 .672-1.162.676 1.162h.87L5.786 3.754l1.038-1.688h-.87L5.31 3.18l-.632-1.114h-.87l1.038 1.688L3.771 5.5h.872zm4.052.063c.252 0 .484-.053.695-.161.212-.108.381-.254.508-.438s.194-.387.2-.607h-.746a.571.571 0 0 1-.098.296.603.603 0 0 1-.238.203.74.74 0 0 1-.33.073c-.512 0-.768-.364-.768-1.092v-.108c0-.317.057-.579.171-.784.114-.205.312-.308.594-.308a.626.626 0 0 1 .578.328.77.77 0 0 1 .091.336h.746a1.352 1.352 0 0 0-.187-.676 1.215 1.215 0 0 0-.494-.46 1.555 1.555 0 0 0-.725-.163c-.338 0-.625.077-.86.229-.235.152-.411.36-.528.62a2.118 2.118 0 0 0-.177.878v.108c0 .324.059.616.175.877a1.4 1.4 0 0 0 .528.621c.236.152.525.228.865.228zm2.755-.063V3.043a.777.777 0 0 1 .278-.292.76.76 0 0 1 .401-.104c.203 0 .354.049.453.147.098.099.147.263.147.494V5.5h.79V3.294c0-.861-.373-1.292-1.12-1.292a1.225 1.225 0 0 0-.949.438V.625h-.79V5.5h.79zm3.894.063a1.199 1.199 0 0 0 .899-.384c.025.14.055.247.089.321h.806v-.054c-.087-.184-.13-.433-.13-.746V3.186c0-.256-.057-.473-.17-.65a1.046 1.046 0 0 0-.472-.4 1.704 1.704 0 0 0-.695-.134c-.279 0-.527.05-.744.148a1.23 1.23 0 0 0-.501.39.868.868 0 0 0-.177.52h.79c0-.087.025-.166.074-.236a.49.49 0 0 1 .206-.165.74.74 0 0 1 .308-.06c.195 0 .342.051.441.154.1.103.15.245.15.427v.222h-.477c-.5 0-.885.097-1.157.292-.272.195-.408.475-.408.841 0 .195.05.37.15.527.1.157.238.28.415.368.178.089.38.133.603.133zm.153-.631c-.167 0-.297-.044-.39-.132a.448.448 0 0 1-.14-.341c0-.18.07-.32.212-.419.142-.1.35-.15.626-.15h.412v.642a.825.825 0 0 1-.72.4zm3.085.568V3.056a.776.776 0 0 1 .28-.301.739.739 0 0 1 .396-.108c.203 0 .354.048.452.144.098.096.148.259.148.487V5.5h.79V3.285c0-.451-.095-.777-.284-.98-.19-.202-.459-.303-.808-.303a1.256 1.256 0 0 0-.997.46l-.025-.396h-.743V5.5h.79zm4.177 1.352c.31 0 .585-.057.822-.17.237-.113.42-.279.552-.496.131-.218.197-.48.197-.784V2.066h-.718l-.031.34c-.218-.27-.524-.404-.918-.404-.279 0-.523.073-.731.22a1.394 1.394 0 0 0-.481.615c-.112.265-.168.57-.168.917v.067c0 .332.056.63.17.895.113.265.273.472.48.622a1.2 1.2 0 0 0 .724.225c.366 0 .66-.124.882-.374v.228c0 .26-.073.461-.219.602-.146.14-.348.211-.606.211-.163 0-.318-.034-.466-.103a1.203 1.203 0 0 1-.404-.313l-.368.473c.096.13.218.236.367.32a1.912 1.912 0 0 0 .916.244zm.098-1.936c-.26 0-.456-.102-.587-.305-.131-.203-.197-.466-.197-.79v-.067c0-.21.029-.397.086-.565a.858.858 0 0 1 .263-.396.672.672 0 0 1 .441-.146c.31 0 .535.128.676.384v1.495c-.141.26-.369.39-.682.39zm3.77.647c.316 0 .584-.06.807-.184a1.47 1.47 0 0 0 .52-.46l-.422-.41a1.03 1.03 0 0 1-.857.42.834.834 0 0 1-.765-.432 1.134 1.134 0 0 1-.136-.466h2.237v-.334c0-.336-.054-.632-.163-.887a1.292 1.292 0 0 0-.494-.595c-.22-.142-.492-.213-.815-.213-.297 0-.563.073-.8.22a1.51 1.51 0 0 0-.559.62 2.037 2.037 0 0 0-.203.931v.13c0 .314.067.596.2.848s.325.45.574.595c.25.145.542.217.876.217zm.603-2.104h-1.44c.035-.26.117-.462.244-.606a.636.636 0 0 1 .501-.216c.233 0 .405.072.515.214.11.143.17.326.18.548v.06zM31.113 5.5V3.729h.88l.916 1.771h.883v-.041L32.76 3.535c.269-.114.476-.277.622-.488a1.33 1.33 0 0 0 .22-.775c0-.45-.146-.795-.437-1.034-.291-.24-.703-.36-1.236-.36H30.29V5.5h.822zm.819-2.431h-.819V1.542h.816c.287 0 .501.068.64.203.14.136.21.325.21.568a.721.721 0 0 1-.217.55c-.145.137-.355.206-.63.206zm3.415 2.494a1.199 1.199 0 0 0 .898-.384c.026.14.055.247.089.321h.806v-.054c-.087-.184-.13-.433-.13-.746V3.186c0-.256-.057-.473-.17-.65a1.046 1.046 0 0 0-.471-.4 1.704 1.704 0 0 0-.695-.134c-.28 0-.528.05-.744.148a1.23 1.23 0 0 0-.502.39.868.868 0 0 0-.176.52h.79a.41.41 0 0 1 .073-.236.49.49 0 0 1 .207-.165.74.74 0 0 1 .307-.06c.195 0 .342.051.442.154.099.103.149.245.149.427v.222h-.476c-.5 0-.885.097-1.157.292-.272.195-.408.475-.408.841 0 .195.05.37.15.527.099.157.237.28.415.368.178.089.379.133.603.133zm.152-.631c-.167 0-.297-.044-.39-.132a.448.448 0 0 1-.14-.341c0-.18.071-.32.213-.419.142-.1.35-.15.625-.15h.413v.642a.825.825 0 0 1-.72.4zm3.4.631c.19 0 .361-.025.514-.076v-.61a1.246 1.246 0 0 1-.27.033c-.119 0-.208-.026-.267-.078-.059-.052-.089-.15-.089-.294V2.65h.603v-.584h-.603v-.838h-.79v.838h-.559v.584h.56v1.942c0 .339.08.585.24.74.161.154.381.231.66.231zm2.592 0c.316 0 .584-.06.807-.184a1.47 1.47 0 0 0 .52-.46l-.422-.41a1.03 1.03 0 0 1-.857.42.834.834 0 0 1-.765-.432 1.134 1.134 0 0 1-.136-.466h2.237v-.334c0-.336-.054-.632-.163-.887a1.292 1.292 0 0 0-.494-.595c-.22-.142-.492-.213-.815-.213-.297 0-.563.073-.8.22a1.51 1.51 0 0 0-.559.62 2.037 2.037 0 0 0-.203.931v.13c0 .314.067.596.2.848s.325.45.574.595c.25.145.542.217.876.217zm.603-2.104h-1.44c.036-.26.117-.462.244-.606a.636.636 0 0 1 .501-.216c.233 0 .405.072.515.214.11.143.17.326.18.548v.06z"/><path id="d" d="M2.05 21.063c.332 0 .623-.05.872-.153.248-.103.44-.25.576-.44a1.13 1.13 0 0 0 .203-.673 1.21 1.21 0 0 0-.165-.638 1.412 1.412 0 0 0-.5-.473 3.787 3.787 0 0 0-.862-.355c-.336-.098-.583-.203-.74-.318-.156-.114-.234-.253-.234-.419a.56.56 0 0 1 .208-.452c.138-.115.34-.173.607-.173.284 0 .498.069.643.207a.725.725 0 0 1 .217.552h.82c0-.26-.068-.498-.204-.713a1.413 1.413 0 0 0-.582-.51 1.96 1.96 0 0 0-.884-.19c-.322 0-.607.055-.857.164-.25.109-.444.26-.582.455a1.116 1.116 0 0 0-.208.664c0 .353.132.64.396.86.265.22.64.405 1.127.555.267.08.47.158.608.232a.733.733 0 0 1 .287.24c.053.085.08.192.08.318a.533.533 0 0 1-.213.445c-.142.11-.346.165-.613.165-.3 0-.54-.067-.722-.202-.18-.134-.271-.34-.271-.617H.235c0 .313.086.58.259.803.172.222.397.389.676.5.278.11.571.166.88.166zm3.393 0c.417 0 .738-.134.962-.403l.019.34h.746v-3.434h-.794v2.46c-.129.26-.376.39-.742.39a.532.532 0 0 1-.39-.144c-.098-.097-.147-.257-.147-.481v-2.225h-.79v2.218c0 .438.1.761.301.968.201.208.48.311.835.311zm4.186 0c.284 0 .526-.074.727-.222.201-.148.353-.353.456-.615a2.48 2.48 0 0 0 .154-.908v-.067c0-.347-.051-.651-.153-.914a1.33 1.33 0 0 0-.455-.614 1.215 1.215 0 0 0-.735-.22c-.374 0-.672.13-.892.39v-1.768h-.79V21h.714l.038-.371c.227.29.539.434.936.434zm-.2-.644c-.33 0-.562-.146-.698-.438v-1.403c.134-.287.364-.431.692-.431.27 0 .464.1.58.303.115.202.172.469.172.801v.067c0 .338-.058.607-.174.804-.117.198-.307.297-.572.297zm3.266.644c.19 0 .362-.025.514-.076v-.61a1.246 1.246 0 0 1-.27.033c-.118 0-.207-.026-.266-.078-.06-.052-.089-.15-.089-.294V18.15h.603v-.584h-.603v-.838h-.79v.838h-.559v.584h.559v1.942c0 .339.08.585.241.74.161.154.381.231.66.231zm2.45 0c.328 0 .613-.075.854-.225a1.47 1.47 0 0 0 .554-.622c.128-.264.192-.564.192-.898v-.067c0-.334-.064-.633-.192-.898a1.478 1.478 0 0 0-.555-.624 1.587 1.587 0 0 0-.859-.227c-.326 0-.61.076-.85.227a1.48 1.48 0 0 0-.554.624 2.036 2.036 0 0 0-.192.898v.067c0 .334.064.634.192.898.128.265.313.472.555.622.242.15.528.225.856.225zm0-.634c-.27 0-.473-.104-.609-.311-.135-.208-.203-.474-.203-.8v-.067c0-.207.03-.395.087-.563a.878.878 0 0 1 .268-.402.683.683 0 0 1 .451-.149.7.7 0 0 1 .457.15.872.872 0 0 1 .272.4c.058.17.087.357.087.564v.067c0 .21-.03.398-.087.565a.863.863 0 0 1-.27.398.696.696 0 0 1-.452.148zm3.32.634c.19 0 .362-.025.514-.076v-.61a1.246 1.246 0 0 1-.27.033c-.118 0-.207-.026-.266-.078-.06-.052-.089-.15-.089-.294V18.15h.603v-.584h-.603v-.838h-.79v.838h-.559v.584h.559v1.942c0 .339.08.585.241.74.161.154.381.231.66.231zm2.13 0a1.199 1.199 0 0 0 .898-.384c.026.14.055.247.089.321h.806v-.054c-.087-.184-.13-.433-.13-.746v-1.514c0-.256-.057-.473-.17-.65a1.046 1.046 0 0 0-.471-.4 1.704 1.704 0 0 0-.695-.134c-.28 0-.528.05-.744.148a1.23 1.23 0 0 0-.502.39.868.868 0 0 0-.176.52h.79a.41.41 0 0 1 .073-.236.49.49 0 0 1 .207-.165.74.74 0 0 1 .307-.06c.195 0 .342.051.442.154.1.103.149.245.149.427v.222h-.476c-.5 0-.885.097-1.157.292-.272.195-.408.475-.408.841 0 .195.05.37.15.527.099.157.237.28.415.368.178.089.379.133.603.133zm.152-.631c-.167 0-.297-.044-.39-.132a.448.448 0 0 1-.14-.341c0-.18.071-.32.213-.419.142-.1.35-.15.625-.15h.413v.642a.825.825 0 0 1-.72.4zm3.146.568v-4.875h-.79V21h.79z"/><path id="e" d="M2.384 52v-3.958H3.82v-.663H.143v.663h1.422V52h.819zm2.904.063c.328 0 .612-.075.853-.225a1.47 1.47 0 0 0 .554-.622c.128-.264.192-.564.192-.898v-.067c0-.334-.064-.633-.192-.898a1.478 1.478 0 0 0-.555-.624 1.587 1.587 0 0 0-.859-.227c-.326 0-.61.076-.85.227a1.48 1.48 0 0 0-.554.624 2.036 2.036 0 0 0-.192.898v.067c0 .334.064.634.192.898.128.265.313.472.555.622.243.15.528.225.856.225zm0-.634c-.271 0-.474-.104-.61-.311-.135-.208-.203-.474-.203-.8v-.067c0-.207.03-.395.087-.563a.878.878 0 0 1 .269-.402c.12-.1.27-.149.45-.149.182 0 .335.05.457.15a.872.872 0 0 1 .272.4c.058.17.087.357.087.564v.067c0 .21-.03.398-.087.565a.863.863 0 0 1-.27.398.696.696 0 0 1-.452.148zm3.32.634c.19 0 .361-.025.514-.076v-.61a1.246 1.246 0 0 1-.27.033c-.119 0-.208-.026-.267-.078-.059-.052-.089-.15-.089-.294V49.15H9.1v-.584h-.603v-.838h-.79v.838h-.559v.584h.56v1.942c0 .339.08.585.24.74.161.154.381.231.66.231zm2.13 0a1.199 1.199 0 0 0 .897-.384c.026.14.055.247.09.321h.805v-.054c-.086-.184-.13-.433-.13-.746v-1.514c0-.256-.056-.473-.17-.65a1.046 1.046 0 0 0-.471-.4 1.704 1.704 0 0 0-.695-.134c-.28 0-.527.05-.744.148a1.23 1.23 0 0 0-.502.39.868.868 0 0 0-.176.52h.79a.41.41 0 0 1 .073-.236.49.49 0 0 1 .207-.165.74.74 0 0 1 .308-.06c.194 0 .341.051.44.154.1.103.15.245.15.427v.222h-.476c-.5 0-.885.097-1.157.292-.272.195-.408.475-.408.841 0 .195.05.37.15.527.099.157.237.28.415.368.178.089.379.133.603.133zm.151-.631c-.167 0-.297-.044-.39-.132a.448.448 0 0 1-.14-.341c0-.18.071-.32.213-.419.142-.1.35-.15.625-.15h.413v.642a.825.825 0 0 1-.72.4zm3.146.568v-4.875h-.79V52h.79z"/><path id="f" d="m.914 67.5.368-1.06h1.774l.369 1.06h.86l-1.75-4.621h-.739L.054 67.5h.86zm1.91-1.723H1.512l.657-1.895.657 1.895zm2.69 1.723v-2.482c.127-.247.342-.371.644-.371.2 0 .35.048.452.146.103.097.154.261.154.492V67.5h.79v-2.288l-.002-.073a.718.718 0 0 1 .236-.359.642.642 0 0 1 .414-.133c.201 0 .352.046.452.138.1.092.151.255.151.49V67.5h.79v-2.222c0-.442-.096-.765-.288-.97-.193-.203-.471-.306-.835-.306-.23 0-.435.046-.613.139-.177.092-.324.22-.44.385a.86.86 0 0 0-.372-.395 1.184 1.184 0 0 0-.565-.129c-.212 0-.4.037-.567.11a1.158 1.158 0 0 0-.423.316l-.026-.362h-.742V67.5h.79zm6.322.063c.328 0 .613-.075.854-.225a1.47 1.47 0 0 0 .554-.622c.128-.264.192-.564.192-.898v-.067c0-.334-.064-.633-.192-.898a1.478 1.478 0 0 0-.556-.624 1.587 1.587 0 0 0-.858-.227c-.326 0-.61.076-.85.227a1.48 1.48 0 0 0-.555.624 2.036 2.036 0 0 0-.192.898v.067c0 .334.064.634.192.898.128.265.314.472.556.622.242.15.527.225.855.225zm0-.634c-.27 0-.474-.104-.61-.311-.135-.208-.202-.474-.202-.8v-.067c0-.207.029-.395.087-.563a.878.878 0 0 1 .268-.402.68.68 0 0 1 .45-.149c.183 0 .335.05.458.15a.863.863 0 0 1 .271.4c.058.17.088.357.088.564v.067c0 .21-.03.398-.088.565a.863.863 0 0 1-.27.398.696.696 0 0 1-.452.148zm3.355.634c.417 0 .737-.134.962-.403l.019.34h.746v-3.434h-.794v2.46c-.129.26-.377.39-.743.39a.532.532 0 0 1-.388-.144c-.099-.097-.148-.257-.148-.481v-2.225h-.79v2.218c0 .438.1.761.301.968.201.208.48.311.835.311zm3.279-.063v-2.444a.739.739 0 0 1 .676-.41c.203 0 .353.049.452.145.098.096.147.259.147.487V67.5h.79v-2.215c0-.451-.094-.777-.283-.98-.19-.202-.459-.303-.808-.303a1.256 1.256 0 0 0-.997.46l-.025-.396h-.743V67.5h.79zm3.932.063c.19 0 .362-.025.514-.076v-.61a1.246 1.246 0 0 1-.27.033c-.118 0-.207-.026-.266-.078-.06-.052-.09-.15-.09-.294V64.65h.604v-.584h-.603v-.838h-.79v.838h-.56v.584h.56v1.942c0 .339.08.585.24.74.162.154.382.231.66.231zm3.586-.063v-1.708h.952c.356 0 .66-.057.913-.17.253-.115.445-.28.578-.496a1.45 1.45 0 0 0 .198-.771c0-.286-.067-.54-.2-.764a1.358 1.358 0 0 0-.582-.523 2.026 2.026 0 0 0-.907-.19h-1.774V67.5h.822zm.952-2.368h-.952v-1.59h.952c.195 0 .357.038.486.113a.7.7 0 0 1 .286.298c.061.124.092.26.092.408 0 .24-.07.427-.211.565-.141.138-.358.206-.653.206zm3.333 2.431a1.199 1.199 0 0 0 .898-.384c.026.14.055.247.089.321h.806v-.054c-.087-.184-.13-.433-.13-.746v-1.514c0-.256-.057-.473-.17-.65a1.046 1.046 0 0 0-.471-.4 1.704 1.704 0 0 0-.695-.134c-.28 0-.528.05-.744.148a1.23 1.23 0 0 0-.502.39.868.868 0 0 0-.176.52h.79a.41.41 0 0 1 .073-.236.49.49 0 0 1 .207-.165.74.74 0 0 1 .307-.06c.195 0 .342.051.442.154.1.103.149.245.149.427v.222h-.476c-.5 0-.885.097-1.157.292-.272.195-.408.475-.408.841 0 .195.05.37.15.527.099.157.237.28.415.368.178.089.379.133.603.133zm.152-.631c-.167 0-.297-.044-.39-.132a.448.448 0 0 1-.14-.341c0-.18.071-.32.213-.419.142-.1.35-.15.625-.15h.413v.642a.825.825 0 0 1-.72.4zm2.752-3.342c.138 0 .247-.04.327-.118a.399.399 0 0 0 .12-.298.408.408 0 0 0-.12-.303.445.445 0 0 0-.327-.119.445.445 0 0 0-.327.119c-.08.08-.12.18-.12.303s.04.223.12.3c.08.077.19.116.327.116zm.394 3.91v-3.434h-.79V67.5h.79zm2.034.063c.383 0 .689-.14.917-.422l.038.359h.714v-4.875h-.79v1.755c-.222-.252-.513-.378-.873-.378-.277 0-.518.073-.722.22a1.38 1.38 0 0 0-.47.615c-.108.265-.163.57-.163.917v.067c0 .332.055.63.165.895.11.265.267.472.471.622.205.15.442.225.713.225zm.2-.647c-.258 0-.45-.101-.573-.303-.124-.202-.186-.466-.186-.792v-.067c0-.328.063-.594.19-.8.125-.205.317-.307.575-.307.311 0 .536.134.673.403v1.453a.708.708 0 0 1-.679.413z"/><path id="g" d="M1.285 36.5v-3.25L3.32 36.5h.822v-4.621h-.816v3.256l-2.04-3.256H.462V36.5h.822zm5.24.063c.316 0 .584-.06.807-.184a1.47 1.47 0 0 0 .52-.46l-.422-.41a1.03 1.03 0 0 1-.857.42.834.834 0 0 1-.765-.432 1.134 1.134 0 0 1-.136-.466h2.237v-.334c0-.336-.054-.632-.163-.887a1.292 1.292 0 0 0-.494-.595c-.22-.142-.492-.213-.815-.213-.297 0-.563.073-.8.22a1.51 1.51 0 0 0-.559.62 2.037 2.037 0 0 0-.203.931v.13c0 .314.067.596.2.848s.325.45.574.595c.25.145.542.217.876.217zm.603-2.104h-1.44c.035-.26.117-.462.244-.606a.636.636 0 0 1 .501-.216c.233 0 .404.072.515.214.11.143.17.326.18.548v.06zm2.463 2.104c.19 0 .362-.025.514-.076v-.61a1.246 1.246 0 0 1-.27.033c-.118 0-.207-.026-.266-.078-.06-.052-.089-.15-.089-.294V33.65h.603v-.584H9.48v-.838h-.79v.838h-.56v.584h.559v1.942c0 .339.08.585.241.74.161.154.381.231.66.231zm2.368-.063.714-2.33.727 2.33h.65l.93-3.434h-.768l-.536 2.349-.701-2.35h-.59l-.696 2.321-.543-2.32h-.768l.93 3.434h.651zm4.99.063c.327 0 .612-.075.853-.225a1.47 1.47 0 0 0 .554-.622c.128-.264.192-.564.192-.898v-.067c0-.334-.064-.633-.192-.898a1.478 1.478 0 0 0-.556-.624 1.587 1.587 0 0 0-.858-.227c-.326 0-.61.076-.85.227a1.48 1.48 0 0 0-.555.624 2.036 2.036 0 0 0-.192.898v.067c0 .334.064.634.192.898.128.265.314.472.556.622.242.15.527.225.855.225zm0-.634c-.272 0-.475-.104-.61-.311-.136-.208-.203-.474-.203-.8v-.067c0-.207.029-.395.087-.563a.878.878 0 0 1 .268-.402.68.68 0 0 1 .45-.149c.183 0 .335.05.458.15a.863.863 0 0 1 .271.4c.058.17.088.357.088.564v.067c0 .21-.03.398-.088.565a.863.863 0 0 1-.27.398.696.696 0 0 1-.452.148zm3.027.571v-2.34c.12-.264.358-.396.711-.396.104 0 .208.009.314.026l.007-.746a1.02 1.02 0 0 0-.276-.041.848.848 0 0 0-.448.117.96.96 0 0 0-.324.333l-.022-.387h-.752V36.5h.79zm2.298 0v-1.114l.346-.352 1 1.466h.914l-1.406-2.006 1.272-1.428h-.952l-.94 1.063-.234.292v-2.796h-.787V36.5h.787zm6.027.063c.368 0 .683-.066.946-.2a1.48 1.48 0 0 0 .61-.555c.146-.237.232-.51.26-.819h-.82a1.434 1.434 0 0 1-.144.503.7.7 0 0 1-.314.302 1.212 1.212 0 0 1-.538.103c-.358 0-.62-.133-.789-.4-.168-.267-.252-.641-.252-1.123v-.372c0-.49.09-.867.271-1.128.181-.261.448-.392.802-.392.315 0 .546.078.693.233.147.156.239.388.275.697h.819a2 2 0 0 0-.262-.833 1.48 1.48 0 0 0-.598-.562c-.257-.134-.565-.202-.927-.202-.383 0-.718.09-1.005.27-.286.18-.508.435-.663.765-.156.33-.233.716-.233 1.159v.365c0 .442.076.828.228 1.158.152.33.37.584.65.763a1.8 1.8 0 0 0 .991.268zm3.91 0c.328 0 .613-.075.854-.225a1.47 1.47 0 0 0 .554-.622c.128-.264.192-.564.192-.898v-.067c0-.334-.064-.633-.192-.898a1.478 1.478 0 0 0-.556-.624 1.587 1.587 0 0 0-.858-.227c-.326 0-.61.076-.85.227a1.48 1.48 0 0 0-.555.624 2.036 2.036 0 0 0-.192.898v.067c0 .334.064.634.192.898.128.265.314.472.556.622.242.15.527.225.855.225zm0-.634c-.27 0-.474-.104-.61-.311-.135-.208-.202-.474-.202-.8v-.067c0-.207.029-.395.087-.563a.878.878 0 0 1 .268-.402.68.68 0 0 1 .45-.149c.183 0 .335.05.458.15a.863.863 0 0 1 .271.4c.058.17.088.357.088.564v.067c0 .21-.03.398-.088.565a.863.863 0 0 1-.27.398.696.696 0 0 1-.452.148zm3.533.634a1.9 1.9 0 0 0 .733-.131c.211-.088.375-.211.49-.37a.895.895 0 0 0 .173-.54.835.835 0 0 0-.149-.507 1.065 1.065 0 0 0-.425-.33 3.35 3.35 0 0 0-.695-.216 2.477 2.477 0 0 1-.423-.12.522.522 0 0 1-.214-.144.305.305 0 0 1-.062-.193.38.38 0 0 1 .146-.302c.098-.08.236-.12.416-.12a.69.69 0 0 1 .324.07.488.488 0 0 1 .27.438h.79a.978.978 0 0 0-.168-.56 1.128 1.128 0 0 0-.481-.393 1.754 1.754 0 0 0-.735-.143 1.64 1.64 0 0 0-.7.142 1.121 1.121 0 0 0-.466.38.908.908 0 0 0-.164.523c0 .275.107.493.32.653.215.161.518.283.912.365.197.04.348.085.455.134.107.048.18.101.218.158a.363.363 0 0 1 .057.207.35.35 0 0 1-.16.3c-.107.075-.257.112-.45.112a.848.848 0 0 1-.487-.136c-.134-.091-.206-.233-.214-.425h-.765c0 .194.057.38.171.555.115.176.282.318.502.428.22.11.48.165.78.165zm3.154 0c.19 0 .362-.025.515-.076v-.61a1.246 1.246 0 0 1-.27.033c-.119 0-.208-.026-.267-.078-.059-.052-.089-.15-.089-.294V33.65h.603v-.584h-.603v-.838h-.79v.838h-.559v.584h.56v1.942c0 .339.08.585.24.74.161.154.381.231.66.231z"/><path id="h" d="M3.09 23.088c.51 0 .947-.092 1.31-.277a2.06 2.06 0 0 0 .846-.769c.201-.328.32-.706.358-1.134H4.471a2.002 2.002 0 0 1-.2.697.968.968 0 0 1-.435.417c-.192.095-.44.143-.745.143-.495 0-.86-.185-1.092-.554-.233-.369-.35-.887-.35-1.555v-.514c0-.68.126-1.2.376-1.563.25-.362.62-.542 1.11-.542.436 0 .756.107.96.323.204.215.33.536.38.964H5.61a2.77 2.77 0 0 0-.363-1.153 2.05 2.05 0 0 0-.828-.778c-.355-.186-.782-.28-1.283-.28-.53 0-.994.125-1.391.374a2.445 2.445 0 0 0-.919 1.06c-.215.456-.323.991-.323 1.603v.506c0 .612.106 1.147.317 1.604.21.457.511.809.9 1.057.39.247.847.37 1.372.37zm5.415 0c.454 0 .848-.104 1.182-.312.334-.208.59-.495.767-.861.177-.367.266-.781.266-1.244v-.092c0-.463-.089-.878-.266-1.244a2.046 2.046 0 0 0-.77-.864c-.335-.209-.73-.314-1.188-.314-.451 0-.844.105-1.178.314a2.05 2.05 0 0 0-.766.864c-.178.366-.266.78-.266 1.244v.092c0 .463.088.877.266 1.244.177.366.433.653.769.86.335.209.73.313 1.184.313zm0-.879c-.375 0-.656-.144-.844-.43-.187-.288-.281-.657-.281-1.108v-.092c0-.287.04-.548.12-.78.081-.233.205-.419.372-.556a.948.948 0 0 1 .624-.207c.252 0 .463.069.633.207a1.2 1.2 0 0 1 .376.556c.08.232.12.493.12.78v.092c0 .29-.04.55-.12.782a1.19 1.19 0 0 1-.374.552.964.964 0 0 1-.626.204zm4.192.791v-3.437c.176-.342.473-.514.892-.514.276 0 .484.068.627.202.142.135.213.362.213.682V23h1.094v-3.168l-.004-.102a.994.994 0 0 1 .327-.496.889.889 0 0 1 .573-.185c.279 0 .487.064.627.191.139.128.208.354.208.68V23h1.095v-3.076c0-.612-.134-1.06-.4-1.343-.267-.282-.652-.424-1.156-.424-.32 0-.602.064-.848.191-.246.128-.45.306-.611.534a1.19 1.19 0 0 0-.514-.547 1.64 1.64 0 0 0-.782-.178c-.293 0-.555.05-.785.152-.23.1-.425.247-.586.437l-.036-.5h-1.028V23h1.094zm7.827 1.828v-2.254c.316.343.73.514 1.24.514.386 0 .718-.104.997-.312.278-.208.49-.495.635-.861.145-.367.217-.783.217-1.248v-.093c0-.486-.071-.91-.215-1.274a1.828 1.828 0 0 0-.635-.844c-.28-.2-.617-.299-1.013-.299-.527 0-.95.19-1.27.567l-.044-.479H19.43v6.583h1.094zm.932-2.619c-.431 0-.742-.18-.932-.54V19.58c.187-.354.495-.532.923-.532.36 0 .629.142.806.424.177.283.266.65.266 1.101v.093c0 .454-.088.824-.264 1.111-.175.287-.442.431-.8.431zM25.66 23v-6.75h-1.094V23h1.094zm3.252.088c.437 0 .809-.085 1.116-.255.308-.17.548-.382.721-.637l-.584-.567c-.3.387-.695.58-1.187.58-.24 0-.45-.053-.63-.158a1.154 1.154 0 0 1-.43-.44 1.57 1.57 0 0 1-.188-.646h3.098v-.461c0-.466-.075-.875-.226-1.228a1.79 1.79 0 0 0-.684-.824c-.304-.197-.68-.295-1.129-.295-.41 0-.78.101-1.107.303a2.09 2.09 0 0 0-.774.86c-.187.37-.281.8-.281 1.29v.18c0 .433.092.824.277 1.173.184.349.45.623.795.824.346.2.75.3 1.213.3zm.835-2.914h-1.995c.05-.36.163-.64.338-.839a.881.881 0 0 1 .695-.299c.322 0 .56.099.712.297.152.198.235.45.25.758v.083zm3.41 2.914c.264 0 .501-.035.712-.106v-.843a1.742 1.742 0 0 1-.373.044c-.164 0-.288-.036-.37-.108-.082-.072-.123-.207-.123-.407v-2.614h.835v-.809h-.835v-1.16H31.91v1.16h-.773v.809h.773v2.69c0 .468.111.81.334 1.023.223.214.527.32.914.32zm3.59 0c.437 0 .81-.085 1.117-.255.307-.17.548-.382.72-.637L38 21.629c-.299.387-.694.58-1.187.58-.24 0-.45-.053-.63-.158a1.154 1.154 0 0 1-.429-.44 1.57 1.57 0 0 1-.189-.646h3.099v-.461a3.1 3.1 0 0 0-.227-1.228 1.79 1.79 0 0 0-.683-.824c-.305-.197-.681-.295-1.13-.295-.41 0-.779.101-1.107.303a2.09 2.09 0 0 0-.773.86c-.188.37-.282.8-.282 1.29v.18c0 .433.093.824.277 1.173.185.349.45.623.796.824.345.2.75.3 1.213.3zm.835-2.914h-1.995c.05-.36.163-.64.339-.839a.881.881 0 0 1 .694-.299c.322 0 .56.099.712.297.152.198.236.45.25.758v.083z"/><path id="i" d="M2.022 35.813c.472 0 .832-.158 1.08-.474.25-.316.374-.836.374-1.56v-.708c0-.72-.125-1.233-.375-1.542-.25-.31-.611-.464-1.085-.464-.472 0-.833.155-1.084.464-.25.309-.376.823-.376 1.542v.708c0 .722.127 1.241.38 1.558.255.318.616.476 1.086.476zm0-.476a.721.721 0 0 1-.65-.353c-.149-.236-.223-.607-.223-1.113v-.898c0-.506.073-.87.218-1.095.145-.224.361-.336.649-.336.292 0 .51.111.652.334.143.224.214.59.214 1.097v.898c0 .51-.07.882-.212 1.116-.142.233-.358.35-.648.35zm2.644.448a.37.37 0 0 0 .271-.095.332.332 0 0 0 .097-.248.352.352 0 0 0-.097-.255.36.36 0 0 0-.271-.1.356.356 0 0 0-.268.1.352.352 0 0 0-.097.255c0 .1.032.182.097.246a.362.362 0 0 0 .268.097zm2.726.028c.472 0 .832-.158 1.08-.474.25-.316.374-.836.374-1.56v-.708c0-.72-.125-1.233-.375-1.542-.25-.31-.611-.464-1.085-.464-.472 0-.833.155-1.084.464-.25.309-.376.823-.376 1.542v.708c0 .722.127 1.241.38 1.558.255.318.616.476 1.086.476zm0-.476a.721.721 0 0 1-.65-.353c-.149-.236-.223-.607-.223-1.113v-.898c0-.506.073-.87.218-1.095.145-.224.361-.336.649-.336.292 0 .51.111.652.334.143.224.214.59.214 1.097v.898c0 .51-.07.882-.212 1.116-.142.233-.358.35-.648.35zm3.653.476c.472 0 .832-.158 1.081-.474.249-.316.373-.836.373-1.56v-.708c0-.72-.125-1.233-.375-1.542-.25-.31-.611-.464-1.085-.464-.472 0-.833.155-1.084.464-.25.309-.376.823-.376 1.542v.708c0 .722.127 1.241.38 1.558.255.318.617.476 1.086.476zm0-.476a.721.721 0 0 1-.65-.353c-.148-.236-.223-.607-.223-1.113v-.898c0-.506.073-.87.218-1.095.145-.224.361-.336.649-.336.292 0 .51.111.652.334.143.224.214.59.214 1.097v.898c0 .51-.07.882-.212 1.116-.142.233-.358.35-.648.35zm3.653.476c.472 0 .832-.158 1.081-.474.249-.316.373-.836.373-1.56v-.708c0-.72-.125-1.233-.375-1.542-.25-.31-.611-.464-1.085-.464-.472 0-.833.155-1.084.464-.25.309-.376.823-.376 1.542v.708c0 .722.127 1.241.38 1.558.255.318.617.476 1.086.476zm0-.476a.721.721 0 0 1-.65-.353c-.148-.236-.222-.607-.222-1.113v-.898c0-.506.072-.87.217-1.095.145-.224.361-.336.649-.336.292 0 .51.111.652.334.143.224.214.59.214 1.097v.898c0 .51-.07.882-.212 1.116-.142.233-.358.35-.648.35zm3.653.476c.472 0 .833-.158 1.081-.474.249-.316.373-.836.373-1.56v-.708c0-.72-.125-1.233-.374-1.542-.25-.31-.612-.464-1.086-.464-.472 0-.833.155-1.084.464-.25.309-.376.823-.376 1.542v.708c0 .722.127 1.241.381 1.558.254.318.616.476 1.085.476zm0-.476a.721.721 0 0 1-.65-.353c-.148-.236-.222-.607-.222-1.113v-.898c0-.506.072-.87.217-1.095.145-.224.361-.336.65-.336.291 0 .508.111.651.334.143.224.215.59.215 1.097v.898c0 .51-.071.882-.213 1.116-.142.233-.358.35-.648.35zm5.237.413v-.476h-2.317l1.238-1.349c.267-.29.478-.57.633-.84a1.57 1.57 0 0 0 .234-.785 1.23 1.23 0 0 0-.169-.647 1.125 1.125 0 0 0-.482-.434 1.671 1.671 0 0 0-.743-.154c-.32 0-.593.063-.822.19a1.264 1.264 0 0 0-.517.512 1.493 1.493 0 0 0-.175.72h.594c0-.287.078-.517.235-.688.156-.172.385-.257.685-.257.165 0 .308.036.429.109.12.073.212.172.276.298a.92.92 0 0 1 .095.42c0 .126-.02.246-.062.361a1.649 1.649 0 0 1-.214.387 6.254 6.254 0 0 1-.435.529l-1.514 1.685v.419h3.031zm1.267.006c.598 0 1.06-.125 1.383-.376.324-.25.541-.565.651-.944.11-.379.165-.807.165-1.285v-.22a2.66 2.66 0 0 0-.154-.92 1.51 1.51 0 0 0-.485-.684c-.222-.174-.5-.262-.837-.262-.304 0-.565.07-.78.211-.216.141-.38.333-.49.575-.11.242-.164.513-.164.81 0 .265.048.515.144.75.096.235.244.426.443.573.199.147.443.22.733.22a1.2 1.2 0 0 0 .55-.13c.17-.087.32-.205.447-.355-.02.467-.146.841-.38 1.122-.234.28-.642.42-1.226.42h-.06v.495h.06zm.704-2.034a.702.702 0 0 1-.458-.154.93.93 0 0 1-.283-.403 1.508 1.508 0 0 1-.094-.535c0-.207.034-.393.102-.557a.873.873 0 0 1 .295-.386.76.76 0 0 1 .898.015c.136.102.244.253.324.45.08.198.12.433.12.703v.232a1.1 1.1 0 0 1-.366.456.894.894 0 0 1-.538.179zm5.688 2.028c.309 0 .578-.051.807-.154.23-.103.407-.254.532-.454.125-.2.187-.441.187-.725 0-.267-.07-.5-.212-.7a1.023 1.023 0 0 0-.597-.401 1.16 1.16 0 0 0 .506-.388.941.941 0 0 0 .183-.568c0-.419-.13-.729-.39-.93-.26-.2-.633-.301-1.118-.301h-1.517v4.621h1.619zm-.086-2.65h-.917v-1.473h.901c.303 0 .527.058.673.175.146.116.219.3.219.552a.717.717 0 0 1-.11.4.697.697 0 0 1-.307.257c-.133.06-.285.089-.459.089zm.086 2.155h-1.003v-1.67h1.031c.3 0 .523.073.667.22.144.145.216.352.216.618 0 .256-.08.459-.242.608-.16.15-.384.224-.67.224zm4.056.495v-4.123h1.482v-.498h-3.57v.498h1.478v4.123h.61zm3.815.063c.36 0 .665-.065.915-.195.251-.13.445-.31.583-.54.137-.229.223-.494.257-.794h-.616c-.038.23-.097.42-.176.571a.798.798 0 0 1-.352.344c-.156.08-.36.12-.611.12-.263 0-.483-.073-.66-.216a1.278 1.278 0 0 1-.397-.588 2.534 2.534 0 0 1-.13-.84V33.2c0-.33.047-.617.141-.863.094-.245.234-.436.42-.571.187-.136.414-.203.683-.203.338 0 .591.088.758.265.168.176.276.437.324.782h.616a1.98 1.98 0 0 0-.252-.814 1.407 1.407 0 0 0-.57-.54 1.86 1.86 0 0 0-.876-.192 1.82 1.82 0 0 0-.987.265 1.722 1.722 0 0 0-.65.751c-.15.324-.226.7-.226 1.127v.466c0 .426.075.8.225 1.124.15.324.362.574.635.75.273.177.588.265.946.265z"/><filter id="b" width="115.7%" height="112.4%" x="-7.8%" y="-6.2%" filterUnits="objectBoundingBox"><feMorphology in="SourceAlpha" operator="dilate" radius="1" result="shadowSpreadOuter1"/><feOffset in="shadowSpreadOuter1" result="shadowOffsetOuter1"/><feGaussianBlur in="shadowOffsetOuter1" result="shadowBlurOuter1" stdDeviation="3.5"/><feColorMatrix in="shadowBlurOuter1" values="0 0 0 0 0 0 0 0 0 0 0 0 0 0 0 0 0 0 0.05 0"/></filter></defs><g fill="none" fill-rule="evenodd"><g transform="translate(9 9)"><use xlink:href="#a" fill="#000" filter="url(#b)"/><use xlink:href="#a" fill="#FFF"/></g><path fill="#EBEDF8" d="M9 128.25h172v1H9z"/><g fill-rule="nonzero"><g transform="translate(25 143)"><use xlink:href="#c" fill="#979AA1"/><use xlink:href="#c" fill="#9BA3AE"/></g><g transform="translate(25 143)"><use xlink:href="#d" fill="#979AA1"/><use xlink:href="#d" fill="#9BA3AE"/></g><g transform="translate(25 143)"><use xlink:href="#e" fill="#979AA1"/><use xlink:href="#e" fill="#9BA3AE"/></g><g transform="translate(25 143)"><use xlink:href="#f" fill="#979AA1"/><use xlink:href="#f" fill="#9BA3AE"/></g><g transform="translate(25 143)"><use xlink:href="#g" fill="#979AA1"/><use xlink:href="#g" fill="#9BA3AE"/></g></g><g fill-rule="nonzero" transform="translate(75.5 26.75)"><use xlink:href="#h" fill="#303133"/><use xlink:href="#h" fill="#2FCFA4"/></g><path fill="#2FCFA4" fill-rule="nonzero" d="M99.92 31.75a5.005 5.005 0 0 1-3.136 4.652 4.895 4.895 0 0 1-1.824.348h-.127a4.923 4.923 0 0 1-2.132-.547 5.005 5.005 0 0 1-2.66-4.361 5.007 5.007 0 0 1 2.54-4.433 4.927 4.927 0 0 1 5.076.141 5.006 5.006 0 0 1 2.263 4.2z"/><path stroke="#FFF" stroke-linecap="round" stroke-linejoin="round" d="m96.892 30.614-2.237 2.533-1.4-1.124"/><path fill="#303133" fill-rule="nonzero" d="M64.595 97.32v-1.904c1.191-.13 2.127-.532 2.807-1.206.68-.674 1.02-1.574 1.02-2.7 0-.781-.159-1.444-.478-1.988-.319-.543-.771-1-1.357-1.372-.586-.37-1.338-.722-2.256-1.054-.599-.222-1.068-.441-1.406-.66-.339-.218-.581-.458-.728-.722-.146-.264-.22-.581-.22-.952 0-.593.163-1.063.489-1.411.325-.349.814-.523 1.465-.523.631 0 1.124.231 1.48.693.354.463.531 1.1.531 1.915h2.432c0-1.303-.316-2.347-.947-3.135-.632-.788-1.507-1.26-2.627-1.416v-2.149h-1.563v2.13c-.742.084-1.39.295-1.943.634a3.52 3.52 0 0 0-1.284 1.348c-.303.56-.454 1.2-.454 1.923 0 .788.164 1.456.493 2.002a4.14 4.14 0 0 0 1.382 1.377c.592.371 1.344.713 2.256 1.026.84.293 1.435.62 1.787.981.351.362.527.819.527 1.372 0 .593-.194 1.061-.581 1.407-.387.345-.936.517-1.646.517-.657 0-1.21-.197-1.66-.59-.449-.395-.674-1.047-.674-1.959h-2.43c0 .97.184 1.78.552 2.427.367.648.854 1.138 1.46 1.47a5.31 5.31 0 0 0 2.021.615v1.904h1.553zm12.363-2.07V80.982h-.303l-5.595 2.051v2.031l3.466-1.162V95.25h2.432zm9.287.195c.918 0 1.742-.164 2.47-.493a3.954 3.954 0 0 0 1.72-1.44c.416-.632.625-1.38.625-2.246 0-.762-.196-1.436-.586-2.022-.391-.586-.993-1.019-1.807-1.299.697-.312 1.234-.752 1.611-1.318.378-.566.567-1.15.567-1.748 0-.872-.19-1.611-.572-2.217a3.541 3.541 0 0 0-1.606-1.367c-.69-.306-1.497-.46-2.422-.46-.86 0-1.636.169-2.329.504-.693.335-1.235.799-1.626 1.391a3.556 3.556 0 0 0-.586 2.002h2.432c0-.39.093-.732.278-1.025a1.85 1.85 0 0 1 .767-.679c.325-.16.693-.239 1.103-.239.703 0 1.234.182 1.592.547.358.365.537.879.537 1.543 0 .657-.202 1.182-.605 1.572-.404.39-.993.586-1.768.586h-1.416v1.914h1.416c.82 0 1.457.189 1.91.567.452.377.678.957.678 1.738 0 .71-.207 1.26-.62 1.65-.414.39-.988.586-1.724.586-.456 0-.856-.086-1.201-.259a1.899 1.899 0 0 1-.8-.732 2.062 2.062 0 0 1-.284-1.08h-2.432c0 .854.214 1.583.64 2.188a3.978 3.978 0 0 0 1.709 1.372 5.79 5.79 0 0 0 2.33.464zm11.885 0c.95 0 1.776-.211 2.475-.634a4.195 4.195 0 0 0 1.607-1.744c.371-.739.557-1.567.557-2.485 0-.86-.15-1.65-.45-2.373a3.935 3.935 0 0 0-1.367-1.738c-.612-.436-1.36-.655-2.246-.655-.586 0-1.126.101-1.621.303a3.57 3.57 0 0 0-1.28.879c.092-.788.318-1.483.68-2.085.36-.602.877-1.079 1.547-1.43.67-.352 1.494-.528 2.47-.528h.167v-2.002h-.293c-1.621 0-2.959.355-4.014 1.065a6.184 6.184 0 0 0-2.314 2.856c-.488 1.195-.733 2.54-.733 4.038v.947c0 1.016.19 1.949.572 2.798a4.79 4.79 0 0 0 1.665 2.031c.729.505 1.588.757 2.578.757zm-.03-1.963c-.436 0-.831-.13-1.186-.39s-.636-.646-.845-1.157c-.208-.511-.312-1.128-.312-1.851v-.752c.182-.45.485-.82.908-1.113.423-.293.898-.44 1.426-.44.475 0 .884.127 1.225.381.342.254.601.597.777 1.03.176.433.263.917.263 1.45 0 .554-.09 1.046-.273 1.475-.182.43-.443.765-.781 1.006-.339.241-.74.361-1.201.361zm8.204 1.885c.43 0 .771-.125 1.025-.376.254-.25.381-.568.381-.952 0-.39-.127-.713-.38-.967-.255-.254-.597-.38-1.026-.38-.436 0-.782.126-1.035.38-.254.254-.381.576-.381.967 0 .384.127.702.38.952.254.25.6.376 1.036.376zm10.43-.117V80.982h-.303l-5.596 2.051v2.031l3.467-1.162V95.25h2.431zm14.492 0v-1.953h-6.543l3.086-3.3c.95-.997 1.673-1.91 2.168-2.74.494-.83.742-1.662.742-2.495 0-.801-.176-1.496-.528-2.085-.351-.59-.862-1.044-1.533-1.363-.67-.319-1.478-.478-2.422-.478-.996 0-1.858.202-2.588.605a4.182 4.182 0 0 0-1.67 1.641 4.638 4.638 0 0 0-.576 2.295h2.432c0-.781.203-1.408.61-1.88s.995-.708 1.763-.708c.651 0 1.16.205 1.528.615.368.41.552.948.552 1.612 0 .325-.06.65-.18.976-.121.326-.324.692-.61 1.099-.287.407-.685.893-1.192 1.46l-4.63 5.02v1.679h9.59z"/><g fill-rule="nonzero"><g transform="translate(122.835 143.5)"><use xlink:href="#i" fill="#979AA1"/><use xlink:href="#i" fill="#565D6E"/></g><path fill="#565D6F" d="M124.301 164.063c.472 0 .832-.158 1.081-.474.249-.316.373-.836.373-1.56v-.708c0-.72-.125-1.233-.375-1.542-.25-.31-.611-.464-1.085-.464-.472 0-.833.155-1.084.464-.25.309-.376.823-.376 1.542v.708c0 .722.127 1.241.38 1.558.255.318.617.476 1.086.476zm0-.476a.721.721 0 0 1-.65-.353c-.148-.236-.222-.607-.222-1.113v-.898c0-.506.072-.87.217-1.095.145-.224.361-.336.649-.336.292 0 .51.111.652.334.143.224.214.59.214 1.097v.898c0 .51-.07.882-.212 1.116-.142.233-.358.35-.648.35zm2.644.448a.37.37 0 0 0 .272-.095.332.332 0 0 0 .096-.248.352.352 0 0 0-.096-.255.36.36 0 0 0-.272-.1.356.356 0 0 0-.268.1.352.352 0 0 0-.097.255c0 .1.032.182.097.246a.362.362 0 0 0 .268.097zm2.727.028c.471 0 .832-.158 1.08-.474.249-.316.373-.836.373-1.56v-.708c0-.72-.125-1.233-.374-1.542-.25-.31-.612-.464-1.086-.464-.472 0-.833.155-1.084.464-.25.309-.376.823-.376 1.542v.708c0 .722.127 1.241.381 1.558.254.318.616.476 1.086.476zm0-.476a.721.721 0 0 1-.651-.353c-.148-.236-.222-.607-.222-1.113v-.898c0-.506.072-.87.217-1.095.145-.224.361-.336.65-.336.291 0 .509.111.651.334.143.224.215.59.215 1.097v.898c0 .51-.071.882-.213 1.116-.142.233-.358.35-.647.35zm4.138.413v-4.646h-.092l-1.682.631v.53l1.18-.435V164h.594zm3.104.063c.28 0 .53-.053.75-.16.222-.107.396-.262.523-.465s.19-.445.19-.727a1.2 1.2 0 0 0-.185-.655c-.124-.196-.328-.339-.611-.43a1.21 1.21 0 0 0 .404-.27 1.14 1.14 0 0 0 .243-.362.985.985 0 0 0 .08-.374c0-.28-.058-.517-.173-.713a1.099 1.099 0 0 0-.488-.442 1.7 1.7 0 0 0-.736-.15c-.28 0-.527.057-.743.169a1.254 1.254 0 0 0-.503.46c-.12.195-.179.41-.179.644h.593c0-.16.035-.3.105-.42a.717.717 0 0 1 .292-.278.922.922 0 0 1 .435-.098c.267 0 .467.069.601.207.135.139.202.342.202.608a.828.828 0 0 1-.102.413.692.692 0 0 1-.306.282 1.117 1.117 0 0 1-.5.102h-.419v.476h.42c.306 0 .546.07.718.21.173.142.259.353.259.634 0 .284-.077.498-.23.644-.154.146-.367.22-.64.22a1.01 1.01 0 0 1-.463-.1.716.716 0 0 1-.303-.285.835.835 0 0 1-.107-.425h-.593c0 .267.065.497.195.69.13.194.306.342.529.443.222.102.47.152.742.152zm3.717 0c.472 0 .832-.158 1.08-.474.249-.316.373-.836.373-1.56v-.708c0-.72-.124-1.233-.374-1.542-.25-.31-.612-.464-1.086-.464-.471 0-.833.155-1.083.464-.251.309-.377.823-.377 1.542v.708c0 .722.127 1.241.381 1.558.254.318.616.476 1.086.476zm0-.476a.721.721 0 0 1-.65-.353c-.149-.236-.223-.607-.223-1.113v-.898c0-.506.072-.87.217-1.095.145-.224.362-.336.65-.336.291 0 .509.111.652.334.142.224.214.59.214 1.097v.898c0 .51-.071.882-.213 1.116-.142.233-.357.35-.647.35zm3.281.413 1.914-4.294v-.327H142.7v.476h2.498L143.29 164h.622zm4.126.063c.32 0 .59-.065.808-.195.22-.13.383-.31.492-.542.11-.232.164-.498.164-.799 0-.313-.056-.586-.167-.819a1.237 1.237 0 0 0-.476-.537 1.377 1.377 0 0 0-.732-.19 1.527 1.527 0 0 0-.768.2l.137-1.266h1.87v-.536h-2.372l-.235 2.3.476.122c.083-.072.155-.128.216-.169a.738.738 0 0 1 .22-.093c.087-.023.192-.034.317-.034a.9.9 0 0 1 .496.134.848.848 0 0 1 .316.366c.072.156.108.332.108.529 0 .216-.034.402-.103.56a.813.813 0 0 1-.298.365.832.832 0 0 1-.469.128c-.25 0-.45-.068-.601-.204-.151-.137-.245-.336-.28-.599h-.563c.026.28.105.515.237.707.132.191.302.334.51.43.21.095.441.142.697.142zm5.488-.063c.309 0 .578-.051.808-.154.23-.103.407-.254.531-.454.125-.2.188-.441.188-.725 0-.267-.071-.5-.213-.7a1.02 1.02 0 0 0-.597-.401 1.17 1.17 0 0 0 .507-.388.941.941 0 0 0 .182-.568c0-.419-.13-.729-.39-.93-.26-.2-.633-.301-1.118-.301h-1.517V164h1.619zm-.086-2.65h-.917v-1.473h.901c.303 0 .527.058.673.175.146.116.22.3.22.552a.717.717 0 0 1-.11.4.697.697 0 0 1-.308.257 1.1 1.1 0 0 1-.459.089zm.086 2.155h-1.003v-1.67h1.032c.3 0 .522.073.666.22.144.145.216.352.216.618 0 .256-.08.459-.241.608-.161.15-.384.224-.67.224zm4.142.495v-4.123h1.482v-.498h-3.57v.498h1.478V164h.61zm3.815.063c.36 0 .665-.065.915-.195.251-.13.445-.31.583-.54.137-.229.223-.494.257-.794h-.616c-.038.23-.097.42-.176.571a.798.798 0 0 1-.352.344c-.156.08-.36.12-.611.12-.263 0-.483-.073-.66-.216a1.278 1.278 0 0 1-.397-.588 2.534 2.534 0 0 1-.13-.84v-.474c0-.33.047-.617.141-.863.094-.245.234-.436.42-.571.187-.136.414-.203.683-.203.338 0 .591.088.758.265.168.176.276.437.324.782h.616a1.98 1.98 0 0 0-.252-.814 1.407 1.407 0 0 0-.57-.54 1.86 1.86 0 0 0-.876-.192 1.82 1.82 0 0 0-.987.265 1.722 1.722 0 0 0-.65.751c-.15.324-.226.7-.226 1.127v.466c0 .426.075.8.225 1.124.15.324.362.574.635.75.273.177.588.265.946.265zm-37.182 31c.472 0 .832-.158 1.081-.474.249-.316.373-.836.373-1.56v-.708c0-.72-.125-1.233-.375-1.542-.25-.31-.611-.464-1.085-.464-.472 0-.833.155-1.084.464-.25.309-.376.823-.376 1.542v.708c0 .722.127 1.241.38 1.558.255.318.617.476 1.086.476zm0-.476a.721.721 0 0 1-.65-.353c-.148-.236-.222-.607-.222-1.113v-.898c0-.506.072-.87.217-1.095.145-.224.361-.336.649-.336.292 0 .51.111.652.334.143.224.214.59.214 1.097v.898c0 .51-.07.882-.212 1.116-.142.233-.358.35-.648.35zm2.644.448a.37.37 0 0 0 .272-.095.332.332 0 0 0 .096-.248.352.352 0 0 0-.096-.255.36.36 0 0 0-.272-.1.356.356 0 0 0-.268.1.352.352 0 0 0-.097.255c0 .1.032.182.097.246a.362.362 0 0 0 .268.097zm2.727.028c.471 0 .832-.158 1.08-.474.249-.316.373-.836.373-1.56v-.708c0-.72-.125-1.233-.374-1.542-.25-.31-.612-.464-1.086-.464-.472 0-.833.155-1.084.464-.25.309-.376.823-.376 1.542v.708c0 .722.127 1.241.381 1.558.254.318.616.476 1.086.476zm0-.476a.721.721 0 0 1-.651-.353c-.148-.236-.222-.607-.222-1.113v-.898c0-.506.072-.87.217-1.095.145-.224.361-.336.65-.336.291 0 .509.111.651.334.143.224.215.59.215 1.097v.898c0 .51-.071.882-.213 1.116-.142.233-.358.35-.647.35zm4.138.413v-4.646h-.092l-1.682.631v.53l1.18-.435V195h.594zm3.104.063c.28 0 .53-.053.75-.16.222-.107.396-.262.523-.465s.19-.445.19-.727a1.2 1.2 0 0 0-.185-.655c-.124-.196-.328-.339-.611-.43a1.21 1.21 0 0 0 .404-.27 1.14 1.14 0 0 0 .243-.362.985.985 0 0 0 .08-.374c0-.28-.058-.517-.173-.713a1.099 1.099 0 0 0-.488-.442 1.7 1.7 0 0 0-.736-.15c-.28 0-.527.057-.743.169a1.254 1.254 0 0 0-.503.46c-.12.195-.179.41-.179.644h.593c0-.16.035-.3.105-.42a.717.717 0 0 1 .292-.278.922.922 0 0 1 .435-.098c.267 0 .467.069.601.207.135.139.202.342.202.608a.828.828 0 0 1-.102.413.692.692 0 0 1-.306.282 1.117 1.117 0 0 1-.5.102h-.419v.476h.42c.306 0 .546.07.718.21.173.142.259.353.259.634 0 .284-.077.498-.23.644-.154.146-.367.22-.64.22a1.01 1.01 0 0 1-.463-.1.716.716 0 0 1-.303-.285.835.835 0 0 1-.107-.425h-.593c0 .267.065.497.195.69.13.194.306.342.529.443.222.102.47.152.742.152zm4.202-.063v-4.646h-.092l-1.682.631v.53l1.18-.435V195h.594zm3.168.063c.472 0 .832-.158 1.08-.474.25-.316.373-.836.373-1.56v-.708c0-.72-.124-1.233-.374-1.542-.25-.31-.612-.464-1.086-.464-.471 0-.833.155-1.083.464-.251.309-.376.823-.376 1.542v.708c0 .722.126 1.241.38 1.558.254.318.616.476 1.086.476zm0-.476a.721.721 0 0 1-.65-.353c-.149-.236-.223-.607-.223-1.113v-.898c0-.506.072-.87.217-1.095.145-.224.362-.336.65-.336.291 0 .509.111.652.334.143.224.214.59.214 1.097v.898c0 .51-.071.882-.213 1.116-.141.233-.357.35-.647.35zm4.688.413v-1.076h.64v-.476h-.64v-3.07h-.632l-2.066 3.203v.343h2.104V195h.594zm-.594-1.552h-1.435l1.365-2.146.07-.123v2.269zm5.148 1.552c.309 0 .578-.051.808-.154.23-.103.407-.254.531-.454.125-.2.188-.441.188-.725 0-.267-.071-.5-.213-.7a1.02 1.02 0 0 0-.597-.401 1.17 1.17 0 0 0 .507-.388.941.941 0 0 0 .182-.568c0-.419-.13-.729-.39-.93-.26-.2-.633-.301-1.118-.301h-1.517V195h1.619zm-.086-2.65h-.917v-1.473h.901c.303 0 .527.058.673.175.146.116.22.3.22.552a.717.717 0 0 1-.11.4.697.697 0 0 1-.308.257 1.1 1.1 0 0 1-.459.089zm.086 2.155h-1.003v-1.67h1.032c.3 0 .522.073.666.22.144.145.216.352.216.618 0 .256-.08.459-.241.608-.161.15-.384.224-.67.224zm4.142.495v-4.123h1.482v-.498h-3.57v.498h1.478V195h.61zm3.815.063c.36 0 .665-.065.915-.195.251-.13.445-.31.583-.54.137-.229.223-.494.257-.794h-.616c-.038.23-.097.42-.176.571a.798.798 0 0 1-.352.344c-.156.08-.36.12-.611.12-.263 0-.483-.073-.66-.216a1.278 1.278 0 0 1-.397-.588 2.534 2.534 0 0 1-.13-.84v-.474c0-.33.047-.617.141-.863.094-.245.234-.436.42-.571.187-.136.414-.203.683-.203.338 0 .591.088.758.265.168.176.276.437.324.782h.616a1.98 1.98 0 0 0-.252-.814 1.407 1.407 0 0 0-.57-.54 1.86 1.86 0 0 0-.876-.192 1.82 1.82 0 0 0-.987.265 1.722 1.722 0 0 0-.65.751c-.15.324-.226.7-.226 1.127v.466c0 .426.075.8.225 1.124.15.324.362.574.635.75.273.177.588.265.946.265z"/><path fill="#5070F8" d="M124.301 211.063c.472 0 .832-.158 1.081-.474.249-.316.373-.836.373-1.56v-.708c0-.72-.125-1.233-.375-1.542-.25-.31-.611-.464-1.085-.464-.472 0-.833.155-1.084.464-.25.309-.376.823-.376 1.542v.708c0 .722.127 1.241.38 1.558.255.318.617.476 1.086.476zm0-.476a.721.721 0 0 1-.65-.353c-.148-.236-.222-.607-.222-1.113v-.898c0-.506.072-.87.217-1.095.145-.224.361-.336.649-.336.292 0 .51.111.652.334.143.224.214.59.214 1.097v.898c0 .51-.07.882-.212 1.116-.142.233-.358.35-.648.35zm2.644.448a.37.37 0 0 0 .272-.095.332.332 0 0 0 .096-.248.352.352 0 0 0-.096-.255.36.36 0 0 0-.272-.1.356.356 0 0 0-.268.1.352.352 0 0 0-.097.255c0 .1.032.182.097.246a.362.362 0 0 0 .268.097zm2.727.028c.471 0 .832-.158 1.08-.474.249-.316.373-.836.373-1.56v-.708c0-.72-.125-1.233-.374-1.542-.25-.31-.612-.464-1.086-.464-.472 0-.833.155-1.084.464-.25.309-.376.823-.376 1.542v.708c0 .722.127 1.241.381 1.558.254.318.616.476 1.086.476zm0-.476a.721.721 0 0 1-.651-.353c-.148-.236-.222-.607-.222-1.113v-.898c0-.506.072-.87.217-1.095.145-.224.361-.336.65-.336.291 0 .509.111.651.334.143.224.215.59.215 1.097v.898c0 .51-.071.882-.213 1.116-.142.233-.358.35-.647.35zm4.138.413v-4.646h-.092l-1.682.631v.53l1.18-.435V211h.594zm3.104.063c.28 0 .53-.053.75-.16.222-.107.396-.262.523-.465s.19-.445.19-.727a1.2 1.2 0 0 0-.185-.655c-.124-.196-.328-.339-.611-.43a1.21 1.21 0 0 0 .404-.27 1.14 1.14 0 0 0 .243-.362.985.985 0 0 0 .08-.374c0-.28-.058-.517-.173-.713a1.099 1.099 0 0 0-.488-.442 1.7 1.7 0 0 0-.736-.15c-.28 0-.527.057-.743.169a1.254 1.254 0 0 0-.503.46c-.12.195-.179.41-.179.644h.593c0-.16.035-.3.105-.42a.717.717 0 0 1 .292-.278.922.922 0 0 1 .435-.098c.267 0 .467.069.601.207.135.139.202.342.202.608a.828.828 0 0 1-.102.413.692.692 0 0 1-.306.282 1.117 1.117 0 0 1-.5.102h-.419v.476h.42c.306 0 .546.07.718.21.173.142.259.353.259.634 0 .284-.077.498-.23.644-.154.146-.367.22-.64.22a1.01 1.01 0 0 1-.463-.1.716.716 0 0 1-.303-.285.835.835 0 0 1-.107-.425h-.593c0 .267.065.497.195.69.13.194.306.342.529.443.222.102.47.152.742.152zm4.202-.063v-4.646h-.092l-1.682.631v.53l1.18-.435V211h.594zm3.168.063c.472 0 .832-.158 1.08-.474.25-.316.373-.836.373-1.56v-.708c0-.72-.124-1.233-.374-1.542-.25-.31-.612-.464-1.086-.464-.471 0-.833.155-1.083.464-.251.309-.376.823-.376 1.542v.708c0 .722.126 1.241.38 1.558.254.318.616.476 1.086.476zm0-.476a.721.721 0 0 1-.65-.353c-.149-.236-.223-.607-.223-1.113v-.898c0-.506.072-.87.217-1.095.145-.224.362-.336.65-.336.291 0 .509.111.652.334.143.224.214.59.214 1.097v.898c0 .51-.071.882-.213 1.116-.141.233-.357.35-.647.35zm4.688.413v-1.076h.64v-.476h-.64v-3.07h-.632l-2.066 3.203v.343h2.104V211h.594zm-.594-1.552h-1.435l1.365-2.146.07-.123v2.269zm5.148 1.552c.309 0 .578-.051.808-.154.23-.103.407-.254.531-.454.125-.2.188-.441.188-.725 0-.267-.071-.5-.213-.7a1.02 1.02 0 0 0-.597-.401 1.17 1.17 0 0 0 .507-.388.941.941 0 0 0 .182-.568c0-.419-.13-.729-.39-.93-.26-.2-.633-.301-1.118-.301h-1.517V211h1.619zm-.086-2.65h-.917v-1.473h.901c.303 0 .527.058.673.175.146.116.22.3.22.552a.717.717 0 0 1-.11.4.697.697 0 0 1-.308.257 1.1 1.1 0 0 1-.459.089zm.086 2.155h-1.003v-1.67h1.032c.3 0 .522.073.666.22.144.145.216.352.216.618 0 .256-.08.459-.241.608-.161.15-.384.224-.67.224zm4.142.495v-4.123h1.482v-.498h-3.57v.498h1.478V211h.61zm3.815.063c.36 0 .665-.065.915-.195.251-.13.445-.31.583-.54.137-.229.223-.494.257-.794h-.616c-.038.23-.097.42-.176.571a.798.798 0 0 1-.352.344c-.156.08-.36.12-.611.12-.263 0-.483-.073-.66-.216a1.278 1.278 0 0 1-.397-.588 2.534 2.534 0 0 1-.13-.84v-.474c0-.33.047-.617.141-.863.094-.245.234-.436.42-.571.187-.136.414-.203.683-.203.338 0 .591.088.758.265.168.176.276.437.324.782h.616a1.98 1.98 0 0 0-.252-.814 1.407 1.407 0 0 0-.57-.54 1.86 1.86 0 0 0-.876-.192 1.82 1.82 0 0 0-.987.265 1.722 1.722 0 0 0-.65.751c-.15.324-.226.7-.226 1.127v.466c0 .426.075.8.225 1.124.15.324.362.574.635.75.273.177.588.265.946.265z"/><path fill="#565D6F" d="M124.774 148.185v-4.647h-.092l-1.682.632v.53l1.18-.435v3.92h.594zm3.168.063c.471 0 .832-.158 1.08-.474.249-.317.373-.837.373-1.56v-.708c0-.72-.125-1.234-.374-1.543-.25-.309-.612-.463-1.086-.463-.472 0-.833.154-1.084.463-.25.31-.376.823-.376 1.543v.708c0 .721.127 1.24.381 1.558.254.317.616.476 1.086.476zm0-.476a.721.721 0 0 1-.651-.354c-.148-.236-.222-.607-.222-1.112v-.899c0-.505.072-.87.217-1.095.145-.224.362-.336.65-.336.291 0 .509.112.652.335.142.223.214.589.214 1.096v.899c0 .51-.071.881-.213 1.115-.142.234-.357.351-.647.351zm2.247 1.333c.173-.14.31-.315.41-.527.099-.211.148-.418.148-.619v-.47h-.58v.48c0 .167-.027.323-.08.47a1.846 1.846 0 0 1-.235.437l.337.229zm3.72-.92v-1.076h.64v-.476h-.64v-3.07h-.632l-2.066 3.203v.343h2.104v1.076h.593zm-.594-1.552h-1.435l1.365-2.146.07-.124v2.27zm3.697 1.552v-4.647h-.092l-1.682.632v.53l1.18-.435v3.92h.594zm3.168.063c.472 0 .832-.158 1.08-.474.25-.317.374-.837.374-1.56v-.708c0-.72-.125-1.234-.375-1.543-.25-.309-.611-.463-1.085-.463-.472 0-.834.154-1.084.463-.251.31-.376.823-.376 1.543v.708c0 .721.127 1.24.38 1.558.254.317.616.476 1.086.476zm0-.476a.721.721 0 0 1-.65-.354c-.149-.236-.223-.607-.223-1.112v-.899c0-.505.073-.87.218-1.094.144-.225.36-.337.649-.337.292 0 .509.112.652.335.143.223.214.589.214 1.096v.899c0 .51-.07.881-.213 1.115-.141.234-.357.351-.647.351zm2.644.447a.37.37 0 0 0 .271-.095.332.332 0 0 0 .097-.247.352.352 0 0 0-.097-.256.36.36 0 0 0-.271-.1.356.356 0 0 0-.268.1.352.352 0 0 0-.097.256c0 .1.032.181.097.246a.362.362 0 0 0 .268.096zm4.31-.034v-.477h-2.317l1.238-1.348c.266-.29.477-.57.633-.84a1.57 1.57 0 0 0 .233-.785 1.23 1.23 0 0 0-.168-.648 1.125 1.125 0 0 0-.482-.433 1.671 1.671 0 0 0-.743-.154c-.32 0-.594.063-.822.189a1.264 1.264 0 0 0-.518.512 1.493 1.493 0 0 0-.174.72h.593c0-.287.079-.516.235-.688.157-.171.385-.257.686-.257.165 0 .308.037.428.11.12.073.213.172.276.298a.92.92 0 0 1 .096.42c0 .125-.021.245-.062.36a1.649 1.649 0 0 1-.214.388 6.254 6.254 0 0 1-.435.528l-1.514 1.686v.419h3.03zm2.066.063c.28 0 .53-.051.752-.154.222-.103.397-.253.525-.452a1.28 1.28 0 0 0 .192-.708c0-.252-.07-.477-.21-.676a1.324 1.324 0 0 0-.574-.454c.21-.101.375-.243.496-.425.12-.182.18-.386.18-.613 0-.262-.058-.488-.174-.679a1.14 1.14 0 0 0-.482-.436c-.206-.1-.44-.151-.705-.151-.265 0-.5.05-.706.15a1.112 1.112 0 0 0-.484.436 1.286 1.286 0 0 0-.175.68c0 .227.06.43.178.611s.282.322.492.424c-.241.102-.43.252-.568.452a1.17 1.17 0 0 0-.207.681c0 .275.064.512.19.71.128.197.303.347.526.45.223.103.475.154.754.154zm0-2.682a.816.816 0 0 1-.405-.098.675.675 0 0 1-.271-.276.868.868 0 0 1-.095-.416c0-.16.032-.302.097-.422a.684.684 0 0 1 .27-.28.807.807 0 0 1 .404-.098c.15 0 .283.034.4.103a.713.713 0 0 1 .271.286.863.863 0 0 1 .097.41.868.868 0 0 1-.095.417.678.678 0 0 1-.27.276.807.807 0 0 1-.403.098zm0 2.206c-.273 0-.487-.075-.643-.225-.155-.15-.233-.359-.233-.626a.95.95 0 0 1 .106-.455.762.762 0 0 1 .303-.31.92.92 0 0 1 .46-.11.94.94 0 0 1 .46.11.783.783 0 0 1 .312.312.919.919 0 0 1 .11.453c0 .267-.077.475-.232.626-.156.15-.37.225-.643.225zm5.551.476c.307 0 .588-.059.843-.176.255-.118.458-.294.609-.529.151-.234.227-.519.227-.853v-3.127h-.619v3.127c0 .35-.094.616-.282.795-.189.179-.448.268-.778.268-.328 0-.587-.09-.776-.268-.19-.18-.284-.444-.284-.795v-3.127h-.61v3.127c0 .336.073.621.218.855.145.234.343.41.593.527.251.117.537.176.859.176zm4.104 0c.323 0 .607-.05.85-.152.244-.102.431-.246.564-.434.132-.187.198-.404.198-.652a1.16 1.16 0 0 0-.16-.62 1.366 1.366 0 0 0-.492-.456 3.728 3.728 0 0 0-.865-.342 3.395 3.395 0 0 1-.619-.229.98.98 0 0 1-.346-.27.564.564 0 0 1-.111-.346.68.68 0 0 1 .241-.542c.161-.138.397-.207.708-.207.334 0 .587.082.759.246.17.164.257.382.257.652h.619a1.3 1.3 0 0 0-.196-.688 1.406 1.406 0 0 0-.565-.514 1.86 1.86 0 0 0-.874-.194c-.309 0-.582.054-.82.163a1.31 1.31 0 0 0-.553.45c-.13.19-.195.405-.195.644 0 .34.127.617.381.83.254.212.625.39 1.114.531.294.085.52.168.676.25a.818.818 0 0 1 .329.273.7.7 0 0 1 .093.376.64.64 0 0 1-.26.54c-.174.13-.418.196-.733.196a1.58 1.58 0 0 1-.567-.098.912.912 0 0 1-.41-.302.817.817 0 0 1-.153-.508h-.616c0 .294.084.547.25.759.168.211.385.372.653.48.268.11.549.164.843.164zm3.643-.063c.426 0 .796-.088 1.111-.264.315-.175.558-.427.729-.754.17-.327.255-.711.255-1.153v-.28c0-.438-.085-.82-.255-1.149-.17-.328-.41-.58-.718-.757a2.107 2.107 0 0 0-1.068-.265h-1.304v4.622h1.25zm0-.496h-.634v-3.627h.688c.303 0 .561.065.776.197.215.13.378.32.489.57.111.248.167.548.167.899v.286c0 .342-.056.64-.169.89a1.27 1.27 0 0 1-.501.58c-.222.137-.494.205-.816.205z"/></g></g></svg>