<?xml version="1.0" standalone="no"?>
<!DOCTYPE svg PUBLIC "-//W3C//DTD SVG 20010904//EN"
 "http://www.w3.org/TR/2001/REC-SVG-20010904/DTD/svg10.dtd">
<svg version="1.0" xmlns="http://www.w3.org/2000/svg"
 width="3429.000000pt" height="1155.000000pt" viewBox="0 0 3429.000000 1155.000000"
 preserveAspectRatio="xMidYMid meet">

<g transform="translate(0.000000,1155.000000) scale(0.100000,-0.100000)"
fill="#000000" stroke="none">
<path d="M3123 9057 c-986 -535 -1791 -976 -1789 -982 3 -11 3592 -2085 3608
-2085 11 0 1356 777 1375 794 9 8 -58 51 -280 176 -161 91 -298 164 -305 164
-6 -1 -187 -104 -401 -228 l-389 -227 -1201 693 c-660 381 -1197 696 -1193
700 12 12 2384 1298 2394 1298 5 0 41 -19 81 -41 188 -108 2931 -1589 2941
-1589 16 1 579 335 582 346 4 12 -3579 1948 -3609 1951 -13 1 -752 -394 -1814
-970z"/>
<path d="M10280 5365 l0 -4615 45 0 45 0 0 4615 0 4615 -45 0 -45 0 0 -4615z"/>
<path d="M14610 7055 l0 -1385 290 0 290 0 0 1385 0 1385 -290 0 -290 0 0
-1385z"/>
<path d="M19770 7055 l0 -1385 290 0 290 0 2 467 3 468 300 -467 300 -467 349
-1 c277 0 346 3 338 13 -25 31 -703 971 -705 977 -2 6 149 207 547 728 l117
152 -344 0 -343 0 -274 -426 c-151 -234 -278 -428 -282 -430 -5 -3 -8 391 -8
875 l0 881 -290 0 -290 0 0 -1385z"/>
<path d="M25840 7055 l0 -1385 290 0 290 0 0 559 c0 333 4 580 10 611 23 123
99 228 197 276 44 22 70 27 131 28 95 1 143 -15 197 -65 57 -53 92 -134 105
-245 5 -50 10 -325 10 -626 l0 -538 285 0 285 0 0 644 c0 673 -3 736 -46 871
-49 151 -148 276 -264 334 -90 44 -158 60 -275 68 -234 14 -437 -75 -577 -254
l-53 -67 -3 587 -2 587 -290 0 -290 0 0 -1385z"/>
<path d="M12270 6980 l0 -1310 558 0 c569 0 662 5 802 40 299 76 516 270 585
525 25 92 31 275 11 359 -27 115 -71 191 -161 281 -93 94 -201 153 -325 181
-122 27 -123 28 -49 53 132 44 275 150 353 264 20 29 49 87 63 128 23 63 27
90 26 184 0 165 -42 272 -148 377 -112 112 -286 186 -510 217 -47 7 -295 11
-641 11 l-564 0 0 -1310z m1036 853 c140 -46 206 -129 206 -262 0 -126 -50
-220 -148 -277 -75 -44 -133 -54 -326 -54 l-178 0 0 311 0 312 193 -5 c154 -5
204 -9 253 -25z m73 -1062 c106 -37 166 -84 209 -166 23 -44 26 -62 27 -145 0
-84 -3 -102 -28 -152 -31 -62 -84 -116 -149 -149 -82 -42 -131 -49 -360 -49
l-218 0 0 346 0 346 228 -4 c201 -4 234 -7 291 -27z"/>
<path d="M8640 7724 c-69 -40 -890 -516 -1825 -1057 l-1700 -983 -3 -817 c-1
-602 1 -817 9 -817 6 0 139 73 295 162 l284 162 0 481 1 480 1196 690 c658
380 1218 702 1245 718 l48 27 0 -1392 0 -1393 -1453 -893 c-798 -490 -1491
-916 -1539 -945 l-88 -52 0 -342 c0 -247 3 -343 11 -343 6 0 832 505 1835
1123 l1824 1122 0 2073 c0 1139 -3 2072 -7 2071 -5 -1 -64 -34 -133 -75z"/>
<path d="M1102 5720 l3 -2071 1817 -1120 c1000 -615 1822 -1119 1828 -1119 7
0 10 711 10 2138 l-1 2137 -641 370 c-353 204 -668 385 -700 403 l-58 33 0
-343 1 -343 404 -235 405 -235 0 -1438 0 -1438 -24 13 c-13 7 -571 351 -1239
763 l-1216 750 -1 1736 0 1737 -287 163 c-157 90 -290 166 -295 167 -4 2 -7
-928 -6 -2068z"/>
<path d="M16415 7579 c-375 -48 -659 -259 -774 -575 -50 -137 -64 -222 -64
-399 0 -124 4 -181 20 -255 99 -462 445 -721 968 -723 166 -1 270 12 390 50
412 130 645 473 645 953 0 593 -392 966 -1008 959 -59 -1 -138 -6 -177 -10z
m264 -440 c223 -36 332 -208 331 -522 -1 -269 -78 -442 -229 -513 -80 -39
-238 -46 -338 -15 -130 40 -221 142 -259 294 -26 100 -26 344 0 436 48 174
154 284 306 317 70 16 110 16 189 3z"/>
<path d="M18770 7584 c-14 -2 -56 -9 -95 -15 -390 -63 -680 -322 -775 -692
-87 -341 -24 -691 166 -921 113 -137 295 -253 467 -296 251 -63 635 -37 815
54 l52 26 0 230 c0 127 -2 230 -5 230 -3 0 -23 -11 -44 -24 -106 -68 -243
-106 -378 -106 -167 0 -284 42 -378 135 -185 186 -195 570 -19 774 156 181
462 221 714 94 52 -26 98 -50 103 -51 4 -2 6 106 5 240 l-3 243 -57 22 c-99
40 -193 54 -373 58 -93 2 -181 2 -195 -1z"/>
<path d="M22360 7573 c-367 -56 -586 -250 -607 -538 -16 -226 77 -402 270
-509 72 -40 229 -103 337 -136 111 -33 192 -72 233 -114 32 -31 37 -43 37 -82
0 -25 -7 -58 -15 -74 -33 -63 -143 -100 -301 -100 -168 0 -302 33 -467 116
-48 24 -90 44 -93 44 -2 0 -3 -105 -2 -232 l3 -233 78 -22 c274 -78 559 -90
817 -33 357 77 556 308 537 620 -17 264 -159 398 -569 539 -247 85 -298 122
-298 223 0 41 5 52 35 82 59 60 189 85 340 66 140 -17 233 -46 378 -118 4 -2
6 97 5 220 l-3 223 -90 23 c-202 51 -439 64 -625 35z"/>
<path d="M24560 7575 c-90 -18 -168 -49 -236 -94 -57 -37 -156 -133 -202 -196
l-21 -30 -1 143 0 142 -290 0 -290 0 0 -1365 0 -1365 290 0 290 0 0 543 0 542
27 -35 c78 -103 196 -182 323 -216 94 -25 279 -23 385 5 277 72 486 286 579
592 44 145 59 272 53 469 -10 318 -87 530 -250 690 -159 156 -414 224 -657
175z m82 -451 c98 -32 186 -142 219 -274 21 -84 18 -346 -5 -435 -39 -148
-120 -261 -225 -312 -51 -25 -66 -28 -166 -28 -100 0 -115 2 -160 27 -87 46
-155 130 -191 238 -16 46 -19 86 -19 245 0 168 3 198 22 260 49 155 160 266
297 295 54 12 169 4 228 -16z"/>
<path d="M28777 7580 c-310 -49 -589 -266 -701 -544 -132 -330 -104 -772 64
-1030 205 -314 578 -436 1100 -361 107 16 241 52 324 89 l56 25 0 205 c0 114
-2 206 -5 206 -3 0 -37 -16 -75 -35 -229 -115 -564 -135 -756 -44 -111 52
-196 169 -210 292 l-7 57 612 0 611 0 0 158 c0 266 -31 429 -110 582 -103 197
-269 326 -492 380 -95 24 -318 34 -411 20z m308 -414 c96 -48 150 -145 162
-293 l6 -73 -347 0 c-326 0 -347 1 -342 18 2 9 8 33 11 52 11 51 58 149 93
194 44 54 113 105 164 122 69 22 184 13 253 -20z"/>
<path d="M32287 7580 c-310 -49 -589 -266 -701 -544 -132 -330 -104 -772 64
-1030 205 -314 578 -436 1100 -361 107 16 241 52 324 89 l56 25 0 205 c0 114
-2 206 -5 206 -3 0 -37 -16 -75 -35 -229 -115 -564 -135 -756 -44 -111 52
-196 169 -210 292 l-7 57 612 0 611 0 0 158 c0 266 -31 429 -110 582 -103 197
-269 326 -492 380 -95 24 -318 34 -411 20z m308 -414 c96 -48 150 -145 162
-293 l6 -73 -347 0 c-326 0 -347 1 -342 18 2 9 8 33 11 52 11 51 58 149 93
194 44 54 113 105 164 122 69 22 184 13 253 -20z"/>
<path d="M31110 7569 c-148 -25 -274 -128 -352 -286 l-43 -87 -3 172 -2 172
-290 0 -290 0 0 -935 0 -935 289 0 290 0 3 523 c4 469 6 528 22 577 71 219
209 321 415 307 51 -3 109 -14 141 -26 30 -12 58 -21 63 -21 4 0 7 117 7 260
0 249 -1 260 -20 270 -28 15 -165 21 -230 9z"/>
<path d="M12250 4616 l0 -44 223 -6 c188 -5 20479 -177 20760 -176 l97 0 0 44
0 44 -242 6 c-206 5 -20462 177 -20740 176 l-98 0 0 -44z"/>
<path d="M14270 3375 l0 -735 140 0 140 0 0 735 0 735 -140 0 -140 0 0 -735z"/>
<path d="M16810 3375 l0 -735 140 0 140 0 0 240 c0 132 3 240 8 240 4 0 40
-55 79 -123 40 -67 103 -174 141 -237 l68 -115 172 -3 172 -2 -171 257 c-95
141 -172 262 -172 268 0 5 45 73 99 150 137 192 214 304 214 310 0 3 -75 4
-166 3 l-167 -3 -81 -137 c-44 -75 -103 -175 -131 -222 -27 -47 -53 -86 -57
-86 -5 0 -8 209 -8 465 l0 465 -140 0 -140 0 0 -735z"/>
<path d="M18710 3375 l0 -735 139 0 140 0 3 318 c3 342 4 347 62 410 77 86
198 64 240 -43 18 -45 20 -83 24 -367 l4 -318 140 0 140 0 -4 373 c-4 355 -5
375 -27 441 -29 88 -92 155 -170 181 -72 24 -199 17 -258 -13 -40 -21 -133
-107 -133 -124 0 -4 -4 -8 -10 -8 -6 0 -10 110 -10 310 l0 310 -140 0 -140 0
0 -735z"/>
<path d="M20890 4088 c-64 -33 -85 -67 -85 -138 0 -43 5 -66 21 -87 26 -36 99
-73 144 -73 42 0 105 35 134 73 29 40 29 134 0 174 -25 35 -98 73 -139 73 -17
0 -51 -10 -75 -22z"/>
<path d="M28320 3375 l0 -735 140 0 140 0 0 735 0 735 -140 0 -140 0 0 -735z"/>
<path d="M29645 4091 c-76 -35 -106 -93 -91 -175 13 -68 87 -126 160 -126 48
1 113 35 136 72 14 23 20 50 20 88 0 71 -26 115 -83 140 -53 24 -91 25 -142 1z"/>
<path d="M23448 4035 c-128 -26 -267 -111 -358 -221 -60 -72 -115 -189 -140
-298 -20 -84 -22 -115 -17 -248 4 -126 9 -167 29 -229 69 -212 200 -340 413
-405 91 -27 312 -25 422 4 145 39 133 22 133 189 l0 143 -57 -29 c-83 -41
-153 -54 -274 -49 -126 5 -174 25 -250 105 -64 68 -95 136 -110 244 -33 229
57 425 231 508 50 23 67 26 175 26 102 0 129 -4 180 -23 33 -13 70 -30 83 -38
l22 -14 0 149 c0 175 9 162 -125 186 -105 18 -265 18 -357 0z"/>
<path d="M13110 3335 l0 -696 328 3 327 3 68 29 c77 32 165 106 201 170 53 91
61 271 17 357 -43 84 -111 139 -208 169 l-56 17 62 33 c66 35 128 97 156 156
9 19 19 65 22 102 14 164 -71 277 -246 328 -45 14 -118 18 -363 21 l-308 5 0
-697z m490 454 c36 -8 62 -21 86 -45 31 -32 34 -40 34 -95 0 -71 -17 -108 -67
-146 -34 -26 -44 -28 -145 -31 l-108 -4 0 159 c0 88 3 163 7 166 10 11 137 8
193 -4z m31 -560 c62 -13 122 -64 140 -116 15 -47 5 -119 -25 -164 -39 -59
-96 -79 -229 -82 l-112 -2 -3 175 c-1 96 0 180 2 187 7 17 153 18 227 2z"/>
<path d="M29043 3888 l-133 -41 0 -109 0 -108 -75 0 -75 0 0 -110 0 -109 73
-3 72 -3 5 -295 c4 -253 8 -301 23 -334 30 -66 64 -103 124 -133 53 -25 67
-28 163 -27 75 1 116 6 143 18 l37 16 0 111 c0 102 -1 111 -17 104 -10 -4 -40
-10 -68 -12 -40 -4 -55 -1 -77 16 -41 33 -50 96 -46 331 l3 205 103 3 102 3 0
109 0 110 -105 0 -105 0 0 150 c0 83 -3 150 -7 149 -5 0 -68 -19 -140 -41z"/>
<path d="M15100 3636 c-158 -35 -275 -145 -331 -311 -30 -92 -33 -277 -5 -370
39 -130 98 -211 195 -269 92 -55 152 -70 276 -70 164 0 273 40 365 135 154
159 186 489 67 687 -36 61 -112 134 -169 163 -90 46 -275 62 -398 35z m238
-237 c82 -40 118 -135 110 -294 -9 -162 -65 -244 -174 -253 -76 -6 -119 5
-160 41 -53 45 -75 105 -81 213 -5 76 -2 102 16 156 22 67 72 127 121 147 44
17 121 13 168 -10z"/>
<path d="M16232 3636 c-176 -44 -304 -177 -347 -358 -22 -93 -20 -256 5 -338
43 -143 148 -253 287 -302 94 -32 256 -32 359 0 41 12 74 29 78 38 7 19 8 234
1 234 -3 0 -28 -12 -56 -26 -35 -19 -71 -28 -120 -32 -126 -9 -205 32 -254
132 -23 46 -26 67 -26 145 0 134 40 213 136 264 32 17 57 22 125 22 73 0 92
-4 137 -28 29 -15 55 -27 58 -27 3 0 4 57 3 127 l-3 128 -40 14 c-56 20 -276
24 -343 7z"/>
<path d="M18132 3636 c-176 -44 -304 -177 -347 -358 -22 -93 -20 -256 5 -338
43 -143 148 -253 287 -302 94 -32 256 -32 359 0 41 12 74 29 78 38 7 19 8 234
1 234 -3 0 -28 -12 -56 -26 -35 -19 -71 -28 -120 -32 -126 -9 -205 32 -254
132 -23 46 -26 67 -26 145 0 134 40 213 136 264 32 17 57 22 125 22 73 0 92
-4 137 -28 29 -15 55 -27 58 -27 3 0 4 57 3 127 l-3 128 -40 14 c-56 20 -276
24 -343 7z"/>
<path d="M20048 3635 c-37 -7 -94 -23 -127 -36 l-61 -22 0 -120 c0 -114 1
-119 18 -105 32 28 116 65 189 83 117 28 197 10 240 -54 23 -34 32 -101 14
-101 -32 0 -293 -43 -332 -54 -93 -28 -163 -88 -199 -171 -17 -39 -22 -69 -22
-140 0 -140 42 -218 147 -273 43 -22 63 -26 135 -26 73 0 92 4 136 27 29 14
73 50 98 79 l46 53 0 -68 0 -67 135 0 136 0 -3 363 c-3 308 -6 370 -21 412
-35 106 -103 178 -199 212 -59 22 -245 26 -330 8z m280 -613 c-3 -54 -9 -78
-31 -110 -47 -72 -140 -102 -207 -67 -41 21 -60 53 -60 103 0 58 21 96 67 117
41 20 213 46 227 34 4 -4 7 -39 4 -77z"/>
<path d="M21819 3634 c-50 -15 -135 -84 -158 -128 -23 -43 -31 -30 -31 49 l0
75 -140 0 -140 0 0 -495 0 -495 140 0 140 0 0 293 c0 320 6 367 56 427 77 91
199 77 247 -28 21 -45 22 -63 25 -369 l3 -323 140 0 139 0 0 349 c0 192 -5
372 -10 401 -24 126 -93 218 -183 245 -63 19 -167 18 -228 -1z"/>
<path d="M24440 3636 c-154 -34 -271 -141 -327 -299 -23 -62 -26 -89 -27 -197
0 -94 4 -140 18 -185 51 -168 141 -264 294 -317 95 -32 258 -32 356 0 162 54
264 168 306 343 38 160 17 341 -53 457 -36 61 -112 134 -169 163 -90 46 -275
62 -398 35z m236 -236 c83 -41 120 -137 112 -295 -9 -162 -65 -244 -174 -253
-76 -6 -119 5 -161 41 -54 47 -75 105 -81 217 -3 79 -1 105 17 154 23 65 68
120 116 142 45 20 122 17 171 -6z"/>
<path d="M25733 3636 c-51 -16 -116 -66 -153 -118 -15 -20 -30 -34 -34 -31 -3
3 -6 37 -6 75 l0 68 -140 0 -140 0 0 -495 0 -495 143 0 142 0 0 303 c0 214 4
314 13 344 45 150 215 181 284 51 22 -42 23 -51 26 -370 l3 -328 140 0 140 0
-3 383 c-3 379 -4 383 -28 447 -31 81 -88 140 -155 163 -58 20 -172 21 -232 3z"/>
<path d="M26593 3640 c-158 -33 -257 -136 -270 -278 -15 -165 76 -270 297
-341 129 -42 174 -110 110 -165 -56 -47 -182 -47 -300 -1 -35 14 -69 30 -74
35 -6 6 -16 10 -23 10 -18 0 -19 -223 0 -237 22 -17 132 -42 213 -49 92 -7
199 7 281 37 81 31 166 116 187 188 22 73 20 139 -4 203 -36 94 -90 137 -251
199 -115 44 -159 78 -159 123 0 42 73 86 144 86 41 0 171 -36 202 -56 l24 -16
0 120 0 120 -52 12 c-67 16 -270 22 -325 10z"/>
<path d="M30564 3636 c-59 -19 -126 -68 -160 -117 l-29 -42 -3 76 -3 77 -139
0 -140 0 0 -495 0 -495 139 0 140 0 3 323 3 324 30 48 c39 63 84 88 149 82 41
-4 55 -10 82 -40 18 -19 37 -52 43 -74 7 -23 11 -160 11 -350 l0 -313 143 0
142 0 -5 392 -5 393 -28 60 c-55 117 -116 157 -247 162 -52 2 -101 -2 -126
-11z"/>
<path d="M31448 3635 c-191 -52 -315 -301 -294 -587 19 -257 147 -416 349
-435 109 -10 229 41 287 122 14 19 29 35 34 35 5 0 6 -36 3 -81 -18 -269 -242
-372 -525 -243 -29 13 -55 24 -57 24 -3 0 -5 -56 -5 -124 l0 -124 28 -10 c71
-28 157 -42 262 -42 290 0 466 110 549 344 l25 71 4 523 3 522 -141 0 -140 0
0 -55 c0 -30 -4 -55 -10 -55 -5 0 -10 4 -10 8 0 23 -87 93 -133 107 -61 18
-164 18 -229 0z m295 -248 c19 -15 47 -50 61 -79 23 -46 26 -64 26 -160 0
-132 -21 -199 -80 -252 -46 -42 -73 -50 -141 -44 -66 7 -97 31 -134 103 -55
109 -45 285 22 386 53 80 172 103 246 46z"/>
<path d="M20820 3135 l0 -495 140 0 140 0 0 495 0 495 -140 0 -140 0 0 -495z"/>
<path d="M27180 3311 c0 -176 5 -355 11 -398 19 -139 71 -223 167 -270 49 -23
70 -27 142 -27 72 0 92 4 135 26 49 26 121 93 143 133 9 16 11 4 12 -57 l0
-78 145 0 145 0 0 495 0 495 -145 0 -145 0 0 -314 c0 -331 -3 -356 -48 -411
-35 -43 -60 -54 -117 -55 -65 0 -110 27 -135 83 -18 39 -20 68 -20 370 l0 327
-145 0 -145 0 0 -319z"/>
<path d="M29570 3135 l0 -495 140 0 140 0 0 495 0 495 -140 0 -140 0 0 -495z"/>
</g>
</svg>
