<svg xmlns="http://www.w3.org/2000/svg" xmlns:xlink="http://www.w3.org/1999/xlink" width="190" height="120"><defs><path id="a" d="M5.338 0h161.324A5.338 5.338 0 0 1 172 5.338v27.324A5.338 5.338 0 0 1 166.662 38H5.338A5.338 5.338 0 0 1 0 32.662V5.338A5.338 5.338 0 0 1 5.338 0Z"/><path id="c" d="M3.464 7V5.152h1.839v-.709h-1.84V2.591h-.72v1.852H.902v.71h1.84V7h.72Zm5.674 1v-.82c.509-.056.899-.171 1.169-.346.486-.315.73-.846.73-1.594 0-.518-.19-.909-.57-1.173-.234-.16-.677-.332-1.329-.515v-2.05c.388.014.67.163.848.447.096.155.153.34.173.553h.738c-.014-.478-.17-.863-.47-1.154-.3-.291-.73-.456-1.289-.496V.301h-.4v.56c-.566.006-1.006.18-1.32.524-.313.343-.47.728-.47 1.156 0 .478.145.852.435 1.122.29.27.738.463 1.346.578v2.3c-.473-.04-.796-.219-.97-.537-.099-.177-.16-.458-.182-.843H6.83c0 .483.08.867.24 1.151.293.526.849.816 1.667.87V8h.401Zm-.41-4.527c-.311-.062-.56-.171-.744-.329-.184-.157-.276-.375-.276-.654 0-.23.078-.451.234-.662.156-.211.418-.324.787-.338v1.983Zm.41 3.088V4.342c.352.096.602.197.75.304.26.183.389.45.389.801 0 .223-.048.418-.143.587-.183.329-.515.505-.996.527ZM14.424 7V.984h-.599c-.107.467-.269.763-.485.888-.217.125-.6.215-1.148.268v.582h1.422V7h.81Zm4.08.165c.804 0 1.383-.386 1.738-1.156.244-.538.367-1.217.367-2.038 0-.866-.135-1.548-.405-2.046-.349-.644-.914-.966-1.696-.966-.87 0-1.47.458-1.802 1.375-.177.492-.265 1.081-.265 1.768 0 .886.147 1.592.443 2.118.354.63.894.945 1.62.945Zm-.005-.692c-.489 0-.835-.286-1.037-.857-.133-.374-.199-.869-.199-1.485 0-.818.104-1.438.31-1.858.207-.42.534-.63.981-.63.487 0 .814.22.983.664.169.443.253 1.007.253 1.693 0 .951-.116 1.6-.35 1.95-.233.348-.547.523-.94.523Zm4.81.692c.804 0 1.383-.386 1.738-1.156.245-.538.367-1.217.367-2.038 0-.866-.135-1.548-.405-2.046-.349-.644-.914-.966-1.696-.966-.87 0-1.47.458-1.801 1.375-.178.492-.266 1.081-.266 1.768 0 .886.147 1.592.443 2.118.354.63.894.945 1.62.945Zm-.004-.692c-.49 0-.836-.286-1.038-.857-.132-.374-.199-.869-.199-1.485 0-.818.104-1.438.31-1.858.207-.42.534-.63.981-.63.487 0 .815.22.983.664.17.443.253 1.007.253 1.693 0 .951-.116 1.6-.35 1.95-.233.348-.547.523-.94.523ZM27.4 7v-.92h-.882V7h.882Zm3.113.165c.805 0 1.384-.386 1.738-1.156.245-.538.368-1.217.368-2.038 0-.866-.135-1.548-.405-2.046-.35-.644-.915-.966-1.696-.966-.87 0-1.47.458-1.802 1.375-.177.492-.266 1.081-.266 1.768 0 .886.148 1.592.443 2.118.355.63.895.945 1.62.945Zm-.004-.692c-.49 0-.835-.286-1.038-.857-.132-.374-.198-.869-.198-1.485 0-.818.103-1.438.31-1.858.207-.42.534-.63.981-.63.487 0 .814.22.983.664.169.443.253 1.007.253 1.693 0 .951-.117 1.6-.35 1.95-.233.348-.547.523-.94.523Zm4.81.692c.804 0 1.383-.386 1.738-1.156.244-.538.367-1.217.367-2.038 0-.866-.135-1.548-.405-2.046-.35-.644-.914-.966-1.696-.966-.87 0-1.47.458-1.802 1.375-.177.492-.265 1.081-.265 1.768 0 .886.147 1.592.443 2.118.354.63.894.945 1.62.945Zm-.005-.692c-.49 0-.835-.286-1.037-.857-.133-.374-.199-.869-.199-1.485 0-.818.104-1.438.31-1.858.207-.42.534-.63.981-.63.487 0 .814.22.983.664.169.443.253 1.007.253 1.693 0 .951-.116 1.6-.35 1.95-.233.348-.547.523-.94.523Z"/><path id="d" d="M2.152 6.136c.495 0 .93-.11 1.305-.332.374-.222.561-.59.561-1.104 0-.414-.147-.73-.443-.946-.17-.125-.413-.223-.727-.295l-.652-.148c-.439-.102-.72-.186-.845-.254a.531.531 0 0 1-.285-.5c0-.206.081-.388.244-.544.162-.156.43-.234.8-.234.46 0 .786.121.978.364.103.133.171.324.203.573h.591c0-.517-.17-.893-.51-1.128-.341-.235-.755-.353-1.243-.353-.529 0-.938.134-1.227.402-.29.268-.434.61-.434 1.028 0 .386.148.676.443.87.171.112.462.214.874.307l.63.142c.34.079.592.17.752.276.158.107.238.288.238.54 0 .338-.188.572-.564.703a1.94 1.94 0 0 1-.645.101c-.527 0-.896-.153-1.104-.461-.11-.165-.172-.38-.187-.643H.313c-.006.502.154.9.481 1.193.327.295.78.443 1.358.443Zm3.91-.016c.173 0 .328-.017.465-.05.256-.06.47-.173.643-.342a1.48 1.48 0 0 0 .28-.375 1.18 1.18 0 0 0 .147-.416h-.56a.992.992 0 0 1-.215.395c-.177.197-.415.295-.712.295-.319 0-.554-.104-.706-.312-.152-.208-.233-.484-.243-.827h2.483c0-.342-.016-.591-.05-.747a1.512 1.512 0 0 0-.228-.598 1.29 1.29 0 0 0-.516-.438 1.546 1.546 0 0 0-.7-.17c-.476 0-.862.17-1.157.51-.295.34-.443.781-.443 1.326 0 .552.147.982.44 1.289.293.307.65.46 1.072.46Zm.997-2.085H5.176a1.07 1.07 0 0 1 .282-.72.866.866 0 0 1 .658-.283c.365 0 .626.137.782.411.084.148.138.345.161.592Zm1.81 3.316v-1.73c.124.153.237.262.338.325.173.112.387.168.643.168.325 0 .61-.1.854-.3.386-.317.579-.844.579-1.583 0-.546-.134-.966-.402-1.26a1.273 1.273 0 0 0-.977-.442 1.2 1.2 0 0 0-.678.19 1.374 1.374 0 0 0-.373.357v-.449h-.554v4.724h.57Zm.905-1.734c-.393 0-.663-.175-.81-.525a1.704 1.704 0 0 1-.117-.668c0-.325.039-.592.117-.803.145-.395.415-.592.81-.592.392 0 .662.187.81.56.078.194.117.426.117.696 0 .443-.088.776-.264.998a.813.813 0 0 1-.663.334Zm2.97.437c.083 0 .16-.004.23-.013.07-.008.139-.022.204-.041v-.45a1.7 1.7 0 0 1-.199.01.511.511 0 0 1-.221-.035c-.08-.04-.12-.119-.12-.237V3.076h.54v-.465h-.54v-.946h-.577v.946h-.458v.465h.458V5.32c0 .217.048.394.143.53.095.136.275.204.54.204Zm2.326.066c.173 0 .328-.017.466-.05.255-.06.469-.173.642-.342a1.48 1.48 0 0 0 .28-.375 1.18 1.18 0 0 0 .147-.416h-.56a.992.992 0 0 1-.215.395c-.177.197-.415.295-.712.295-.319 0-.554-.104-.706-.312-.152-.208-.233-.484-.243-.827h2.483c0-.342-.016-.591-.05-.747a1.512 1.512 0 0 0-.228-.598 1.29 1.29 0 0 0-.516-.438 1.546 1.546 0 0 0-.699-.17c-.477 0-.863.17-1.158.51-.295.34-.443.781-.443 1.326 0 .552.147.982.44 1.289.293.307.65.46 1.072.46Zm.997-2.085h-1.883a1.07 1.07 0 0 1 .282-.72.866.866 0 0 1 .658-.283c.365 0 .626.137.782.411.084.148.138.345.161.592ZM17.921 6V4.203c0-.437.088-.738.264-.905a.835.835 0 0 1 .587-.25c.237 0 .398.079.484.237.055.106.083.273.083.503V6h.579V4.029c0-.35.08-.6.242-.75a.82.82 0 0 1 .577-.225c.163 0 .3.042.413.127.113.084.17.24.17.465V6h.591V3.744c0-.3-.044-.538-.133-.715-.164-.33-.474-.494-.93-.494a1.24 1.24 0 0 0-.576.132 1.23 1.23 0 0 0-.446.403 1.042 1.042 0 0 0-.253-.335c-.165-.133-.382-.2-.652-.2a1.11 1.11 0 0 0-.639.193c-.11.076-.232.198-.367.364v-.48h-.563V6h.57Zm6.3.108c.46 0 .82-.178 1.079-.532.26-.354.389-.8.389-1.335 0-.566-.131-.993-.394-1.283-.263-.29-.605-.435-1.027-.435a1.247 1.247 0 0 0-1.009.5V1.336h-.554V6h.526v-.433c.12.162.233.28.338.354.177.124.395.187.652.187Zm-.035-.504c-.41 0-.689-.186-.838-.56-.08-.198-.12-.456-.12-.775 0-.44.097-.757.292-.949a.942.942 0 0 1 .682-.288c.297 0 .523.117.675.351.153.234.23.53.23.886 0 .401-.077.724-.23.968-.152.245-.383.367-.69.367Zm3.49.516c.173 0 .328-.017.465-.05.255-.06.47-.173.642-.342a1.48 1.48 0 0 0 .28-.375 1.18 1.18 0 0 0 .148-.416h-.56a.992.992 0 0 1-.216.395c-.177.197-.414.295-.711.295-.319 0-.554-.104-.706-.312-.152-.208-.233-.484-.244-.827h2.484a3.99 3.99 0 0 0-.05-.747 1.512 1.512 0 0 0-.228-.598 1.29 1.29 0 0 0-.516-.438 1.546 1.546 0 0 0-.7-.17c-.476 0-.862.17-1.157.51-.296.34-.443.781-.443 1.326 0 .552.146.982.44 1.289.293.307.65.46 1.072.46Zm.997-2.085H26.79a1.07 1.07 0 0 1 .282-.72.866.866 0 0 1 .658-.283c.365 0 .625.137.781.411.085.148.139.345.162.592ZM30.543 6V4.05a.97.97 0 0 1 .23-.637c.155-.184.375-.276.662-.276a.85.85 0 0 1 .187.016V2.55a7.559 7.559 0 0 0-.184-.016.845.845 0 0 0-.598.246c-.173.163-.281.302-.326.416V2.61h-.54V6h.569Zm5.249 0V1.488h-.45c-.08.35-.2.572-.363.666-.163.094-.45.16-.86.201v.437h1.065V6h.608Zm3.094.13c.49 0 .868-.139 1.136-.416.268-.278.402-.616.402-1.014 0-.338-.1-.612-.3-.823a1.449 1.449 0 0 0-.443-.298 1.28 1.28 0 0 0 .373-.29c.143-.176.215-.405.215-.687 0-.306-.123-.573-.37-.802-.247-.23-.588-.344-1.022-.344-.45 0-.796.122-1.041.364a1.182 1.182 0 0 0-.367.87c0 .27.083.49.25.659.088.09.212.17.37.237a1.225 1.225 0 0 0-.582.448 1.214 1.214 0 0 0-.196.694c0 .456.152.803.457 1.043.305.239.677.359 1.118.359Zm-.022-2.762a.9.9 0 0 1-.56-.18.593.593 0 0 1-.237-.5.74.74 0 0 1 .183-.498c.123-.14.321-.212.595-.212.277 0 .482.071.617.212a.66.66 0 0 1 .203.466c0 .194-.071.36-.212.501-.142.14-.338.21-.589.21ZM38.9 5.61c-.33 0-.572-.086-.73-.258a.877.877 0 0 1-.235-.612c0-.275.086-.49.258-.644.172-.155.394-.233.666-.233.28 0 .51.076.69.228.179.152.269.374.269.668 0 .282-.087.495-.261.637a1.003 1.003 0 0 1-.657.214Zm2.345 1.35c.248-.043.424-.16.525-.35.101-.19.152-.41.152-.662V5.31h-.677V6h.344a.218.218 0 0 1 .01.08c0 .088-.016.18-.048.274-.059.18-.16.282-.306.307v.3ZM47.619 6v-.538h-2.474c.055-.223.188-.427.399-.61.118-.104.28-.213.487-.326l.433-.24c.382-.214.647-.395.794-.545a1.27 1.27 0 0 0 .383-.93c0-.344-.12-.656-.359-.937-.24-.28-.618-.42-1.137-.42-.625 0-1.06.219-1.307.657-.14.25-.212.571-.218.965h.579c.008-.28.052-.5.133-.658.15-.295.42-.443.81-.443.263 0 .474.078.632.233.159.155.238.364.238.628a.832.832 0 0 1-.26.601c-.11.112-.3.247-.573.405l-.607.351c-.407.237-.68.5-.821.788-.14.29-.221.629-.242 1.019h3.11Zm2.041.123c.603 0 1.038-.289 1.304-.867.183-.402.275-.912.275-1.528 0-.65-.101-1.161-.304-1.534-.261-.483-.685-.725-1.272-.725-.652 0-1.102.344-1.35 1.032-.134.369-.2.81-.2 1.325 0 .665.11 1.194.332 1.589.266.472.67.708 1.215.708Zm-.003-.519c-.367 0-.627-.214-.779-.642-.099-.28-.148-.652-.148-1.114 0-.613.077-1.078.232-1.393.155-.316.4-.473.736-.473.365 0 .61.166.737.498.127.332.19.756.19 1.27 0 .713-.088 1.2-.263 1.462-.175.262-.41.392-.705.392Zm5.17.396v-.538h-2.474c.054-.223.187-.427.398-.61a2.68 2.68 0 0 1 .488-.326l.433-.24c.382-.214.647-.395.794-.545.255-.257.383-.568.383-.93 0-.344-.12-.656-.36-.937-.239-.28-.618-.42-1.137-.42-.624 0-1.06.219-1.306.657-.14.25-.212.571-.219.965h.58c.008-.28.052-.5.132-.658.15-.295.42-.443.81-.443.264 0 .475.078.633.233.158.155.237.364.237.628a.832.832 0 0 1-.26.601c-.109.112-.3.247-.572.405l-.607.351c-.407.237-.681.5-.821.788-.14.29-.221.629-.242 1.019h3.11Zm2.04.123c.604 0 1.039-.289 1.304-.867.184-.402.276-.912.276-1.528 0-.65-.102-1.161-.304-1.534-.262-.483-.686-.725-1.272-.725-.652 0-1.102.344-1.351 1.032-.133.369-.2.81-.2 1.325 0 .665.111 1.194.333 1.589.265.472.67.708 1.215.708Zm-.002-.519c-.367 0-.627-.214-.779-.642-.099-.28-.149-.652-.149-1.114 0-.613.078-1.078.233-1.393.155-.316.4-.473.736-.473.365 0 .61.166.737.498.126.332.19.756.19 1.27 0 .713-.088 1.2-.263 1.462-.175.262-.41.392-.705.392Z"/><path id="e" d="M1.804 6.123c.603 0 1.037-.289 1.303-.867.184-.402.275-.912.275-1.528 0-.65-.1-1.161-.303-1.534-.262-.483-.686-.725-1.272-.725-.652 0-1.102.344-1.351 1.032-.133.369-.2.81-.2 1.325 0 .665.111 1.194.333 1.589.265.472.67.708 1.215.708ZM1.8 5.604c-.367 0-.626-.214-.778-.642-.1-.28-.149-.652-.149-1.114 0-.613.078-1.078.233-1.393.155-.316.4-.473.735-.473.365 0 .611.166.738.498.126.332.19.756.19 1.27 0 .713-.088 1.2-.263 1.462-.175.262-.41.392-.706.392ZM4.873 6v-.69H4.21V6h.662Zm2.335.123c.603 0 1.038-.289 1.303-.867.184-.402.276-.912.276-1.528 0-.65-.102-1.161-.304-1.534-.262-.483-.686-.725-1.272-.725-.652 0-1.102.344-1.351 1.032-.133.369-.2.81-.2 1.325 0 .665.111 1.194.333 1.589.266.472.67.708 1.215.708Zm-.003-.519c-.367 0-.627-.214-.779-.642-.099-.28-.149-.652-.149-1.114 0-.613.078-1.078.233-1.393.155-.316.4-.473.736-.473.365 0 .61.166.737.498.126.332.19.756.19 1.27 0 .713-.088 1.2-.263 1.462-.175.262-.41.392-.705.392Zm3.607.52c.603 0 1.037-.29 1.303-.868.184-.402.275-.912.275-1.528 0-.65-.1-1.161-.303-1.534-.262-.483-.686-.725-1.272-.725-.652 0-1.102.344-1.351 1.032-.133.369-.2.81-.2 1.325 0 .665.111 1.194.333 1.589.265.472.67.708 1.215.708Zm-.004-.52c-.367 0-.626-.214-.778-.642-.1-.28-.149-.652-.149-1.114 0-.613.078-1.078.233-1.393.155-.316.4-.473.736-.473.364 0 .61.166.737.498.126.332.19.756.19 1.27 0 .713-.088 1.2-.263 1.462-.175.262-.41.392-.706.392Zm3.497.523c.66 0 1.128-.357 1.405-1.07.166-.428.25-.92.25-1.474 0-.492-.07-.901-.21-1.228-.25-.595-.706-.892-1.366-.892-.49 0-.86.156-1.11.468a1.682 1.682 0 0 0-.377 1.085c0 .428.127.779.381 1.05.254.273.6.409 1.036.409.215 0 .416-.04.603-.122.187-.081.343-.222.47-.422-.08.694-.216 1.154-.408 1.38-.192.228-.424.341-.696.341a.806.806 0 0 1-.393-.095c-.225-.12-.347-.337-.364-.652h-.575c0 .35.114.641.344.874.23.232.567.348 1.01.348Zm.085-2.152c-.314 0-.543-.087-.686-.261-.144-.174-.216-.409-.216-.704 0-.312.082-.562.246-.748.163-.187.384-.28.662-.28a.88.88 0 0 1 .641.245c.168.163.252.412.252.745 0 .371-.094.631-.28.78a.97.97 0 0 1-.619.223ZM18.564 6V1.488h-.45c-.08.35-.201.572-.364.666-.162.094-.449.16-.86.201v.437h1.066V6h.608Zm2.822 0c.097-.464.176-.8.237-1.01.095-.324.234-.684.418-1.078.185-.405.4-.783.64-1.133.242-.35.436-.596.581-.737v-.497h-3.151v.573h2.506a8.174 8.174 0 0 0-.912 1.3c-.489.857-.805 1.717-.949 2.582h.63Zm6.334 0c.612 0 1.058-.181 1.339-.544.187-.243.281-.514.281-.813 0-.357-.104-.636-.313-.839-.118-.114-.296-.216-.535-.307.163-.082.287-.173.374-.272.166-.188.25-.428.25-.721 0-.251-.068-.473-.203-.665-.23-.325-.617-.487-1.161-.487h-1.997V6h1.965Zm-.202-2.683h-1.146v-1.44h1.124c.274 0 .48.03.62.089.247.105.37.31.37.614 0 .301-.116.51-.348.626-.148.074-.354.11-.62.11Zm.212 2.145h-1.358V3.826h1.25c.264 0 .476.033.636.098.302.123.453.353.453.69a.85.85 0 0 1-.155.513c-.165.223-.44.335-.826.335ZM31.91 6V1.906h1.566v-.554h-3.772v.554h1.566V6h.64Zm4.018.12c.626 0 1.124-.2 1.493-.598.308-.33.49-.741.545-1.23h-.614c-.064.305-.16.552-.288.74-.243.356-.596.535-1.06.535-.504 0-.883-.17-1.138-.508-.254-.339-.38-.78-.38-1.324 0-.665.14-1.158.422-1.48.281-.321.65-.482 1.109-.482.375 0 .667.087.874.262.208.176.347.413.416.712h.614c-.036-.394-.216-.746-.54-1.056-.326-.31-.782-.466-1.37-.466-.69 0-1.232.239-1.624.716-.363.438-.544 1-.544 1.686 0 .903.241 1.57.724 2.003.367.327.82.49 1.36.49Z"/><filter id="b" width="115.7%" height="171.1%" x="-7.8%" y="-35.5%" filterUnits="objectBoundingBox"><feMorphology in="SourceAlpha" operator="dilate" radius="1" result="shadowSpreadOuter1"/><feOffset in="shadowSpreadOuter1" result="shadowOffsetOuter1"/><feGaussianBlur in="shadowOffsetOuter1" result="shadowBlurOuter1" stdDeviation="3.5"/><feColorMatrix in="shadowBlurOuter1" values="0 0 0 0 0 0 0 0 0 0 0 0 0 0 0 0 0 0 0.05 0"/></filter></defs><g fill="none" fill-rule="evenodd"><g transform="translate(9 9)"><use xlink:href="#a" fill="#000" filter="url(#b)"/><use xlink:href="#a" fill="#FFF"/></g><path d="M9 9h172v111H9z"/><g fill="#000" fill-rule="nonzero" transform="translate(135.9 18.48)"><use xlink:href="#c"/><use xlink:href="#c"/></g><g fill="#2FCFA4" fill-rule="nonzero" transform="translate(13.86 18.18)"><circle cx="10.8" cy="10.8" r="10.8" opacity=".102"/><path d="m15.142 11.981-.885-.9-2.717 2.764v-7.84h-1.264v7.84L7.56 11.08l-.885.9 4.234 4.305z"/></g><g fill-rule="nonzero" transform="translate(40.94 29.9)"><use xlink:href="#d" fill="#000"/><use xlink:href="#d" fill="#7A7E91"/></g><g fill-rule="nonzero" transform="translate(136.9 29.9)"><use xlink:href="#e" fill="#000"/><use xlink:href="#e" fill="#7A7E91"/></g><path fill="#000" fill-rule="nonzero" d="M44.125 25v-2.39l2.201-4.008h-.967l-1.66 3.216-1.657-3.216h-.976l2.202 4.007V25h.857Zm4.565.088c.437 0 .819-.105 1.145-.314.327-.21.578-.497.754-.862.176-.364.264-.777.264-1.237v-.1c0-.46-.088-.874-.264-1.24a2.056 2.056 0 0 0-.756-.864 2.093 2.093 0 0 0-1.151-.314c-.434 0-.814.105-1.14.314a2.06 2.06 0 0 0-.754.864c-.176.366-.264.78-.264 1.24v.1c0 .46.089.873.266 1.237.177.365.429.652.756.862.326.21.708.314 1.144.314Zm0-.66c-.29 0-.536-.078-.738-.234a1.418 1.418 0 0 1-.455-.635 2.474 2.474 0 0 1-.151-.884v-.1c0-.323.05-.617.151-.884a1.44 1.44 0 0 1 .453-.637c.2-.158.445-.238.732-.238.29 0 .536.08.738.238.202.158.354.37.457.637.102.267.154.561.154.883v.101c0 .323-.05.617-.152.884a1.418 1.418 0 0 1-.455.635 1.162 1.162 0 0 1-.734.235Zm4.725.66c.612 0 1.076-.186 1.393-.558l.013.47h.782v-4.755h-.822v3.467c-.208.46-.62.69-1.235.69a.848.848 0 0 1-.626-.244c-.162-.162-.244-.441-.244-.837v-3.076h-.822v3.067c0 .61.138 1.058.414 1.345.275.287.657.43 1.147.43Zm4.24-.088v-3.38a1.1 1.1 0 0 1 .407-.505c.18-.12.405-.18.674-.18.141 0 .274.012.4.035v-.751a1.243 1.243 0 0 0-.36-.062 1.28 1.28 0 0 0-.66.165 1.34 1.34 0 0 0-.465.464l-.018-.54h-.8V25h.822Zm6.869.088c.498 0 .92-.09 1.268-.27.347-.18.616-.43.806-.747.19-.318.31-.685.356-1.101h-.852c-.053.32-.134.583-.244.79-.11.209-.273.368-.488.478-.215.11-.497.164-.846.164-.363 0-.668-.1-.914-.298a1.77 1.77 0 0 1-.55-.813 3.509 3.509 0 0 1-.18-1.165v-.655c0-.457.066-.855.196-1.195a1.7 1.7 0 0 1 .582-.791c.258-.188.573-.281.945-.281.469 0 .819.122 1.05.367.232.244.381.605.449 1.083h.852a2.742 2.742 0 0 0-.35-1.127 1.949 1.949 0 0 0-.788-.747c-.337-.178-.741-.266-1.213-.266-.521 0-.977.122-1.367.367a2.37 2.37 0 0 0-.898 1.039c-.21.448-.315.968-.315 1.56v.646c0 .589.104 1.107.312 1.556.208.448.501.794.88 1.039a2.35 2.35 0 0 0 1.309.367Zm5.405 0c.437 0 .818-.105 1.145-.314.327-.21.578-.497.754-.862.175-.364.263-.777.263-1.237v-.1c0-.46-.088-.874-.263-1.24a2.056 2.056 0 0 0-.756-.864 2.093 2.093 0 0 0-1.152-.314 2.07 2.07 0 0 0-1.14.314 2.06 2.06 0 0 0-.754.864c-.175.366-.263.78-.263 1.24v.1c0 .46.088.873.266 1.237.177.365.429.652.755.862.327.21.709.314 1.145.314Zm0-.66c-.29 0-.536-.078-.738-.234a1.418 1.418 0 0 1-.455-.635 2.474 2.474 0 0 1-.152-.884v-.1c0-.323.051-.617.152-.884a1.44 1.44 0 0 1 .453-.637c.2-.158.444-.238.731-.238.29 0 .537.08.739.238.202.158.354.37.457.637.102.267.154.561.154.883v.101c0 .323-.051.617-.152.884a1.418 1.418 0 0 1-.455.635 1.162 1.162 0 0 1-.734.235Zm4 .572v-3.49c.093-.21.23-.375.408-.494.179-.118.404-.178.677-.178.676 0 1.015.345 1.015 1.033V25h.822v-3.15a1.27 1.27 0 0 1 .164-.515.981.981 0 0 1 .372-.363c.158-.089.342-.134.553-.134.331 0 .583.077.754.231.171.154.257.42.257.798V25h.822v-3.125c0-.588-.135-1.022-.404-1.3-.27-.279-.665-.418-1.187-.418-.33 0-.625.068-.881.202-.256.135-.467.32-.63.554a1.202 1.202 0 0 0-.535-.569 1.74 1.74 0 0 0-.823-.187c-.302 0-.57.052-.805.156a1.652 1.652 0 0 0-.597.446l-.027-.514h-.778V25h.822Zm7.892 1.828v-2.285c.33.363.783.545 1.358.545.383 0 .714-.103.99-.31.278-.206.488-.492.633-.857a3.35 3.35 0 0 0 .218-1.246v-.092c0-.486-.072-.912-.215-1.277a1.847 1.847 0 0 0-.633-.848c-.278-.2-.614-.3-1.006-.3-.586 0-1.045.201-1.376.606l-.044-.519H81v6.583h.822Zm1.107-2.4c-.495 0-.864-.215-1.107-.645v-2.29a1.31 1.31 0 0 1 .44-.479 1.19 1.19 0 0 1 .658-.176c.285 0 .523.078.715.233.191.156.334.364.426.627.092.262.138.557.138.885v.092c0 .328-.046.624-.138.888a1.39 1.39 0 0 1-.424.63c-.19.157-.427.236-.708.236Zm4.597.66c.275 0 .528-.054.758-.16.23-.107.427-.249.591-.425.026.217.064.383.114.497h.857v-.07a1.966 1.966 0 0 1-.123-.45 3.165 3.165 0 0 1-.044-.517v-2.215c0-.346-.074-.638-.224-.877a1.38 1.38 0 0 0-.622-.536 2.246 2.246 0 0 0-.925-.178c-.369 0-.697.068-.984.205-.287.136-.51.312-.668.53-.158.216-.237.44-.237.671h.821c0-.134.044-.26.13-.375a.89.89 0 0 1 .363-.277 1.28 1.28 0 0 1 .527-.103c.322 0 .569.082.74.248.172.165.257.393.257.683v.378h-.8c-.436 0-.815.06-1.135.178-.321.119-.569.295-.743.53-.174.234-.261.52-.261.857 0 .26.066.498.2.712.133.213.322.383.566.507.245.125.525.187.842.187Zm.119-.703c-.194 0-.358-.036-.493-.108a.75.75 0 0 1-.307-.292.826.826 0 0 1-.106-.418c0-.29.125-.509.374-.657.249-.148.608-.222 1.076-.222h.668v.985c-.061.126-.15.243-.268.351a1.384 1.384 0 0 1-.945.36Zm4.13.615v-3.401c.118-.232.277-.416.477-.554.2-.138.427-.207.68-.207.316 0 .552.082.709.246.157.165.235.428.235.791V25h.822v-3.116c0-1.151-.509-1.727-1.525-1.727-.29 0-.555.059-.796.176a1.81 1.81 0 0 0-.62.497l-.026-.585h-.777V25h.821Zm4.364 1.92c.381 0 .682-.118.903-.353.221-.236.39-.514.508-.833l1.907-5.489h-.874l-1.103 3.56-1.178-3.56h-.897l1.697 4.702-.18.488c-.097.29-.223.493-.376.609-.154.115-.37.173-.649.173a1.532 1.532 0 0 1-.22-.022v.655c.05.015.125.03.223.046s.178.024.24.024Zm7.256-1.92v-2.51h1.511c.48 0 .889-.075 1.224-.226.336-.15.59-.37.763-.661.172-.29.259-.64.259-1.05a1.94 1.94 0 0 0-.262-1.015 1.773 1.773 0 0 0-.769-.688c-.338-.166-.743-.248-1.215-.248h-2.364V25h.853Zm1.511-3.195h-1.511v-2.513h1.511c.314 0 .575.057.785.173.21.116.363.27.461.462.098.191.147.403.147.635 0 .383-.113.687-.34.91-.227.222-.578.333-1.053.333Zm4.615 3.283c.275 0 .528-.054.758-.16a1.87 1.87 0 0 0 .59-.425c.027.217.065.383.115.497h.857v-.07a1.966 1.966 0 0 1-.123-.45 3.165 3.165 0 0 1-.044-.517v-2.215c0-.346-.075-.638-.224-.877a1.38 1.38 0 0 0-.622-.536 2.246 2.246 0 0 0-.925-.178c-.37 0-.697.068-.985.205-.287.136-.51.312-.667.53-.159.216-.238.44-.238.671h.822a.61.61 0 0 1 .13-.375.89.89 0 0 1 .362-.277c.155-.069.331-.103.528-.103.322 0 .569.082.74.248.171.165.257.393.257.683v.378h-.8c-.436 0-.815.06-1.136.178-.32.119-.568.295-.742.53-.175.234-.262.52-.262.857 0 .26.067.498.2.712.133.213.322.383.567.507.245.125.525.187.842.187Zm.118-.703c-.193 0-.357-.036-.492-.108a.75.75 0 0 1-.308-.292.826.826 0 0 1-.105-.418c0-.29.124-.509.373-.657.25-.148.608-.222 1.077-.222h.668v.985c-.061.126-.15.243-.268.351a1.384 1.384 0 0 1-.945.36Zm3.525 2.535c.38 0 .681-.118.903-.353.22-.236.39-.514.507-.833l1.907-5.489h-.874l-1.103 3.56-1.178-3.56h-.896l1.696 4.702-.18.488c-.097.29-.222.493-.376.609-.154.115-.37.173-.648.173a1.532 1.532 0 0 1-.22-.022v.655c.05.015.124.03.222.046s.178.024.24.024Zm4.864-1.92v-3.38a1.1 1.1 0 0 1 .407-.505c.18-.12.405-.18.674-.18.141 0 .274.012.4.035v-.751a1.243 1.243 0 0 0-.36-.062 1.28 1.28 0 0 0-.66.165 1.34 1.34 0 0 0-.465.464l-.018-.54h-.8V25h.822Zm4.03.088c.437 0 .818-.105 1.145-.314.327-.21.578-.497.754-.862.175-.364.263-.777.263-1.237v-.1c0-.46-.088-.874-.263-1.24a2.056 2.056 0 0 0-.756-.864 2.093 2.093 0 0 0-1.152-.314 2.07 2.07 0 0 0-1.14.314 2.06 2.06 0 0 0-.754.864c-.175.366-.263.78-.263 1.24v.1c0 .46.088.873.265 1.237.178.365.43.652.756.862.327.21.709.314 1.145.314Zm0-.66c-.29 0-.536-.078-.738-.234a1.418 1.418 0 0 1-.455-.635 2.474 2.474 0 0 1-.152-.884v-.1c0-.323.05-.617.152-.884a1.44 1.44 0 0 1 .453-.637c.2-.158.444-.238.731-.238.29 0 .536.08.739.238.202.158.354.37.457.637.102.267.153.561.153.883v.101c0 .323-.05.617-.151.884a1.418 1.418 0 0 1-.455.635 1.162 1.162 0 0 1-.734.235Zm4.074.572v-6.75h-.822V25h.822Zm2.188 0v-6.75h-.821V25h.821Z"/></g></svg>