<?xml version="1.0" standalone="no"?>
<!DOCTYPE svg PUBLIC "-//W3C//DTD SVG 20010904//EN"
 "http://www.w3.org/TR/2001/REC-SVG-20010904/DTD/svg10.dtd">
<svg version="1.0" xmlns="http://www.w3.org/2000/svg"
 width="834.000000pt" height="886.000000pt" viewBox="0 0 834.000000 886.000000"
 preserveAspectRatio="xMidYMid meet">

<g transform="translate(0.000000,886.000000) scale(0.100000,-0.100000)"
fill="#000000" stroke="none">
<path d="M2453 7727 c-986 -535 -1791 -976 -1789 -982 3 -11 3592 -2085 3608
-2085 11 0 1356 777 1375 794 9 8 -58 51 -280 176 -161 91 -298 164 -305 164
-6 -1 -187 -104 -401 -228 l-389 -227 -1201 693 c-660 381 -1197 696 -1193
700 12 12 2384 1298 2394 1298 5 0 41 -19 81 -41 188 -108 2931 -1589 2941
-1589 16 1 579 335 582 346 4 12 -3579 1948 -3609 1951 -13 1 -752 -394 -1814
-970z"/>
<path d="M7970 6394 c-69 -40 -890 -516 -1825 -1057 l-1700 -983 -3 -817 c-1
-602 1 -817 9 -817 6 0 139 73 295 162 l284 162 0 481 1 480 1196 690 c658
380 1218 702 1245 718 l48 27 0 -1392 0 -1393 -1453 -893 c-798 -490 -1491
-916 -1539 -945 l-88 -52 0 -342 c0 -247 3 -343 11 -343 6 0 832 505 1835
1123 l1824 1122 0 2073 c0 1139 -3 2072 -7 2071 -5 -1 -64 -34 -133 -75z"/>
<path d="M432 4390 l3 -2071 1817 -1120 c1000 -615 1822 -1119 1828 -1119 7 0
10 711 10 2138 l-1 2137 -641 370 c-353 204 -668 385 -700 403 l-58 33 0 -343
1 -343 404 -235 405 -235 0 -1438 0 -1438 -24 13 c-13 7 -571 351 -1239 763
l-1216 750 -1 1736 0 1737 -287 163 c-157 90 -290 166 -295 167 -4 2 -7 -928
-6 -2068z"/>
</g>
</svg>
