<svg xmlns="http://www.w3.org/2000/svg" xmlns:xlink="http://www.w3.org/1999/xlink" width="190" height="196"><defs><path id="a" d="M5.338 0h161.324A5.338 5.338 0 0 1 172 5.338v167.324a5.338 5.338 0 0 1-5.338 5.338H5.338A5.338 5.338 0 0 1 0 172.662V5.338A5.338 5.338 0 0 1 5.338 0z"/><path id="c" d="M0 0h23.52v21H0z"/><filter id="b" width="115.7%" height="115.2%" x="-7.8%" y="-7.6%" filterUnits="objectBoundingBox"><feMorphology in="SourceAlpha" operator="dilate" radius="1" result="shadowSpreadOuter1"/><feOffset in="shadowSpreadOuter1" result="shadowOffsetOuter1"/><feGaussianBlur in="shadowOffsetOuter1" result="shadowBlurOuter1" stdDeviation="3.5"/><feColorMatrix in="shadowBlurOuter1" values="0 0 0 0 0 0 0 0 0 0 0 0 0 0 0 0 0 0 0.05 0"/></filter></defs><g fill="none" fill-rule="evenodd"><g transform="translate(9 9)"><use xlink:href="#a" fill="#000" filter="url(#b)"/><use xlink:href="#a" fill="#FFF"/></g><g transform="translate(58 122)"><rect width="75" height="14" fill="#EBEBEB" rx="7"/><path fill="#565D6E" fill-rule="nonzero" d="M10.54 9.358V7.464h1.66v-.993h-1.66v-1.77H9.485v1.77h-1.67v.993h1.67v1.894h1.055zm7.18 1.574v-.857c.536-.059.957-.24 1.264-.543.306-.303.459-.708.459-1.215 0-.352-.072-.65-.215-.894a1.821 1.821 0 0 0-.611-.618 5.261 5.261 0 0 0-1.015-.474c-.27-.1-.48-.199-.633-.297a.95.95 0 0 1-.328-.325.87.87 0 0 1-.099-.429c0-.266.074-.478.22-.635.147-.156.366-.235.66-.235.284 0 .505.104.665.312.16.208.24.495.24.861h1.094c0-.585-.142-1.056-.426-1.41-.285-.355-.679-.567-1.183-.637v-.967h-.703v.958a2.112 2.112 0 0 0-.874.285 1.584 1.584 0 0 0-.578.607c-.136.252-.204.54-.204.866 0 .354.074.654.222.9.148.247.355.453.621.62a4.97 4.97 0 0 0 1.016.462c.377.131.646.279.804.441a.85.85 0 0 1 .237.618c0 .266-.087.477-.261.632-.175.156-.422.233-.74.233-.297 0-.546-.088-.748-.265-.202-.178-.303-.471-.303-.882h-1.094c0 .437.082.801.248 1.092.165.292.384.512.657.662.272.15.576.242.91.277v.857h.698zM23.284 10V3.58h-.137l-2.518.922v.915l1.56-.523V10h1.095zm4.179.088c.413 0 .784-.074 1.112-.222a1.78 1.78 0 0 0 .773-.648c.188-.284.281-.621.281-1.011a1.6 1.6 0 0 0-.263-.91c-.176-.263-.447-.458-.813-.584a1.66 1.66 0 0 0 .725-.593c.17-.255.255-.517.255-.787 0-.393-.086-.725-.257-.998a1.594 1.594 0 0 0-.723-.615 2.67 2.67 0 0 0-1.09-.206c-.387 0-.736.075-1.048.226-.312.15-.556.36-.732.626a1.6 1.6 0 0 0-.264.901h1.095c0-.176.041-.33.125-.461a.832.832 0 0 1 .345-.306c.146-.072.312-.107.496-.107.317 0 .556.082.717.246.16.164.241.395.241.694 0 .296-.09.532-.272.708-.182.175-.447.263-.795.263h-.638v.862h.638c.369 0 .655.084.859.254.203.17.305.431.305.783 0 .319-.093.567-.279.742-.186.176-.444.264-.776.264a1.2 1.2 0 0 1-.54-.116.854.854 0 0 1-.36-.33.928.928 0 0 1-.128-.486h-1.094c0 .384.096.712.288.985.192.272.448.478.769.617.32.14.67.209 1.048.209zm5.348 0c.428 0 .8-.095 1.114-.286.315-.19.556-.452.723-.784a2.46 2.46 0 0 0 .25-1.119c0-.386-.067-.742-.202-1.067a1.771 1.771 0 0 0-.615-.783c-.275-.196-.612-.294-1.01-.294-.264 0-.508.045-.73.136-.223.09-.415.223-.576.396.041-.355.143-.668.306-.939a1.72 1.72 0 0 1 .696-.643c.302-.159.672-.238 1.112-.238h.075v-.9h-.132c-.73 0-1.332.16-1.806.478-.475.32-.822.748-1.042 1.286-.22.537-.33 1.143-.33 1.817v.426c0 .457.086.877.258 1.26.171.382.42.686.749.913.328.227.715.34 1.16.34zm-.013-.883a.881.881 0 0 1-.534-.176 1.175 1.175 0 0 1-.38-.52 2.205 2.205 0 0 1-.14-.834v-.338c.081-.202.217-.37.408-.501.19-.132.404-.198.641-.198.214 0 .398.057.552.172.154.114.27.268.35.463.078.195.118.413.118.653 0 .249-.041.47-.123.663-.082.194-.2.345-.352.453a.908.908 0 0 1-.54.163zm3.691.848a.628.628 0 0 0 .462-.17.577.577 0 0 0 .171-.428.59.59 0 0 0-.171-.435.624.624 0 0 0-.462-.171.632.632 0 0 0-.466.171.59.59 0 0 0-.17.435c0 .173.056.316.17.429a.64.64 0 0 0 .466.169zM41.183 10V3.58h-.137l-2.518.922v.915l1.56-.523V10h1.095zm6.521 0v-.879H44.76l1.388-1.485c.428-.449.753-.86.976-1.233.223-.373.334-.748.334-1.123 0-.36-.08-.673-.237-.938a1.559 1.559 0 0 0-.69-.613c-.302-.144-.665-.215-1.09-.215-.448 0-.837.09-1.165.272a1.88 1.88 0 0 0-.751.738c-.173.311-.26.655-.26 1.033h1.095c0-.351.091-.633.275-.846.183-.212.447-.318.793-.318.293 0 .522.092.687.276.166.185.249.427.249.726 0 .146-.027.293-.082.439a2.234 2.234 0 0 1-.274.494 7.462 7.462 0 0 1-.536.657l-2.083 2.26V10h4.315zm5.52.088a2.88 2.88 0 0 0 1.226-.253c.363-.168.65-.42.859-.753.21-.334.314-.739.314-1.213V3.602h-1.138v4.267c0 .442-.11.77-.328.984-.218.214-.53.32-.933.32-.399 0-.709-.107-.93-.322-.221-.216-.332-.543-.332-.982V3.602H50.83v4.267c0 .477.101.882.305 1.215.204.332.486.583.848.751a2.91 2.91 0 0 0 1.242.253zm5.77 0c.46 0 .862-.071 1.206-.213.344-.142.61-.345.798-.609.187-.264.28-.574.28-.932 0-.336-.075-.63-.228-.883-.152-.252-.383-.47-.692-.655-.309-.184-.707-.348-1.193-.492-.466-.135-.807-.281-1.024-.44-.217-.157-.325-.35-.325-.58 0-.257.096-.466.288-.626.192-.16.472-.24.841-.24.393 0 .69.096.89.287.2.19.301.445.301.764h1.134c0-.36-.094-.689-.281-.986a1.957 1.957 0 0 0-.807-.708c-.35-.174-.758-.261-1.224-.261-.445 0-.84.075-1.186.226-.346.15-.615.361-.806.63-.192.27-.288.576-.288.92 0 .488.183.885.55 1.19.365.305.885.561 1.56.769.368.111.649.218.84.32.193.103.325.214.398.333.074.118.11.265.11.441a.738.738 0 0 1-.294.615c-.196.153-.48.229-.848.229-.416 0-.75-.093-1-.279-.25-.186-.376-.471-.376-.855H56.48c0 .434.12.804.358 1.112.239.308.55.538.936.692.385.154.792.23 1.22.23zM64.1 10c.586 0 1.1-.125 1.543-.376.442-.25.784-.605 1.026-1.063.241-.459.362-.993.362-1.602v-.312c0-.606-.12-1.14-.362-1.6A2.602 2.602 0 0 0 65.65 3.98c-.436-.251-.939-.377-1.507-.377h-1.898V10H64.1zm0-.914h-.716V4.52h.76c.565 0 .998.182 1.296.545.3.363.449.888.449 1.573v.321c0 .677-.152 1.2-.455 1.571-.303.37-.748.556-1.334.556z"/></g><g fill-rule="nonzero" transform="translate(72 66.952)"><path fill="#4F6EF7" d="M42.336 8.064a2.016 2.016 0 0 0-2.016-2.016H5.04a3.027 3.027 0 0 1-3.024-3.024 1.008 1.008 0 0 0-2.016 0V35.28a7.056 7.056 0 0 0 7.056 7.056H40.32a2.016 2.016 0 0 0 2.016-2.016V8.064z"/><path fill="#1A3B8B" d="M45.36 19.152H35.28a5.046 5.046 0 0 0-5.04 5.04 5.046 5.046 0 0 0 5.04 5.04h10.08c.557 0 1.008-.451 1.008-1.008V20.16c0-.557-.451-1.008-1.008-1.008zM3.024 0h28.224c1.113 0 2.016.903 2.016 2.016v4.032H3.024a3.024 3.024 0 1 1 0-6.048z"/><circle cx="35.28" cy="24.192" r="2.016" fill="#98AAFA"/></g><path fill="#2FCFA4" d="M82.08 52h23.52v21H82.08z"/><g transform="translate(82.08 52)"><mask id="d" fill="#fff"><use xlink:href="#c"/></mask><use xlink:href="#c" fill="#2FCFA4"/><g fill="#FFF" mask="url(#d)"><path d="M14.829 17.9c-.49-.284-1.222-.575-2.195-.873v-4.003c.966.073 1.916.283 2.851.636l.502-1.204a10.225 10.225 0 0 0-3.353-.674V10.08h-1.412v1.73c-1.856.213-3.479 1.141-3.479 2.897 0 1.986 1.471 2.778 3.479 3.397v4.07c-1.15-.015-2.624-.328-3.662-.77v1.434c1.005.443 2.552.598 3.662.605v2.093h1.412v-2.185c1.141-.146 2.035-.483 2.677-1.014.657-.542.985-1.23.985-2.062 0-1.029-.419-1.767-1.467-2.375zm-3.607-1.327c-1.08-.393-1.847-.805-1.847-1.884 0-.97.848-1.443 1.847-1.617v3.501zm1.412 5.499v-3.536c1.141.381 2.021.753 2.021 1.859 0 .925-.677 1.482-2.02 1.677z"/></g></g></g></svg>