<svg xmlns="http://www.w3.org/2000/svg" xmlns:xlink="http://www.w3.org/1999/xlink" width="705" height="974"><defs><path id="a" d="M0 11h687v952H0z"/><path id="c" d="M0 0h23.5v16.5H0z"/><path id="e" d="M0 16.5h23.5V0H0z"/><filter id="b" width="103.9%" height="102.8%" x="-2%" y="-1.4%" filterUnits="objectBoundingBox"><feMorphology in="SourceAlpha" operator="dilate" radius="1" result="shadowSpreadOuter1"/><feOffset in="shadowSpreadOuter1" result="shadowOffsetOuter1"/><feGaussianBlur in="shadowOffsetOuter1" result="shadowBlurOuter1" stdDeviation="3.5"/><feColorMatrix in="shadowBlurOuter1" values="0 0 0 0 0 0 0 0 0 0 0 0 0 0 0 0 0 0 0.05 0"/></filter></defs><g fill="none" fill-rule="evenodd" transform="translate(9)"><use xlink:href="#a" fill="#000" filter="url(#b)"/><use xlink:href="#a" fill="#FFF"/><rect width="687" height="38" fill="#F7F8FB" rx="6"/><rect width="687" height="70" y="904" fill="#2A4998" rx="6"/><path fill="#2A4998" d="M0 891h687v38H0z"/><path fill="#F7F8FB" d="M0 7h687v47H0zm0 340h687v59H0z"/><path fill="#535668" fill-rule="nonzero" d="M47.462 34c1.412 0 2.508-.32 3.287-.962.78-.642 1.17-1.57 1.17-2.782 0-.697-.182-1.311-.546-1.841-.363-.53-.9-.89-1.608-1.077.598-.246 1.056-.604 1.375-1.072.32-.47.48-1.002.48-1.6 0-1.166-.387-2.035-1.16-2.606-.774-.571-1.882-.857-3.323-.857h-4.395V34h4.72zm-.307-7.418h-2.136V23.04h2.118c.762 0 1.321.14 1.679.418.357.278.536.728.536 1.349 0 .562-.192.999-.576 1.31-.384.31-.924.465-1.621.465zm.307 5.59H45.02v-3.92h2.54c1.394 0 2.092.668 2.092 2.004 0 .58-.19 1.044-.567 1.393-.378.349-.919.523-1.622.523zm12.009 2.004c.908 0 1.726-.169 2.452-.506a3.94 3.94 0 0 0 1.718-1.507c.42-.668.629-1.476.629-2.426v-8.534h-2.277v8.534c0 .885-.218 1.541-.654 1.97-.437.427-1.06.64-1.868.64-.797 0-1.417-.215-1.859-.645-.442-.431-.663-1.086-.663-1.965v-8.534H54.68v8.534c0 .955.204 1.765.61 2.43a3.845 3.845 0 0 0 1.697 1.503c.724.337 1.551.506 2.483.506zM72.711 34v-4.702l4.28-8.095h-2.523l-2.91 6.02-2.9-6.02h-2.522l4.28 8.095V34h2.294zm14.776 0v-1.828H81.37v-3.867h5.23v-1.793h-5.23V23.04h6.065v-1.837h-8.341V34h8.393zm4.802 0v-4.904h2.435L97.264 34h2.443v-.114l-2.856-5.326c.744-.317 1.318-.768 1.722-1.354.405-.586.607-1.3.607-2.144 0-1.249-.403-2.204-1.209-2.866-.805-.662-1.946-.993-3.423-.993h-4.535V34h2.276zm2.268-6.732h-2.268V23.04h2.259c.797 0 1.389.188 1.775.563.387.375.58.899.58 1.573 0 .633-.2 1.14-.602 1.52-.4.381-.982.572-1.744.572zM109.662 34V21.203h-2.267V34h2.267zm5.716 0v-9l5.634 9h2.276V21.203h-2.259v9.018l-5.651-9.018h-2.276V34h2.276zm13.52 0v-5.396h5.142v-1.829h-5.142V23.04h5.88v-1.837h-8.156V34h2.276zm13.292.176c1.055 0 1.984-.252 2.787-.756.802-.504 1.425-1.226 1.867-2.167.443-.94.664-2.049.664-3.326v-.642c0-1.277-.223-2.388-.668-3.33-.445-.944-1.071-1.668-1.877-2.172-.805-.504-1.735-.756-2.79-.756-1.043 0-1.967.254-2.773.76-.806.507-1.433 1.233-1.881 2.176-.448.943-.672 2.05-.672 3.322v.642c0 1.271.225 2.379.676 3.322.452.943 1.081 1.667 1.89 2.17.809.505 1.734.757 2.777.757zm0-1.872c-.627 0-1.17-.169-1.63-.506-.46-.337-.813-.833-1.059-1.49-.246-.656-.37-1.45-.37-2.381v-.66c0-.931.122-1.724.366-2.377.243-.653.593-1.147 1.05-1.48.457-.335.999-.502 1.626-.502.972 0 1.724.374 2.254 1.12.53.748.796 1.827.796 3.24v.659c0 1.418-.263 2.502-.787 3.252s-1.273 1.125-2.246 1.125zM152.696 34v-4.904h2.435L157.67 34h2.443v-.114l-2.856-5.326c.744-.317 1.318-.768 1.722-1.354.405-.586.607-1.3.607-2.144 0-1.249-.403-2.204-1.209-2.866-.805-.662-1.946-.993-3.423-.993h-4.535V34h2.276zm2.268-6.732h-2.268V23.04h2.259c.797 0 1.389.188 1.775.563.387.375.58.899.58 1.573 0 .633-.2 1.14-.602 1.52-.4.381-.982.572-1.744.572zm9.75 6.732v-4.13l-.229-5.679L168.212 34h1.626l3.726-9.817-.22 5.686V34h2.268V21.203h-2.953l-3.63 9.738-3.638-9.738h-2.954V34h2.277zm15.471 0 1.02-2.936h4.913l1.02 2.936h2.381l-4.842-12.797h-2.048L177.804 34h2.381zm5.291-4.772h-3.638l1.82-5.248 1.818 5.248zM195.903 34V23.04h3.982v-1.837h-10.187v1.837h3.938V34h2.267zm8.792 0V21.203h-2.267V34h2.267zm8.379.176c1.055 0 1.983-.252 2.786-.756.803-.504 1.425-1.226 1.868-2.167.442-.94.663-2.049.663-3.326v-.642c0-1.277-.222-2.388-.668-3.33-.445-.944-1.07-1.668-1.876-2.172-.806-.504-1.736-.756-2.79-.756-1.044 0-1.968.254-2.774.76-.805.507-1.432 1.233-1.88 2.176-.449.943-.673 2.05-.673 3.322v.642c0 1.271.226 2.379.677 3.322.451.943 1.081 1.667 1.89 2.17.808.505 1.734.757 2.777.757zm0-1.872c-.627 0-1.17-.169-1.63-.506-.46-.337-.813-.833-1.06-1.49-.246-.656-.369-1.45-.369-2.381v-.66c0-.931.122-1.724.365-2.377.243-.653.593-1.147 1.05-1.48.457-.335 1-.502 1.626-.502.973 0 1.725.374 2.255 1.12.53.748.795 1.827.795 3.24v.659c0 1.418-.262 2.502-.786 3.252-.525.75-1.273 1.125-2.246 1.125zM223.58 34v-9l5.634 9h2.276V21.203h-2.259v9.018l-5.651-9.018h-2.277V34h2.277zM48.685 382c1.412 0 2.508-.32 3.287-.962.78-.642 1.17-1.57 1.17-2.782 0-.697-.182-1.311-.546-1.841-.363-.53-.899-.89-1.608-1.077.598-.246 1.056-.604 1.376-1.072a2.78 2.78 0 0 0 .479-1.6c0-1.166-.387-2.035-1.16-2.606-.774-.571-1.881-.857-3.323-.857h-4.394V382h4.72zm-.307-7.418h-2.136v-3.542h2.118c.762 0 1.321.14 1.679.418.357.278.536.728.536 1.349 0 .562-.192.999-.576 1.31-.383.31-.924.465-1.621.465zm.307 5.59h-2.443v-3.92h2.54c1.395 0 2.092.668 2.092 2.004 0 .58-.19 1.044-.567 1.393-.378.349-.919.523-1.622.523zM58.497 382v-12.797h-2.268V382h2.268zm11.499 0v-1.828h-5.783v-10.969h-2.277V382h8.06zm10.488 0v-1.828h-5.783v-10.969h-2.277V382h8.06zm9.955 0v-12.797h-2.268V382h2.268zm5.716 0v-9l5.634 9h2.276v-12.797h-2.259v9.018l-5.651-9.018h-2.277V382h2.277zm13.52 0v-5.396h5.142v-1.829h-5.142v-3.735h5.88v-1.837H107.4V382h2.276zm13.292.176c1.055 0 1.984-.252 2.786-.756.803-.504 1.426-1.226 1.868-2.167.442-.94.664-2.049.664-3.326v-.642c0-1.277-.223-2.388-.668-3.33-.446-.944-1.071-1.668-1.877-2.172-.805-.504-1.736-.756-2.79-.756-1.043 0-1.968.254-2.773.76-.806.507-1.433 1.233-1.881 2.176-.448.943-.672 2.05-.672 3.322v.642c0 1.271.225 2.379.676 3.322.451.943 1.081 1.667 1.89 2.17.809.505 1.734.757 2.777.757zm0-1.872c-.627 0-1.17-.169-1.63-.506-.46-.337-.813-.833-1.06-1.49-.245-.656-.368-1.45-.368-2.381v-.66c0-.931.121-1.724.364-2.377.244-.653.594-1.147 1.05-1.48.458-.335 1-.502 1.627-.502.972 0 1.724.374 2.254 1.12.53.748.796 1.827.796 3.24v.659c0 1.418-.263 2.502-.787 3.252-.525.75-1.273 1.125-2.246 1.125zM133.473 382v-4.904h2.435l2.54 4.904h2.443v-.114l-2.856-5.326c.744-.317 1.318-.768 1.722-1.354.405-.586.607-1.3.607-2.144 0-1.249-.403-2.204-1.209-2.866-.805-.662-1.947-.993-3.423-.993h-4.535V382h2.276zm2.268-6.732h-2.268v-4.228h2.259c.797 0 1.389.188 1.775.563.387.375.58.899.58 1.573 0 .633-.2 1.14-.602 1.52-.401.381-.983.572-1.744.572zm9.75 6.732v-4.13l-.229-5.679L148.99 382h1.626l3.726-9.817-.22 5.686V382h2.268v-12.797h-2.953l-3.63 9.738-3.639-9.738h-2.953V382h2.277zm15.471 0 1.02-2.936h4.913l1.02 2.936h2.381l-4.842-12.797h-2.048L158.58 382h2.382zm5.291-4.772h-3.638l1.819-5.248 1.82 5.248zM176.68 382v-10.96h3.981v-1.837h-10.186v1.837h3.937V382h2.268zm8.792 0v-12.797h-2.268V382h2.268zm8.379.176c1.055 0 1.983-.252 2.786-.756.803-.504 1.425-1.226 1.868-2.167.442-.94.663-2.049.663-3.326v-.642c0-1.277-.222-2.388-.668-3.33-.445-.944-1.07-1.668-1.876-2.172-.806-.504-1.736-.756-2.79-.756-1.044 0-1.968.254-2.774.76-.805.507-1.432 1.233-1.88 2.176-.449.943-.673 2.05-.673 3.322v.642c0 1.271.226 2.379.677 3.322.451.943 1.08 1.667 1.89 2.17.808.505 1.734.757 2.777.757zm0-1.872c-.627 0-1.17-.169-1.63-.506-.46-.337-.813-.833-1.06-1.49-.246-.656-.369-1.45-.369-2.381v-.66c0-.931.122-1.724.365-2.377.243-.653.593-1.147 1.05-1.48.457-.335 1-.502 1.626-.502.973 0 1.724.374 2.255 1.12.53.748.795 1.827.795 3.24v.659c0 1.418-.262 2.502-.787 3.252-.524.75-1.272 1.125-2.245 1.125zM204.357 382v-9l5.633 9h2.277v-12.797h-2.259v9.018l-5.651-9.018h-2.277V382h2.277z"/><path fill="#FFF" fill-rule="nonzero" d="M49.635 939.176c1.055 0 1.983-.252 2.786-.756.803-.504 1.425-1.226 1.868-2.167.442-.94.663-2.049.663-3.326v-.642c0-1.277-.222-2.388-.668-3.33-.445-.944-1.07-1.668-1.876-2.172-.806-.504-1.736-.756-2.79-.756-1.044 0-1.968.254-2.774.76-.805.507-1.432 1.233-1.88 2.176-.449.943-.673 2.05-.673 3.322v.642c0 1.271.226 2.379.677 3.322.451.943 1.081 1.667 1.89 2.17.808.505 1.734.757 2.777.757zm0-1.872c-.627 0-1.17-.169-1.63-.506-.46-.337-.813-.833-1.06-1.49-.246-.656-.369-1.45-.369-2.381v-.66c0-.931.122-1.724.365-2.377.243-.653.593-1.147 1.05-1.48.457-.335 1-.502 1.626-.502.973 0 1.724.374 2.255 1.12.53.748.795 1.827.795 3.24v.659c0 1.418-.262 2.502-.786 3.252-.525.75-1.273 1.125-2.246 1.125zM60.141 939v-4.904h2.434l2.54 4.904h2.444v-.114l-2.857-5.326c.744-.317 1.319-.768 1.723-1.354.404-.586.606-1.3.606-2.144 0-1.249-.402-2.204-1.208-2.866-.806-.662-1.947-.993-3.423-.993h-4.536V939h2.277zm2.267-6.732h-2.267v-4.228H62.4c.796 0 1.388.188 1.775.563.387.375.58.899.58 1.573 0 .633-.2 1.14-.602 1.52-.401.381-.983.572-1.745.572zM73.591 939c1.172 0 2.2-.25 3.085-.751a5.149 5.149 0 0 0 2.052-2.127c.484-.917.725-1.985.725-3.204v-.624c0-1.213-.241-2.28-.725-3.2a5.203 5.203 0 0 0-2.035-2.135c-.873-.504-1.877-.756-3.014-.756h-3.797V939h3.709zm0-1.828h-1.433v-9.132h1.52c1.132 0 1.996.363 2.594 1.09.597.726.896 1.775.896 3.146v.642c0 1.353-.303 2.4-.91 3.142-.606.741-1.495 1.112-2.667 1.112zM90.768 939v-1.828H84.65v-3.867h5.23v-1.793h-5.23v-3.472h6.065v-1.837h-8.34V939h8.393zm4.801 0v-4.904h2.435l2.54 4.904h2.443v-.114l-2.856-5.326c.744-.317 1.318-.768 1.723-1.354.404-.586.606-1.3.606-2.144 0-1.249-.403-2.204-1.208-2.866-.806-.662-1.947-.993-3.424-.993h-4.535V939h2.276zm2.268-6.732h-2.268v-4.228h2.26c.796 0 1.388.188 1.775.563.386.375.58.899.58 1.573 0 .633-.201 1.14-.602 1.52-.402.381-.983.572-1.745.572zM115.43 939v-10.96h3.981v-1.837h-10.186v1.837h3.937V939h2.268zm10.998.176c1.054 0 1.983-.252 2.786-.756.803-.504 1.425-1.226 1.867-2.167.443-.94.664-2.049.664-3.326v-.642c0-1.277-.223-2.388-.668-3.33-.445-.944-1.07-1.668-1.876-2.172-.806-.504-1.736-.756-2.79-.756-1.044 0-1.968.254-2.774.76-.806.507-1.432 1.233-1.88 2.176-.449.943-.673 2.05-.673 3.322v.642c0 1.271.226 2.379.677 3.322.45.943 1.08 1.667 1.89 2.17.808.505 1.734.757 2.777.757zm0-1.872c-.627 0-1.17-.169-1.63-.506-.46-.337-.814-.833-1.06-1.49-.246-.656-.369-1.45-.369-2.381v-.66c0-.931.122-1.724.365-2.377.243-.653.593-1.147 1.05-1.48.457-.335 1-.502 1.626-.502.973 0 1.724.374 2.254 1.12.53.748.796 1.827.796 3.24v.659c0 1.418-.262 2.502-.787 3.252-.524.75-1.273 1.125-2.245 1.125zM139.35 939v-10.96h3.98v-1.837h-10.186v1.837h3.938V939h2.268zm6.541 0 1.02-2.936h4.913l1.02 2.936h2.381l-4.842-12.797h-2.048L143.51 939h2.381zm5.291-4.772h-3.638l1.82-5.248 1.818 5.248zm14.26 4.772v-1.828h-5.784v-10.969h-2.276V939h8.06zm363.694 1.863v-1.714c1.072-.117 1.914-.479 2.527-1.085.612-.606.918-1.417.918-2.43 0-.703-.143-1.3-.43-1.789a3.667 3.667 0 0 0-1.222-1.235c-.527-.334-1.204-.65-2.03-.949-.54-.2-.961-.397-1.266-.593-.305-.196-.523-.413-.655-.65a1.74 1.74 0 0 1-.198-.857c0-.534.147-.957.44-1.27.293-.314.732-.47 1.318-.47.569 0 1.012.207 1.332.623.32.416.479.99.479 1.723h2.188c0-1.172-.284-2.112-.852-2.821-.569-.71-1.357-1.134-2.364-1.275v-1.933h-1.407v1.916c-.668.076-1.25.266-1.749.571a3.167 3.167 0 0 0-1.156 1.213c-.272.504-.408 1.08-.408 1.731 0 .71.148 1.31.444 1.802.296.492.71.905 1.243 1.24.533.333 1.21.641 2.03.922.756.264 1.293.558 1.609.884.316.325.475.736.475 1.234 0 .534-.175.955-.523 1.266-.349.31-.843.466-1.481.466-.592 0-1.09-.177-1.494-.532-.405-.354-.607-.942-.607-1.762h-2.188c0 .873.165 1.6.496 2.184a3.356 3.356 0 0 0 1.314 1.323 4.784 4.784 0 0 0 1.82.553v1.714h1.397zM541.004 939v-12.84h-.272l-5.037 1.845v1.828l3.12-1.046V939h2.19zm9.337.176c2.795 0 4.192-1.852 4.192-5.555v-2.092c0-1.927-.367-3.326-1.103-4.196-.735-.87-1.77-1.306-3.107-1.306-1.336 0-2.37.435-3.102 1.306-.733.87-1.099 2.269-1.099 4.196v2.092c0 1.934.37 3.343 1.112 4.228.741.884 1.777 1.327 3.107 1.327zm0-1.758c-.668 0-1.173-.274-1.516-.822-.343-.548-.514-1.437-.514-2.667v-2.725c0-1.23.168-2.108.505-2.632.337-.525.84-.787 1.507-.787.68 0 1.187.262 1.52.787.335.524.502 1.402.502 2.632v2.725c0 1.242-.166 2.134-.497 2.676-.33.542-.833.813-1.507.813zm7.289 4.509a4.555 4.555 0 0 0 1.213-1.587c.305-.641.457-1.267.457-1.876l.009-1.547h-1.951v1.626a3.9 3.9 0 0 1-.229 1.38 8.036 8.036 0 0 1-.668 1.327l1.169.677zm8.458-2.751c2.795 0 4.192-1.852 4.192-5.555v-2.092c0-1.927-.367-3.326-1.103-4.196-.735-.87-1.77-1.306-3.107-1.306-1.336 0-2.37.435-3.102 1.306-.733.87-1.099 2.269-1.099 4.196v2.092c0 1.934.37 3.343 1.112 4.228.741.884 1.777 1.327 3.107 1.327zm0-1.758c-.668 0-1.173-.274-1.516-.822-.343-.548-.514-1.437-.514-2.667v-2.725c0-1.23.168-2.108.505-2.632.337-.525.84-.787 1.507-.787.68 0 1.187.262 1.52.787.335.524.502 1.402.502 2.632v2.725c0 1.242-.166 2.134-.497 2.676-.33.542-.833.813-1.507.813zm10.99 1.758c2.794 0 4.192-1.852 4.192-5.555v-2.092c0-1.927-.368-3.326-1.103-4.196-.736-.87-1.771-1.306-3.107-1.306-1.336 0-2.37.435-3.103 1.306-.732.87-1.099 2.269-1.099 4.196v2.092c0 1.934.371 3.343 1.112 4.228.741.884 1.777 1.327 3.107 1.327zm0-1.758c-.669 0-1.174-.274-1.517-.822-.343-.548-.514-1.437-.514-2.667v-2.725c0-1.23.168-2.108.505-2.632.337-.525.84-.787 1.508-.787.68 0 1.186.262 1.52.787.334.524.501 1.402.501 2.632v2.725c0 1.242-.165 2.134-.497 2.676-.33.542-.833.813-1.507.813zm10.988 1.758c2.795 0 4.193-1.852 4.193-5.555v-2.092c0-1.927-.368-3.326-1.103-4.196-.736-.87-1.771-1.306-3.107-1.306-1.336 0-2.37.435-3.103 1.306-.732.87-1.098 2.269-1.098 4.196v2.092c0 1.934.37 3.343 1.111 4.228.742.884 1.777 1.327 3.107 1.327zm0-1.758c-.668 0-1.173-.274-1.516-.822-.342-.548-.514-1.437-.514-2.667v-2.725c0-1.23.169-2.108.505-2.632.337-.525.84-.787 1.508-.787.68 0 1.186.262 1.52.787.334.524.501 1.402.501 2.632v2.725c0 1.242-.165 2.134-.496 2.676-.331.542-.834.813-1.508.813zm16.97 1.758c.907 0 1.725-.169 2.451-.506a3.94 3.94 0 0 0 1.718-1.507c.42-.668.629-1.476.629-2.426v-8.534h-2.276v8.534c0 .885-.219 1.541-.655 1.97-.437.427-1.06.64-1.868.64-.797 0-1.416-.215-1.859-.645-.442-.431-.663-1.086-.663-1.965v-8.534h-2.268v8.534c0 .955.204 1.765.61 2.43a3.845 3.845 0 0 0 1.697 1.503c.724.337 1.551.506 2.483.506zm12.28 0c.92 0 1.724-.142 2.413-.426.688-.285 1.22-.69 1.595-1.218.375-.527.563-1.148.563-1.863 0-.674-.153-1.263-.457-1.767-.305-.504-.767-.94-1.385-1.31-.618-.368-1.413-.696-2.386-.984-.932-.27-1.614-.562-2.048-.879-.433-.316-.65-.703-.65-1.16 0-.515.192-.933.576-1.252.383-.32.944-.48 1.683-.48.785 0 1.378.191 1.78.572.4.381.601.89.601 1.53h2.268c0-.721-.187-1.379-.562-1.974-.375-.594-.913-1.066-1.613-1.415-.7-.348-1.516-.523-2.448-.523-.89 0-1.682.151-2.373.453-.691.302-1.23.722-1.613 1.261a3.09 3.09 0 0 0-.576 1.837c0 .979.367 1.773 1.1 2.382.732.61 1.772 1.122 3.12 1.538.737.223 1.299.437 1.682.642.384.205.65.426.796.663.146.238.22.532.22.884 0 .515-.197.925-.59 1.23-.392.305-.957.457-1.696.457-.832 0-1.498-.186-2-.558-.5-.372-.75-.942-.75-1.71h-2.277c0 .868.239 1.609.716 2.224a4.366 4.366 0 0 0 1.872 1.384c.77.308 1.584.462 2.44.462zM628.27 939c1.172 0 2.2-.25 3.085-.751a5.149 5.149 0 0 0 2.053-2.127c.483-.917.725-1.985.725-3.204v-.624c0-1.213-.242-2.28-.725-3.2a5.203 5.203 0 0 0-2.035-2.135c-.873-.504-1.878-.756-3.015-.756h-3.797V939h3.71zm0-1.828h-1.432v-9.132h1.52c1.131 0 1.995.363 2.593 1.09.598.726.897 1.775.897 3.146v.642c0 1.353-.304 2.4-.91 3.142-.607.741-1.496 1.112-2.668 1.112z"/><rect width="535" height="38" x="42" y="114" stroke="#CED4DA" stroke-width="2" rx="3"/><g transform="translate(537 124)"><mask id="d" fill="#fff"><use xlink:href="#c"/></mask><path fill="#9BA3AE" d="M21.012 16.5H2.488C1.114 16.5 0 15.402 0 14.049V2.45C0 1.098 1.114 0 2.488 0h18.524C22.386 0 23.5 1.098 23.5 2.451V14.05c0 1.353-1.114 2.451-2.488 2.451" mask="url(#d)"/><path fill="#FFF" d="M10.5 4.75a2.75 2.75 0 1 1-5.5 0 2.75 2.75 0 0 1 5.5 0M2 14.5h11.5S12.679 8 7.75 8 2 14.5 2 14.5"/><mask id="f" fill="#fff"><use xlink:href="#e"/></mask><path fill="#FFF" d="M14.5 6H22V5h-7.5zm0 2H22V7h-7.5zm0 2.5H22v-1h-7.5z" mask="url(#f)"/></g><path fill="#4F6EF7" fill-rule="nonzero" d="m590.05 137 1.145-3.163h5.038l1.154 3.163h1.652l-4.623-12.086h-1.412L588.39 137h1.66zm5.71-4.466h-4.092l2.042-5.644 2.05 5.644zm8.528 4.632c1.096 0 1.948-.374 2.557-1.12l.074.954h1.42v-12.75h-1.552v4.657c-.598-.703-1.425-1.054-2.482-1.054-.709 0-1.331.19-1.868.572-.537.382-.952.919-1.245 1.61-.293.692-.44 1.492-.44 2.4v.174c0 .869.148 1.649.444 2.34.296.692.712 1.235 1.25 1.628a3.04 3.04 0 0 0 1.842.589zm.382-1.295c-.531 0-.974-.144-1.328-.432-.354-.287-.616-.676-.785-1.166-.169-.49-.253-1.044-.253-1.664v-.174c0-.62.084-1.18.253-1.677.17-.498.432-.893.789-1.183.357-.29.804-.436 1.34-.436.498 0 .92.114 1.266.34.346.227.624.537.835.93v4.159c-.454.869-1.16 1.303-2.117 1.303zm9.914 1.295c1.095 0 1.948-.374 2.556-1.12l.075.954h1.42v-12.75h-1.553v4.657c-.597-.703-1.425-1.054-2.482-1.054-.708 0-1.33.19-1.867.572-.537.382-.952.919-1.245 1.61-.294.692-.44 1.492-.44 2.4v.174c0 .869.148 1.649.444 2.34.296.692.712 1.235 1.249 1.628a3.04 3.04 0 0 0 1.843.589zm.382-1.295c-.532 0-.974-.144-1.329-.432-.354-.287-.615-.676-.784-1.166-.169-.49-.253-1.044-.253-1.664v-.174c0-.62.084-1.18.253-1.677.169-.498.432-.893.789-1.183.356-.29.803-.436 1.34-.436.498 0 .92.114 1.266.34.346.227.624.537.834.93v4.159c-.454.869-1.16 1.303-2.116 1.303zm16.216 1.295c.941 0 1.74-.17 2.395-.51a3.739 3.739 0 0 0 1.523-1.412c.36-.6.584-1.293.673-2.079h-1.61c-.1.603-.254 1.101-.461 1.494a2.087 2.087 0 0 1-.922.9c-.406.208-.939.312-1.598.312-.686 0-1.261-.188-1.726-.564-.465-.377-.81-.889-1.038-1.536-.227-.647-.34-1.38-.34-2.2v-1.237c0-.863.123-1.615.37-2.257.246-.642.612-1.14 1.1-1.494.486-.355 1.081-.532 1.784-.532.885 0 1.547.231 1.984.693.437.462.72 1.145.846 2.047h1.61c-.082-.814-.302-1.524-.66-2.13a3.681 3.681 0 0 0-1.49-1.41c-.636-.336-1.4-.503-2.29-.503-.985 0-1.846.231-2.582.693-.736.462-1.302 1.117-1.697 1.963-.396.847-.594 1.83-.594 2.947v1.22c0 1.113.197 2.092.59 2.939.393.846.946 1.5 1.66 1.963.714.462 1.538.693 2.473.693zm10.82 0a3.75 3.75 0 0 0 1.738-.415c.54-.277.975-.646 1.307-1.108a2.75 2.75 0 0 0 .54-1.482h-1.47a1.723 1.723 0 0 1-.34.9c-.199.27-.455.48-.767.632a2.274 2.274 0 0 1-1.009.228c-.874 0-1.501-.31-1.88-.93-.38-.62-.569-1.389-.569-2.307v-.349c0-.576.078-1.105.233-1.59.155-.484.415-.88.78-1.187.365-.307.844-.46 1.436-.46.399 0 .753.088 1.063.265a2 2 0 0 1 .738.727c.183.307.288.646.316 1.016h1.469a3.418 3.418 0 0 0-.498-1.664 3.197 3.197 0 0 0-1.258-1.166c-.534-.282-1.144-.423-1.83-.423-.869 0-1.603.2-2.204.601-.6.402-1.05.941-1.349 1.619-.298.678-.448 1.432-.448 2.262v.349c0 .83.15 1.584.448 2.262a3.696 3.696 0 0 0 1.35 1.618c.6.401 1.334.602 2.203.602z"/><path fill="#535668" fill-rule="nonzero" d="M51.025 103v-1.523h-5.097v-3.223h4.357V96.76h-4.357v-2.893h5.053v-1.531h-6.95V103h6.994zm4.002 0v-3.442l-.19-4.732L57.941 103h1.355l3.105-8.181-.183 4.739V103h1.89V92.336h-2.461l-3.025 8.115-3.032-8.115h-2.46V103h1.897zm12.893 0 .85-2.446h4.094l.85 2.446h1.984l-4.036-10.664h-1.706L65.935 103h1.985zm4.409-3.977h-3.032l1.516-4.373 1.516 4.373zM79.502 103V92.336h-1.89V103h1.89zm9.582 0v-1.523h-4.82v-9.141h-1.896V103h6.716z"/><g transform="translate(59 119)"><rect width="146" height="27" fill="#E0E0E0" rx="13.5"/><path fill="#535668" fill-rule="nonzero" d="M16.153 18.127c.554 0 1.032-.15 1.434-.448.402-.298.708-.71.918-1.237.21-.527.314-1.127.314-1.8v-.133c0-.703-.105-1.317-.314-1.844-.21-.527-.516-.935-.918-1.225-.402-.29-.884-.435-1.447-.435-.834 0-1.485.288-1.955.863V8.25h-1.187V18h1.085l.058-.78c.474.604 1.144.907 2.012.907zm-.299-.99c-.397 0-.735-.098-1.012-.292a2.032 2.032 0 0 1-.657-.781v-3.002c.157-.33.371-.592.644-.784.273-.193.61-.29 1.013-.29.622 0 1.076.232 1.361.696.286.463.429 1.072.429 1.825v.133c0 .736-.147 1.336-.441 1.8-.294.463-.74.695-1.337.695zm5.684-7.173c.22 0 .392-.063.517-.187a.641.641 0 0 0 .187-.473.66.66 0 0 0-.187-.483c-.125-.127-.297-.19-.517-.19-.22 0-.39.063-.511.19a.672.672 0 0 0-.181.483c0 .19.06.348.18.473.121.124.292.187.512.187zM22.122 18v-6.868h-1.187V18h1.187zm3.696 0V8.25h-1.187V18h1.187zm3.697 0V8.25h-1.187V18h1.187zm7.18 2.875c.424 0 .855-.048 1.293-.146.438-.097.796-.236 1.075-.418l-.24-.718a3.508 3.508 0 0 1-.966.362c-.38.089-.76.133-1.136.133-.85 0-1.578-.188-2.183-.565-.606-.376-1.067-.917-1.384-1.621-.318-.705-.476-1.544-.476-2.517 0-.085.004-.225.012-.42.043-1.032.25-1.942.623-2.729.372-.787.887-1.398 1.545-1.834.658-.436 1.423-.654 2.295-.654 1.367 0 2.389.396 3.066 1.187s1.015 1.923 1.015 3.396c0 .097-.004.256-.012.476a4.755 4.755 0 0 1-.229 1.314c-.131.39-.316.696-.555.92-.24.225-.524.337-.854.337A.772.772 0 0 1 39 17.13c-.157-.165-.235-.463-.235-.895 0-.14.004-.247.013-.323l.324-3.517a5.416 5.416 0 0 0-.53-.365 2.294 2.294 0 0 0-.553-.225 2.833 2.833 0 0 0-.752-.09c-.436 0-.852.15-1.247.448-.396.299-.728.724-.997 1.276s-.435 1.188-.498 1.908a7.586 7.586 0 0 0-.025.488c0 .711.15 1.272.45 1.683.3.41.728.615 1.282.615.318 0 .625-.092.92-.276.297-.184.555-.45.775-.796.106.342.29.607.55.793.26.186.584.28.974.28.58 0 1.06-.162 1.44-.483.381-.322.664-.734.848-1.238a5.214 5.214 0 0 0 .308-1.606c.004-.093.006-.23.006-.412 0-1.122-.19-2.094-.568-2.917-.379-.823-.934-1.456-1.666-1.898-.732-.442-1.612-.663-2.64-.663-1.042 0-1.962.26-2.762.78s-1.43 1.24-1.888 2.155c-.46.916-.715 1.954-.765 3.114a8.99 8.99 0 0 0-.007.393c0 1.134.197 2.115.59 2.943.394.827.961 1.463 1.702 1.907.74.444 1.623.666 2.647.666zm-.17-3.65c-.326 0-.575-.125-.746-.377-.172-.252-.258-.613-.258-1.082 0-.136.007-.275.02-.42.055-.604.167-1.119.336-1.542.17-.423.383-.741.641-.955.258-.214.542-.32.85-.32.271 0 .525.06.762.183l-.292 3.2-.006.05c-.157.424-.353.74-.59.95-.237.209-.476.314-.718.314zm10.754.902c.555 0 1.033-.15 1.435-.448.402-.298.708-.71.917-1.237.21-.527.314-1.127.314-1.8v-.133c0-.703-.104-1.317-.314-1.844-.21-.527-.515-.935-.917-1.225-.402-.29-.884-.435-1.447-.435-.834 0-1.486.288-1.955.863V8.25h-1.187V18h1.085l.057-.78c.474.604 1.145.907 2.012.907zm-.298-.99c-.398 0-.735-.098-1.012-.292a2.032 2.032 0 0 1-.657-.781v-3.002a1.96 1.96 0 0 1 .644-.784c.273-.193.61-.29 1.012-.29.622 0 1.076.232 1.362.696.286.463.428 1.072.428 1.825v.133c0 .736-.147 1.336-.44 1.8-.295.463-.74.695-1.337.695zm5.683-7.173c.22 0 .393-.063.518-.187a.641.641 0 0 0 .187-.473.66.66 0 0 0-.187-.483c-.125-.127-.298-.19-.518-.19-.22 0-.39.063-.51.19a.672.672 0 0 0-.182.483c0 .19.06.348.181.473.121.124.291.187.511.187zM53.248 18v-6.868h-1.187V18h1.187zm4.414.127c.334 0 .637-.042.908-.127l-.007-.946a2.222 2.222 0 0 1-.253.048 2.118 2.118 0 0 1-.292.022c-.233 0-.417-.056-.553-.168-.135-.112-.203-.331-.203-.657v-4.272h1.282v-.895h-1.282v-1.67h-1.187v1.67h-1.25v.895h1.25v4.265c0 .648.145 1.116.435 1.403.29.288.674.432 1.152.432zm3.97 2.514V17.34c.478.525 1.131.787 1.96.787.555 0 1.032-.15 1.432-.448.4-.298.705-.71.914-1.237.21-.527.315-1.127.315-1.8v-.133c0-.703-.104-1.317-.312-1.844-.207-.527-.512-.935-.914-1.225-.402-.29-.886-.435-1.453-.435-.847 0-1.509.292-1.987.876l-.063-.75h-1.08v9.51h1.187zm1.599-3.466c-.715 0-1.248-.311-1.6-.933v-3.307c.161-.292.373-.523.635-.692.263-.17.58-.254.952-.254.41 0 .755.112 1.032.336.277.224.482.526.616.905.133.378.2.805.2 1.279v.133c0 .474-.067.901-.2 1.282a2.01 2.01 0 0 1-.613.911c-.275.227-.616.34-1.022.34zm7.175.952c.398 0 .763-.077 1.095-.232.332-.154.617-.358.854-.612.038.313.093.552.165.717h1.238v-.102a2.84 2.84 0 0 1-.178-.65 4.572 4.572 0 0 1-.064-.746v-3.2c0-.499-.108-.92-.323-1.266a1.994 1.994 0 0 0-.899-.774c-.383-.171-.828-.257-1.336-.257-.533 0-1.007.098-1.422.295-.414.197-.736.452-.965.765-.228.313-.342.637-.342.971h1.187a.89.89 0 0 1 .187-.543c.125-.167.3-.3.524-.4.224-.099.478-.149.761-.149.466 0 .822.12 1.07.359.248.24.371.568.371.987v.546h-1.155c-.63 0-1.177.086-1.64.257-.464.171-.822.426-1.074.765-.251.338-.377.751-.377 1.238 0 .376.096.72.289 1.028.192.309.465.553.818.733.354.18.759.27 1.216.27zm.171-1.016c-.279 0-.516-.052-.71-.155a1.084 1.084 0 0 1-.445-.422 1.194 1.194 0 0 1-.152-.603c0-.42.18-.736.54-.95.359-.213.877-.32 1.554-.32h.965v1.422a1.726 1.726 0 0 1-.387.508 2 2 0 0 1-1.365.52zm5.626 3.663c.55 0 .985-.17 1.305-.511.32-.34.564-.742.733-1.203l2.755-7.928h-1.263l-1.593 5.141-1.702-5.141h-1.295l2.45 6.792-.26.704c-.14.42-.32.712-.542.88-.223.167-.535.25-.937.25a2.213 2.213 0 0 1-.317-.032v.946c.072.022.179.044.32.067.142.023.258.035.346.035zm7.131-2.704c.233 0 .414-.064.543-.19a.664.664 0 0 0 .193-.496.704.704 0 0 0-.193-.51c-.13-.134-.31-.2-.543-.2-.229 0-.407.066-.536.2a.704.704 0 0 0-.194.51c0 .2.065.363.194.492.129.13.307.194.536.194zm5.969.057c.474 0 .917-.106 1.33-.317a2.755 2.755 0 0 0 1-.848c.253-.353.39-.73.412-1.133h-1.123a1.318 1.318 0 0 1-.26.689 1.579 1.579 0 0 1-.588.482 1.73 1.73 0 0 1-.771.175c-.669 0-1.148-.237-1.438-.711-.29-.474-.435-1.062-.435-1.765v-.266c0-.44.06-.846.178-1.216.119-.37.317-.673.597-.908.279-.235.645-.352 1.098-.352.305 0 .575.068.812.203.237.136.426.32.565.556.14.234.22.494.242.777h1.123a2.614 2.614 0 0 0-.38-1.273 2.445 2.445 0 0 0-.962-.891 2.95 2.95 0 0 0-1.4-.324c-.665 0-1.226.153-1.685.46-.46.307-.803.72-1.032 1.238a4.243 4.243 0 0 0-.343 1.73v.266c0 .635.115 1.212.343 1.73.229.518.572.93 1.032 1.238.459.307 1.02.46 1.685.46zm7.416 0c.63 0 1.182-.151 1.654-.454a2.98 2.98 0 0 0 1.088-1.244c.254-.527.381-1.123.381-1.787v-.146c0-.664-.127-1.261-.38-1.79a2.97 2.97 0 0 0-1.093-1.247c-.474-.303-1.028-.454-1.663-.454-.626 0-1.175.151-1.647.454a2.977 2.977 0 0 0-1.089 1.247c-.253.529-.38 1.126-.38 1.79v.146c0 .664.128 1.26.384 1.787.256.527.62.942 1.091 1.244.472.303 1.023.454 1.654.454zm0-.952c-.419 0-.774-.113-1.066-.34a2.048 2.048 0 0 1-.657-.917 3.573 3.573 0 0 1-.22-1.276v-.146c0-.465.074-.89.22-1.276a2.08 2.08 0 0 1 .653-.92c.29-.229.643-.343 1.057-.343.42 0 .775.114 1.067.343.292.228.512.535.66.92.148.385.222.81.222 1.276v.146c0 .466-.073.89-.219 1.276-.146.385-.365.69-.657.917-.292.227-.645.34-1.06.34zm6.312.825v-5.04a1.62 1.62 0 0 1 .59-.714c.258-.172.584-.257.978-.257.977 0 1.466.497 1.466 1.491V18h1.187v-4.551c.03-.275.109-.523.238-.743a1.42 1.42 0 0 1 .536-.524 1.6 1.6 0 0 1 .8-.193c.478 0 .841.11 1.089.333.247.222.371.606.371 1.152V18h1.187v-4.513c0-.85-.195-1.477-.584-1.88-.39-.401-.96-.602-1.714-.602-.478 0-.902.097-1.272.292-.37.195-.674.461-.911.8a1.736 1.736 0 0 0-.772-.822c-.34-.18-.737-.27-1.19-.27-.436 0-.823.075-1.161.225-.339.15-.627.365-.864.645l-.038-.743h-1.123V18h1.187z"/><g stroke="#4F6EF7" transform="translate(120 5)"><circle cx="9" cy="9" r="9"/><path d="m3.991 5.387 9.241 8.202m0-8.202-9.241 8.202"/></g></g><rect width="604" height="38" x="43" y="214" stroke="#CED4DA" stroke-width="2" rx="3"/><path fill="#535668" fill-rule="nonzero" d="M66.735 238.137c.698 0 1.308-.11 1.832-.328.525-.22.929-.53 1.214-.934a2.37 2.37 0 0 0 .427-1.404c0-.515-.115-.96-.345-1.337-.23-.376-.583-.703-1.06-.98-.476-.279-1.097-.525-1.862-.739-.552-.155-.996-.319-1.333-.492-.338-.173-.586-.367-.746-.581a1.214 1.214 0 0 1-.239-.745c0-.483.173-.873.52-1.17.346-.295.854-.444 1.524-.444.72 0 1.265.177 1.634.53.369.353.554.822.554 1.405h1.333c0-.529-.14-1.023-.42-1.483-.281-.46-.687-.83-1.218-1.108-.53-.278-1.158-.417-1.883-.417-.665 0-1.254.118-1.767.352-.513.235-.91.557-1.19.967-.28.41-.42.873-.42 1.388 0 .734.274 1.33.82 1.788.547.458 1.347.84 2.4 1.145.633.182 1.119.361 1.456.536.337.176.573.372.707.588.135.217.202.487.202.81 0 .493-.187.88-.56 1.162-.374.283-.9.424-1.58.424a3.37 3.37 0 0 1-1.22-.212 1.964 1.964 0 0 1-.882-.649c-.22-.292-.331-.656-.331-1.094h-1.326c0 .634.18 1.178.54 1.634.36.456.828.801 1.405 1.036a4.768 4.768 0 0 0 1.814.352zm8.61 0c.674 0 1.239-.134 1.694-.4.456-.267.82-.61 1.094-1.029l-.772-.602a2.706 2.706 0 0 1-.838.746c-.312.173-.682.26-1.11.26a2.02 2.02 0 0 1-1.146-.325 2.142 2.142 0 0 1-.755-.886 3.094 3.094 0 0 1-.287-1.25h5.004v-.568c0-.71-.11-1.338-.328-1.88a2.732 2.732 0 0 0-1.009-1.275c-.453-.307-1.024-.461-1.712-.461a2.97 2.97 0 0 0-1.59.458c-.494.305-.891.746-1.192 1.323-.3.576-.451 1.25-.451 2.02v.294c0 .688.14 1.303.42 1.845.28.543.678.966 1.193 1.272.515.305 1.11.458 1.784.458zm1.606-4.512h-3.685c.087-.679.3-1.204.64-1.576a1.654 1.654 0 0 1 1.274-.557c.593 0 1.027.195 1.302.585.276.39.432.874.469 1.452v.096zM81.553 238v-5.291c.183-.36.43-.647.742-.861a1.823 1.823 0 0 1 1.056-.322c.492 0 .86.128 1.104.383.244.255.366.666.366 1.23V238h1.278v-4.847c0-1.79-.79-2.686-2.372-2.686-.45 0-.863.09-1.237.273a2.82 2.82 0 0 0-.964.773l-.04-.91h-1.21V238h1.277zm9.635.137c.902 0 1.604-.308 2.105-.923l.062.786h1.168v-10.5h-1.278v3.835c-.492-.579-1.173-.868-2.044-.868-.583 0-1.096.157-1.538.471-.442.315-.784.757-1.025 1.327-.242.57-.363 1.228-.363 1.975v.144c0 .715.122 1.358.366 1.928.244.57.587 1.016 1.029 1.34.442.323.948.485 1.518.485zm.314-1.067c-.438 0-.802-.118-1.094-.355a2.073 2.073 0 0 1-.646-.96 4.193 4.193 0 0 1-.208-1.371v-.144c0-.51.07-.97.208-1.38.14-.41.356-.735.65-.975.294-.239.662-.359 1.104-.359.41 0 .757.094 1.042.28.285.187.514.443.687.766v3.425c-.374.716-.955 1.073-1.743 1.073zm13.294.93c.665 0 1.245-.11 1.74-.332a2.526 2.526 0 0 0 1.144-.977c.27-.43.404-.951.404-1.562 0-.574-.153-1.077-.458-1.507-.306-.431-.734-.72-1.286-.865.465-.196.829-.474 1.09-.834.263-.36.394-.768.394-1.224 0-.902-.28-1.57-.841-2.003-.56-.433-1.363-.65-2.406-.65h-3.268V238h3.487zm-.185-5.708h-1.976v-3.172h1.942c.651 0 1.135.125 1.449.376.314.25.472.647.472 1.19 0 .332-.079.62-.236.86a1.5 1.5 0 0 1-.663.555 2.395 2.395 0 0 1-.988.191zm.185 4.642h-2.16v-3.596h2.221c.647 0 1.126.157 1.436.472.31.314.464.758.464 1.333 0 .551-.173.987-.52 1.309-.345.32-.826.482-1.441.482zm6.373-7.588c.237 0 .423-.068.557-.202a.69.69 0 0 0 .202-.51.71.71 0 0 0-.202-.519c-.134-.136-.32-.205-.557-.205-.237 0-.42.069-.55.205a.724.724 0 0 0-.195.52c0 .205.065.375.195.509s.313.202.55.202zm.629 8.654v-7.396h-1.279V238h1.279zm3.98 0v-10.5H114.5V238h1.279zm3.981 0v-10.5h-1.278V238h1.278zm9.561 0 2.653-7.396h-1.306l-1.818 5.667-1.873-5.667h-1.306l2.68 7.396h.97zm5.205-8.654c.237 0 .423-.068.557-.202a.69.69 0 0 0 .202-.51.71.71 0 0 0-.202-.519c-.134-.136-.32-.205-.557-.205-.237 0-.42.069-.55.205a.724.724 0 0 0-.195.52c0 .205.065.375.195.509s.313.202.55.202zm.629 8.654v-7.396h-1.279V238h1.279zm4.883.137c.428 0 .821-.083 1.18-.25.357-.166.663-.386.919-.66.04.338.1.595.177.773h1.333v-.11a3.059 3.059 0 0 1-.191-.7 4.923 4.923 0 0 1-.069-.803v-3.446c0-.537-.116-.992-.348-1.363a2.147 2.147 0 0 0-.967-.834c-.413-.185-.893-.277-1.44-.277-.574 0-1.084.106-1.53.318-.447.212-.794.486-1.04.823-.246.338-.369.686-.369 1.046h1.278c0-.21.068-.404.202-.584.135-.18.323-.324.564-.43a1.99 1.99 0 0 1 .82-.161c.502 0 .886.128 1.152.386.267.257.4.612.4 1.063v.588h-1.244c-.679 0-1.268.092-1.767.276-.5.185-.884.46-1.155.824-.271.365-.407.81-.407 1.333 0 .406.104.775.311 1.108.207.332.501.596.882.79.38.193.817.29 1.309.29zm.184-1.094c-.3 0-.556-.056-.765-.168a1.168 1.168 0 0 1-.479-.454 1.285 1.285 0 0 1-.164-.65c0-.45.194-.791.581-1.021.388-.23.946-.346 1.675-.346h1.04v1.532a1.86 1.86 0 0 1-.418.546c-.182.169-.4.305-.653.407a2.154 2.154 0 0 1-.817.154zm16.295.957v-1.066h-4.997v-3.541h4.3v-1.067h-4.3v-3.206h4.929v-1.073h-6.255V238h6.323zm3.283 0v-5.428c.146-.328.358-.584.636-.769.278-.184.63-.277 1.053-.277 1.053 0 1.58.536 1.58 1.607V238h1.277v-4.901a1.98 1.98 0 0 1 .257-.8c.139-.237.331-.425.577-.564.246-.14.534-.209.862-.209.515 0 .905.12 1.172.36.267.239.4.652.4 1.24V238h1.278v-4.86c0-.916-.21-1.59-.629-2.024-.419-.433-1.034-.65-1.845-.65-.515 0-.972.106-1.37.315a2.73 2.73 0 0 0-.982.862 1.87 1.87 0 0 0-.83-.886c-.367-.193-.795-.29-1.282-.29-.47 0-.887.08-1.251.242a2.57 2.57 0 0 0-.93.694l-.04-.8h-1.21V238h1.277zm13.866.137c.428 0 .821-.083 1.18-.25.357-.166.663-.386.919-.66.04.338.1.595.177.773h1.333v-.11a3.059 3.059 0 0 1-.191-.7 4.923 4.923 0 0 1-.068-.803v-3.446c0-.537-.117-.992-.349-1.363a2.147 2.147 0 0 0-.967-.834c-.413-.185-.892-.277-1.44-.277-.573 0-1.084.106-1.53.318-.447.212-.793.486-1.04.823-.246.338-.369.686-.369 1.046h1.279c0-.21.067-.404.201-.584.135-.18.323-.324.564-.43a1.99 1.99 0 0 1 .82-.161c.502 0 .886.128 1.152.386.267.257.4.612.4 1.063v.588h-1.244c-.679 0-1.268.092-1.767.276-.499.185-.884.46-1.155.824-.271.365-.407.81-.407 1.333 0 .406.104.775.311 1.108.207.332.501.596.882.79.38.193.817.29 1.309.29zm.185-1.094c-.301 0-.556-.056-.766-.168a1.168 1.168 0 0 1-.479-.454 1.285 1.285 0 0 1-.164-.65c0-.45.194-.791.581-1.021.388-.23.946-.346 1.675-.346h1.04v1.532a1.86 1.86 0 0 1-.418.546c-.182.169-.4.305-.653.407a2.154 2.154 0 0 1-.816.154zm6.482-7.697c.237 0 .423-.068.557-.202a.69.69 0 0 0 .202-.51.71.71 0 0 0-.202-.519c-.134-.136-.32-.205-.557-.205-.237 0-.42.069-.55.205a.724.724 0 0 0-.195.52c0 .205.065.375.195.509s.313.202.55.202zm.63 8.654v-7.396h-1.28V238h1.28zm3.98 0v-10.5h-1.278V238h1.278z"/><path fill="#838A94" d="M609 231.63h11.674l-5.837-5.63zm11.674 3.37H609l5.837 5.63z"/><path fill="#535668" fill-rule="nonzero" d="M47.218 203c.976 0 1.833-.209 2.57-.626a4.29 4.29 0 0 0 1.71-1.773c.404-.764.605-1.654.605-2.67v-.52c0-1.01-.201-1.899-.604-2.665a4.336 4.336 0 0 0-1.696-1.78c-.727-.42-1.565-.63-2.512-.63h-3.164V203h3.09zm0-1.523h-1.194v-7.61h1.267c.943 0 1.663.302 2.16.908.499.605.748 1.48.748 2.622v.535c0 1.128-.253 2-.758 2.618-.506.618-1.247.927-2.223.927zM61.532 203v-1.523h-5.098v-3.223h4.358v-1.494h-4.358v-2.893h5.054v-1.531h-6.95V203h6.994zm8.82 0v-1.523h-4.819v-9.141h-1.897V203h6.717zm4.031 0v-10.664h-1.89V203h1.89zm7.583 0 3.824-10.664h-2.088l-2.666 8.298-2.651-8.298h-2.08L80.113 203h1.853zm12.615 0v-1.523h-5.098v-3.223h4.358v-1.494h-4.358v-2.893h5.054v-1.531h-6.95V203h6.994zm4.001 0v-4.087h2.03l2.116 4.087h2.036v-.095l-2.38-4.439c.62-.263 1.098-.64 1.435-1.128.337-.488.506-1.084.506-1.787 0-1.04-.336-1.836-1.007-2.387-.672-.552-1.623-.828-2.853-.828h-3.78V203h1.897zm1.89-5.61h-1.89v-3.523h1.883c.664 0 1.157.156 1.48.468.322.313.483.75.483 1.311 0 .528-.168.95-.502 1.268-.335.317-.82.476-1.454.476zm10.22 5.61v-3.918l3.567-6.746h-2.102l-2.425 5.017-2.417-5.017h-2.102l3.567 6.746V203h1.912z"/><rect width="290" height="38" x="43" y="467" stroke="#CED4DA" stroke-width="2" rx="3"/><path fill="#535668" fill-rule="nonzero" d="M47.836 454.146c.85 0 1.577-.153 2.183-.46a3.435 3.435 0 0 0 1.41-1.283c.334-.547.533-1.176.597-1.89h-1.89c-.059.47-.17.856-.333 1.162a1.614 1.614 0 0 1-.725.695c-.32.16-.734.238-1.242.238-.825 0-1.432-.307-1.82-.922-.388-.616-.582-1.48-.582-2.593v-.857c0-1.133.208-2 .626-2.604.417-.603 1.034-.904 1.85-.904.727 0 1.26.179 1.6.538.339.359.55.895.633 1.608h1.89c-.073-.728-.275-1.369-.604-1.923a3.418 3.418 0 0 0-1.381-1.296c-.59-.31-1.304-.466-2.139-.466-.883 0-1.656.208-2.318.623-.661.415-1.172 1.003-1.53 1.765-.36.762-.539 1.653-.539 2.673v.843c0 1.02.176 1.911.527 2.673.352.762.852 1.349 1.502 1.762.65.412 1.411.618 2.285.618zm10.278 0c.757 0 1.438-.14 2.044-.42a3.287 3.287 0 0 0 1.432-1.257c.349-.556.523-1.23.523-2.021v-7.112h-1.897v7.112c0 .737-.181 1.284-.545 1.64-.364.357-.883.535-1.557.535-.664 0-1.18-.18-1.549-.538-.368-.36-.553-.905-.553-1.637v-7.112h-1.89v7.112c0 .796.17 1.47.51 2.025.339.554.81.972 1.413 1.252.603.281 1.293.421 2.07.421zm8.47-.146v-4.087h2.028L70.73 454h2.036v-.095l-2.38-4.439c.62-.263 1.098-.64 1.435-1.128.337-.488.506-1.084.506-1.787 0-1.04-.336-1.836-1.007-2.387-.672-.552-1.623-.828-2.853-.828h-3.78V454h1.898zm1.89-5.61h-1.89v-3.523h1.882c.664 0 1.157.156 1.48.468.322.313.483.75.483 1.311 0 .528-.167.95-.502 1.268-.334.317-.819.476-1.454.476zm8.124 5.61v-4.087h2.029L80.744 454h2.036v-.095l-2.38-4.439c.62-.263 1.098-.64 1.435-1.128.337-.488.505-1.084.505-1.787 0-1.04-.335-1.836-1.007-2.387-.671-.552-1.622-.828-2.853-.828h-3.779V454h1.897zm1.89-5.61h-1.89v-3.523h1.882c.665 0 1.158.156 1.48.468.322.313.483.75.483 1.311 0 .528-.167.95-.501 1.268-.335.317-.82.476-1.454.476zM91.71 454v-1.523h-5.097v-3.223h4.358v-1.494h-4.358v-2.893h5.054v-1.531h-6.951V454h6.994zm4.002 0v-7.5l4.695 7.5h1.897v-10.664h-1.883v7.515l-4.71-7.515h-1.896V454h1.897zm13.347.146c.85 0 1.577-.153 2.183-.46a3.435 3.435 0 0 0 1.41-1.283c.334-.547.533-1.176.596-1.89h-1.89c-.058.47-.169.856-.332 1.162a1.614 1.614 0 0 1-.726.695c-.32.16-.733.238-1.241.238-.825 0-1.432-.307-1.82-.922-.388-.616-.582-1.48-.582-2.593v-.857c0-1.133.208-2 .626-2.604.417-.603 1.034-.904 1.85-.904.727 0 1.26.179 1.6.538.339.359.55.895.633 1.608h1.89c-.073-.728-.275-1.369-.604-1.923a3.418 3.418 0 0 0-1.381-1.296c-.59-.31-1.304-.466-2.139-.466-.884 0-1.656.208-2.318.623-.661.415-1.172 1.003-1.53 1.765-.36.762-.539 1.653-.539 2.673v.843c0 1.02.176 1.911.527 2.673.352.762.852 1.349 1.502 1.762.65.412 1.411.618 2.285.618zm10.9-.146v-3.918l3.568-6.746h-2.102L119 448.353l-2.417-5.017h-2.102l3.567 6.746V454h1.912zm-52.031 36.137c.66 0 1.266-.127 1.815-.38a3.039 3.039 0 0 0 1.312-1.138c.326-.506.49-1.119.49-1.839v-6.733H70.21v6.733c0 .757-.203 1.328-.608 1.713-.406.385-.964.577-1.675.577-.706 0-1.264-.192-1.671-.577-.408-.385-.612-.956-.612-1.713v-6.733h-1.313v6.733c0 .725.156 1.339.468 1.843.313.503.739.881 1.279 1.134.54.253 1.156.38 1.849.38zm9.415 0c.698 0 1.308-.11 1.832-.328.524-.22.929-.53 1.214-.934a2.37 2.37 0 0 0 .427-1.404c0-.515-.115-.96-.345-1.337-.23-.376-.584-.703-1.06-.98-.476-.279-1.097-.525-1.863-.739-.551-.155-.995-.319-1.333-.492-.337-.173-.585-.367-.745-.581a1.214 1.214 0 0 1-.239-.745c0-.483.173-.873.52-1.17.346-.295.854-.444 1.524-.444.72 0 1.265.177 1.634.53.369.353.553.822.553 1.405h1.333c0-.529-.14-1.023-.42-1.483-.28-.46-.686-.83-1.217-1.108-.53-.278-1.158-.417-1.883-.417-.665 0-1.254.118-1.767.352-.513.235-.91.557-1.19.967-.28.41-.42.873-.42 1.388 0 .734.273 1.33.82 1.788.547.458 1.347.84 2.4 1.145.633.182 1.119.361 1.456.536.337.176.573.372.707.588.135.217.202.487.202.81 0 .493-.187.88-.56 1.162-.374.283-.9.424-1.58.424a3.37 3.37 0 0 1-1.22-.212 1.964 1.964 0 0 1-.882-.649c-.22-.292-.331-.656-.331-1.094h-1.326c0 .634.18 1.178.54 1.634.36.456.828.801 1.404 1.036a4.768 4.768 0 0 0 1.815.352zm8.424-.137c.916 0 1.714-.19 2.393-.567a3.852 3.852 0 0 0 1.569-1.624c.367-.704.55-1.532.55-2.485v-.601c0-.944-.183-1.769-.55-2.475a3.911 3.911 0 0 0-1.545-1.63c-.663-.38-1.43-.571-2.3-.571h-2.81V490h2.693zm0-1.066H84.4v-7.814h1.484c.651 0 1.208.141 1.671.424.463.282.813.692 1.053 1.227.239.535.359 1.181.359 1.938v.615c0 .738-.121 1.378-.363 1.918a2.74 2.74 0 0 1-1.08 1.25c-.478.295-1.064.442-1.757.442zm13.56-2.653v-1.032h-3.342v1.032h3.343zm9.446 3.856c.66 0 1.265-.127 1.814-.38.55-.253.987-.632 1.313-1.138.326-.506.489-1.119.489-1.839v-6.733h-1.333v6.733c0 .757-.203 1.328-.609 1.713-.405.385-.964.577-1.674.577-.707 0-1.264-.192-1.672-.577-.408-.385-.612-.956-.612-1.713v-6.733h-1.312v6.733c0 .725.156 1.339.468 1.843a2.94 2.94 0 0 0 1.278 1.134c.54.253 1.157.38 1.85.38zm9.415 0c.697 0 1.308-.11 1.832-.328.524-.22.928-.53 1.213-.934a2.37 2.37 0 0 0 .427-1.404c0-.515-.115-.96-.345-1.337-.23-.376-.583-.703-1.06-.98-.476-.279-1.096-.525-1.862-.739-.552-.155-.996-.319-1.333-.492-.337-.173-.586-.367-.745-.581a1.214 1.214 0 0 1-.24-.745c0-.483.174-.873.52-1.17.346-.295.855-.444 1.524-.444.72 0 1.265.177 1.634.53.37.353.554.822.554 1.405h1.333c0-.529-.14-1.023-.42-1.483-.28-.46-.686-.83-1.217-1.108-.531-.278-1.159-.417-1.884-.417-.665 0-1.254.118-1.767.352-.512.235-.909.557-1.19.967-.28.41-.42.873-.42 1.388 0 .734.274 1.33.82 1.788.548.458 1.348.84 2.4 1.145.634.182 1.12.361 1.456.536.338.176.573.372.708.588.134.217.201.487.201.81 0 .493-.186.88-.56 1.162-.374.283-.9.424-1.58.424a3.37 3.37 0 0 1-1.22-.212 1.964 1.964 0 0 1-.881-.649c-.221-.292-.332-.656-.332-1.094h-1.326c0 .634.18 1.178.54 1.634.36.456.828.801 1.405 1.036a4.768 4.768 0 0 0 1.815.352zM130.66 490c.916 0 1.714-.19 2.393-.567a3.852 3.852 0 0 0 1.569-1.624c.366-.704.55-1.532.55-2.485v-.601c0-.944-.184-1.769-.55-2.475a3.911 3.911 0 0 0-1.545-1.63c-.663-.38-1.43-.571-2.3-.571h-2.81V490h2.693zm0-1.066h-1.367v-7.814h1.483c.652 0 1.21.141 1.672.424.462.282.813.692 1.052 1.227.24.535.36 1.181.36 1.938v.615c0 .738-.121 1.378-.363 1.918a2.74 2.74 0 0 1-1.08 1.25c-.479.295-1.064.442-1.757.442zm9.914 1.203c.68 0 1.273-.163 1.781-.49a3.21 3.21 0 0 0 1.173-1.339c.273-.567.41-1.209.41-1.924v-.157c0-.716-.137-1.359-.41-1.928a3.198 3.198 0 0 0-1.176-1.343c-.51-.326-1.108-.49-1.791-.49-.675 0-1.266.164-1.774.49a3.206 3.206 0 0 0-1.173 1.343c-.273.57-.41 1.212-.41 1.928v.157c0 .715.138 1.357.414 1.924a3.233 3.233 0 0 0 1.176 1.34c.508.326 1.101.489 1.78.489zm0-1.026c-.45 0-.834-.122-1.148-.365a2.206 2.206 0 0 1-.708-.988 3.848 3.848 0 0 1-.235-1.374v-.157c0-.502.078-.96.235-1.374a2.24 2.24 0 0 1 .705-.992c.312-.246.691-.369 1.138-.369.451 0 .834.123 1.148.37.315.245.552.576.711.99.16.415.24.873.24 1.375v.157c0 .501-.08.96-.236 1.374a2.206 2.206 0 0 1-.708.988c-.314.243-.695.365-1.142.365zm6.914.889v-10.5h-1.278V490h1.278zm3.98 0v-10.5h-1.278V490h1.279zm4.884.137c.428 0 .821-.083 1.179-.25a2.93 2.93 0 0 0 .92-.66c.04.338.1.595.177.773h1.333v-.11a3.059 3.059 0 0 1-.191-.7 4.923 4.923 0 0 1-.069-.803v-3.446c0-.537-.116-.992-.348-1.363a2.147 2.147 0 0 0-.968-.834c-.412-.185-.892-.277-1.439-.277-.574 0-1.084.106-1.53.318-.447.212-.794.486-1.04.823-.246.338-.369.686-.369 1.046h1.278c0-.21.068-.404.202-.584a1.37 1.37 0 0 1 .564-.43c.241-.108.515-.161.82-.161.502 0 .886.128 1.152.386.267.257.4.612.4 1.063v.588h-1.244c-.68 0-1.268.092-1.767.276-.5.185-.884.46-1.155.824-.272.365-.407.81-.407 1.333 0 .406.103.775.31 1.108.208.332.502.596.883.79.38.193.817.29 1.309.29zm.184-1.094c-.3 0-.556-.056-.765-.168a1.168 1.168 0 0 1-.479-.454 1.285 1.285 0 0 1-.164-.65c0-.45.194-.791.581-1.021.388-.23.946-.346 1.675-.346h1.039v1.532a1.86 1.86 0 0 1-.417.546c-.182.169-.4.305-.653.407a2.154 2.154 0 0 1-.817.154zm7.003.957v-5.257c.14-.337.352-.6.632-.786.28-.187.63-.28 1.05-.28.218 0 .425.018.621.054v-1.168a1.014 1.014 0 0 0-.253-.065 1.991 1.991 0 0 0-1.333.226 2.09 2.09 0 0 0-.724.72l-.028-.84h-1.244V490h1.279z"/><path fill="#838A94" d="M308 483.63h10.701l-5.35-5.63zm10.701 3.37H308l5.35 5.63z"/><rect width="290" height="38" x="43" y="566" stroke="#CED4DA" stroke-width="2" rx="3"/><path fill="#535668" fill-rule="nonzero" d="M68.114 589.137c.602 0 1.14-.115 1.617-.345.476-.23.85-.564 1.124-1.002.274-.437.41-.96.41-1.565 0-.52-.133-.99-.4-1.412-.266-.422-.705-.73-1.315-.926.346-.146.636-.34.871-.581.235-.242.41-.502.523-.78a2.12 2.12 0 0 0 .171-.806c0-.602-.124-1.113-.373-1.535a2.366 2.366 0 0 0-1.049-.954c-.451-.214-.98-.32-1.586-.32-.601 0-1.135.12-1.6.361a2.702 2.702 0 0 0-1.083.992 2.6 2.6 0 0 0-.386 1.387h1.278c0-.346.075-.648.226-.905.15-.258.36-.457.629-.599.269-.14.58-.211.936-.211.574 0 1.006.149 1.296.447.289.299.434.735.434 1.31 0 .332-.073.628-.22.888-.145.26-.365.463-.659.608-.294.146-.653.22-1.076.22h-.903v1.025h.903c.66 0 1.177.151 1.548.454.371.303.557.758.557 1.364 0 .61-.165 1.073-.496 1.388-.33.314-.79.471-1.377.471-.383 0-.715-.071-.998-.215a1.541 1.541 0 0 1-.653-.612 1.798 1.798 0 0 1-.229-.916h-1.278c0 .574.14 1.07.42 1.487.28.417.66.735 1.138.954a3.803 3.803 0 0 0 1.6.328zm5.854.717 4.15-10.807H77.03l-4.156 10.807h1.094zM86.466 589v-1.025h-4.99l2.666-2.906c.574-.624 1.029-1.227 1.364-1.808.335-.58.502-1.145.502-1.692 0-.528-.12-.993-.362-1.394a2.423 2.423 0 0 0-1.04-.933c-.45-.221-.984-.332-1.599-.332-.688 0-1.278.136-1.77.407-.492.271-.864.64-1.115 1.104-.25.465-.376.982-.376 1.552h1.279c0-.62.168-1.115.506-1.484.337-.369.83-.553 1.476-.553.356 0 .663.078.923.235.26.158.458.372.595.643.137.271.205.573.205.906 0 .269-.045.527-.133.776a3.551 3.551 0 0 1-.462.834c-.219.307-.53.687-.936 1.138l-3.261 3.63V589h6.528zm2.306.854 4.15-10.807h-1.087l-4.157 10.807h1.094zm12.499-.854v-1.025h-4.99l2.665-2.906c.575-.624 1.03-1.227 1.364-1.808.335-.58.502-1.145.502-1.692 0-.528-.12-.993-.362-1.394a2.423 2.423 0 0 0-1.039-.933c-.451-.221-.984-.332-1.6-.332-.688 0-1.278.136-1.77.407-.492.271-.864.64-1.114 1.104-.25.465-.376.982-.376 1.552h1.278c0-.62.169-1.115.506-1.484.337-.369.83-.553 1.477-.553.355 0 .663.078.922.235.26.158.458.372.595.643.137.271.205.573.205.906 0 .269-.044.527-.133.776a3.551 3.551 0 0 1-.462.834c-.218.307-.53.687-.936 1.138l-3.26 3.63V589h6.528zm5.033.137c1.016 0 1.792-.34 2.328-1.022.535-.682.803-1.802.803-3.36v-1.525c0-1.549-.269-2.656-.807-3.322-.538-.665-1.317-.998-2.338-.998-1.016 0-1.794.333-2.334.998-.54.666-.81 1.773-.81 3.322v1.525c0 1.554.273 2.673.82 3.356.547.684 1.326 1.026 2.338 1.026zm0-1.026c-.615 0-1.082-.254-1.401-.762-.32-.508-.479-1.307-.479-2.396v-1.934c0-1.09.156-1.876.468-2.359.313-.483.779-.724 1.398-.724.63 0 1.098.24 1.405.72.308.482.462 1.269.462 2.363v1.934c0 1.098-.153 1.9-.458 2.403-.306.504-.77.755-1.395.755zm11.856.889v-1.025h-4.99l2.666-2.906c.574-.624 1.028-1.227 1.363-1.808.335-.58.503-1.145.503-1.692 0-.528-.121-.993-.363-1.394a2.423 2.423 0 0 0-1.039-.933c-.45-.221-.984-.332-1.6-.332-.687 0-1.278.136-1.77.407a2.73 2.73 0 0 0-1.114 1.104c-.25.465-.376.982-.376 1.552h1.278c0-.62.169-1.115.506-1.484.337-.369.83-.553 1.477-.553.355 0 .663.078.923.235.26.158.458.372.594.643.137.271.205.573.205.906 0 .269-.044.527-.133.776a3.551 3.551 0 0 1-.461.834c-.219.307-.531.687-.937 1.138l-3.26 3.63V589h6.528zm5.033.137c1.017 0 1.792-.34 2.328-1.022.535-.682.803-1.802.803-3.36v-1.525c0-1.549-.269-2.656-.807-3.322-.537-.665-1.317-.998-2.337-.998-1.017 0-1.795.333-2.335.998-.54.666-.81 1.773-.81 3.322v1.525c0 1.554.274 2.673.82 3.356.547.684 1.327 1.026 2.338 1.026zm0-1.026c-.615 0-1.082-.254-1.401-.762-.32-.508-.479-1.307-.479-2.396v-1.934c0-1.09.156-1.876.469-2.359.312-.483.778-.724 1.398-.724.629 0 1.097.24 1.404.72.308.482.462 1.269.462 2.363v1.934c0 1.098-.153 1.9-.458 2.403-.306.504-.77.755-1.395.755zM47.04 553c.977 0 1.834-.209 2.571-.626a4.29 4.29 0 0 0 1.71-1.773c.403-.764.605-1.654.605-2.67v-.52c0-1.01-.202-1.899-.605-2.665a4.336 4.336 0 0 0-1.695-1.78c-.728-.42-1.565-.63-2.512-.63H43.95V553h3.09zm0-1.523h-1.193v-7.61h1.267c.942 0 1.662.302 2.16.908.498.605.747 1.48.747 2.622v.535c0 1.128-.252 2-.758 2.618-.505.618-1.246.927-2.223.927zm11.158 1.67c.756 0 1.438-.14 2.043-.422.606-.28 1.083-.7 1.432-1.256.35-.556.524-1.23.524-2.021v-7.112H60.3v7.112c0 .737-.182 1.284-.546 1.64-.364.357-.883.535-1.556.535-.664 0-1.18-.18-1.55-.538-.368-.36-.552-.905-.552-1.637v-7.112h-1.89v7.112c0 .796.17 1.47.509 2.025.34.554.81.972 1.414 1.252.603.281 1.292.421 2.069.421zM71.764 553v-1.523h-5.097v-3.223h4.358v-1.494h-4.358v-2.893h5.054v-1.531H64.77V553h6.994zm9.549 0c.976 0 1.833-.209 2.57-.626a4.29 4.29 0 0 0 1.71-1.773c.404-.764.605-1.654.605-2.67v-.52c0-1.01-.201-1.899-.604-2.665a4.336 4.336 0 0 0-1.696-1.78c-.727-.42-1.565-.63-2.512-.63h-3.164V553h3.09zm0-1.523h-1.194v-7.61h1.267c.942 0 1.663.302 2.16.908.499.605.748 1.48.748 2.622v.535c0 1.128-.253 2-.758 2.618-.506.618-1.247.927-2.223.927zm8.36 1.523.849-2.446h4.094l.85 2.446h1.984l-4.035-10.664h-1.707L87.688 553h1.984zm4.408-3.977H91.05l1.516-4.373 1.516 4.373zm8.69 3.977v-9.133h3.317v-1.531H97.6v1.53h3.282V553h1.89zm12.314 0v-1.523h-5.098v-3.223h4.358v-1.494h-4.358v-2.893h5.054v-1.531h-6.951V553h6.995z"/><rect width="290" height="38" x="43" y="763" stroke="#CED4DA" stroke-width="2" rx="3"/><path fill="#535668" fill-rule="nonzero" d="M65.968 786v-4.033h2.318l2.16 4.033h1.422v-.082l-2.338-4.225c.597-.232 1.063-.58 1.398-1.042.335-.463.502-1.002.502-1.617 0-.966-.3-1.705-.902-2.218-.602-.513-1.465-.77-2.591-.77h-3.295V786h1.326zm2.003-5.1h-2.003v-3.78h1.969c.73 0 1.271.169 1.627.506.355.337.533.807.533 1.408 0 .351-.08.668-.243.95a1.702 1.702 0 0 1-.72.67c-.32.164-.707.246-1.163.246zm8.711 5.237c.68 0 1.273-.163 1.781-.49a3.21 3.21 0 0 0 1.173-1.339c.273-.567.41-1.209.41-1.924v-.157c0-.716-.137-1.359-.41-1.928a3.198 3.198 0 0 0-1.176-1.343c-.51-.326-1.108-.49-1.791-.49-.675 0-1.266.164-1.774.49a3.206 3.206 0 0 0-1.173 1.343c-.273.57-.41 1.212-.41 1.928v.157c0 .715.138 1.357.414 1.924a3.233 3.233 0 0 0 1.176 1.34c.508.326 1.101.489 1.78.489zm0-1.026c-.45 0-.834-.122-1.148-.365a2.206 2.206 0 0 1-.708-.988 3.848 3.848 0 0 1-.235-1.374v-.157c0-.502.078-.96.235-1.374a2.24 2.24 0 0 1 .705-.992c.312-.246.691-.369 1.138-.369.45 0 .834.123 1.148.37.315.245.552.576.711.99.16.415.24.873.24 1.375v.157c0 .501-.08.96-.236 1.374a2.206 2.206 0 0 1-.708.988c-.314.243-.695.365-1.142.365zm8.493 1.026c.51 0 .988-.114 1.432-.342a2.967 2.967 0 0 0 1.077-.913c.273-.38.421-.787.444-1.22h-1.21c-.023.274-.116.52-.28.742a1.7 1.7 0 0 1-.633.52 1.873 1.873 0 0 1-.83.187c-.72 0-1.236-.255-1.548-.765-.313-.51-.469-1.144-.469-1.9v-.288c0-.474.064-.91.192-1.309a2.07 2.07 0 0 1 .642-.977c.301-.253.695-.38 1.183-.38.328 0 .62.073.875.219.255.146.458.345.608.598.15.253.237.532.26.837h1.21a2.815 2.815 0 0 0-.41-1.37 2.633 2.633 0 0 0-1.036-.96c-.44-.233-.942-.35-1.507-.35-.716 0-1.32.166-1.815.496a3.03 3.03 0 0 0-1.11 1.333 4.57 4.57 0 0 0-.37 1.863v.287c0 .684.123 1.305.37 1.863a3.044 3.044 0 0 0 1.11 1.333c.494.33 1.1.496 1.815.496zm6.23-.137v-2.611l.793-.82L94.754 786h1.504l-3.22-4.313 2.878-3.083h-1.551l-2.284 2.44-.676.8V775.5h-1.279V786h1.279zm9.47.137c.674 0 1.24-.134 1.695-.4.456-.267.82-.61 1.094-1.029l-.773-.602a2.706 2.706 0 0 1-.837.746c-.312.173-.683.26-1.11.26a2.02 2.02 0 0 1-1.146-.325 2.142 2.142 0 0 1-.755-.886 3.094 3.094 0 0 1-.287-1.25h5.003v-.568c0-.71-.109-1.338-.328-1.88a2.732 2.732 0 0 0-1.008-1.275c-.453-.307-1.024-.461-1.712-.461a2.97 2.97 0 0 0-1.59.458c-.494.305-.892.746-1.193 1.323-.3.576-.45 1.25-.45 2.02v.294c0 .688.14 1.303.42 1.845.28.543.678.966 1.193 1.272.514.305 1.11.458 1.784.458zm1.606-4.512h-3.684c.086-.679.3-1.204.639-1.576.34-.371.764-.557 1.275-.557.592 0 1.026.195 1.302.585.276.39.432.874.468 1.452v.096zm5.485 4.512c.36 0 .686-.046.977-.137l-.006-1.019c-.069.019-.16.036-.274.052a2.28 2.28 0 0 1-.314.024c-.251 0-.45-.06-.595-.182-.146-.12-.219-.356-.219-.707v-4.6h1.381v-.964h-1.38v-1.798h-1.28v1.798h-1.346v.963h1.347v4.594c0 .697.156 1.201.468 1.51.312.31.726.466 1.24.466zm5.717 0c.57 0 1.07-.093 1.504-.277.433-.185.768-.442 1.005-.773.237-.33.355-.71.355-1.138 0-.396-.094-.734-.284-1.011-.189-.278-.477-.513-.864-.705-.388-.191-.891-.357-1.511-.499-.46-.1-.812-.202-1.056-.307-.244-.105-.413-.222-.506-.352a.816.816 0 0 1-.14-.49c0-.19.051-.37.154-.536.102-.166.263-.3.482-.403.218-.103.494-.154.827-.154.314 0 .589.063.823.188.235.126.414.286.537.482.123.196.185.399.185.609h1.278a2.1 2.1 0 0 0-.338-1.166c-.226-.349-.553-.626-.981-.83-.429-.206-.93-.308-1.504-.308-.538 0-1.015.098-1.432.294-.417.196-.74.458-.968.786a1.853 1.853 0 0 0-.341 1.08c0 .579.224 1.032.673 1.36.449.328 1.113.584 1.993.766.464.096.82.207 1.066.335.246.127.412.266.499.417.087.15.13.328.13.533a.885.885 0 0 1-.185.55c-.123.162-.304.29-.543.383-.24.094-.525.14-.858.14a2.43 2.43 0 0 1-.817-.136 1.462 1.462 0 0 1-.646-.448c-.173-.208-.269-.475-.287-.803h-1.278c0 .419.118.813.355 1.182.237.37.585.667 1.043.892.458.226 1.001.339 1.63.339zm6.36-.137v-5.291c.182-.36.43-.647.741-.861a1.823 1.823 0 0 1 1.056-.322c.493 0 .86.128 1.104.383.244.255.366.666.366 1.23V786h1.278v-4.847c0-1.79-.79-2.686-2.372-2.686a2.8 2.8 0 0 0-1.216.263c-.37.175-.689.425-.957.749V775.5h-1.279V786h1.279zm7.767-8.654c.237 0 .423-.068.558-.202a.69.69 0 0 0 .201-.51.71.71 0 0 0-.201-.519c-.135-.136-.32-.205-.558-.205-.237 0-.42.069-.55.205a.724.724 0 0 0-.195.52c0 .205.065.375.195.509s.313.202.55.202zm.63 8.654v-7.396h-1.279V786h1.278zm3.87 2.844v-3.555c.516.565 1.22.848 2.113.848.597 0 1.11-.16 1.542-.482.43-.322.758-.766.984-1.333.226-.568.338-1.214.338-1.938v-.144c0-.756-.111-1.418-.335-1.986-.223-.567-.551-1.007-.984-1.319-.433-.312-.955-.468-1.565-.468-.912 0-1.625.314-2.14.943l-.068-.806h-1.163v10.24h1.279zm1.723-3.733c-.77 0-1.344-.335-1.722-1.005v-3.561c.173-.315.4-.563.683-.745.283-.182.625-.274 1.026-.274.442 0 .812.121 1.11.363.3.241.52.566.664.974.143.408.215.867.215 1.377v.144c0 .51-.072.97-.215 1.38a2.16 2.16 0 0 1-.66.982c-.296.243-.663.365-1.1.365zm244.452 2.311v-1.306c.82-.086 1.465-.362 1.934-.827.47-.465.704-1.087.704-1.866 0-.524-.104-.97-.314-1.34-.21-.37-.515-.68-.916-.933s-.91-.48-1.524-.68c-.502-.169-.894-.34-1.176-.513-.283-.173-.483-.368-.602-.584a1.593 1.593 0 0 1-.177-.776c0-.493.14-.882.42-1.17.28-.286.696-.43 1.247-.43.356 0 .66.09.913.27.253.18.444.428.574.745.13.317.195.68.195 1.09h1.272c0-.92-.211-1.653-.633-2.197-.421-.545-1.017-.867-1.787-.967v-1.504h-1.033v1.497c-.5.059-.935.205-1.302.437a2.36 2.36 0 0 0-.847.923c-.199.383-.298.825-.298 1.326 0 .77.236 1.388.708 1.853.471.465 1.165.836 2.081 1.114.693.232 1.186.494 1.48.786.294.292.441.647.441 1.067 0 .496-.168.89-.506 1.179-.337.29-.806.434-1.408.434-.529 0-.977-.154-1.347-.462-.369-.307-.553-.814-.553-1.52h-1.279c0 .66.125 1.21.373 1.647.248.437.575.768.98.991a3.6 3.6 0 0 0 1.361.417v1.299h1.019zm8.95-1.422v-10.008h-.198l-3.623 1.36v1.142l2.543-.936V786h1.278zm7.399.137c1.016 0 1.792-.34 2.328-1.022.535-.682.803-1.802.803-3.36v-1.525c0-1.549-.269-2.656-.807-3.322-.538-.665-1.317-.998-2.338-.998-1.016 0-1.794.333-2.334.998-.54.666-.81 1.773-.81 3.322v1.525c0 1.554.273 2.673.82 3.356.547.684 1.326 1.026 2.338 1.026zm0-1.026c-.615 0-1.082-.254-1.401-.762-.32-.508-.479-1.307-.479-2.396v-1.934c0-1.09.156-1.876.468-2.359.313-.483.779-.724 1.398-.724.63 0 1.098.24 1.405.72.308.482.462 1.269.462 2.363v1.934c0 1.098-.153 1.9-.458 2.403-.306.504-.77.755-1.395.755zm5.416 2.871c.374-.3.668-.679.882-1.134.214-.456.321-.9.321-1.333v-1.012h-1.25v1.032c0 .36-.057.697-.171 1.012a3.975 3.975 0 0 1-.506.943l.724.492zm6.36-1.845c1.016 0 1.792-.34 2.328-1.022.535-.682.803-1.802.803-3.36v-1.525c0-1.549-.269-2.656-.807-3.322-.538-.665-1.317-.998-2.338-.998-1.016 0-1.794.333-2.334.998-.54.666-.81 1.773-.81 3.322v1.525c0 1.554.273 2.673.82 3.356.547.684 1.326 1.026 2.338 1.026zm0-1.026c-.615 0-1.082-.254-1.401-.762-.32-.508-.479-1.307-.479-2.396v-1.934c0-1.09.156-1.876.468-2.359.313-.483.779-.724 1.398-.724.63 0 1.098.24 1.405.72.308.482.462 1.269.462 2.363v1.934c0 1.098-.153 1.9-.458 2.403-.306.504-.77.755-1.395.755zm8.445 1.026c1.016 0 1.792-.34 2.327-1.022.536-.682.804-1.802.804-3.36v-1.525c0-1.549-.27-2.656-.807-3.322-.538-.665-1.317-.998-2.338-.998-1.016 0-1.794.333-2.334.998-.54.666-.81 1.773-.81 3.322v1.525c0 1.554.273 2.673.82 3.356.547.684 1.326 1.026 2.338 1.026zm0-1.026c-.616 0-1.083-.254-1.402-.762-.319-.508-.478-1.307-.478-2.396v-1.934c0-1.09.156-1.876.468-2.359.312-.483.778-.724 1.398-.724.629 0 1.097.24 1.405.72.307.482.461 1.269.461 2.363v1.934c0 1.098-.152 1.9-.458 2.403-.305.504-.77.755-1.394.755zm8.444 1.026c1.017 0 1.792-.34 2.328-1.022.535-.682.803-1.802.803-3.36v-1.525c0-1.549-.269-2.656-.806-3.322-.538-.665-1.318-.998-2.338-.998-1.017 0-1.795.333-2.335.998-.54.666-.81 1.773-.81 3.322v1.525c0 1.554.274 2.673.82 3.356.547.684 1.327 1.026 2.338 1.026zm0-1.026c-.615 0-1.082-.254-1.401-.762-.32-.508-.479-1.307-.479-2.396v-1.934c0-1.09.156-1.876.469-2.359.312-.483.778-.724 1.398-.724.629 0 1.097.24 1.404.72.308.482.462 1.269.462 2.363v1.934c0 1.098-.153 1.9-.458 2.403-.306.504-.77.755-1.395.755zm121.769.889v-10.008h-.198l-3.623 1.36v1.142l2.543-.936V786z"/><rect width="127" height="38" x="353" y="763" stroke="#CED4DA" stroke-width="2" rx="3"/><path fill="#535668" fill-rule="nonzero" d="M46.34 750v-10.664h-1.89V750h1.89zm7.297 0v-9.133h3.318v-1.531h-8.489v1.53h3.281V750h1.89zm12.314 0v-1.523h-5.097v-3.223h4.358v-1.494h-4.358v-2.893h5.053v-1.531h-6.95V750h6.994zm4.002 0v-3.442l-.19-4.732L72.867 750h1.355l3.105-8.181-.183 4.739V750h1.89v-10.664h-2.461l-3.025 8.115-3.032-8.115h-2.461V750h1.897zm288.701 0v-3.94h2.198c.82 0 1.522-.132 2.105-.396.584-.264 1.028-.644 1.333-1.143.306-.498.458-1.09.458-1.78 0-.658-.154-1.246-.461-1.76-.308-.516-.756-.919-1.344-1.21-.589-.29-1.286-.435-2.091-.435h-4.095V750h1.897zm2.198-5.464h-2.198v-3.67h2.198c.449 0 .822.087 1.12.26.298.174.518.404.66.69.141.285.212.599.212.94 0 .552-.163.987-.487 1.304-.325.317-.827.476-1.505.476zm8.022 5.464v-4.087h2.029L373.02 750h2.036v-.095l-2.38-4.439c.62-.263 1.098-.64 1.435-1.128.337-.488.505-1.084.505-1.787 0-1.04-.335-1.836-1.007-2.387-.671-.552-1.622-.828-2.853-.828h-3.779V750h1.897zm1.89-5.61h-1.89v-3.523h1.882c.664 0 1.158.156 1.48.468.322.313.483.75.483 1.311 0 .528-.167.95-.501 1.268-.335.317-.82.476-1.454.476zm8.235 5.61v-10.664h-1.89V750h1.89zm6.843.146c.85 0 1.577-.153 2.182-.46a3.435 3.435 0 0 0 1.41-1.283c.335-.547.534-1.176.597-1.89h-1.89c-.058.47-.17.856-.333 1.162a1.614 1.614 0 0 1-.725.695c-.32.16-.733.238-1.241.238-.825 0-1.432-.307-1.82-.922-.388-.616-.583-1.48-.583-2.593v-.857c0-1.133.21-2 .627-2.604.417-.603 1.034-.904 1.849-.904.728 0 1.261.179 1.6.538.34.359.55.895.634 1.608h1.89c-.074-.728-.275-1.369-.605-1.923a3.418 3.418 0 0 0-1.38-1.296c-.591-.31-1.304-.466-2.139-.466-.884 0-1.656.208-2.318.623-.662.415-1.172 1.003-1.53 1.765-.36.762-.54 1.653-.54 2.673v.843c0 1.02.177 1.911.528 2.673.352.762.852 1.349 1.502 1.762.649.412 1.41.618 2.285.618zm13.435-.146v-1.523h-5.098v-3.223h4.358v-1.494h-4.358v-2.893h5.054v-1.531h-6.95V750h6.994zm127.883 1.853 1.231-1.099-1.824-1.428c.582-.444 1.03-1.04 1.348-1.787.318-.747.476-1.614.476-2.6v-.535c0-1.064-.185-1.99-.556-2.776-.372-.786-.893-1.389-1.564-1.809-.672-.42-1.45-.63-2.333-.63-.869 0-1.638.212-2.307.634-.669.422-1.19 1.027-1.564 1.813-.373.786-.56 1.709-.56 2.768v.535c0 1.06.188 1.982.564 2.769.376.786.9 1.389 1.571 1.809.671.42 1.442.63 2.31.63.333 0 .648-.03.946-.088l2.263 1.794zm-3.207-3.267c-.523 0-.974-.14-1.355-.42-.381-.281-.674-.695-.88-1.242-.204-.547-.307-1.209-.307-1.985v-.55c0-.776.102-1.436.304-1.98.203-.545.493-.956.872-1.235.378-.278.829-.417 1.351-.417.816 0 1.444.311 1.886.934.442.622.663 1.522.663 2.699v.549c0 1.177-.22 2.079-.66 2.706-.439.628-1.064.941-1.874.941zm10.74 1.56c.756 0 1.437-.14 2.043-.42a3.287 3.287 0 0 0 1.432-1.257c.349-.556.523-1.23.523-2.021v-7.112h-1.896v7.112c0 .737-.182 1.284-.546 1.64-.364.357-.883.535-1.557.535-.664 0-1.18-.18-1.549-.538-.368-.36-.553-.905-.553-1.637v-7.112h-1.89v7.112c0 .796.17 1.47.51 2.025.34.554.81.972 1.413 1.252.603.281 1.293.421 2.07.421zm7.436-.146.85-2.446h4.094l.85 2.446h1.984l-4.035-10.664h-1.707L540.145 750h1.984zm4.41-3.977h-3.033l1.516-4.373 1.516 4.373zM553.6 750v-7.5l4.695 7.5h1.897v-10.664h-1.882v7.515l-4.71-7.515h-1.897V750h1.897zm13.801 0v-9.133h3.318v-1.531h-8.489v1.53h3.282V750h1.89zm7.327 0v-10.664h-1.89V750h1.89zm7.297 0v-9.133h3.318v-1.531h-8.489v1.53h3.282V750h1.89zm9.912 0v-3.918l3.567-6.746h-2.102l-2.424 5.017-2.417-5.017h-2.102l3.567 6.746V750h1.911z"/><path fill="#4F6EF7" fill-rule="nonzero" d="m77.763 853 1.01-2.79h4.446l1.018 2.79h1.458l-4.08-10.664H80.37L76.298 853h1.465zm5.039-3.94H79.19l1.802-4.98 1.809 4.98zm7.832 3.94c.981 0 1.836-.203 2.563-.608a4.128 4.128 0 0 0 1.681-1.74c.393-.754.59-1.641.59-2.662v-.644c0-1.011-.197-1.895-.59-2.652a4.19 4.19 0 0 0-1.655-1.746c-.71-.408-1.532-.612-2.465-.612h-3.01V853h2.886zm0-1.143h-1.465v-8.371h1.59c.697 0 1.294.151 1.79.454.496.303.871.74 1.128 1.315.256.573.384 1.266.384 2.076v.66c0 .79-.129 1.475-.388 2.054a2.935 2.935 0 0 1-1.157 1.34c-.513.315-1.14.472-1.882.472zM101.095 853c.981 0 1.836-.203 2.564-.608a4.128 4.128 0 0 0 1.68-1.74c.393-.754.59-1.641.59-2.662v-.644c0-1.011-.197-1.895-.59-2.652a4.19 4.19 0 0 0-1.655-1.746c-.71-.408-1.532-.612-2.464-.612h-3.01V853h2.885zm0-1.143H99.63v-8.371h1.59c.698 0 1.295.151 1.79.454.496.303.872.74 1.128 1.315.257.573.385 1.266.385 2.076v.66c0 .79-.13 1.475-.388 2.054a2.935 2.935 0 0 1-1.158 1.34c-.512.315-1.14.472-1.882.472zM114.532 853v-10.664h-1.42V853h1.42zm7.13 0v-9.514h3.42v-1.15h-8.24v1.15h3.413V853h1.406zm12.394 0v-1.143h-5.354v-3.794h4.607v-1.142h-4.607v-3.435h5.281v-1.15h-6.702V853h6.775zm3.782 0v-4.167l-.132-4.439 3.487 8.606h1.076l3.494-8.613-.132 4.446V853h1.414v-10.664h-1.831l-3.48 8.716-3.478-8.716h-1.832V853h1.414z"/><g stroke="#4F6EF7" stroke-width="2" transform="translate(43 836)"><circle cx="12" cy="12" r="12"/><path d="M11.463 6.661v11.396M5.484 12h11.447"/></g><g transform="translate(43 282)"><rect width="12" height="12" y="5" stroke="#CED4DA" stroke-width="2" rx="1"/><path fill="#535668" fill-rule="nonzero" d="M24.668 15V5.047h-1.326V15h1.326zm4.05 0V9.709c.182-.36.429-.647.741-.861a1.823 1.823 0 0 1 1.056-.322c.492 0 .86.128 1.104.383.244.255.366.666.366 1.23V15h1.278v-4.847c0-1.79-.79-2.686-2.372-2.686-.451 0-.863.09-1.237.273a2.82 2.82 0 0 0-.964.773l-.041-.91h-1.21V15h1.278zm9.996.137c.51 0 .988-.114 1.432-.342a2.967 2.967 0 0 0 1.077-.913c.273-.38.421-.787.444-1.22h-1.21c-.023.274-.116.52-.28.742a1.7 1.7 0 0 1-.633.52 1.873 1.873 0 0 1-.83.187c-.72 0-1.236-.255-1.549-.765-.312-.51-.468-1.144-.468-1.9v-.288c0-.474.064-.91.192-1.309a2.07 2.07 0 0 1 .642-.977c.3-.253.695-.38 1.183-.38.328 0 .62.073.875.219.255.146.458.345.608.598.15.253.237.532.26.837h1.21a2.815 2.815 0 0 0-.41-1.37 2.633 2.633 0 0 0-1.036-.96c-.44-.233-.942-.35-1.507-.35-.716 0-1.32.166-1.815.496a3.04 3.04 0 0 0-1.111 1.333 4.57 4.57 0 0 0-.37 1.863v.287c0 .684.124 1.305.37 1.863a3.044 3.044 0 0 0 1.11 1.333c.495.33 1.1.496 1.816.496zM45.046 15V4.5h-1.278V15h1.278zm4.993.137c.952 0 1.674-.29 2.167-.868l.02.731h1.217V7.604h-1.278v5.393c-.324.716-.964 1.073-1.921 1.073-.397 0-.722-.126-.974-.38-.253-.252-.38-.686-.38-1.301V7.604h-1.278v4.771c0 .948.214 1.645.642 2.092.429.446 1.024.67 1.785.67zm8.499 0c.902 0 1.604-.308 2.105-.923l.062.786h1.169V4.5h-1.278v3.835c-.493-.579-1.174-.868-2.044-.868-.584 0-1.096.157-1.539.471-.442.315-.783.757-1.025 1.327-.241.57-.362 1.228-.362 1.975v.144c0 .715.122 1.358.366 1.928.243.57.586 1.016 1.028 1.34.442.323.948.485 1.518.485zm.314-1.067c-.437 0-.802-.118-1.093-.355a2.073 2.073 0 0 1-.646-.96 4.193 4.193 0 0 1-.209-1.371v-.144c0-.51.07-.97.209-1.38.139-.41.355-.735.649-.975.294-.239.662-.359 1.104-.359.41 0 .758.094 1.043.28.284.187.513.443.687.766v3.425c-.374.716-.955 1.073-1.744 1.073zm8.636 1.067c.675 0 1.24-.134 1.696-.4.455-.267.82-.61 1.093-1.029l-.772-.602a2.706 2.706 0 0 1-.837.746c-.313.173-.683.26-1.111.26a2.02 2.02 0 0 1-1.145-.325 2.142 2.142 0 0 1-.756-.886 3.094 3.094 0 0 1-.287-1.25h5.004v-.568c0-.71-.11-1.338-.328-1.88a2.732 2.732 0 0 0-1.008-1.275c-.454-.307-1.025-.461-1.713-.461-.565 0-1.095.152-1.589.458-.494.305-.892.746-1.193 1.323-.3.576-.451 1.25-.451 2.02v.294c0 .688.14 1.303.42 1.845.28.543.678.966 1.193 1.272.515.305 1.11.458 1.784.458zm1.607-4.512H65.41c.087-.679.3-1.204.64-1.576a1.654 1.654 0 0 1 1.274-.557c.593 0 1.027.195 1.303.585.275.39.431.874.468 1.452v.096zm10.771 4.512c.597 0 1.112-.16 1.545-.482.433-.322.762-.766.988-1.333.225-.568.338-1.214.338-1.938v-.144c0-.756-.113-1.418-.338-1.986-.226-.567-.555-1.007-.988-1.319-.433-.312-.953-.468-1.559-.468-.898 0-1.6.31-2.105.93V4.5h-1.279V15h1.17l.061-.84c.51.65 1.233.977 2.167.977zm-.321-1.067c-.429 0-.792-.105-1.09-.314a2.189 2.189 0 0 1-.708-.841V9.682c.168-.356.4-.637.694-.845.294-.207.657-.31 1.09-.31.67 0 1.159.249 1.466.748.308.499.462 1.154.462 1.965v.144c0 .793-.159 1.439-.475 1.938-.317.499-.797.748-1.44.748zm7.76 1.067c.953 0 1.676-.29 2.168-.868l.02.731h1.217V7.604h-1.278v5.393c-.324.716-.964 1.073-1.921 1.073-.397 0-.721-.126-.974-.38-.253-.252-.38-.686-.38-1.301V7.604H84.88v4.771c0 .948.214 1.645.643 2.092.428.446 1.023.67 1.784.67zm6.23 2.85c.593 0 1.061-.183 1.405-.55a3.77 3.77 0 0 0 .79-1.295l2.967-8.538h-1.36L95.62 13.14l-1.832-5.537h-1.394l2.639 7.314-.28.759c-.151.45-.346.767-.585.947-.24.18-.576.27-1.008.27a2.384 2.384 0 0 1-.342-.034v1.018c.077.023.192.047.345.072.153.025.277.037.372.037zm9.942-2.85c.675 0 1.24-.134 1.696-.4.455-.267.82-.61 1.093-1.029l-.772-.602a2.706 2.706 0 0 1-.838.746c-.312.173-.682.26-1.11.26a2.02 2.02 0 0 1-1.145-.325 2.142 2.142 0 0 1-.756-.886 3.094 3.094 0 0 1-.287-1.25h5.004v-.568c0-.71-.11-1.338-.328-1.88a2.732 2.732 0 0 0-1.008-1.275c-.454-.307-1.025-.461-1.713-.461a2.97 2.97 0 0 0-1.59.458c-.494.305-.891.746-1.192 1.323-.3.576-.451 1.25-.451 2.02v.294c0 .688.14 1.303.42 1.845.28.543.678.966 1.193 1.272.515.305 1.11.458 1.784.458zm1.607-4.512h-3.685c.087-.679.3-1.204.64-1.576a1.654 1.654 0 0 1 1.274-.557c.593 0 1.027.195 1.302.585.276.39.432.874.469 1.452v.096zM109.686 15V9.743c.142-.337.353-.6.633-.786.28-.187.63-.28 1.05-.28.218 0 .425.018.621.054V7.563a1.014 1.014 0 0 0-.253-.065 1.991 1.991 0 0 0-1.333.226 2.09 2.09 0 0 0-.724.72l-.028-.84h-1.244V15h1.278zm10.382.137c.428 0 .821-.083 1.18-.25.357-.166.663-.386.919-.66.04.338.1.595.177.773h1.333v-.11a3.059 3.059 0 0 1-.191-.7 4.923 4.923 0 0 1-.068-.803V9.94c0-.537-.117-.992-.35-1.363a2.147 2.147 0 0 0-.966-.834c-.413-.185-.892-.277-1.44-.277-.574 0-1.084.106-1.53.318-.447.212-.794.486-1.04.823-.246.338-.369.686-.369 1.046h1.279c0-.21.067-.404.201-.584.135-.18.323-.324.564-.43a1.99 1.99 0 0 1 .82-.161c.502 0 .886.128 1.152.386.267.257.4.612.4 1.063v.588h-1.244c-.679 0-1.268.092-1.767.276-.499.185-.884.46-1.155.824-.271.365-.407.81-.407 1.333 0 .406.104.775.311 1.108.207.332.501.596.882.79.38.193.817.29 1.309.29zm.185-1.094c-.301 0-.556-.056-.766-.168a1.168 1.168 0 0 1-.479-.454 1.285 1.285 0 0 1-.164-.65c0-.45.194-.791.581-1.021.388-.23.946-.346 1.675-.346h1.04v1.532a1.86 1.86 0 0 1-.418.546c-.182.169-.4.305-.653.407a2.154 2.154 0 0 1-.816.154zm8.328 1.094c.902 0 1.604-.308 2.105-.923l.062.786h1.169V4.5h-1.278v3.835c-.493-.579-1.174-.868-2.044-.868-.584 0-1.096.157-1.538.471-.443.315-.784.757-1.026 1.327-.241.57-.362 1.228-.362 1.975v.144c0 .715.122 1.358.366 1.928.243.57.586 1.016 1.028 1.34.442.323.948.485 1.518.485zm.314-1.067c-.437 0-.802-.118-1.093-.355a2.073 2.073 0 0 1-.646-.96 4.193 4.193 0 0 1-.209-1.371v-.144c0-.51.07-.97.209-1.38.139-.41.355-.735.65-.975.293-.239.661-.359 1.103-.359.41 0 .758.094 1.043.28.284.187.513.443.687.766v3.425c-.374.716-.955 1.073-1.744 1.073zm8.165 1.067c.902 0 1.604-.308 2.105-.923l.062.786h1.169V4.5h-1.279v3.835c-.492-.579-1.173-.868-2.044-.868-.583 0-1.096.157-1.538.471-.442.315-.784.757-1.025 1.327-.242.57-.362 1.228-.362 1.975v.144c0 .715.122 1.358.365 1.928.244.57.587 1.016 1.03 1.34.441.323.947.485 1.517.485zm.314-1.067c-.437 0-.802-.118-1.094-.355a2.073 2.073 0 0 1-.646-.96 4.193 4.193 0 0 1-.208-1.371v-.144c0-.51.07-.97.208-1.38.14-.41.356-.735.65-.975.294-.239.662-.359 1.104-.359.41 0 .758.094 1.042.28.285.187.514.443.687.766v3.425c-.373.716-.954 1.073-1.743 1.073zm6.838.93V9.743c.142-.337.352-.6.633-.786.28-.187.63-.28 1.049-.28.219 0 .426.018.622.054V7.563a1.014 1.014 0 0 0-.253-.065 1.991 1.991 0 0 0-1.333.226 2.09 2.09 0 0 0-.724.72l-.028-.84h-1.244V15h1.278zm7.119.137c.674 0 1.24-.134 1.695-.4.456-.267.82-.61 1.094-1.029l-.773-.602a2.706 2.706 0 0 1-.837.746c-.312.173-.682.26-1.11.26a2.02 2.02 0 0 1-1.146-.325 2.142 2.142 0 0 1-.755-.886 3.094 3.094 0 0 1-.287-1.25h5.004v-.568c0-.71-.11-1.338-.329-1.88a2.732 2.732 0 0 0-1.008-1.275c-.453-.307-1.024-.461-1.712-.461a2.97 2.97 0 0 0-1.59.458c-.494.305-.892.746-1.192 1.323-.301.576-.452 1.25-.452 2.02v.294c0 .688.14 1.303.42 1.845a3.11 3.11 0 0 0 1.194 1.272c.515.305 1.11.458 1.784.458zm1.606-4.512h-3.684c.086-.679.3-1.204.639-1.576.34-.371.764-.557 1.275-.557.592 0 1.026.195 1.302.585.276.39.432.874.468 1.452v.096zm6.046 4.512c.57 0 1.07-.093 1.503-.277.433-.185.768-.442 1.005-.773.237-.33.356-.71.356-1.138 0-.396-.095-.734-.284-1.011-.189-.278-.477-.513-.865-.705-.387-.191-.89-.357-1.51-.499-.46-.1-.813-.202-1.057-.307-.243-.105-.412-.222-.505-.352a.816.816 0 0 1-.14-.49 1 1 0 0 1 .153-.536c.103-.166.263-.3.482-.403.219-.103.495-.154.827-.154.315 0 .59.063.824.188.235.126.414.286.537.482.123.196.184.399.184.609h1.279a2.1 2.1 0 0 0-.339-1.166c-.225-.349-.552-.626-.98-.83-.43-.206-.93-.308-1.505-.308-.537 0-1.015.098-1.432.294-.417.196-.74.458-.967.786a1.853 1.853 0 0 0-.342 1.08c0 .579.225 1.032.673 1.36.45.328 1.114.584 1.993.766.465.096.82.207 1.067.335.246.127.412.266.499.417.086.15.13.328.13.533a.885.885 0 0 1-.185.55 1.21 1.21 0 0 1-.544.383c-.239.094-.525.14-.857.14a2.43 2.43 0 0 1-.817-.136 1.462 1.462 0 0 1-.646-.448c-.174-.208-.27-.475-.287-.803h-1.279c0 .419.119.813.356 1.182.237.37.584.667 1.042.892.458.226 1.002.339 1.63.339zm7.802 0c.57 0 1.07-.093 1.503-.277.433-.185.768-.442 1.005-.773.237-.33.356-.71.356-1.138 0-.396-.095-.734-.284-1.011-.189-.278-.477-.513-.865-.705-.387-.191-.89-.357-1.51-.499-.46-.1-.813-.202-1.056-.307-.244-.105-.413-.222-.506-.352a.816.816 0 0 1-.14-.49 1 1 0 0 1 .153-.536c.103-.166.263-.3.482-.403.219-.103.495-.154.827-.154.315 0 .59.063.824.188.235.126.414.286.537.482.123.196.184.399.184.609h1.279a2.1 2.1 0 0 0-.339-1.166c-.225-.349-.552-.626-.98-.83-.43-.206-.93-.308-1.505-.308-.537 0-1.015.098-1.432.294-.417.196-.74.458-.967.786a1.853 1.853 0 0 0-.342 1.08c0 .579.225 1.032.674 1.36.448.328 1.113.584 1.992.766.465.096.82.207 1.067.335.246.127.412.266.499.417.086.15.13.328.13.533a.885.885 0 0 1-.185.55 1.21 1.21 0 0 1-.544.383c-.239.094-.525.14-.857.14a2.43 2.43 0 0 1-.817-.136 1.462 1.462 0 0 1-.646-.448c-.173-.208-.27-.475-.287-.803h-1.279c0 .419.119.813.356 1.182.237.37.584.667 1.042.892.458.226 1.002.339 1.63.339z"/></g><rect width="290" height="38" x="353" y="566" stroke="#CED4DA" stroke-width="2" rx="3"/><path fill="#535668" fill-rule="nonzero" d="M358.82 552c1.177 0 2.09-.267 2.74-.802.649-.535.974-1.307.974-2.318 0-.581-.152-1.093-.454-1.535-.303-.441-.75-.74-1.34-.897.497-.205.88-.503 1.145-.893.267-.39.4-.835.4-1.333 0-.972-.323-1.696-.967-2.172-.645-.476-1.568-.714-2.769-.714h-3.662V552h3.933zm-.256-6.182h-1.78v-2.951h1.765c.635 0 1.101.116 1.4.348.297.232.446.606.446 1.124 0 .469-.16.832-.48 1.091-.32.259-.77.388-1.351.388zm.256 4.659h-2.036v-3.267h2.117c1.162 0 1.743.557 1.743 1.67 0 .483-.158.87-.472 1.16-.315.291-.766.437-1.352.437zm8.176 1.523v-10.664h-1.89V552h1.89zm9.583 0v-1.523h-4.82v-9.141h-1.896V552h6.716zm8.74 0v-1.523h-4.82v-9.141h-1.896V552h6.716zm8.186 0v-7.5l4.695 7.5h1.897v-10.664h-1.882v7.515l-4.71-7.515h-1.897V552h1.897zm13.208.146c.757 0 1.438-.14 2.044-.42a3.284 3.284 0 0 0 1.431-1.257c.35-.556.524-1.23.524-2.021v-7.112h-1.897v7.112c0 .737-.182 1.284-.545 1.64-.364.357-.883.535-1.557.535-.664 0-1.18-.18-1.549-.538-.369-.36-.553-.905-.553-1.637v-7.112h-1.89v7.112c0 .796.17 1.47.51 2.025.339.554.81.972 1.413 1.252.603.281 1.293.421 2.07.421zm8.47-.146v-3.442l-.191-4.732 3.105 8.174h1.355l3.106-8.181-.183 4.739V552h1.89v-10.664h-2.462l-3.024 8.115-3.033-8.115h-2.46V552h1.896zm15.785 0c1.177 0 2.09-.267 2.74-.802.65-.535.974-1.307.974-2.318 0-.581-.152-1.093-.454-1.535-.303-.441-.75-.74-1.34-.897.497-.205.88-.503 1.146-.893.266-.39.399-.835.399-1.333 0-.972-.322-1.696-.967-2.172-.645-.476-1.567-.714-2.769-.714h-3.662V552h3.933zm-.256-6.182h-1.78v-2.951h1.765c.635 0 1.102.116 1.4.348.297.232.446.606.446 1.124 0 .469-.16.832-.48 1.091-.32.259-.77.388-1.35.388zm.256 4.659h-2.036v-3.267h2.117c1.162 0 1.743.557 1.743 1.67 0 .483-.157.87-.472 1.16-.315.291-.766.437-1.352.437zM444.132 552v-1.523h-5.097v-3.223h4.358v-1.494h-4.358v-2.893h5.054v-1.531h-6.951V552h6.994zm4.002 0v-4.087h2.029l2.116 4.087h2.037v-.095l-2.38-4.439c.62-.263 1.098-.64 1.435-1.128.337-.488.505-1.084.505-1.787 0-1.04-.336-1.836-1.007-2.387-.671-.552-1.622-.828-2.853-.828h-3.78V552h1.898zm1.89-5.61h-1.89v-3.523h1.882c.664 0 1.157.156 1.48.468.322.313.483.75.483 1.311 0 .528-.167.95-.502 1.268-.334.317-.819.476-1.453.476z"/><g transform="translate(43 627)"><rect width="12" height="12" y="5" stroke="#CED4DA" stroke-width="2" rx="1"/><path fill="#535668" fill-rule="nonzero" d="M28.11 15V6.12h3.193V5.047h-7.69V6.12h3.185V15h1.312zm6.326 0V9.709c.182-.36.43-.647.741-.861a1.823 1.823 0 0 1 1.057-.322c.492 0 .86.128 1.104.383.243.255.365.666.365 1.23V15h1.279v-4.847c0-1.79-.791-2.686-2.372-2.686-.443 0-.848.088-1.217.263-.37.175-.688.425-.957.749V4.5h-1.279V15h1.279zm7.768-8.654c.237 0 .422-.068.557-.202a.69.69 0 0 0 .201-.51.71.71 0 0 0-.201-.519c-.135-.136-.32-.205-.557-.205-.237 0-.42.069-.55.205a.724.724 0 0 0-.196.52c0 .205.065.375.195.509s.314.202.55.202zM42.832 15V7.604h-1.278V15h1.278zm5.314.137c.57 0 1.071-.093 1.504-.277.433-.185.768-.442 1.005-.773.237-.33.355-.71.355-1.138 0-.396-.094-.734-.283-1.011-.19-.278-.478-.513-.865-.705-.387-.191-.89-.357-1.51-.499-.461-.1-.813-.202-1.057-.307-.244-.105-.412-.222-.506-.352a.816.816 0 0 1-.14-.49c0-.19.051-.37.154-.536.103-.166.263-.3.482-.403.219-.103.494-.154.827-.154.315 0 .59.063.824.188.234.126.413.286.536.482.123.196.185.399.185.609h1.278a2.1 2.1 0 0 0-.338-1.166c-.226-.349-.553-.626-.981-.83-.428-.206-.93-.308-1.504-.308-.538 0-1.015.098-1.432.294-.417.196-.74.458-.967.786a1.853 1.853 0 0 0-.342 1.08c0 .579.224 1.032.673 1.36.45.328 1.113.584 1.993.766.465.096.82.207 1.066.335.246.127.413.266.5.417.086.15.13.328.13.533a.885.885 0 0 1-.185.55c-.123.162-.305.29-.544.383-.24.094-.525.14-.858.14a2.43 2.43 0 0 1-.817-.136 1.462 1.462 0 0 1-.646-.448c-.173-.208-.269-.475-.287-.803h-1.278c0 .419.118.813.355 1.182.237.37.585.667 1.043.892.458.226 1.001.339 1.63.339zm9.89-8.791c.236 0 .422-.068.557-.202a.69.69 0 0 0 .201-.51.71.71 0 0 0-.201-.519c-.135-.136-.32-.205-.557-.205-.237 0-.42.069-.55.205a.724.724 0 0 0-.196.52c0 .205.065.375.195.509s.314.202.55.202zM58.664 15V7.604h-1.278V15h1.278zm5.314.137c.57 0 1.071-.093 1.504-.277.433-.185.768-.442 1.005-.773.237-.33.355-.71.355-1.138 0-.396-.094-.734-.283-1.011-.19-.278-.478-.513-.865-.705-.387-.191-.89-.357-1.51-.499-.461-.1-.813-.202-1.057-.307-.244-.105-.412-.222-.506-.352a.816.816 0 0 1-.14-.49c0-.19.051-.37.154-.536.102-.166.263-.3.482-.403.219-.103.494-.154.827-.154.314 0 .589.063.824.188.234.126.413.286.536.482.123.196.185.399.185.609h1.278a2.1 2.1 0 0 0-.338-1.166c-.226-.349-.553-.626-.981-.83-.428-.206-.93-.308-1.504-.308-.538 0-1.015.098-1.432.294-.417.196-.74.458-.967.786a1.853 1.853 0 0 0-.342 1.08c0 .579.224 1.032.673 1.36.449.328 1.113.584 1.993.766.465.096.82.207 1.066.335.246.127.413.266.5.417.086.15.13.328.13.533a.885.885 0 0 1-.185.55c-.123.162-.305.29-.544.383-.24.094-.525.14-.858.14a2.43 2.43 0 0 1-.817-.136 1.462 1.462 0 0 1-.646-.448c-.173-.208-.269-.475-.287-.803H60.95c0 .419.118.813.355 1.182.237.37.585.667 1.043.892.458.226 1.001.339 1.63.339zm11.42 0c.43 0 .822-.083 1.18-.25a2.93 2.93 0 0 0 .92-.66c.04.338.1.595.177.773h1.333v-.11a3.059 3.059 0 0 1-.191-.7 4.923 4.923 0 0 1-.069-.803V9.94c0-.537-.116-.992-.348-1.363a2.147 2.147 0 0 0-.968-.834c-.412-.185-.892-.277-1.439-.277-.574 0-1.084.106-1.53.318-.447.212-.794.486-1.04.823-.246.338-.369.686-.369 1.046h1.278c0-.21.068-.404.202-.584a1.37 1.37 0 0 1 .564-.43c.241-.108.515-.161.82-.161.502 0 .885.128 1.152.386.267.257.4.612.4 1.063v.588h-1.244c-.68 0-1.268.092-1.767.276-.5.185-.884.46-1.156.824-.27.365-.406.81-.406 1.333 0 .406.103.775.31 1.108.208.332.502.596.883.79.38.193.817.29 1.309.29zm.185-1.094c-.3 0-.556-.056-.765-.168a1.168 1.168 0 0 1-.479-.454 1.285 1.285 0 0 1-.164-.65c0-.45.194-.791.581-1.021.387-.23.946-.346 1.675-.346h1.039v1.532a1.86 1.86 0 0 1-.417.546c-.182.169-.4.305-.653.407a2.154 2.154 0 0 1-.817.154zM86.635 15V9.743c.14-.337.352-.6.632-.786.28-.187.63-.28 1.05-.28.218 0 .425.018.621.054V7.563a1.014 1.014 0 0 0-.253-.065 1.991 1.991 0 0 0-1.333.226 2.09 2.09 0 0 0-.724.72l-.028-.84h-1.244V15h1.279zm7.118.137c.675 0 1.24-.134 1.695-.4.456-.267.82-.61 1.094-1.029l-.772-.602a2.706 2.706 0 0 1-.838.746c-.312.173-.682.26-1.11.26a2.02 2.02 0 0 1-1.146-.325 2.142 2.142 0 0 1-.755-.886 3.094 3.094 0 0 1-.287-1.25h5.004v-.568c0-.71-.11-1.338-.328-1.88a2.732 2.732 0 0 0-1.01-1.275c-.453-.307-1.024-.461-1.712-.461a2.97 2.97 0 0 0-1.59.458c-.494.305-.891.746-1.192 1.323-.301.576-.451 1.25-.451 2.02v.294c0 .688.14 1.303.42 1.845.28.543.678.966 1.193 1.272.515.305 1.11.458 1.784.458zm1.607-4.512h-3.685c.087-.679.3-1.204.64-1.576a1.654 1.654 0 0 1 1.274-.557c.593 0 1.027.195 1.302.585.276.39.432.874.469 1.452v.096zm6.29 4.512c.511 0 .989-.114 1.433-.342a2.967 2.967 0 0 0 1.077-.913c.273-.38.421-.787.444-1.22h-1.21c-.023.274-.116.52-.28.742a1.7 1.7 0 0 1-.633.52 1.873 1.873 0 0 1-.83.187c-.72 0-1.236-.255-1.548-.765-.313-.51-.469-1.144-.469-1.9v-.288c0-.474.064-.91.192-1.309a2.07 2.07 0 0 1 .642-.977c.301-.253.695-.38 1.183-.38.328 0 .62.073.875.219.255.146.458.345.608.598.15.253.237.532.26.837h1.21a2.815 2.815 0 0 0-.41-1.37 2.633 2.633 0 0 0-1.036-.96c-.44-.233-.942-.35-1.507-.35-.716 0-1.32.166-1.815.496a3.03 3.03 0 0 0-1.11 1.333 4.57 4.57 0 0 0-.37 1.863v.287c0 .684.123 1.305.37 1.863a3.044 3.044 0 0 0 1.11 1.333c.494.33 1.1.496 1.815.496zm7.345 0c.952 0 1.675-.29 2.167-.868l.02.731h1.217V7.604h-1.278v5.393c-.324.716-.964 1.073-1.921 1.073-.396 0-.721-.126-.974-.38-.253-.252-.38-.686-.38-1.301V7.604h-1.278v4.771c0 .948.214 1.645.643 2.092.428.446 1.023.67 1.784.67zm7.173-.137V9.743c.141-.337.352-.6.632-.786.28-.187.63-.28 1.05-.28.218 0 .426.018.622.054V7.563a1.014 1.014 0 0 0-.253-.065 1.991 1.991 0 0 0-1.333.226 2.09 2.09 0 0 0-.725.72l-.027-.84h-1.244V15h1.278zm5.32 0V9.743c.142-.337.353-.6.633-.786.28-.187.63-.28 1.05-.28.218 0 .425.018.621.054V7.563a1.014 1.014 0 0 0-.253-.065 1.991 1.991 0 0 0-1.333.226 2.09 2.09 0 0 0-.724.72l-.027-.84h-1.245V15h1.279zm4.802-8.654c.237 0 .422-.068.557-.202a.69.69 0 0 0 .202-.51.71.71 0 0 0-.202-.519c-.135-.136-.32-.205-.557-.205-.237 0-.42.069-.55.205a.724.724 0 0 0-.195.52c0 .205.065.375.194.509.13.134.314.202.55.202zm.629 8.654V7.604h-1.279V15h1.279zm3.871 0V9.709c.182-.36.43-.647.742-.861a1.823 1.823 0 0 1 1.056-.322c.492 0 .86.128 1.104.383.244.255.366.666.366 1.23V15h1.278v-4.847c0-1.79-.79-2.686-2.372-2.686-.451 0-.864.09-1.237.273a2.82 2.82 0 0 0-.964.773l-.041-.91h-1.21V15h1.278zm9.846 2.919c.62 0 1.166-.12 1.637-.362.472-.242.84-.594 1.104-1.057.265-.462.397-1.015.397-1.657v-7.24h-1.162l-.055.814c-.506-.633-1.21-.95-2.112-.95-.593 0-1.11.157-1.552.471-.442.315-.782.757-1.019 1.327-.237.57-.355 1.228-.355 1.975v.144c0 .72.12 1.364.359 1.93.239.568.579 1.014 1.018 1.337.44.324.952.486 1.535.486.875 0 1.563-.29 2.064-.868v.635c0 .638-.174 1.13-.523 1.473-.348.345-.826.517-1.432.517-.774 0-1.435-.335-1.982-1.005l-.663.745c.205.3.47.547.796.738.326.191.66.33 1.002.417.342.087.656.13.943.13zm.11-3.849c-.438 0-.803-.118-1.094-.355a2.073 2.073 0 0 1-.646-.96 4.193 4.193 0 0 1-.209-1.371v-.144c0-.51.07-.97.209-1.38.139-.41.355-.735.65-.975.293-.239.661-.359 1.103-.359.41 0 .759.095 1.046.284.287.19.517.448.69.776v3.397c-.373.725-.957 1.087-1.75 1.087zm12.958 1.067c.597 0 1.112-.16 1.545-.482.433-.322.762-.766.988-1.333.225-.568.338-1.214.338-1.938v-.144c0-.756-.113-1.418-.338-1.986-.226-.567-.555-1.007-.988-1.319-.433-.312-.953-.468-1.559-.468-.897 0-1.6.31-2.105.93V4.5h-1.278V15h1.169l.061-.84c.51.65 1.233.977 2.167.977zm-.321-1.067c-.429 0-.792-.105-1.09-.314a2.189 2.189 0 0 1-.708-.841V9.682c.169-.356.4-.637.694-.845.294-.207.657-.31 1.09-.31.67 0 1.159.249 1.466.748.308.499.462 1.154.462 1.965v.144c0 .793-.159 1.439-.475 1.938-.317.499-.797.748-1.44.748zm6.12-7.724c.237 0 .423-.068.557-.202a.69.69 0 0 0 .202-.51.71.71 0 0 0-.202-.519c-.134-.136-.32-.205-.557-.205-.237 0-.42.069-.55.205a.724.724 0 0 0-.195.52c0 .205.065.375.195.509s.313.202.55.202zm.63 8.654V7.604h-1.28V15h1.28zm3.98 0V4.5h-1.278V15h1.278zm3.98 0V4.5h-1.278V15h1.279z"/></g><path stroke="#EBEBEB" d="m.938 692.313 687.375.125"/><rect width="117" height="38" x="519" y="763" stroke="#CED4DA" stroke-width="2" rx="3"/></g></svg>