<svg xmlns="http://www.w3.org/2000/svg" xmlns:xlink="http://www.w3.org/1999/xlink" width="190" height="133"><defs><filter id="b" width="115.7%" height="123.5%" x="-7.8%" y="-11.7%" filterUnits="objectBoundingBox"><feMorphology in="SourceAlpha" operator="dilate" radius="1" result="shadowSpreadOuter1"/><feOffset in="shadowSpreadOuter1" result="shadowOffsetOuter1"/><feGaussianBlur in="shadowOffsetOuter1" result="shadowBlurOuter1" stdDeviation="3.5"/><feColorMatrix in="shadowBlurOuter1" values="0 0 0 0 0 0 0 0 0 0 0 0 0 0 0 0 0 0 0.05 0"/></filter><path id="a" d="M5.338 0h161.324A5.338 5.338 0 0 1 172 5.338v104.324a5.338 5.338 0 0 1-5.338 5.338H5.338A5.338 5.338 0 0 1 0 109.662V5.338A5.338 5.338 0 0 1 5.338 0Z"/></defs><g fill="none" fill-rule="evenodd"><g transform="translate(9 9)"><use xlink:href="#a" fill="#000" filter="url(#b)"/><use xlink:href="#a" fill="#FFF"/></g><g fill-rule="nonzero"><path fill="#000" d="M23.435 23.533a3.37 3.37 0 0 0 1.441-.304 2.425 2.425 0 0 0 1.043-.913c.258-.406.388-.898.388-1.476v-5.4h-1.059v5.401c0 .607-.16 1.065-.483 1.374-.322.31-.765.464-1.33.464-.56 0-1.003-.155-1.327-.464-.324-.309-.486-.767-.486-1.374V15.44H20.58v5.401c0 .582.124 1.074.372 1.478.248.404.586.708 1.015.91.429.204.918.305 1.468.305Zm7.019 0c.553 0 1.038-.088 1.455-.263.416-.176.737-.425.963-.749.226-.323.34-.699.34-1.127 0-.413-.092-.77-.275-1.072-.183-.301-.463-.564-.841-.787-.378-.223-.871-.42-1.48-.592a5.77 5.77 0 0 1-1.058-.395c-.268-.139-.465-.294-.592-.466a.98.98 0 0 1-.19-.598c0-.387.138-.7.413-.938.275-.237.679-.356 1.21-.356.572 0 1.005.142 1.298.425.293.283.44.659.44 1.127h1.058c0-.424-.111-.82-.334-1.19a2.413 2.413 0 0 0-.966-.888c-.422-.223-.92-.335-1.495-.335-.529 0-.997.094-1.404.282a2.245 2.245 0 0 0-.944.776c-.223.33-.334.7-.334 1.114 0 .588.217 1.066.651 1.434.435.367 1.07.673 1.906.918.503.147.888.29 1.156.43.268.142.455.299.562.472.106.174.16.39.16.65 0 .395-.149.706-.445.933-.297.226-.715.34-1.254.34-.355 0-.678-.057-.97-.17a1.561 1.561 0 0 1-.7-.521c-.175-.234-.263-.527-.263-.878h-1.053c0 .508.143.945.43 1.31.285.366.657.643 1.115.832.457.188.938.282 1.44.282Zm6.231-.11c.728 0 1.361-.151 1.9-.455.54-.303.955-.737 1.246-1.302.291-.565.437-1.23.437-1.994v-.482c0-.757-.146-1.419-.437-1.985a3.124 3.124 0 0 0-1.227-1.308c-.526-.306-1.135-.458-1.826-.458h-2.231v7.984h2.138Zm0-.855H35.6V16.3h1.178c.517 0 .96.113 1.327.34.367.226.646.555.836.984.19.43.285.948.285 1.555v.493c0 .593-.096 1.105-.288 1.539a2.191 2.191 0 0 1-.858 1.003c-.38.236-.845.354-1.395.354Zm12.713.855v-.855h-3.745v-7.13H44.6v7.985h4.798Zm3.474.11c.536 0 .984-.107 1.346-.32.362-.215.652-.49.869-.826l-.614-.483c-.195.26-.417.46-.664.598a1.776 1.776 0 0 1-.883.209c-.347 0-.65-.087-.909-.261a1.714 1.714 0 0 1-.6-.71 2.504 2.504 0 0 1-.228-1.004h3.974v-.455c0-.57-.087-1.073-.26-1.508a2.188 2.188 0 0 0-.801-1.023c-.36-.247-.814-.37-1.36-.37-.449 0-.87.123-1.262.367-.393.245-.709.6-.947 1.062-.24.462-.359 1.002-.359 1.62v.236c0 .552.112 1.046.334 1.48.223.436.538.776.947 1.02.41.246.882.368 1.417.368Zm1.276-3.62h-2.926c.069-.544.238-.965.508-1.263.27-.298.607-.447 1.012-.447.47 0 .815.156 1.034.469.219.312.343.7.372 1.165v.077Zm4.25 3.62c.717 0 1.274-.247 1.672-.74l.049.63h.928V15h-1.015v3.077c-.39-.465-.932-.697-1.623-.697-.463 0-.87.126-1.221.378-.351.253-.623.607-.815 1.064-.191.457-.287.986-.287 1.585v.115c0 .574.096 1.09.29 1.547.194.457.466.815.817 1.075.351.26.753.39 1.205.39Zm.25-.855c-.348 0-.637-.095-.869-.286a1.664 1.664 0 0 1-.513-.77 3.396 3.396 0 0 1-.165-1.1v-.115c0-.41.055-.778.165-1.108.11-.329.283-.59.516-.781.233-.192.526-.288.877-.288.325 0 .601.075.827.225.227.15.408.355.546.614v2.748c-.297.574-.758.86-1.384.86Zm6.193 3.087c.492 0 .926-.097 1.3-.29.375-.194.667-.477.877-.848.21-.37.315-.814.315-1.33V17.49h-.923l-.043.652c-.402-.508-.961-.762-1.678-.762-.47 0-.88.126-1.232.378-.35.253-.62.607-.809 1.064-.188.457-.282.986-.282 1.585v.115c0 .578.095 1.094.285 1.55.19.455.46.812.809 1.072.349.26.755.39 1.218.39.695 0 1.242-.233 1.64-.697v.51c0 .512-.139.905-.415 1.181-.277.277-.656.415-1.138.415-.615 0-1.14-.27-1.574-.807l-.526.598c.162.241.373.439.632.592.259.154.524.265.795.335.272.07.521.104.75.104Zm.087-3.087c-.347 0-.637-.095-.868-.286a1.664 1.664 0 0 1-.513-.77 3.396 3.396 0 0 1-.166-1.1v-.115c0-.41.055-.778.166-1.108.11-.329.282-.59.515-.781.234-.192.526-.288.877-.288.326 0 .603.076.83.228.229.151.411.359.549.622v2.726c-.297.581-.76.872-1.39.872Zm6.362.855c.536 0 .984-.107 1.346-.32.362-.215.652-.49.869-.826l-.614-.483c-.195.26-.417.46-.665.598a1.776 1.776 0 0 1-.882.209c-.347 0-.65-.087-.909-.261a1.714 1.714 0 0 1-.6-.71 2.504 2.504 0 0 1-.228-1.004h3.974v-.455c0-.57-.087-1.073-.26-1.508a2.188 2.188 0 0 0-.802-1.023c-.36-.247-.813-.37-1.36-.37-.448 0-.869.123-1.261.367-.393.245-.709.6-.948 1.062-.238.462-.358 1.002-.358 1.62v.236c0 .552.111 1.046.334 1.48.223.436.538.776.947 1.02.41.246.881.368 1.417.368Zm1.276-3.62H69.64c.069-.544.238-.965.507-1.263a1.31 1.31 0 0 1 1.013-.447c.47 0 .815.156 1.034.469.219.312.343.7.372 1.165v.077Zm3.197 3.51v-4.217c.112-.27.28-.48.502-.63.222-.15.5-.225.833-.225.174 0 .338.014.494.044v-.938a.8.8 0 0 0-.2-.052 1.569 1.569 0 0 0-1.058.181c-.233.137-.425.33-.577.578l-.021-.674h-.988v5.933h1.015Zm39.963.052c.292 0 .54-.053.742-.16.203-.106.36-.253.472-.441a1.61 1.61 0 0 0 .208-.65h-.499c-.03.188-.078.344-.142.467a.65.65 0 0 1-.286.282 1.082 1.082 0 0 1-.495.097.817.817 0 0 1-.534-.176 1.046 1.046 0 0 1-.322-.481 2.094 2.094 0 0 1-.105-.688v-.387c0-.27.038-.506.114-.707.076-.201.19-.357.34-.468a.908.908 0 0 1 .554-.166c.274 0 .479.072.614.217.136.145.223.358.262.64h.5a1.633 1.633 0 0 0-.205-.666 1.145 1.145 0 0 0-.462-.442 1.493 1.493 0 0 0-.71-.157 1.46 1.46 0 0 0-.799.217c-.228.145-.403.35-.526.615a2.176 2.176 0 0 0-.184.922v.382c0 .348.061.654.183.92.122.264.293.469.514.614.221.144.477.216.766.216Zm2.921 0c.359 0 .63-.11.815-.33l.008.278h.458v-2.81h-.481v2.05c-.122.271-.363.407-.723.407a.493.493 0 0 1-.366-.144c-.095-.096-.143-.261-.143-.495v-1.818h-.48v1.813c0 .36.08.625.241.795.161.17.385.254.671.254Zm2.482-.052v-1.997a.65.65 0 0 1 .237-.299.691.691 0 0 1 .395-.106c.082 0 .16.007.234.02v-.444a.72.72 0 0 0-.21-.036.743.743 0 0 0-.386.097.79.79 0 0 0-.273.274l-.01-.32h-.468v2.811h.48Zm1.784 0v-1.997a.65.65 0 0 1 .238-.299.691.691 0 0 1 .395-.106c.082 0 .16.007.234.02v-.444a.72.72 0 0 0-.21-.036.743.743 0 0 0-.387.097.79.79 0 0 0-.273.274l-.01-.32h-.468v2.811h.481Zm2.46.052c.254 0 .467-.05.638-.152.172-.1.309-.231.412-.39l-.29-.23a1.021 1.021 0 0 1-.316.284.841.841 0 0 1-.418.099.754.754 0 0 1-.43-.124.812.812 0 0 1-.284-.336 1.186 1.186 0 0 1-.108-.475h1.882v-.216a1.9 1.9 0 0 0-.124-.714 1.037 1.037 0 0 0-.379-.485c-.17-.117-.385-.175-.644-.175a1.11 1.11 0 0 0-.598.174 1.252 1.252 0 0 0-.449.502 1.65 1.65 0 0 0-.17.768v.112c0 .261.053.495.159.701.105.206.255.367.449.483.193.116.417.174.67.174Zm.605-1.714h-1.386c.033-.258.113-.458.24-.599a.62.62 0 0 1 .48-.212c.223 0 .386.074.49.223.104.148.162.332.176.552v.036Zm1.514 1.662v-2.01a.857.857 0 0 1 .28-.327.68.68 0 0 1 .397-.123c.185 0 .323.049.415.146.092.097.137.253.137.467v1.847h.481v-1.841c0-.68-.297-1.021-.892-1.021a1.038 1.038 0 0 0-.828.397l-.015-.345h-.455v2.81h.48Zm3.24.052c.136 0 .258-.017.368-.052l-.003-.387a.892.892 0 0 1-.22.029.338.338 0 0 1-.225-.069c-.054-.046-.082-.135-.082-.269V20.98h.52v-.366h-.52v-.683h-.48v.683h-.507v.366h.506v1.746c0 .265.06.456.176.574a.63.63 0 0 0 .467.176Zm3.602-.052c.25 0 .469-.042.655-.126a.953.953 0 0 0 .43-.371c.102-.164.152-.362.152-.594a.972.972 0 0 0-.172-.572.83.83 0 0 0-.483-.329.95.95 0 0 0 .41-.317.776.776 0 0 0 .148-.465c0-.343-.106-.596-.317-.761-.21-.165-.512-.247-.905-.247h-1.229v3.782h1.311Zm-.069-2.169h-.743V20.05h.73c.245 0 .427.048.545.143.119.095.178.246.178.452 0 .126-.03.235-.089.327a.566.566 0 0 1-.25.21.893.893 0 0 1-.371.073Zm.07 1.764h-.813v-1.366h.836c.243 0 .423.06.54.18.116.119.174.287.174.506 0 .21-.065.375-.195.497s-.311.183-.543.183Zm2.756.457c.161 0 .309-.031.443-.094.135-.064.25-.147.346-.251.016.128.038.226.067.293h.501v-.041a1.172 1.172 0 0 1-.072-.266 1.89 1.89 0 0 1-.025-.306v-1.309a.966.966 0 0 0-.131-.518.81.81 0 0 0-.364-.317 1.303 1.303 0 0 0-.541-.105c-.216 0-.408.04-.576.12a1 1 0 0 0-.391.314.67.67 0 0 0-.14.397h.482c0-.08.025-.154.076-.222a.522.522 0 0 1 .212-.164.747.747 0 0 1 .308-.06c.189 0 .333.048.434.146.1.098.15.233.15.404v.223h-.468c-.255 0-.477.035-.665.106a.924.924 0 0 0-.434.313.83.83 0 0 0-.153.506c0 .154.039.295.117.421a.82.82 0 0 0 .331.3c.144.074.308.11.493.11Zm.07-.415a.6.6 0 0 1-.289-.064.441.441 0 0 1-.18-.173.492.492 0 0 1-.061-.246c0-.172.072-.301.218-.389.146-.087.356-.13.63-.13h.39v.581a.706.706 0 0 1-.156.208.799.799 0 0 1-.553.213Zm2.457.363v-3.99h-.48v3.99h.48Zm1.62.052c.161 0 .31-.031.444-.094.134-.064.25-.147.346-.251.015.128.037.226.066.293h.502v-.041a1.172 1.172 0 0 1-.072-.266 1.89 1.89 0 0 1-.026-.306v-1.309a.966.966 0 0 0-.131-.518.81.81 0 0 0-.364-.317 1.303 1.303 0 0 0-.541-.105c-.216 0-.408.04-.576.12a.997.997 0 0 0-.39.314.67.67 0 0 0-.14.397h.481c0-.08.025-.154.076-.222a.522.522 0 0 1 .212-.164.747.747 0 0 1 .309-.06c.188 0 .333.048.433.146.1.098.15.233.15.404v.223h-.468c-.255 0-.477.035-.664.106a.924.924 0 0 0-.435.313.83.83 0 0 0-.153.506c0 .154.04.295.117.421a.82.82 0 0 0 .332.3c.143.074.307.11.492.11Zm.07-.415a.6.6 0 0 1-.288-.064.441.441 0 0 1-.18-.173.492.492 0 0 1-.062-.246c0-.172.073-.301.219-.389.145-.087.355-.13.63-.13h.39v.581a.706.706 0 0 1-.157.208.799.799 0 0 1-.552.213Zm2.417.363v-2.01a.857.857 0 0 1 .279-.327.68.68 0 0 1 .397-.123c.185 0 .323.049.415.146.092.097.138.253.138.467v1.847h.48v-1.841c0-.68-.297-1.021-.892-1.021a1.038 1.038 0 0 0-.828.397l-.015-.345h-.455v2.81h.48Zm3.543.052c.192 0 .371-.043.538-.13a1.12 1.12 0 0 0 .405-.346.866.866 0 0 0 .168-.464h-.456a.543.543 0 0 1-.105.282.641.641 0 0 1-.238.197.698.698 0 0 1-.312.072c-.271 0-.465-.097-.583-.291-.117-.194-.176-.435-.176-.722v-.11c0-.18.024-.345.072-.497a.787.787 0 0 1 .242-.371.663.663 0 0 1 .445-.145.623.623 0 0 1 .558.31.73.73 0 0 1 .097.32h.456a1.078 1.078 0 0 0-.155-.522.994.994 0 0 0-.39-.365 1.185 1.185 0 0 0-.566-.132c-.27 0-.497.063-.683.188a1.154 1.154 0 0 0-.418.507 1.752 1.752 0 0 0-.139.708v.109c0 .26.047.495.14.708.092.212.231.38.417.506.186.126.414.188.683.188Zm2.8 0c.254 0 .466-.05.638-.152.171-.1.308-.231.411-.39l-.29-.23a1.021 1.021 0 0 1-.316.284.841.841 0 0 1-.417.099.754.754 0 0 1-.431-.124.812.812 0 0 1-.284-.336 1.186 1.186 0 0 1-.108-.475h1.882v-.216c0-.27-.041-.508-.123-.714a1.037 1.037 0 0 0-.38-.485c-.17-.117-.385-.175-.644-.175a1.11 1.11 0 0 0-.598.174 1.252 1.252 0 0 0-.448.502 1.65 1.65 0 0 0-.17.768v.112c0 .261.053.495.158.701.106.206.255.367.449.483.194.116.417.174.67.174Zm.604-1.714h-1.386c.033-.258.113-.458.24-.599a.62.62 0 0 1 .48-.212c.223 0 .386.074.49.223.104.148.162.332.176.552v.036Zm1.314-.605a.298.298 0 0 0 .22-.078.273.273 0 0 0 .078-.203.29.29 0 0 0-.078-.209.29.29 0 0 0-.22-.082.287.287 0 0 0-.217.082.29.29 0 0 0-.079.21c0 .08.026.148.079.2a.29.29 0 0 0 .217.08Zm-.003 2.296a.298.298 0 0 0 .22-.078.273.273 0 0 0 .079-.203.29.29 0 0 0-.079-.209.29.29 0 0 0-.22-.081.287.287 0 0 0-.217.081.29.29 0 0 0-.078.21c0 .08.026.148.078.2.052.054.125.08.217.08Zm3.826-.029V19.62h-.074l-1.363.517v.434l.957-.356v3.208h.48Zm2.567.052c.382 0 .674-.129.875-.388.202-.259.302-.684.302-1.277v-.579c0-.589-.1-1.01-.303-1.262-.202-.253-.496-.38-.88-.38-.382 0-.675.127-.878.38-.203.252-.304.673-.304 1.262v.58c0 .59.103 1.015.308 1.275.206.26.499.39.88.39Zm0-.39a.583.583 0 0 1-.528-.289c-.12-.193-.18-.496-.18-.91v-.736c0-.413.06-.712.177-.896a.583.583 0 0 1 .525-.275c.237 0 .413.091.529.274.116.183.173.482.173.897v.736c0 .417-.057.721-.172.913a.57.57 0 0 1-.524.287Zm1.82 1.092c.14-.115.251-.258.332-.431.08-.174.12-.342.12-.507v-.384h-.47v.392c0 .137-.021.265-.064.384a1.54 1.54 0 0 1-.19.359l.272.187Zm2.175-.702c.383 0 .674-.129.876-.388.201-.259.302-.684.302-1.277v-.579c0-.589-.101-1.01-.303-1.262-.203-.253-.496-.38-.88-.38-.382 0-.675.127-.878.38-.203.252-.305.673-.305 1.262v.58c0 .59.103 1.015.309 1.275.206.26.499.39.88.39Zm0-.39a.583.583 0 0 1-.527-.289c-.12-.193-.18-.496-.18-.91v-.736c0-.413.059-.712.176-.896a.583.583 0 0 1 .526-.275c.237 0 .413.091.529.274.115.183.173.482.173.897v.736c0 .417-.057.721-.172.913a.57.57 0 0 1-.525.287Zm2.96.39c.382 0 .674-.129.875-.388.202-.259.302-.684.302-1.277v-.579c0-.589-.1-1.01-.303-1.262-.202-.253-.495-.38-.88-.38-.382 0-.674.127-.877.38-.204.252-.305.673-.305 1.262v.58c0 .59.103 1.015.308 1.275.206.26.5.39.88.39Zm0-.39a.583.583 0 0 1-.527-.289c-.12-.193-.18-.496-.18-.91v-.736c0-.413.058-.712.176-.896a.583.583 0 0 1 .526-.275c.236 0 .412.091.528.274.116.183.174.482.174.897v.736c0 .417-.058.721-.173.913a.57.57 0 0 1-.524.287Zm2.96.39c.382 0 .673-.129.875-.388.201-.259.302-.684.302-1.277v-.579c0-.589-.101-1.01-.303-1.262-.203-.253-.496-.38-.88-.38-.382 0-.675.127-.878.38-.203.252-.305.673-.305 1.262v.58c0 .59.103 1.015.309 1.275.206.26.499.39.88.39Zm0-.39a.583.583 0 0 1-.528-.289c-.12-.193-.18-.496-.18-.91v-.736c0-.413.059-.712.176-.896a.583.583 0 0 1 .526-.275c.237 0 .413.091.529.274.115.183.173.482.173.897v.736c0 .417-.057.721-.172.913a.57.57 0 0 1-.525.287Z"/><path fill="#7A7E91" d="M22.054 48.204c.373 0 .704-.085.994-.253a1.75 1.75 0 0 0 .677-.708c.162-.304.243-.654.243-1.048v-.185c0-.392-.081-.741-.243-1.046a1.757 1.757 0 0 0-.676-.71 1.928 1.928 0 0 0-.99-.253h-1.297v4.203h1.292Zm0-.73h-.395v-2.74h.4c.326 0 .574.108.743.324.17.215.254.53.254.946v.19c0 .416-.085.733-.257.952-.171.218-.42.327-.745.327Zm3.38.787c.32 0 .577-.112.774-.337a.933.933 0 0 0 .082.28h.866v-.05a1.136 1.136 0 0 1-.094-.29 2.376 2.376 0 0 1-.032-.431v-1.307c0-.24-.053-.441-.16-.607a.983.983 0 0 0-.442-.372 1.6 1.6 0 0 0-.649-.124c-.263 0-.495.044-.696.133a1.11 1.11 0 0 0-.465.36.849.849 0 0 0-.165.509h.863c0-.116.037-.205.11-.267a.459.459 0 0 1 .307-.094c.145 0 .254.04.326.12.072.08.109.191.109.336v.176h-.352c-.47 0-.826.089-1.068.267-.242.178-.363.431-.363.76 0 .18.046.34.138.482a.953.953 0 0 0 .379.335c.16.081.337.121.531.121Zm.194-.66a.405.405 0 0 1-.279-.093.305.305 0 0 1-.104-.24c0-.14.049-.254.147-.342.098-.087.247-.13.447-.13h.329v.522a.535.535 0 0 1-.209.2.652.652 0 0 1-.331.082Zm3.085.66c.19 0 .36-.027.509-.08v-.656a1.23 1.23 0 0 1-.24.02c-.115 0-.196-.022-.243-.067-.048-.045-.072-.13-.072-.253v-1.51h.52v-.634h-.52v-.774h-.862v.774h-.438v.635h.438v1.61c0 .624.302.935.908.935Zm2.357 0c.28 0 .524-.053.733-.161.208-.108.367-.24.476-.399l-.415-.482a.853.853 0 0 1-.324.256.998.998 0 0 1-.413.085.708.708 0 0 1-.491-.172.77.77 0 0 1-.24-.463h1.954v-.37a1.91 1.91 0 0 0-.16-.812 1.194 1.194 0 0 0-.469-.532 1.409 1.409 0 0 0-.745-.188 1.43 1.43 0 0 0-.777.206 1.339 1.339 0 0 0-.503.573 1.92 1.92 0 0 0-.174.834v.11c0 .28.062.534.187.765.124.23.303.414.537.548.233.135.508.202.824.202Zm.434-1.919h-1.1a.894.894 0 0 1 .182-.453.475.475 0 0 1 .384-.165c.175 0 .307.05.396.148a.598.598 0 0 1 .138.4v.07Zm3.997 1.922a1.84 1.84 0 0 0 1.06-.303l.209.243h.974l-.626-.733c.25-.34.374-.786.374-1.343h-.728c0 .266-.056.51-.169.73l-.694-.81.26-.188c.372-.27.557-.578.557-.927a.969.969 0 0 0-.508-.858 1.139 1.139 0 0 0-.56-.134c-.229 0-.43.046-.603.14a.983.983 0 0 0-.402.394A1.178 1.178 0 0 0 34.6 45.5c.064.145.16.307.29.486-.166.12-.302.23-.407.33a1.177 1.177 0 0 0-.249.337.943.943 0 0 0-.09.418c0 .231.055.437.166.618.11.18.268.322.473.423.204.1.444.151.718.151Zm.009-2.69c-.08-.106-.14-.2-.182-.284a.553.553 0 0 1-.061-.244c0-.117.033-.214.1-.29a.353.353 0 0 1 .28-.114.36.36 0 0 1 .191.05.353.353 0 0 1 .169.299c0 .087-.02.165-.06.234a.679.679 0 0 1-.226.21l-.211.14Zm.04 1.986a.568.568 0 0 1-.282-.07.487.487 0 0 1-.193-.193.57.57 0 0 1-.068-.28c0-.09.016-.175.048-.254a.687.687 0 0 1 .183-.24l.052-.037.797.924c-.172.1-.35.15-.537.15Zm5.882.644v-3.47h1.269v-.733h-3.412v.733h1.249v3.47h.894Zm2.163-3.484a.489.489 0 0 0 .35-.126.423.423 0 0 0 .133-.321.423.423 0 0 0-.133-.322.489.489 0 0 0-.35-.126.485.485 0 0 0-.347.126.423.423 0 0 0-.133.322c0 .13.044.238.133.321a.485.485 0 0 0 .347.126Zm.437 3.484V45.08h-.866v3.123h.866Zm1.523 0V46.01c.05-.09.114-.16.195-.21a.543.543 0 0 1 .288-.073c.099 0 .18.015.244.044.064.028.113.08.147.152a.737.737 0 0 1 .051.306v1.975h.863V46.12a.535.535 0 0 0-.003-.067.509.509 0 0 1 .491-.326c.098 0 .178.014.242.04a.286.286 0 0 1 .147.15.726.726 0 0 1 .052.304v1.983h.862v-1.98c0-.424-.085-.73-.257-.918-.171-.189-.414-.283-.728-.283a1.059 1.059 0 0 0-.923.473.765.765 0 0 0-.319-.356.987.987 0 0 0-.492-.117c-.189 0-.358.035-.507.105-.15.07-.276.171-.379.302l-.029-.35h-.808v3.124h.863Zm5.636.057c.28 0 .525-.053.733-.161a1.26 1.26 0 0 0 .476-.399l-.414-.482a.853.853 0 0 1-.325.256.998.998 0 0 1-.412.085.708.708 0 0 1-.492-.172.77.77 0 0 1-.24-.463h1.954v-.37a1.91 1.91 0 0 0-.16-.812 1.194 1.194 0 0 0-.468-.532 1.409 1.409 0 0 0-.746-.188 1.43 1.43 0 0 0-.777.206 1.339 1.339 0 0 0-.503.573 1.92 1.92 0 0 0-.174.834v.11c0 .28.062.534.187.765.125.23.304.414.537.548.234.135.508.202.824.202Zm.435-1.919h-1.1a.894.894 0 0 1 .181-.453.475.475 0 0 1 .384-.165c.176 0 .308.05.396.148a.598.598 0 0 1 .139.4v.07ZM23.172 70.215v-.39h-1.877l1.003-1.104c.216-.237.387-.466.512-.687.126-.22.19-.435.19-.643 0-.2-.046-.377-.137-.53a.915.915 0 0 0-.39-.354 1.342 1.342 0 0 0-.602-.126c-.26 0-.481.051-.666.154a1.03 1.03 0 0 0-.42.42 1.232 1.232 0 0 0-.14.59h.48c0-.236.063-.424.19-.564.127-.14.312-.21.556-.21.133 0 .25.03.347.089.098.06.172.141.224.244a.76.76 0 0 1 .077.344c0 .103-.017.2-.05.295a1.38 1.38 0 0 1-.174.317c-.082.117-.2.261-.352.433l-1.227 1.38v.342h2.456Zm1.676.052c.382 0 .674-.13.876-.388.201-.26.302-.685.302-1.277v-.58c0-.588-.101-1.01-.304-1.262-.202-.253-.495-.38-.879-.38-.382 0-.675.127-.878.38-.203.253-.305.674-.305 1.263v.579c0 .59.103 1.015.309 1.275.206.26.499.39.88.39Zm0-.39a.583.583 0 0 1-.527-.29c-.12-.192-.18-.496-.18-.91v-.735c0-.414.059-.713.176-.896a.583.583 0 0 1 .526-.276c.237 0 .413.092.528.274.116.183.174.482.174.898v.735c0 .417-.057.722-.172.913a.57.57 0 0 1-.525.287Zm4.243.338v-.39h-1.877l1.003-1.104c.216-.237.387-.466.512-.687.126-.22.19-.435.19-.643 0-.2-.046-.377-.137-.53a.915.915 0 0 0-.39-.354 1.342 1.342 0 0 0-.602-.126c-.26 0-.481.051-.666.154a1.03 1.03 0 0 0-.42.42 1.232 1.232 0 0 0-.14.59h.48c0-.236.063-.424.19-.564.127-.14.312-.21.556-.21.133 0 .25.03.347.089.098.06.172.141.224.244a.76.76 0 0 1 .077.344c0 .103-.017.2-.05.295a1.38 1.38 0 0 1-.174.317c-.082.117-.2.261-.352.433l-1.227 1.38v.342h2.456Zm1.676.052c.382 0 .674-.13.876-.388.201-.26.302-.685.302-1.277v-.58c0-.588-.101-1.01-.304-1.262-.202-.253-.495-.38-.879-.38-.382 0-.675.127-.878.38-.203.253-.305.674-.305 1.263v.579c0 .59.103 1.015.309 1.275.206.26.499.39.88.39Zm0-.39a.583.583 0 0 1-.527-.29c-.12-.192-.18-.496-.18-.91v-.735c0-.414.059-.713.176-.896a.583.583 0 0 1 .526-.276c.237 0 .413.092.528.274.116.183.174.482.174.898v.735c0 .417-.057.722-.172.913a.57.57 0 0 1-.525.287Zm1.934.663 1.56-4.107h-.408l-1.564 4.107h.412Zm3.594-.325v-3.803h-.074l-1.363.517v.434l.957-.356v3.208h.48Zm2.566.052c.383 0 .675-.13.876-.388.201-.26.302-.685.302-1.277v-.58c0-.588-.101-1.01-.303-1.262-.203-.253-.496-.38-.88-.38-.382 0-.675.127-.878.38-.203.253-.304.674-.304 1.263v.579c0 .59.102 1.015.308 1.275.206.26.499.39.88.39Zm0-.39a.583.583 0 0 1-.527-.29c-.12-.192-.18-.496-.18-.91v-.735c0-.414.06-.713.177-.896a.583.583 0 0 1 .525-.276c.237 0 .413.092.529.274.115.183.173.482.173.898v.735c0 .417-.057.722-.172.913a.57.57 0 0 1-.525.287Zm1.934.663 1.56-4.107h-.408l-1.563 4.107h.411Zm3.595-.325v-3.803h-.075l-1.363.517v.434l.957-.356v3.208h.48Zm2.648.052c.259 0 .477-.053.654-.16a.997.997 0 0 0 .399-.444c.088-.19.132-.407.132-.653 0-.257-.045-.48-.135-.67a1.009 1.009 0 0 0-.385-.44 1.107 1.107 0 0 0-.593-.155 1.225 1.225 0 0 0-.622.163l.11-1.036h1.515v-.44h-1.92l-.191 1.884.386.099c.066-.06.125-.105.174-.138a.594.594 0 0 1 .179-.077 1.04 1.04 0 0 1 .256-.027.72.72 0 0 1 .402.11.692.692 0 0 1 .256.3c.058.127.088.27.088.432 0 .176-.028.33-.084.458a.664.664 0 0 1-.242.299.669.669 0 0 1-.379.105.695.695 0 0 1-.487-.167c-.123-.112-.199-.275-.228-.49h-.455c.02.229.085.421.192.578a1 1 0 0 0 .414.352c.168.078.357.117.564.117Zm4.577-.052v-3.803h-.075l-1.362.517v.434l.956-.356v3.208h.48Zm2.265 0 1.55-3.515v-.267h-2.532v.39h2.023l-1.545 3.392h.504Zm2.417-2.268a.298.298 0 0 0 .22-.078.273.273 0 0 0 .078-.202.29.29 0 0 0-.078-.21.29.29 0 0 0-.22-.081.287.287 0 0 0-.217.082.29.29 0 0 0-.079.209c0 .081.027.148.079.2.052.054.125.08.217.08Zm-.003 2.297a.298.298 0 0 0 .22-.078.273.273 0 0 0 .079-.203.29.29 0 0 0-.079-.21.29.29 0 0 0-.22-.081.287.287 0 0 0-.217.082.29.29 0 0 0-.078.209c0 .081.026.148.078.201.053.053.125.08.217.08Zm3.41-.029v-.39h-1.877l1.003-1.104c.216-.237.387-.466.513-.687.126-.22.189-.435.189-.643 0-.2-.046-.377-.137-.53a.915.915 0 0 0-.39-.354 1.342 1.342 0 0 0-.602-.126c-.259 0-.48.051-.666.154a1.03 1.03 0 0 0-.42.42 1.232 1.232 0 0 0-.14.59h.48c0-.236.064-.424.19-.564.127-.14.313-.21.556-.21.134 0 .25.03.347.089.098.06.172.141.224.244a.76.76 0 0 1 .077.344c0 .103-.017.2-.05.295a1.38 1.38 0 0 1-.174.317c-.082.117-.2.261-.352.433l-1.227 1.38v.342h2.456Zm2.515 0v-.88h.519v-.39h-.52v-2.512h-.511l-1.674 2.62v.281h1.705v.881h.48Zm-.481-1.27h-1.162l1.105-1.756.057-.102v1.858Zm1.759-.998a.298.298 0 0 0 .22-.078.273.273 0 0 0 .078-.202.29.29 0 0 0-.079-.21.29.29 0 0 0-.22-.081.287.287 0 0 0-.217.082.29.29 0 0 0-.078.209c0 .081.026.148.078.2a.29.29 0 0 0 .218.08Zm-.003 2.297a.298.298 0 0 0 .22-.078.273.273 0 0 0 .078-.203.29.29 0 0 0-.078-.21.29.29 0 0 0-.22-.081.287.287 0 0 0-.217.082.29.29 0 0 0-.079.209c0 .081.026.148.079.201a.29.29 0 0 0 .217.08Zm3.41-.029v-.39h-1.878l1.003-1.104c.216-.237.387-.466.513-.687.126-.22.19-.435.19-.643 0-.2-.046-.377-.137-.53a.915.915 0 0 0-.39-.354 1.342 1.342 0 0 0-.603-.126c-.258 0-.48.051-.666.154a1.03 1.03 0 0 0-.419.42 1.232 1.232 0 0 0-.141.59h.48c0-.236.064-.424.191-.564.127-.14.312-.21.555-.21.134 0 .25.03.348.089a.59.59 0 0 1 .223.244.76.76 0 0 1 .077.344c0 .103-.016.2-.05.295-.033.095-.091.2-.173.317-.083.117-.2.261-.353.433l-1.226 1.38v.342h2.455Zm2.959 0v-.39h-1.877l1.003-1.104c.216-.237.387-.466.513-.687.126-.22.189-.435.189-.643 0-.2-.046-.377-.137-.53a.915.915 0 0 0-.39-.354 1.342 1.342 0 0 0-.602-.126c-.259 0-.48.051-.666.154a1.03 1.03 0 0 0-.42.42 1.232 1.232 0 0 0-.14.59h.48c0-.236.064-.424.19-.564.127-.14.312-.21.556-.21.134 0 .25.03.347.089.098.06.172.141.224.244a.76.76 0 0 1 .077.344c0 .103-.017.2-.05.295a1.38 1.38 0 0 1-.174.317c-.082.117-.2.261-.352.433l-1.227 1.38v.342h2.456ZM23.172 91.837v-.39h-1.877l1.003-1.103c.216-.238.387-.467.512-.687a1.3 1.3 0 0 0 .19-.643c0-.201-.046-.378-.137-.53a.915.915 0 0 0-.39-.355 1.342 1.342 0 0 0-.602-.126c-.26 0-.481.052-.666.155a1.03 1.03 0 0 0-.42.42 1.232 1.232 0 0 0-.14.589h.48c0-.236.063-.424.19-.564.127-.14.312-.21.556-.21.133 0 .25.03.347.09.098.06.172.14.224.244a.76.76 0 0 1 .077.344c0 .102-.017.2-.05.295a1.4 1.4 0 0 1-.174.317c-.082.116-.2.26-.352.432l-1.227 1.38v.342h2.456Zm1.676.052c.382 0 .674-.13.876-.388.201-.259.302-.685.302-1.277v-.58c0-.588-.101-1.009-.304-1.262-.202-.252-.495-.379-.879-.379-.382 0-.675.127-.878.38-.203.252-.305.673-.305 1.262v.58c0 .59.103 1.015.309 1.275.206.26.499.39.88.39Zm0-.39a.583.583 0 0 1-.527-.289c-.12-.193-.18-.497-.18-.91v-.736c0-.414.059-.712.176-.896a.583.583 0 0 1 .526-.275c.237 0 .413.091.528.274.116.183.174.482.174.897v.736c0 .417-.057.721-.172.913a.57.57 0 0 1-.525.287Zm4.243.338v-.39h-1.877l1.003-1.103c.216-.238.387-.467.512-.687a1.3 1.3 0 0 0 .19-.643c0-.201-.046-.378-.137-.53a.915.915 0 0 0-.39-.355 1.342 1.342 0 0 0-.602-.126c-.26 0-.481.052-.666.155a1.03 1.03 0 0 0-.42.42 1.232 1.232 0 0 0-.14.589h.48c0-.236.063-.424.19-.564.127-.14.312-.21.556-.21.133 0 .25.03.347.09.098.06.172.14.224.244a.76.76 0 0 1 .077.344c0 .102-.017.2-.05.295a1.4 1.4 0 0 1-.174.317c-.082.116-.2.26-.352.432l-1.227 1.38v.342h2.456Zm1.676.052c.382 0 .674-.13.876-.388.201-.259.302-.685.302-1.277v-.58c0-.588-.101-1.009-.304-1.262-.202-.252-.495-.379-.879-.379-.382 0-.675.127-.878.38-.203.252-.305.673-.305 1.262v.58c0 .59.103 1.015.309 1.275.206.26.499.39.88.39Zm0-.39a.583.583 0 0 1-.527-.289c-.12-.193-.18-.497-.18-.91v-.736c0-.414.059-.712.176-.896a.583.583 0 0 1 .526-.275c.237 0 .413.091.528.274.116.183.174.482.174.897v.736c0 .417-.057.721-.172.913a.57.57 0 0 1-.525.287Zm1.934.663 1.56-4.107h-.408l-1.564 4.107h.412Zm3.594-.325v-3.803h-.074l-1.363.517v.434l.957-.356v3.208h.48Zm2.566.052c.383 0 .675-.13.876-.388.201-.259.302-.685.302-1.277v-.58c0-.588-.101-1.009-.303-1.262-.203-.252-.496-.379-.88-.379-.382 0-.675.127-.878.38-.203.252-.304.673-.304 1.262v.58c0 .59.102 1.015.308 1.275.206.26.499.39.88.39Zm0-.39a.583.583 0 0 1-.527-.289c-.12-.193-.18-.497-.18-.91v-.736c0-.414.06-.712.177-.896a.583.583 0 0 1 .525-.275c.237 0 .413.091.529.274.115.183.173.482.173.897v.736c0 .417-.057.721-.172.913a.57.57 0 0 1-.525.287Zm1.934.663 1.56-4.107h-.408l-1.563 4.107h.411Zm3.595-.325v-3.803h-.075l-1.363.517v.434l.957-.356v3.208h.48Zm2.648.052c.259 0 .477-.053.654-.16a.997.997 0 0 0 .399-.444c.088-.19.132-.407.132-.653 0-.256-.045-.48-.135-.67a1.009 1.009 0 0 0-.385-.44 1.107 1.107 0 0 0-.593-.155 1.225 1.225 0 0 0-.622.164l.11-1.037h1.515v-.439h-1.92l-.191 1.883.386.1c.066-.06.125-.106.174-.139a.594.594 0 0 1 .179-.076 1.04 1.04 0 0 1 .256-.027.72.72 0 0 1 .402.109.692.692 0 0 1 .256.3c.058.127.088.271.088.432 0 .177-.028.33-.084.459a.664.664 0 0 1-.242.298.669.669 0 0 1-.379.106.695.695 0 0 1-.487-.168c-.123-.112-.199-.275-.228-.49h-.455c.02.229.085.422.192.578a1 1 0 0 0 .414.352c.168.078.357.117.564.117Zm4.577-.052v-3.803h-.075l-1.362.517v.434l.956-.356v3.208h.48Zm2.265 0 1.55-3.514v-.268h-2.532v.39h2.023l-1.545 3.392h.504Zm2.417-2.267a.298.298 0 0 0 .22-.078.273.273 0 0 0 .078-.203.29.29 0 0 0-.078-.21.29.29 0 0 0-.22-.08.287.287 0 0 0-.217.08.29.29 0 0 0-.079.21c0 .081.027.149.079.201.052.053.125.08.217.08Zm-.003 2.296a.298.298 0 0 0 .22-.078.273.273 0 0 0 .079-.203.29.29 0 0 0-.079-.209.29.29 0 0 0-.22-.082.287.287 0 0 0-.217.082.29.29 0 0 0-.078.21c0 .08.026.148.078.2a.29.29 0 0 0 .217.08Zm3.41-.029v-.39h-1.877l1.003-1.103c.216-.238.387-.467.513-.687.126-.221.189-.436.189-.643 0-.201-.046-.378-.137-.53a.915.915 0 0 0-.39-.355 1.342 1.342 0 0 0-.602-.126c-.259 0-.48.052-.666.155a1.03 1.03 0 0 0-.42.42 1.232 1.232 0 0 0-.14.589h.48c0-.236.064-.424.19-.564.127-.14.313-.21.556-.21.134 0 .25.03.347.09.098.06.172.14.224.244a.76.76 0 0 1 .077.344c0 .102-.017.2-.05.295a1.4 1.4 0 0 1-.174.317c-.082.116-.2.26-.352.432l-1.227 1.38v.342h2.456Zm2.515 0v-.88h.519v-.39h-.52v-2.512h-.511l-1.674 2.621v.28h1.705v.881h.48Zm-.481-1.27h-1.162l1.105-1.756.057-.101v1.857Zm1.759-.997a.298.298 0 0 0 .22-.078.273.273 0 0 0 .078-.203.29.29 0 0 0-.079-.21.29.29 0 0 0-.22-.08.287.287 0 0 0-.217.08.29.29 0 0 0-.078.21c0 .081.026.149.078.201.053.053.125.08.218.08Zm-.003 2.296a.298.298 0 0 0 .22-.078.273.273 0 0 0 .078-.203.29.29 0 0 0-.078-.209.29.29 0 0 0-.22-.082.287.287 0 0 0-.217.082.29.29 0 0 0-.079.21c0 .08.026.148.079.2.052.054.124.08.217.08Zm3.41-.029v-.39h-1.878l1.003-1.103c.216-.238.387-.467.513-.687a1.3 1.3 0 0 0 .19-.643c0-.201-.046-.378-.137-.53a.915.915 0 0 0-.39-.355 1.342 1.342 0 0 0-.603-.126c-.258 0-.48.052-.666.155a1.03 1.03 0 0 0-.419.42 1.232 1.232 0 0 0-.141.589h.48c0-.236.064-.424.191-.564.127-.14.312-.21.555-.21.134 0 .25.03.348.09.097.06.172.14.223.244a.76.76 0 0 1 .077.344c0 .102-.016.2-.05.295-.033.094-.091.2-.173.317-.083.116-.2.26-.353.432l-1.226 1.38v.342h2.455Zm2.514 0v-.88h.52v-.39h-.52v-2.512h-.512l-1.673 2.621v.28h1.704v.881h.481Zm-.48-1.27h-1.163l1.106-1.756.056-.101v1.857ZM23.172 112.48v-.39h-1.877l1.003-1.104c.216-.237.387-.466.512-.687.126-.22.19-.435.19-.643 0-.2-.046-.377-.137-.53a.915.915 0 0 0-.39-.354 1.342 1.342 0 0 0-.602-.126c-.26 0-.481.051-.666.154a1.03 1.03 0 0 0-.42.42 1.232 1.232 0 0 0-.14.59h.48c0-.236.063-.424.19-.564.127-.14.312-.21.556-.21.133 0 .25.03.347.089.098.06.172.141.224.244a.76.76 0 0 1 .077.344c0 .102-.017.2-.05.295a1.4 1.4 0 0 1-.174.317 5.07 5.07 0 0 1-.352.432l-1.227 1.38v.343h2.456Zm1.676.052c.382 0 .674-.13.876-.389.201-.259.302-.684.302-1.276v-.58c0-.589-.101-1.01-.304-1.262-.202-.253-.495-.38-.879-.38-.382 0-.675.127-.878.38-.203.253-.305.673-.305 1.262v.58c0 .59.103 1.015.309 1.275.206.26.499.39.88.39Zm0-.39a.583.583 0 0 1-.527-.29c-.12-.193-.18-.496-.18-.91v-.735c0-.414.059-.713.176-.896a.583.583 0 0 1 .526-.276c.237 0 .413.092.528.274.116.183.174.482.174.898v.735c0 .417-.057.722-.172.913a.57.57 0 0 1-.525.287Zm4.243.338v-.39h-1.877l1.003-1.104c.216-.237.387-.466.512-.687.126-.22.19-.435.19-.643 0-.2-.046-.377-.137-.53a.915.915 0 0 0-.39-.354 1.342 1.342 0 0 0-.602-.126c-.26 0-.481.051-.666.154a1.03 1.03 0 0 0-.42.42 1.232 1.232 0 0 0-.14.59h.48c0-.236.063-.424.19-.564.127-.14.312-.21.556-.21.133 0 .25.03.347.089.098.06.172.141.224.244a.76.76 0 0 1 .077.344c0 .102-.017.2-.05.295a1.4 1.4 0 0 1-.174.317 5.07 5.07 0 0 1-.352.432l-1.227 1.38v.343h2.456Zm1.676.052c.382 0 .674-.13.876-.389.201-.259.302-.684.302-1.276v-.58c0-.589-.101-1.01-.304-1.262-.202-.253-.495-.38-.879-.38-.382 0-.675.127-.878.38-.203.253-.305.673-.305 1.262v.58c0 .59.103 1.015.309 1.275.206.26.499.39.88.39Zm0-.39a.583.583 0 0 1-.527-.29c-.12-.193-.18-.496-.18-.91v-.735c0-.414.059-.713.176-.896a.583.583 0 0 1 .526-.276c.237 0 .413.092.528.274.116.183.174.482.174.898v.735c0 .417-.057.722-.172.913a.57.57 0 0 1-.525.287Zm1.934.662 1.56-4.107h-.408l-1.564 4.107h.412Zm3.594-.324v-3.803h-.074l-1.363.517v.433l.957-.355v3.208h.48Zm2.566.052c.383 0 .675-.13.876-.389.201-.259.302-.684.302-1.276v-.58c0-.589-.101-1.01-.303-1.262-.203-.253-.496-.38-.88-.38-.382 0-.675.127-.878.38-.203.253-.304.673-.304 1.262v.58c0 .59.102 1.015.308 1.275.206.26.499.39.88.39Zm0-.39a.583.583 0 0 1-.527-.29c-.12-.193-.18-.496-.18-.91v-.735c0-.414.06-.713.177-.896a.583.583 0 0 1 .525-.276c.237 0 .413.092.529.274.115.183.173.482.173.898v.735c0 .417-.057.722-.172.913a.57.57 0 0 1-.525.287Zm1.934.662 1.56-4.107h-.408l-1.563 4.107h.411Zm3.595-.324v-3.803h-.075l-1.363.517v.433l.957-.355v3.208h.48Zm2.648.052c.259 0 .477-.054.654-.16a.997.997 0 0 0 .399-.444 1.54 1.54 0 0 0 .132-.654c0-.256-.045-.48-.135-.67a1.009 1.009 0 0 0-.385-.44 1.107 1.107 0 0 0-.593-.155 1.225 1.225 0 0 0-.622.164l.11-1.036h1.515v-.44h-1.92l-.191 1.884.386.099c.066-.06.125-.105.174-.138a.594.594 0 0 1 .179-.077 1.04 1.04 0 0 1 .256-.027c.156 0 .29.036.402.11a.692.692 0 0 1 .256.3c.058.126.088.27.088.432 0 .176-.028.33-.084.458a.664.664 0 0 1-.242.299.669.669 0 0 1-.379.105.695.695 0 0 1-.487-.168c-.123-.111-.199-.274-.228-.49h-.455c.02.23.085.422.192.579a1 1 0 0 0 .414.352c.168.078.357.117.564.117Zm3.883-.052 1.55-3.515v-.268h-2.533v.39h2.024l-1.545 3.393h.504Zm2.417-2.268a.298.298 0 0 0 .22-.078.273.273 0 0 0 .078-.203.29.29 0 0 0-.079-.209.29.29 0 0 0-.22-.082.287.287 0 0 0-.217.082.29.29 0 0 0-.078.21c0 .08.026.148.078.2a.29.29 0 0 0 .218.08Zm-.003 2.296a.298.298 0 0 0 .22-.078.273.273 0 0 0 .078-.202.29.29 0 0 0-.078-.21.29.29 0 0 0-.22-.081.287.287 0 0 0-.217.082.29.29 0 0 0-.079.209c0 .081.026.148.079.201a.29.29 0 0 0 .217.08Zm2.52-.028v-3.803h-.075l-1.363.517v.433l.957-.355v3.208h.48Zm2.566.052c.382 0 .674-.13.875-.389.202-.259.303-.684.303-1.276v-.58c0-.589-.102-1.01-.304-1.262-.202-.253-.495-.38-.88-.38-.381 0-.674.127-.877.38-.203.253-.305.673-.305 1.262v.58c0 .59.103 1.015.309 1.275.205.26.498.39.879.39Zm0-.39a.583.583 0 0 1-.527-.29c-.12-.193-.18-.496-.18-.91v-.735c0-.414.059-.713.176-.896a.583.583 0 0 1 .526-.276c.236 0 .412.092.528.274.116.183.174.482.174.898v.735c0 .417-.058.722-.173.913a.57.57 0 0 1-.524.287Zm2.116-1.93a.298.298 0 0 0 .22-.078.273.273 0 0 0 .078-.203.29.29 0 0 0-.078-.209.29.29 0 0 0-.22-.082.287.287 0 0 0-.217.082.29.29 0 0 0-.079.21c0 .08.026.148.079.2.052.054.124.08.217.08Zm-.003 2.296a.298.298 0 0 0 .22-.078.273.273 0 0 0 .079-.202.29.29 0 0 0-.079-.21.29.29 0 0 0-.22-.081.287.287 0 0 0-.217.082.29.29 0 0 0-.078.209c0 .081.026.148.078.201.052.053.125.08.217.08Zm2.21.024c.258 0 .476-.054.654-.16a.997.997 0 0 0 .398-.444 1.54 1.54 0 0 0 .133-.654c0-.256-.045-.48-.135-.67a1.009 1.009 0 0 0-.386-.44 1.107 1.107 0 0 0-.593-.155 1.225 1.225 0 0 0-.622.164l.11-1.036h1.515v-.44h-1.92l-.191 1.884.386.099c.067-.06.125-.105.174-.138a.594.594 0 0 1 .18-.077c.069-.018.154-.027.255-.027.156 0 .29.036.402.11a.692.692 0 0 1 .256.3c.059.126.088.27.088.432 0 .176-.028.33-.084.458a.664.664 0 0 1-.242.299.669.669 0 0 1-.379.105.695.695 0 0 1-.487-.168c-.123-.111-.198-.274-.228-.49h-.455c.02.23.085.422.192.579a1 1 0 0 0 .414.352c.169.078.357.117.564.117Zm3.715-.052v-.88h.519v-.39h-.52v-2.513h-.511l-1.674 2.622v.28h1.705v.88h.48Zm-.481-1.27h-1.162l1.105-1.757.057-.1v1.856Zm12.115-40.995v-1.483h.885c.28 0 .52-.045.716-.134a.964.964 0 0 0 .446-.391c.101-.172.152-.378.152-.62a1.16 1.16 0 0 0-.153-.601 1.041 1.041 0 0 0-.45-.407 1.59 1.59 0 0 0-.711-.146h-1.384v3.782h.5Zm.885-1.889h-.885v-1.485h.885c.183 0 .336.034.459.102.122.069.212.16.27.273a.819.819 0 0 1 .086.375c0 .227-.067.406-.2.538-.132.132-.338.197-.615.197Zm2.7 1.94c.16 0 .308-.03.443-.094a1.11 1.11 0 0 0 .346-.25c.015.128.038.225.067.293h.501v-.042a1.172 1.172 0 0 1-.072-.266 1.89 1.89 0 0 1-.026-.305v-1.31a.966.966 0 0 0-.13-.518.81.81 0 0 0-.365-.316 1.303 1.303 0 0 0-.54-.106c-.217 0-.409.04-.577.121a.995.995 0 0 0-.39.313.67.67 0 0 0-.14.398h.481c0-.08.026-.154.076-.223a.522.522 0 0 1 .212-.163.747.747 0 0 1 .309-.061c.188 0 .333.049.433.147.1.097.15.232.15.403v.224h-.467c-.256 0-.477.035-.665.105a.924.924 0 0 0-.435.313.83.83 0 0 0-.153.507c0 .154.04.294.117.42a.82.82 0 0 0 .332.3c.143.074.307.11.493.11Zm.069-.415a.6.6 0 0 1-.288-.063.441.441 0 0 1-.18-.173.492.492 0 0 1-.062-.247c0-.171.073-.3.219-.388.146-.088.356-.131.63-.131h.39v.581a.706.706 0 0 1-.156.208.799.799 0 0 1-.553.213Zm2.062 1.5c.223 0 .399-.07.528-.21.13-.14.229-.303.297-.492l1.116-3.245h-.511l-.646 2.104-.689-2.104h-.524l.992 2.78-.105.288c-.057.172-.13.292-.22.36s-.217.103-.38.103a.604.604 0 0 1-.128-.013v.387a1.153 1.153 0 0 0 .27.041Zm3.51-1.084c.255 0 .478-.062.67-.186.19-.124.338-.293.44-.509.103-.216.155-.46.155-.731v-.06c0-.272-.052-.516-.154-.733a1.211 1.211 0 0 0-.443-.51 1.215 1.215 0 0 0-.673-.186 1.2 1.2 0 0 0-.668.186 1.214 1.214 0 0 0-.44.51 1.688 1.688 0 0 0-.155.733v.06c0 .272.052.515.156.731.103.216.25.385.442.51.191.123.414.185.67.185Zm0-.39a.68.68 0 0 1-.432-.139.838.838 0 0 1-.266-.375 1.476 1.476 0 0 1-.089-.522v-.06c0-.19.03-.365.089-.522a.851.851 0 0 1 .265-.377.666.666 0 0 1 .428-.14c.17 0 .313.047.432.14.118.094.207.22.267.377.06.157.09.332.09.522v.06c0 .19-.03.364-.089.522a.838.838 0 0 1-.266.375.675.675 0 0 1-.43.14Zm2.764.39c.358 0 .63-.11.815-.33l.008.278h.457v-2.81h-.48v2.049c-.122.272-.363.408-.723.408a.493.493 0 0 1-.366-.145c-.095-.096-.143-.26-.143-.494v-1.819h-.48v1.813c0 .36.08.626.24.795.162.17.386.255.672.255Zm2.813 0c.135 0 .258-.017.368-.052l-.003-.387a.892.892 0 0 1-.221.028.338.338 0 0 1-.224-.068c-.055-.046-.082-.136-.082-.27v-1.747h.52v-.367h-.52v-.683h-.481v.683h-.507v.367h.507v1.745c0 .265.059.457.176.574a.63.63 0 0 0 .467.177Zm3.304-.052c.344 0 .644-.072.9-.216.255-.143.452-.349.59-.617.138-.267.207-.582.207-.944v-.228a2.03 2.03 0 0 0-.207-.94 1.48 1.48 0 0 0-.581-.62 1.694 1.694 0 0 0-.865-.217h-1.057v3.782H96.2Zm0-.405h-.514v-2.97h.558c.245 0 .454.054.628.162.174.107.306.262.396.466.09.203.135.449.135.736v.234c0 .28-.045.524-.136.729-.09.205-.226.363-.406.475-.18.112-.4.168-.661.168Zm3.525.457c.254 0 .466-.05.638-.152.171-.101.308-.232.411-.391l-.29-.229a1.021 1.021 0 0 1-.315.284.841.841 0 0 1-.418.098.754.754 0 0 1-.43-.123.812.812 0 0 1-.285-.337 1.186 1.186 0 0 1-.108-.475h1.882v-.216c0-.27-.041-.508-.123-.714a1.037 1.037 0 0 0-.38-.484c-.17-.117-.385-.176-.644-.176a1.11 1.11 0 0 0-.597.174 1.252 1.252 0 0 0-.45.503 1.65 1.65 0 0 0-.169.768v.111c0 .262.053.496.158.702.106.206.255.367.449.483.194.116.417.174.671.174Zm.604-1.715h-1.386c.033-.258.113-.457.24-.598a.62.62 0 0 1 .48-.212c.223 0 .386.074.49.222.104.148.163.332.176.552v.036Zm2.312 1.715a.941.941 0 0 0 .581-.183c.163-.122.287-.291.371-.507.085-.215.128-.46.128-.736v-.055c0-.287-.043-.539-.128-.754a1.1 1.1 0 0 0-.371-.502.969.969 0 0 0-.586-.178c-.338 0-.602.118-.792.354v-1.481h-.481v3.99h.44l.023-.32c.192.248.463.372.815.372Zm-.121-.405a.69.69 0 0 1-.41-.12.83.83 0 0 1-.266-.32v-1.228a.804.804 0 0 1 .26-.32.689.689 0 0 1 .41-.12c.253 0 .437.096.552.285.116.19.174.439.174.747v.055c0 .301-.06.547-.179.736-.119.19-.3.285-.541.285Zm2.085-2.936a.28.28 0 0 0 .21-.076.264.264 0 0 0 .076-.194.271.271 0 0 0-.076-.197.279.279 0 0 0-.21-.078.27.27 0 0 0-.207.078.277.277 0 0 0-.073.197c0 .078.024.143.073.194a.273.273 0 0 0 .207.076Zm.237 3.289v-2.81h-.481v2.81h.48Zm1.57.052c.136 0 .259-.017.369-.052l-.003-.387a.892.892 0 0 1-.221.028.338.338 0 0 1-.224-.068c-.055-.046-.082-.136-.082-.27v-1.747h.52v-.367h-.52v-.683h-.48v.683h-.507v.367h.506v1.745c0 .265.059.457.176.574a.63.63 0 0 0 .467.177Zm-28.319 20.59v-1.483h.885c.28 0 .52-.045.716-.134a.964.964 0 0 0 .446-.39 1.21 1.21 0 0 0 .152-.622 1.16 1.16 0 0 0-.153-.6 1.041 1.041 0 0 0-.45-.406 1.59 1.59 0 0 0-.711-.147h-1.384v3.782h.5Zm.885-1.888h-.885v-1.486h.885c.183 0 .336.034.459.103a.649.649 0 0 1 .27.272.819.819 0 0 1 .086.376c0 .227-.067.406-.2.537-.132.132-.338.198-.615.198Zm2.7 1.94c.16 0 .308-.031.443-.095.135-.063.25-.146.346-.25.015.128.038.226.067.293h.501v-.041a1.172 1.172 0 0 1-.072-.266 1.89 1.89 0 0 1-.026-.306v-1.309a.966.966 0 0 0-.13-.518.81.81 0 0 0-.365-.317 1.303 1.303 0 0 0-.54-.105c-.217 0-.409.04-.577.12a.997.997 0 0 0-.39.314.67.67 0 0 0-.14.397h.481c0-.08.026-.154.076-.222a.522.522 0 0 1 .212-.164.747.747 0 0 1 .309-.06c.188 0 .333.048.433.146.1.098.15.232.15.404v.223h-.467c-.256 0-.477.035-.665.105a.924.924 0 0 0-.435.313.83.83 0 0 0-.153.507c0 .154.04.294.117.42a.82.82 0 0 0 .332.3c.143.075.307.111.493.111Zm.069-.415a.6.6 0 0 1-.288-.064.441.441 0 0 1-.18-.173.492.492 0 0 1-.062-.247c0-.17.073-.3.219-.388.146-.087.356-.131.63-.131h.39v.582a.706.706 0 0 1-.156.208.799.799 0 0 1-.553.213Zm2.062 1.499c.223 0 .399-.07.528-.21a1.41 1.41 0 0 0 .297-.492l1.116-3.244h-.511l-.646 2.104-.689-2.104h-.524l.992 2.78-.105.288c-.057.171-.13.29-.22.36-.09.068-.217.102-.38.102a.604.604 0 0 1-.128-.013v.387a1.153 1.153 0 0 0 .27.042Zm3.51-1.084c.255 0 .478-.062.67-.185.19-.124.338-.294.44-.51.103-.215.155-.459.155-.73v-.06c0-.272-.052-.517-.154-.733a1.211 1.211 0 0 0-.443-.51 1.215 1.215 0 0 0-.673-.186 1.2 1.2 0 0 0-.668.185 1.214 1.214 0 0 0-.44.51 1.69 1.69 0 0 0-.155.733v.06c0 .272.052.516.156.731.103.216.25.386.442.51.191.123.414.185.67.185Zm0-.39a.68.68 0 0 1-.432-.138.838.838 0 0 1-.266-.376 1.476 1.476 0 0 1-.089-.522v-.06c0-.19.03-.364.089-.522a.851.851 0 0 1 .265-.376.666.666 0 0 1 .428-.14c.17 0 .313.046.432.14a.856.856 0 0 1 .267.376c.06.158.09.332.09.522v.06c0 .19-.03.365-.089.522a.838.838 0 0 1-.266.376.675.675 0 0 1-.43.139Zm2.764.39c.358 0 .63-.11.815-.33l.008.278h.457v-2.81h-.48v2.05c-.122.271-.363.407-.723.407a.493.493 0 0 1-.366-.144c-.095-.096-.143-.261-.143-.495v-1.818h-.48v1.813c0 .36.08.625.24.795.162.17.386.254.672.254Zm2.813 0c.135 0 .258-.017.368-.052l-.003-.387a.892.892 0 0 1-.221.029.338.338 0 0 1-.224-.069c-.055-.046-.082-.135-.082-.269v-1.748h.52v-.366h-.52v-.684h-.481v.684h-.507v.366h.507v1.746c0 .265.059.456.176.574a.63.63 0 0 0 .467.176Zm2.79-.052v-1.673h1.566v-.405h-1.566v-1.296h1.82v-.408h-2.32v3.782h.5Zm3.494.052c.254 0 .466-.05.638-.152a1.22 1.22 0 0 0 .411-.39l-.29-.23a1.021 1.021 0 0 1-.316.284.841.841 0 0 1-.417.099.754.754 0 0 1-.431-.124.812.812 0 0 1-.284-.336 1.186 1.186 0 0 1-.108-.476h1.882v-.215c0-.27-.041-.508-.123-.714a1.037 1.037 0 0 0-.38-.485c-.17-.117-.385-.175-.644-.175a1.11 1.11 0 0 0-.598.174 1.252 1.252 0 0 0-.448.502 1.65 1.65 0 0 0-.17.768v.112c0 .261.053.495.158.701.106.206.255.367.449.483.194.116.417.174.671.174Zm.604-1.714h-1.386c.033-.258.113-.458.24-.599a.62.62 0 0 1 .48-.212c.223 0 .386.074.49.222.104.149.162.333.176.552v.037Zm2.19 1.714c.255 0 .467-.05.639-.152a1.22 1.22 0 0 0 .411-.39l-.29-.23a1.021 1.021 0 0 1-.316.284.841.841 0 0 1-.417.099.754.754 0 0 1-.431-.124.812.812 0 0 1-.284-.336 1.186 1.186 0 0 1-.108-.476h1.882v-.215c0-.27-.041-.508-.123-.714a1.037 1.037 0 0 0-.38-.485c-.17-.117-.385-.175-.644-.175a1.11 1.11 0 0 0-.598.174 1.252 1.252 0 0 0-.448.502 1.65 1.65 0 0 0-.17.768v.112c0 .261.053.495.158.701.106.206.255.367.449.483.194.116.417.174.67.174Zm.605-1.714h-1.386c.033-.258.113-.458.24-.599a.62.62 0 0 1 .48-.212c.223 0 .386.074.49.222.104.149.162.333.176.552v.037Z"/><path fill="red" d="M148.275 70.215v-3.803h-.074l-1.363.517v.434l.956-.356v3.208h.481Zm2.566.052c.383 0 .674-.13.876-.388.201-.26.302-.685.302-1.277v-.58c0-.588-.101-1.01-.304-1.262-.202-.253-.495-.38-.879-.38-.382 0-.675.127-.878.38-.203.253-.305.674-.305 1.263v.579c0 .59.103 1.015.309 1.275.206.26.499.39.88.39Zm0-.39a.583.583 0 0 1-.527-.29c-.12-.192-.18-.496-.18-.91v-.735c0-.414.059-.713.176-.896a.583.583 0 0 1 .526-.276c.237 0 .413.092.529.274.115.183.173.482.173.898v.735c0 .417-.057.722-.172.913a.57.57 0 0 1-.525.287Zm1.82 1.091a1.19 1.19 0 0 0 .332-.43c.081-.174.121-.343.121-.507v-.385h-.47v.392c0 .137-.022.265-.065.385-.042.12-.106.239-.19.358l.273.187Zm2.176-.701c.382 0 .674-.13.875-.388.202-.26.303-.685.303-1.277v-.58c0-.588-.102-1.01-.304-1.262-.202-.253-.495-.38-.88-.38-.381 0-.674.127-.877.38-.203.253-.305.674-.305 1.263v.579c0 .59.103 1.015.309 1.275.205.26.498.39.879.39Zm0-.39a.583.583 0 0 1-.527-.29c-.12-.192-.18-.496-.18-.91v-.735c0-.414.059-.713.176-.896a.583.583 0 0 1 .526-.276c.236 0 .413.092.528.274.116.183.174.482.174.898v.735c0 .417-.058.722-.172.913a.57.57 0 0 1-.525.287Zm2.96.39c.382 0 .674-.13.875-.388.201-.26.302-.685.302-1.277v-.58c0-.588-.101-1.01-.303-1.262-.203-.253-.496-.38-.88-.38-.382 0-.675.127-.878.38-.203.253-.304.674-.304 1.263v.579c0 .59.102 1.015.308 1.275.206.26.499.39.88.39Zm0-.39a.583.583 0 0 1-.528-.29c-.12-.192-.18-.496-.18-.91v-.735c0-.414.06-.713.177-.896a.583.583 0 0 1 .525-.276c.237 0 .413.092.529.274.115.183.173.482.173.898v.735c0 .417-.057.722-.172.913a.57.57 0 0 1-.525.287Zm2.959.39c.382 0 .674-.13.875-.388.202-.26.303-.685.303-1.277v-.58c0-.588-.102-1.01-.304-1.262-.202-.253-.495-.38-.88-.38-.381 0-.674.127-.877.38-.203.253-.305.674-.305 1.263v.579c0 .59.103 1.015.309 1.275.205.26.498.39.879.39Zm0-.39a.583.583 0 0 1-.527-.29c-.12-.192-.18-.496-.18-.91v-.735c0-.414.059-.713.176-.896a.583.583 0 0 1 .526-.276c.236 0 .413.092.528.274.116.183.174.482.174.898v.735c0 .417-.058.722-.172.913a.57.57 0 0 1-.525.287Zm2.142.367a.298.298 0 0 0 .22-.078.273.273 0 0 0 .078-.203.29.29 0 0 0-.078-.21.29.29 0 0 0-.22-.081.287.287 0 0 0-.217.082.29.29 0 0 0-.079.209c0 .081.026.148.079.201a.29.29 0 0 0 .217.08Zm2.209.023c.382 0 .674-.13.875-.388.201-.26.302-.685.302-1.277v-.58c0-.588-.101-1.01-.303-1.262-.203-.253-.496-.38-.88-.38-.382 0-.675.127-.878.38-.203.253-.304.674-.304 1.263v.579c0 .59.102 1.015.308 1.275.206.26.499.39.88.39Zm0-.39a.583.583 0 0 1-.528-.29c-.12-.192-.18-.496-.18-.91v-.735c0-.414.06-.713.177-.896a.583.583 0 0 1 .525-.276c.237 0 .413.092.529.274.115.183.173.482.173.898v.735c0 .417-.057.722-.172.913a.57.57 0 0 1-.524.287Zm2.959.39c.382 0 .674-.13.876-.388.2-.26.302-.685.302-1.277v-.58c0-.588-.101-1.01-.304-1.262-.202-.253-.495-.38-.88-.38-.381 0-.674.127-.877.38-.203.253-.305.674-.305 1.263v.579c0 .59.103 1.015.309 1.275.205.26.498.39.879.39Zm0-.39a.583.583 0 0 1-.527-.29c-.12-.192-.18-.496-.18-.91v-.735c0-.414.059-.713.176-.896a.583.583 0 0 1 .526-.276c.236 0 .413.092.528.274.116.183.174.482.174.898v.735c0 .417-.058.722-.172.913a.57.57 0 0 1-.525.287Zm-12.836 21.96v-3.803h-.074l-1.363.517v.434l.957-.356v3.208h.48Zm2.566.052c.383 0 .675-.13.876-.388.201-.259.302-.685.302-1.277v-.58c0-.588-.101-1.009-.303-1.262-.203-.252-.496-.379-.88-.379-.382 0-.675.127-.878.38-.203.252-.304.673-.304 1.262v.58c0 .59.102 1.015.308 1.275.206.26.499.39.88.39Zm0-.39a.583.583 0 0 1-.527-.289c-.12-.193-.18-.497-.18-.91v-.736c0-.414.06-.712.177-.896a.583.583 0 0 1 .525-.275c.237 0 .413.091.529.274.115.183.173.482.173.897v.736c0 .417-.057.721-.172.913a.57.57 0 0 1-.525.287Zm2.96.39c.382 0 .674-.13.875-.388.202-.259.303-.685.303-1.277v-.58c0-.588-.102-1.009-.304-1.262-.202-.252-.495-.379-.88-.379-.381 0-.674.127-.877.38-.203.252-.305.673-.305 1.262v.58c0 .59.103 1.015.309 1.275.205.26.498.39.879.39Zm0-.39a.583.583 0 0 1-.527-.289c-.12-.193-.18-.497-.18-.91v-.736c0-.414.059-.712.176-.896a.583.583 0 0 1 .526-.275c.236 0 .413.091.528.274.116.183.174.482.174.897v.736c0 .417-.058.721-.172.913a.57.57 0 0 1-.525.287Zm2.142.367a.298.298 0 0 0 .22-.078.273.273 0 0 0 .078-.203.29.29 0 0 0-.078-.209.29.29 0 0 0-.22-.082.287.287 0 0 0-.217.082.29.29 0 0 0-.079.21c0 .08.026.148.079.2.052.054.124.08.217.08Zm2.209.023c.382 0 .674-.13.875-.388.201-.259.302-.685.302-1.277v-.58c0-.588-.101-1.009-.303-1.262-.203-.252-.496-.379-.88-.379-.382 0-.675.127-.878.38-.203.252-.304.673-.304 1.262v.58c0 .59.102 1.015.308 1.275.206.26.499.39.88.39Zm0-.39a.583.583 0 0 1-.528-.289c-.12-.193-.18-.497-.18-.91v-.736c0-.414.06-.712.177-.896a.583.583 0 0 1 .525-.275c.237 0 .413.091.529.274.115.183.173.482.173.897v.736c0 .417-.057.721-.172.913a.57.57 0 0 1-.524.287Zm2.959.39c.382 0 .674-.13.876-.388.2-.259.302-.685.302-1.277v-.58c0-.588-.101-1.009-.304-1.262-.202-.252-.495-.379-.88-.379-.381 0-.674.127-.877.38-.203.252-.305.673-.305 1.262v.58c0 .59.103 1.015.309 1.275.205.26.498.39.879.39Zm0-.39a.583.583 0 0 1-.527-.289c-.12-.193-.18-.497-.18-.91v-.736c0-.414.059-.712.176-.896a.583.583 0 0 1 .526-.275c.236 0 .413.091.528.274.116.183.174.482.174.897v.736c0 .417-.058.721-.172.913a.57.57 0 0 1-.525.287Z"/><path fill="#7A7E91" d="M78.607 112.48a1.8 1.8 0 0 0 .9-.216c.256-.144.452-.35.59-.617.138-.267.207-.582.207-.944v-.229a2.03 2.03 0 0 0-.207-.94 1.48 1.48 0 0 0-.58-.62 1.694 1.694 0 0 0-.866-.217h-1.057v3.783h1.013Zm0-.406h-.514v-2.969h.558c.245 0 .455.054.629.161.174.108.306.263.396.467.09.203.135.449.135.736v.234c0 .28-.046.523-.136.729a1.042 1.042 0 0 1-.407.475c-.18.112-.4.167-.66.167Zm3.526.458c.253 0 .466-.051.637-.152.172-.102.309-.232.412-.391l-.29-.229a1.021 1.021 0 0 1-.316.283.841.841 0 0 1-.418.099.754.754 0 0 1-.43-.123.812.812 0 0 1-.284-.337 1.186 1.186 0 0 1-.108-.475h1.882v-.216a1.9 1.9 0 0 0-.124-.714 1.037 1.037 0 0 0-.379-.485 1.119 1.119 0 0 0-.644-.175 1.11 1.11 0 0 0-.598.174 1.252 1.252 0 0 0-.449.503 1.65 1.65 0 0 0-.17.767v.112c0 .262.053.495.159.701.105.207.255.368.449.484.193.116.417.174.67.174Zm.604-1.715H81.35c.033-.258.113-.457.24-.599a.62.62 0 0 1 .48-.211c.223 0 .386.074.49.222.103.148.162.332.176.552v.036Zm1.514 2.743v-1.35c.194.214.459.322.795.322a.936.936 0 0 0 .58-.183c.162-.123.285-.291.37-.507.085-.216.127-.461.127-.736v-.055c0-.287-.042-.539-.126-.755a1.091 1.091 0 0 0-.37-.501.973.973 0 0 0-.589-.178c-.343 0-.611.12-.805.359l-.025-.307h-.437v3.891h.48Zm.648-1.418a.696.696 0 0 1-.648-.382v-1.353a.69.69 0 0 1 .643-.387c.166 0 .306.046.418.137a.809.809 0 0 1 .25.37c.053.156.08.33.08.524v.055c0 .194-.027.368-.08.524a.822.822 0 0 1-.249.373.626.626 0 0 1-.414.139Zm2.973.39c.255 0 .478-.062.67-.186.19-.124.338-.294.44-.51.103-.215.155-.459.155-.73v-.06c0-.272-.052-.516-.155-.733a1.211 1.211 0 0 0-.442-.51 1.215 1.215 0 0 0-.674-.186 1.2 1.2 0 0 0-.667.186 1.214 1.214 0 0 0-.44.51 1.67 1.67 0 0 0-.155.733v.06c0 .271.052.515.156.73.103.216.25.386.442.51.191.124.414.186.67.186Zm0-.39a.68.68 0 0 1-.432-.139.838.838 0 0 1-.266-.375 1.476 1.476 0 0 1-.09-.522v-.06c0-.19.03-.365.09-.522a.851.851 0 0 1 .264-.377.666.666 0 0 1 .428-.14.67.67 0 0 1 .432.14c.119.094.208.22.268.377.06.157.09.331.09.522v.06c0 .19-.03.364-.089.522a.838.838 0 0 1-.266.375.675.675 0 0 1-.43.139Zm2.885.39c.214 0 .402-.035.565-.106a.873.873 0 0 0 .378-.293.728.728 0 0 0 .134-.433.672.672 0 0 0-.107-.384.823.823 0 0 0-.325-.268 2.6 2.6 0 0 0-.568-.19 2.278 2.278 0 0 1-.398-.116.447.447 0 0 1-.19-.134.312.312 0 0 1-.053-.186.385.385 0 0 1 .24-.357.727.727 0 0 1 .31-.058c.119 0 .222.024.31.071a.523.523 0 0 1 .202.183.43.43 0 0 1 .07.232h.48a.804.804 0 0 0-.127-.443.88.88 0 0 0-.369-.316 1.286 1.286 0 0 0-.565-.117c-.203 0-.382.037-.539.112a.894.894 0 0 0-.364.299.71.71 0 0 0-.128.41c0 .22.084.392.253.517.169.125.419.222.75.29.174.037.308.08.4.128a.446.446 0 0 1 .188.159.402.402 0 0 1 .05.202.339.339 0 0 1-.07.21.458.458 0 0 1-.205.145.879.879 0 0 1-.322.053.906.906 0 0 1-.308-.052.51.51 0 0 1-.351-.475h-.48c0 .159.044.309.133.45.09.14.22.252.392.338.173.086.377.129.614.129Zm1.98-3.34a.278.278 0 0 0 .209-.078.264.264 0 0 0 .076-.193.271.271 0 0 0-.076-.198.279.279 0 0 0-.21-.077.27.27 0 0 0-.207.077.277.277 0 0 0-.073.198.27.27 0 0 0 .073.193.273.273 0 0 0 .207.077Zm.236 3.288v-2.811h-.48v2.81h.48Zm1.571.052c.135 0 .258-.018.368-.052l-.003-.387a.892.892 0 0 1-.221.028.338.338 0 0 1-.224-.069c-.055-.045-.082-.135-.082-.268v-1.749h.52v-.366h-.52v-.683h-.48v.683h-.507v.366h.506v1.746c0 .265.059.456.176.574a.63.63 0 0 0 .467.177Z"/><path fill="#49914B" d="M116.877 112.48v-3.795h-.08l-1.473.545v.54l.912-.309v3.019h.64Zm2.514.052c.818 0 1.227-.548 1.227-1.642v-.618c0-.57-.108-.984-.323-1.24-.215-.258-.518-.386-.909-.386-.39 0-.693.128-.908.385-.214.257-.32.67-.32 1.24v.619c0 .571.107.988.324 1.25.217.26.52.392.91.392Zm0-.52a.49.49 0 0 1-.443-.243c-.1-.162-.15-.424-.15-.788v-.805c0-.364.049-.623.147-.778a.488.488 0 0 1 .441-.233.49.49 0 0 1 .445.233c.098.155.147.414.147.778v.805c0 .367-.049.63-.146.79a.48.48 0 0 1-.44.241Zm1.916 1.333a1.35 1.35 0 0 0 .355-.47c.089-.189.133-.374.133-.554l.003-.457h-.57v.48c0 .153-.023.289-.068.408-.044.12-.11.25-.195.393l.342.2Zm2.74-.865v-3.795h-.079l-1.473.545v.54l.913-.309v3.019h.64Zm2.515.052c.818 0 1.227-.548 1.227-1.642v-.618c0-.57-.108-.984-.323-1.24-.215-.258-.518-.386-.909-.386-.39 0-.693.128-.907.385-.215.257-.322.67-.322 1.24v.619c0 .571.109.988.326 1.25.216.26.52.392.908.392Zm0-.52a.49.49 0 0 1-.443-.243c-.1-.162-.15-.424-.15-.788v-.805c0-.364.049-.623.147-.778a.488.488 0 0 1 .441-.233.49.49 0 0 1 .445.233c.098.155.147.414.147.778v.805c0 .367-.049.63-.146.79a.48.48 0 0 1-.44.241Zm2.999.52c.817 0 1.226-.548 1.226-1.642v-.618c0-.57-.108-.984-.323-1.24-.215-.258-.518-.386-.909-.386-.39 0-.693.128-.907.385-.215.257-.322.67-.322 1.24v.619c0 .571.109.988.326 1.25.216.26.52.392.909.392Zm0-.52a.49.49 0 0 1-.444-.243c-.1-.162-.15-.424-.15-.788v-.805c0-.364.049-.623.147-.778a.488.488 0 0 1 .441-.233.49.49 0 0 1 .445.233c.098.155.147.414.147.778v.805c0 .367-.049.63-.146.79a.48.48 0 0 1-.44.241Zm2.213.499a.365.365 0 0 0 .27-.1.343.343 0 0 0 .1-.253.35.35 0 0 0-.1-.258.363.363 0 0 0-.27-.1.366.366 0 0 0-.272.1.35.35 0 0 0-.1.258c0 .102.033.186.1.253s.158.1.272.1Zm2.263.02c.818 0 1.227-.547 1.227-1.641v-.618c0-.57-.108-.984-.323-1.24-.215-.258-.518-.386-.91-.386-.39 0-.692.128-.907.385-.214.257-.321.67-.321 1.24v.619c0 .571.108.988.325 1.25.217.26.52.392.91.392Zm0-.519a.49.49 0 0 1-.443-.243c-.1-.162-.15-.424-.15-.788v-.805c0-.364.048-.623.147-.778a.488.488 0 0 1 .44-.233.49.49 0 0 1 .446.233c.097.155.146.414.146.778v.805c0 .367-.048.63-.145.79a.48.48 0 0 1-.44.241Zm2.998.52c.818 0 1.227-.548 1.227-1.642v-.618c0-.57-.108-.984-.323-1.24-.215-.258-.518-.386-.909-.386-.39 0-.693.128-.908.385-.214.257-.321.67-.321 1.24v.619c0 .571.108.988.325 1.25.217.26.52.392.91.392Zm0-.52a.49.49 0 0 1-.443-.243c-.1-.162-.15-.424-.15-.788v-.805c0-.364.048-.623.147-.778a.488.488 0 0 1 .441-.233.49.49 0 0 1 .445.233c.098.155.146.414.146.778v.805c0 .367-.048.63-.145.79a.48.48 0 0 1-.44.241Z"/><path fill="#7A7E91" d="M78.808 48.204c.374 0 .705-.085.995-.253.289-.168.515-.404.677-.708.161-.304.242-.654.242-1.048v-.185c0-.392-.08-.741-.242-1.046a1.757 1.757 0 0 0-.676-.71 1.928 1.928 0 0 0-.99-.253h-1.297v4.203h1.291Zm0-.73h-.394v-2.74h.4c.326 0 .573.108.743.324.17.215.254.53.254.946v.19c0 .416-.086.733-.257.952-.171.218-.42.327-.746.327Zm3.9.787c.28 0 .524-.053.733-.161.208-.108.367-.24.475-.399l-.414-.482a.853.853 0 0 1-.324.256.998.998 0 0 1-.413.085.708.708 0 0 1-.491-.172.77.77 0 0 1-.24-.463h1.954v-.37a1.91 1.91 0 0 0-.16-.812 1.194 1.194 0 0 0-.469-.532 1.409 1.409 0 0 0-.745-.188 1.43 1.43 0 0 0-.777.206 1.339 1.339 0 0 0-.503.573 1.92 1.92 0 0 0-.174.834v.11c0 .28.062.534.187.765.124.23.303.414.537.548.233.135.508.202.824.202Zm.434-1.919h-1.1a.894.894 0 0 1 .182-.453.475.475 0 0 1 .384-.165c.175 0 .307.05.396.148a.598.598 0 0 1 .138.4v.07Zm2.477 1.92c.263 0 .494-.042.693-.125.2-.082.352-.196.46-.342a.806.806 0 0 0 .161-.492.799.799 0 0 0-.15-.5 1 1 0 0 0-.404-.307 2.916 2.916 0 0 0-.62-.18c-.204-.038-.348-.086-.433-.141-.084-.056-.127-.13-.127-.22a.28.28 0 0 1 .113-.23.472.472 0 0 1 .302-.09c.152 0 .265.035.34.105.074.07.11.168.11.293h.864a.894.894 0 0 0-.16-.524 1.046 1.046 0 0 0-.457-.358 1.738 1.738 0 0 0-.695-.128c-.251 0-.471.044-.66.133a1.039 1.039 0 0 0-.432.355c-.1.148-.15.31-.15.488 0 .479.365.797 1.097.955.165.036.293.073.384.11a.49.49 0 0 1 .188.116.226.226 0 0 1 .053.152c0 .096-.04.173-.118.23a.575.575 0 0 1-.339.085.652.652 0 0 1-.388-.109c-.101-.072-.155-.183-.16-.333h-.815a.91.91 0 0 0 .159.505c.106.162.26.294.463.397.203.103.443.154.721.154Zm3.134 0c.238 0 .455-.05.65-.148a1.17 1.17 0 0 0 .464-.41c.115-.175.172-.373.172-.594h-.809a.43.43 0 0 1-.137.329.513.513 0 0 1-.357.121c-.215 0-.361-.078-.438-.234-.078-.156-.116-.371-.116-.646v-.075c0-.27.039-.484.117-.643.078-.158.222-.238.431-.238a.46.46 0 0 1 .366.15c.088.1.132.227.134.381h.809c0-.252-.054-.47-.163-.656a1.085 1.085 0 0 0-.456-.427c-.195-.1-.42-.149-.672-.149-.309 0-.57.068-.785.205a1.271 1.271 0 0 0-.482.563 1.96 1.96 0 0 0-.162.814v.075c0 .304.054.575.162.814.107.238.269.426.484.562.215.137.478.205.788.205Zm2.609-.058v-2.018c.093-.206.294-.309.602-.309.094 0 .196.008.306.023l.012-.842a1.041 1.041 0 0 0-.26-.035.718.718 0 0 0-.396.113.86.86 0 0 0-.29.323l-.026-.378h-.81v3.123h.863Zm1.765-3.484a.489.489 0 0 0 .35-.126.423.423 0 0 0 .133-.321.423.423 0 0 0-.133-.322.489.489 0 0 0-.35-.126.485.485 0 0 0-.347.126.423.423 0 0 0-.133.322c0 .13.045.238.133.321a.485.485 0 0 0 .347.126Zm.437 3.484V45.08H92.7v3.123h.865Zm1.523 1.2v-1.472a.94.94 0 0 0 .74.33c.253 0 .47-.069.65-.206.18-.136.317-.325.41-.567.093-.241.14-.515.14-.82v-.061a2.3 2.3 0 0 0-.139-.836 1.195 1.195 0 0 0-.41-.553c-.18-.13-.4-.196-.657-.196a.94.94 0 0 0-.765.358l-.032-.3h-.8v4.323h.863Zm.517-1.844c-.25 0-.422-.1-.517-.3v-1.244c.092-.193.262-.289.512-.289.196 0 .34.08.43.238.092.16.138.373.138.643v.06c0 .268-.045.483-.134.647a.453.453 0 0 1-.429.245Zm2.983.701c.19 0 .36-.027.508-.08v-.656a1.23 1.23 0 0 1-.24.02c-.114 0-.195-.022-.242-.067-.048-.045-.072-.13-.072-.253v-1.51h.52v-.634h-.52v-.774h-.863v.774h-.437v.635h.437v1.61c0 .624.303.935.909.935Zm1.388-3.541a.489.489 0 0 0 .35-.126.423.423 0 0 0 .133-.321.423.423 0 0 0-.133-.322.489.489 0 0 0-.35-.126.485.485 0 0 0-.347.126.423.423 0 0 0-.133.322c0 .13.045.238.133.321a.485.485 0 0 0 .347.126Zm.437 3.484V45.08h-.865v3.123h.865Zm2.006.057c.307 0 .57-.068.791-.205.221-.136.39-.324.505-.564.115-.24.172-.512.172-.818v-.06c0-.307-.057-.58-.172-.82a1.318 1.318 0 0 0-.506-.566 1.488 1.488 0 0 0-.796-.205c-.306 0-.57.068-.791.205a1.32 1.32 0 0 0-.504.566 1.86 1.86 0 0 0-.173.82v.06c0 .306.057.579.173.818.115.24.283.428.505.564.222.137.487.205.796.205Zm0-.701c-.213 0-.369-.08-.466-.241-.097-.16-.145-.376-.145-.645v-.06c0-.264.048-.478.145-.643.097-.164.25-.247.46-.247.214 0 .369.082.466.246.097.163.146.378.146.643v.06c0 .268-.049.483-.146.645-.097.161-.25.242-.46.242Zm2.8.644v-2.2a.552.552 0 0 1 .201-.205.573.573 0 0 1 .293-.072c.164 0 .285.036.363.108.078.073.117.201.117.386v1.983h.863v-1.98c0-.426-.085-.732-.254-.92-.17-.187-.41-.281-.72-.281a1.085 1.085 0 0 0-.889.419l-.028-.361h-.809v3.123h.863Zm15.971.057c.333 0 .624-.061.871-.184a1.4 1.4 0 0 0 .579-.517 1.62 1.62 0 0 0 .235-.765h-.894c-.017.246-.089.429-.215.547-.127.118-.319.178-.576.178a.764.764 0 0 1-.477-.139.792.792 0 0 1-.263-.42 2.645 2.645 0 0 1-.083-.729v-.262c0-.443.068-.768.203-.976.135-.208.343-.312.623-.312.268 0 .463.062.584.187.12.124.19.313.207.567h.894a1.81 1.81 0 0 0-.241-.778 1.397 1.397 0 0 0-.567-.527 1.877 1.877 0 0 0-.877-.19 1.67 1.67 0 0 0-.915.248c-.26.165-.462.401-.605.708a2.532 2.532 0 0 0-.214 1.078v.257c0 .414.069.773.207 1.078.138.305.337.54.598.705.261.164.57.246.926.246Zm3.04-.057v-2.018c.093-.206.294-.309.602-.309.094 0 .196.008.306.023l.012-.842a1.041 1.041 0 0 0-.26-.035.718.718 0 0 0-.396.113.86.86 0 0 0-.29.323l-.026-.378h-.811v3.123h.863Zm2.734.057c.28 0 .524-.053.733-.161.208-.108.367-.24.475-.399l-.414-.482a.853.853 0 0 1-.324.256.998.998 0 0 1-.413.085.708.708 0 0 1-.492-.172.77.77 0 0 1-.24-.463h1.955v-.37c0-.311-.054-.582-.16-.812a1.194 1.194 0 0 0-.469-.532 1.409 1.409 0 0 0-.746-.188 1.43 1.43 0 0 0-.777.206 1.339 1.339 0 0 0-.502.573 1.92 1.92 0 0 0-.175.834v.11c0 .28.063.534.187.765.125.23.304.414.537.548.234.135.509.202.825.202Zm.434-1.919h-1.1a.894.894 0 0 1 .181-.453.475.475 0 0 1 .385-.165c.175 0 .307.05.395.148a.598.598 0 0 1 .139.4v.07Zm2.371 1.92c.32 0 .581-.131.783-.393l.043.335h.777V43.77h-.863v1.59a.934.934 0 0 0-.734-.337 1.07 1.07 0 0 0-.653.2c-.182.132-.32.319-.414.56-.094.24-.142.519-.142.836v.06c0 .307.048.579.142.818.094.238.232.425.414.56.182.137.398.204.647.204Zm.22-.705a.454.454 0 0 1-.427-.238c-.088-.159-.133-.372-.133-.64v-.06c0-.271.045-.488.136-.65a.457.457 0 0 1 .43-.242c.244 0 .415.104.514.312v1.206a.54.54 0 0 1-.52.312Zm2.474-2.837a.489.489 0 0 0 .35-.126.423.423 0 0 0 .133-.321.423.423 0 0 0-.133-.322.489.489 0 0 0-.35-.126.485.485 0 0 0-.347.126.423.423 0 0 0-.133.322c0 .13.045.238.133.321a.485.485 0 0 0 .347.126Zm.437 3.484V45.08h-.865v3.123h.865Zm1.729.057c.19 0 .36-.027.508-.08v-.656a1.23 1.23 0 0 1-.24.02c-.114 0-.195-.022-.242-.067-.048-.045-.072-.13-.072-.253v-1.51h.52v-.634h-.52v-.774h-.863v.774h-.437v.635h.437v1.61c0 .624.303.935.909.935Zm2.097 0c.263 0 .494-.041.693-.124.199-.082.352-.196.46-.342a.806.806 0 0 0 .161-.492.799.799 0 0 0-.15-.5 1 1 0 0 0-.404-.307 2.916 2.916 0 0 0-.62-.18c-.204-.038-.348-.086-.433-.141a.254.254 0 0 1-.127-.22.28.28 0 0 1 .113-.23.472.472 0 0 1 .301-.09c.153 0 .266.035.34.105.074.07.112.168.112.293h.862a.894.894 0 0 0-.16-.524 1.046 1.046 0 0 0-.457-.358 1.738 1.738 0 0 0-.694-.128c-.251 0-.471.044-.66.133a1.039 1.039 0 0 0-.433.355c-.1.148-.15.31-.15.488 0 .479.366.797 1.097.955.166.036.294.073.385.11a.49.49 0 0 1 .188.116.226.226 0 0 1 .053.152.27.27 0 0 1-.119.23.575.575 0 0 1-.338.085.652.652 0 0 1-.389-.109c-.1-.072-.154-.183-.16-.333h-.814a.91.91 0 0 0 .159.505c.105.162.26.294.462.397.203.103.444.154.722.154Zm17.497-.057c.374 0 .705-.085.995-.253a1.75 1.75 0 0 0 .677-.708c.162-.304.243-.654.243-1.048v-.185c0-.392-.081-.741-.243-1.046a1.757 1.757 0 0 0-.676-.71 1.928 1.928 0 0 0-.99-.253h-1.297v4.203h1.291Zm0-.73h-.394v-2.74h.4c.326 0 .573.108.743.324.17.215.254.53.254.946v.19c0 .416-.085.733-.257.952-.171.218-.42.327-.746.327Zm3.9.787c.28 0 .524-.053.733-.161a1.26 1.26 0 0 0 .476-.399l-.415-.482a.853.853 0 0 1-.324.256.998.998 0 0 1-.413.085.708.708 0 0 1-.491-.172.77.77 0 0 1-.24-.463h1.954v-.37a1.91 1.91 0 0 0-.16-.812 1.194 1.194 0 0 0-.468-.532 1.409 1.409 0 0 0-.746-.188 1.43 1.43 0 0 0-.777.206 1.339 1.339 0 0 0-.503.573 1.92 1.92 0 0 0-.174.834v.11c0 .28.062.534.187.765.125.23.304.414.537.548.233.135.508.202.824.202Zm.434-1.919h-1.1a.894.894 0 0 1 .182-.453.475.475 0 0 1 .384-.165c.175 0 .307.05.396.148a.598.598 0 0 1 .138.4v.07Zm2.9 1.92c.265 0 .487-.067.666-.2a1.2 1.2 0 0 0 .403-.558c.09-.24.134-.518.134-.836v-.06c0-.314-.045-.59-.134-.827a1.196 1.196 0 0 0-.406-.557 1.09 1.09 0 0 0-.668-.201.917.917 0 0 0-.735.329V43.77h-.863v4.434h.775l.04-.332c.196.26.459.39.788.39Zm-.217-.705c-.257 0-.431-.102-.523-.306v-1.218c.094-.204.266-.306.517-.306.21 0 .356.08.439.237.083.158.124.372.124.644v.06c0 .289-.04.51-.12.661-.08.152-.225.228-.437.228Zm2.38-2.837a.489.489 0 0 0 .35-.126.423.423 0 0 0 .133-.321.423.423 0 0 0-.133-.322.489.489 0 0 0-.35-.126.485.485 0 0 0-.347.126.423.423 0 0 0-.133.322c0 .13.044.238.133.321a.485.485 0 0 0 .347.126Zm.437 3.484V45.08h-.866v3.123h.866Zm1.728.057c.19 0 .36-.027.509-.08v-.656a1.23 1.23 0 0 1-.24.02c-.114 0-.195-.022-.243-.067-.047-.045-.071-.13-.071-.253v-1.51h.52v-.634h-.52v-.774h-.863v.774h-.437v.635h.437v1.61c0 .624.303.935.908.935Zm2.097 0c.263 0 .494-.041.693-.124.2-.082.353-.196.46-.342a.806.806 0 0 0 .162-.492.799.799 0 0 0-.15-.5 1 1 0 0 0-.405-.307 2.916 2.916 0 0 0-.62-.18c-.203-.038-.348-.086-.432-.141-.085-.056-.128-.13-.128-.22a.28.28 0 0 1 .113-.23.472.472 0 0 1 .302-.09c.152 0 .265.035.34.105.074.07.111.168.111.293h.863a.894.894 0 0 0-.16-.524 1.046 1.046 0 0 0-.457-.358 1.738 1.738 0 0 0-.694-.128c-.252 0-.472.044-.66.133a1.039 1.039 0 0 0-.433.355c-.1.148-.15.31-.15.488 0 .479.366.797 1.097.955.166.036.294.073.384.11a.49.49 0 0 1 .189.116.226.226 0 0 1 .053.152.27.27 0 0 1-.119.23.575.575 0 0 1-.339.085.652.652 0 0 1-.388-.109c-.101-.072-.154-.183-.16-.333h-.814a.91.91 0 0 0 .158.505c.106.162.26.294.463.397.203.103.443.154.721.154Z"/><path fill="#D8D8D8" d="M19.82 57.039h150.92v1H19.82zm0 21.623h150.92v1H19.82zm0 20.642h150.92v1H19.82z"/></g></g></svg>