<svg xmlns="http://www.w3.org/2000/svg" width="62" height="62" fill="none"><circle cx="31" cy="31" r="31" fill="#1A3B8B"/><path fill="#BADEFC" d="M43.926 19.062c.5.003.996.065 1.48.186V3.546a29.774 29.774 0 0 0-2.96-1.356v17.058a6.202 6.202 0 0 1 1.48-.186ZM42.445 30.73v29.018a31.878 31.878 0 0 0 2.962-1.348V30.73c-.97.26-1.992.26-2.962 0Z"/><path fill="#fff" d="M49.698 23.663a5.95 5.95 0 0 0-4.3-4.433 5.984 5.984 0 0 0-2.962 0 5.931 5.931 0 0 0-4.433 5.56 1.315 1.315 0 0 0 0 .186 5.923 5.923 0 0 0 4.433 5.736c.97.26 1.992.26 2.962 0a5.923 5.923 0 0 0 4.3-7.093v.044Z"/><path fill="#4F6EF7" d="M49.65 23.663a5.835 5.835 0 0 1-.187 3.272l8.29 4.504 3.662-6.41a31.494 31.494 0 0 0-1.09-4.06l-3.698 6.516-6.977-3.822ZM.346 32.405l5.381 5.373 5.56-9.753 8.972 16.456 6.392-12.785 5.604 4.202 6.649-7.678a5.923 5.923 0 0 1-.958-3.227 1.315 1.315 0 0 1 0-.186L31.812 31.9l-6.206-4.682-5.461 10.906L11.35 21.97 5.08 32.946l-3.502-3.502H0v2.961h.346Z"/></svg>