<svg xmlns="http://www.w3.org/2000/svg" width="60" height="59" fill="none"><ellipse cx="30" cy="29.478" fill="#214497" rx="30" ry="29.348" transform="rotate(180 30 29.478)"/><mask id="a" width="60" height="59" x="0" y="0" maskUnits="userSpaceOnUse" style="mask-type:luminance"><ellipse cx="30" cy="29.478" fill="#fff" rx="30" ry="29.348" transform="rotate(180 30 29.478)"/></mask><g mask="url(#a)"><ellipse cx="41.333" cy="43.174" fill="#1A2C57" rx="32" ry="31.304" transform="rotate(180 41.333 43.174)"/><path fill="#BADEFC" d="M40.318 41.87H20a1.02 1.02 0 0 1-.939-.613.978.978 0 0 1 .22-1.084l8.723-8.532-29.04-28.409a.978.978 0 0 1 0-1.405L.402.422a1.03 1.03 0 0 1 1.436 0l29.04 28.408 8.722-8.532a1.023 1.023 0 0 1 1.108-.216.995.995 0 0 1 .626.918v19.876c0 .548-.455.994-1.015.994Z"/><path fill="#4F6EF7" d="M27.683 14.478h-6.35a.318.318 0 0 1-.293-.191.306.306 0 0 1 .069-.339l2.726-2.666-9.075-8.878a.305.305 0 0 1 0-.439l.449-.44a.322.322 0 0 1 .449.001l9.074 8.877 2.726-2.666a.32.32 0 0 1 .542.22v6.21a.314.314 0 0 1-.317.311Z" opacity=".64"/><path fill="#4F6EF7" d="M15.556 34.044h-8.89a.445.445 0 0 1-.41-.269.428.428 0 0 1 .096-.474l3.816-3.733L-2.536 17.14a.428.428 0 0 1 0-.615l.628-.615a.45.45 0 0 1 .629 0l12.704 12.43 3.816-3.733a.448.448 0 0 1 .759.307v8.696c0 .24-.2.435-.444.435Z"/></g></svg>