<svg xmlns="http://www.w3.org/2000/svg" xmlns:xlink="http://www.w3.org/1999/xlink" width="190" height="196"><defs><path id="a" d="M4.924 0h162.152A4.924 4.924 0 0 1 172 4.924v168.152a4.924 4.924 0 0 1-4.924 4.924H4.924A4.924 4.924 0 0 1 0 173.076V4.924A4.924 4.924 0 0 1 4.924 0z"/><path id="c" d="M8.763 17.527A8.763 8.763 0 1 0 8.763 0a8.763 8.763 0 0 0 0 17.527z"/><filter id="b" width="115.7%" height="115.2%" x="-7.8%" y="-7.6%" filterUnits="objectBoundingBox"><feMorphology in="SourceAlpha" operator="dilate" radius="1" result="shadowSpreadOuter1"/><feOffset in="shadowSpreadOuter1" result="shadowOffsetOuter1"/><feGaussianBlur in="shadowOffsetOuter1" result="shadowBlurOuter1" stdDeviation="3.5"/><feColorMatrix in="shadowBlurOuter1" values="0 0 0 0 0 0 0 0 0 0 0 0 0 0 0 0 0 0 0.05 0"/></filter></defs><g fill="none" fill-rule="evenodd"><g transform="translate(9 9)"><use xlink:href="#a" fill="#000" filter="url(#b)"/><use xlink:href="#a" fill="#FFF"/></g><path fill="#E6E6E6" d="M168.02 29.01a8.01 8.01 0 1 1-16.02 0 8.01 8.01 0 0 1 16.02 0"/><path fill="#5173F4" d="M168.02 29.01a8.01 8.01 0 0 1-16.02 0v-.001l7.98-.029.029-7.98h.001a8.01 8.01 0 0 1 8.01 8.01"/><path fill="#FFF" d="M166.76 29.01a6.75 6.75 0 1 1-13.5 0 6.75 6.75 0 0 1 13.5 0"/><path fill="#4F6EF7" d="M160.07 32.16h-.12a.39.39 0 0 1-.39-.39v-2.94a.39.39 0 0 1 .39-.39h.12a.39.39 0 0 1 .39.39v2.94a.39.39 0 0 1-.39.39m.63-5.13a.69.69 0 1 1-1.38 0 .69.69 0 0 1 1.38 0"/><path fill="#565D6E" fill-rule="nonzero" d="M74.296 35.424v-1.317c.824-.09 1.472-.368 1.942-.835.471-.466.706-1.088.706-1.868 0-.54-.11-.998-.33-1.375a2.8 2.8 0 0 0-.94-.949c-.405-.257-.925-.5-1.56-.73-.415-.153-.74-.305-.973-.456-.235-.15-.402-.317-.504-.5a1.337 1.337 0 0 1-.152-.658c0-.41.113-.736.338-.977.225-.24.563-.361 1.014-.361.436 0 .778.16 1.023.48.246.32.368.76.368 1.324h1.683c0-.9-.219-1.624-.656-2.169-.437-.545-1.042-.871-1.817-.98v-1.486h-1.081v1.473a3.248 3.248 0 0 0-1.345.44 2.435 2.435 0 0 0-.888.931c-.21.388-.314.832-.314 1.331 0 .545.113 1.007.34 1.386.228.378.547.695.957.952.41.257.93.493 1.56.71.582.202.994.429 1.237.679.243.25.365.566.365.949 0 .41-.134.734-.402.973-.268.238-.648.358-1.139.358-.454 0-.837-.136-1.148-.409-.31-.272-.466-.724-.466-1.355H70.43c0 .672.128 1.231.382 1.68a2.58 2.58 0 0 0 1.01 1.016c.419.23.885.372 1.399.426v1.317h1.074zm8.553-1.432v-9.871h-.209l-3.871 1.419v1.405l2.398-.804v7.851h1.682zm6.426.135c.635 0 1.205-.114 1.71-.341.504-.228.9-.56 1.188-.997.288-.437.433-.955.433-1.554 0-.527-.136-.993-.406-1.398-.27-.406-.687-.705-1.25-.899.482-.216.854-.52 1.115-.912s.392-.795.392-1.21c0-.603-.132-1.114-.395-1.533a2.45 2.45 0 0 0-1.112-.946c-.477-.211-1.036-.317-1.675-.317-.595 0-1.132.116-1.612.348a2.75 2.75 0 0 0-1.125.962 2.46 2.46 0 0 0-.405 1.385h1.682c0-.27.065-.506.193-.709a1.28 1.28 0 0 1 .53-.47c.225-.11.48-.165.764-.165.486 0 .853.126 1.101.378.248.253.372.608.372 1.068 0 .455-.14.817-.42 1.088-.279.27-.686.405-1.222.405h-.98v1.324h.98c.567 0 1.008.13 1.32.392.314.261.47.662.47 1.203 0 .49-.143.871-.429 1.141-.286.27-.683.406-1.192.406-.316 0-.593-.06-.831-.18a1.313 1.313 0 0 1-.554-.506 1.426 1.426 0 0 1-.196-.746h-1.683c0 .59.148 1.094.443 1.513.295.419.69.735 1.182.95.494.213 1.03.32 1.612.32zm8.222 0c.658 0 1.229-.146 1.713-.439a2.903 2.903 0 0 0 1.111-1.206 3.778 3.778 0 0 0 .385-1.72c0-.594-.103-1.141-.31-1.641a2.734 2.734 0 0 0-.946-1.203c-.424-.302-.942-.453-1.554-.453-.406 0-.78.07-1.122.21a2.47 2.47 0 0 0-.885.608c.063-.545.22-1.026.47-1.443a2.65 2.65 0 0 1 1.07-.99c.465-.243 1.034-.364 1.71-.364h.115V24.1h-.203c-1.121 0-2.047.245-2.777.736a4.278 4.278 0 0 0-1.601 1.976c-.338.827-.507 1.758-.507 2.794v.656c0 .702.132 1.347.396 1.935a3.322 3.322 0 0 0 1.151 1.406c.505.349 1.1.523 1.784.523zm-.02-1.358c-.302 0-.576-.09-.821-.27-.245-.18-.44-.447-.584-.8-.145-.354-.217-.781-.217-1.281v-.52c.126-.311.336-.568.629-.77.292-.203.621-.305.986-.305.329 0 .612.088.848.264.237.176.416.413.537.713.122.3.183.634.183 1.003 0 .383-.063.723-.19 1.02-.126.298-.306.53-.54.696-.234.167-.511.25-.831.25zm5.675 1.304c.297 0 .534-.087.71-.26a.887.887 0 0 0 .263-.659.906.906 0 0 0-.263-.669c-.176-.175-.413-.263-.71-.263-.302 0-.54.088-.716.263a.906.906 0 0 0-.263.67c0 .265.087.485.263.658.176.173.414.26.716.26zm7.216-.081v-9.871h-.21l-3.87 1.419v1.405l2.398-.804v7.851h1.682zm10.026 0v-1.351h-4.526l2.135-2.284c.657-.689 1.157-1.32 1.5-1.895.342-.574.513-1.15.513-1.726 0-.554-.122-1.035-.365-1.443a2.397 2.397 0 0 0-1.06-.942c-.465-.221-1.023-.331-1.676-.331-.69 0-1.286.14-1.79.419a2.89 2.89 0 0 0-1.156 1.135 3.209 3.209 0 0 0-.399 1.587h1.683c0-.54.14-.974.422-1.3.282-.327.688-.49 1.22-.49.45 0 .802.142 1.057.426.254.283.382.655.382 1.114 0 .226-.042.45-.125.676a3.435 3.435 0 0 1-.423.76c-.198.282-.473.618-.824 1.01l-3.202 3.473v1.162h6.634z"/><g transform="translate(41.368 50.278)"><path fill="#F7931A" d="M22.14 0a3.69 3.69 0 0 1 3.689 3.69v18.45a3.69 3.69 0 0 1-3.69 3.689H3.69A3.69 3.69 0 0 1 0 22.139V3.69A3.69 3.69 0 0 1 3.69 0h18.45zm-1.846 3.69H5.534A1.845 1.845 0 0 0 3.69 5.535v14.76c0 1.018.826 1.844 1.845 1.844h14.76a1.845 1.845 0 0 0 1.844-1.845V5.534a1.845 1.845 0 0 0-1.845-1.844z"/><rect width="11.465" height="11.462" x="7.05" y="7.114" fill="#3E414C" rx="1.845"/></g><g transform="translate(41.368 132.377)"><path fill="#F7931A" d="M22.14 0a3.69 3.69 0 0 1 3.689 3.69v18.45a3.69 3.69 0 0 1-3.69 3.689H3.69A3.69 3.69 0 0 1 0 22.139V3.69A3.69 3.69 0 0 1 3.69 0h18.45zm-1.846 3.69H5.534A1.845 1.845 0 0 0 3.69 5.535v14.76c0 1.018.826 1.844 1.845 1.844h14.76a1.845 1.845 0 0 0 1.844-1.845V5.534a1.845 1.845 0 0 0-1.845-1.844z"/><rect width="11.465" height="11.462" x="7.05" y="7.114" fill="#3E414C" rx="1.845"/></g><g transform="translate(123.467 50.278)"><path fill="#F7931A" d="M22.14 0a3.69 3.69 0 0 1 3.689 3.69v18.45a3.69 3.69 0 0 1-3.69 3.689H3.69A3.69 3.69 0 0 1 0 22.139V3.69A3.69 3.69 0 0 1 3.69 0h18.45zm-1.846 3.69H5.534A1.845 1.845 0 0 0 3.69 5.535v14.76c0 1.018.826 1.844 1.845 1.844h14.76a1.845 1.845 0 0 0 1.844-1.845V5.534a1.845 1.845 0 0 0-1.845-1.844z"/><rect width="11.465" height="11.462" x="7.05" y="7.114" fill="#3E414C" rx="1.845"/></g><g fill="#3E414C" transform="translate(41.368 50.278)"><rect width="3.708" height="3.707" y="29.658" rx="1.854"/><rect width="3.708" height="3.707" y="33.366" rx="1.854"/><rect width="3.708" height="3.707" y="37.073" rx="1.854"/><rect width="3.708" height="3.707" y="40.78" rx="1.854"/><rect width="3.708" height="3.707" y="48.195" rx="1.854"/><rect width="3.708" height="3.707" y="51.902" rx="1.854"/><rect width="3.708" height="3.707" y="59.316" rx="1.854"/><rect width="3.708" height="3.707" x="3.708" y="33.366" rx="1.854"/><rect width="3.708" height="3.707" x="3.708" y="40.78" rx="1.854"/><rect width="3.708" height="3.707" x="3.708" y="44.487" rx="1.854"/><rect width="3.708" height="3.707" x="3.708" y="51.902" rx="1.854"/><rect width="3.708" height="3.707" x="3.708" y="59.316" rx="1.854"/><rect width="3.708" height="3.707" x="7.417" y="33.366" rx="1.854"/><rect width="3.708" height="3.707" x="7.417" y="37.073" rx="1.854"/><rect width="3.708" height="3.707" x="7.417" y="44.487" rx="1.854"/><rect width="3.708" height="3.707" x="7.417" y="51.902" rx="1.854"/><rect width="3.708" height="3.707" x="7.417" y="55.609" rx="1.854"/><rect width="3.708" height="3.707" x="7.417" y="66.731" rx="1.854"/><rect width="3.708" height="3.707" x="7.417" y="70.438" rx="1.854"/><rect width="3.708" height="3.707" x="11.07" y="29.519" rx="1.854"/><rect width="3.708" height="3.707" x="11.125" y="44.487" rx="1.854"/><rect width="3.708" height="3.707" x="11.125" y="63.024" rx="1.854"/><rect width="3.708" height="3.707" x="11.125" y="66.731" rx="1.854"/><rect width="3.708" height="3.707" x="11.125" y="70.438" rx="1.854"/><rect width="3.708" height="3.707" x="11.125" y="74.146" rx="1.854"/><rect width="3.708" height="3.707" x="14.833" y="29.658" rx="1.854"/><rect width="3.708" height="3.707" x="14.833" y="44.487" rx="1.854"/><rect width="3.708" height="3.707" x="14.833" y="48.195" rx="1.854"/><rect width="3.708" height="3.707" x="14.833" y="51.902" rx="1.854"/><rect width="3.708" height="3.707" x="14.833" y="55.609" rx="1.854"/><rect width="3.708" height="3.707" x="14.833" y="70.438" rx="1.854"/><rect width="3.708" height="3.707" x="14.833" y="74.146" rx="1.854"/><rect width="3.708" height="3.707" x="18.541" y="29.658" rx="1.854"/><rect width="3.708" height="3.707" x="18.541" y="33.366" rx="1.854"/><rect width="3.708" height="3.707" x="18.541" y="44.487" rx="1.854"/><rect width="3.708" height="3.707" x="18.541" y="48.195" rx="1.854"/><rect width="3.708" height="3.707" x="18.541" y="55.609" rx="1.854"/><rect width="3.708" height="3.707" x="18.541" y="63.024" rx="1.854"/><rect width="3.708" height="3.707" x="18.541" y="66.731" rx="1.854"/><rect width="3.708" height="3.707" x="18.541" y="70.438" rx="1.854"/><rect width="3.708" height="3.707" x="18.541" y="74.146" rx="1.854"/><rect width="3.708" height="3.707" x="22.25" y="29.658" rx="1.854"/><rect width="3.708" height="3.707" x="22.25" y="37.073" rx="1.854"/><rect width="3.708" height="3.707" x="22.25" y="44.487" rx="1.854"/><rect width="3.708" height="3.707" x="22.25" y="51.902" rx="1.854"/><rect width="3.708" height="3.707" x="22.25" y="59.316" rx="1.854"/><rect width="3.708" height="3.707" x="22.25" y="66.731" rx="1.854"/><rect width="3.708" height="3.707" x="22.25" y="74.146" rx="1.854"/><rect width="3.708" height="3.707" x="25.958" y="29.658" rx="1.854"/><rect width="3.708" height="3.707" x="25.958" y="33.366" rx="1.854"/><rect width="3.708" height="3.707" x="25.958" y="40.78" rx="1.854"/><rect width="3.708" height="3.707" x="25.958" y="55.609" rx="1.854"/><rect width="3.708" height="3.707" x="25.958" y="59.316" rx="1.854"/><rect width="3.708" height="3.707" x="25.958" y="63.024" rx="1.854"/><rect width="3.708" height="3.707" x="25.958" y="66.731" rx="1.854"/><rect width="3.708" height="3.707" x="25.958" y="74.146" rx="1.854"/><path d="M31.52 0a1.854 1.854 0 0 1 0 3.707 1.854 1.854 0 1 1 0-3.707z"/><path d="M31.52 3.707a1.854 1.854 0 0 1 0 3.708 1.854 1.854 0 1 1 0-3.708z"/><path d="M31.52 7.415a1.854 1.854 0 0 1 0 3.707 1.854 1.854 0 1 1 0-3.707zm0 7.415a1.854 1.854 0 1 1 0 3.706 1.854 1.854 0 0 1 0-3.707zm0 7.414a1.854 1.854 0 1 1 0 3.707 1.854 1.854 0 0 1 0-3.707zm0 7.414a1.854 1.854 0 0 1 0 3.708 1.854 1.854 0 0 1 0-3.708zm0 22.244a1.854 1.854 0 0 1 0 3.707 1.854 1.854 0 0 1 0-3.707z"/><path d="M31.52 55.61a1.854 1.854 0 1 1 0 3.706 1.854 1.854 0 0 1 0-3.707z"/><path d="M31.52 59.316a1.854 1.854 0 0 1 0 3.708 1.854 1.854 0 1 1 0-3.708zm0 11.122a1.854 1.854 0 0 1 0 3.708 1.854 1.854 0 0 1 0-3.708zm0 7.415a1.854 1.854 0 0 1 0 3.707 1.854 1.854 0 0 1 0-3.707zm0 3.707a1.854 1.854 0 1 1 0 3.707 1.854 1.854 0 0 1 0-3.707z"/><path d="M31.52 85.267a1.854 1.854 0 0 1 0 3.708 1.854 1.854 0 1 1 0-3.708zm0 3.708a1.854 1.854 0 0 1 0 3.707 1.854 1.854 0 0 1 0-3.707zm0 3.707a1.854 1.854 0 0 1 0 3.707 1.854 1.854 0 1 1 0-3.707zm0 11.122a1.854 1.854 0 0 1 0 3.707 1.854 1.854 0 0 1 0-3.707z"/><rect width="3.708" height="3.707" x="33.375" y="7.415" rx="1.854"/><rect width="3.708" height="3.707" x="33.375" y="11.122" rx="1.854"/><rect width="3.708" height="3.707" x="33.375" y="25.951" rx="1.854"/><rect width="3.708" height="3.707" x="33.375" y="33.366" rx="1.854"/><rect width="3.708" height="3.707" x="33.375" y="37.073" rx="1.854"/><rect width="3.708" height="3.707" x="33.375" y="44.487" rx="1.854"/><rect width="3.708" height="3.707" x="33.375" y="48.195" rx="1.854"/><rect width="3.708" height="3.707" x="33.375" y="51.902" rx="1.854"/><rect width="3.708" height="3.707" x="33.375" y="55.609" rx="1.854"/><rect width="3.708" height="3.707" x="33.375" y="59.316" rx="1.854"/><rect width="3.708" height="3.707" x="33.375" y="66.731" rx="1.854"/><rect width="3.708" height="3.707" x="33.375" y="70.438" rx="1.854"/><rect width="3.708" height="3.707" x="33.375" y="74.146" rx="1.854"/><rect width="3.708" height="3.707" x="33.375" y="77.853" rx="1.854"/><rect width="3.708" height="3.707" x="33.375" y="88.975" rx="1.854"/><rect width="3.708" height="3.707" x="33.375" y="92.682" rx="1.854"/><rect width="3.708" height="3.707" x="33.375" y="100.097" rx="1.854"/><rect width="3.708" height="3.707" x="33.375" y="103.804" rx="1.854"/><rect width="3.708" height="3.707" x="37.083" rx="1.854"/><rect width="3.708" height="3.707" x="37.083" y="7.415" rx="1.854"/><rect width="3.708" height="3.707" x="37.083" y="22.244" rx="1.854"/><rect width="3.708" height="3.707" x="37.083" y="25.951" rx="1.854"/><rect width="3.708" height="3.707" x="37.083" y="29.658" rx="1.854"/><rect width="3.708" height="3.707" x="37.083" y="37.073" rx="1.854"/><rect width="3.708" height="3.707" x="37.083" y="40.78" rx="1.854"/><rect width="3.708" height="3.707" x="37.083" y="44.487" rx="1.854"/><rect width="3.708" height="3.707" x="37.083" y="48.195" rx="1.854"/><rect width="3.708" height="3.707" x="37.083" y="55.609" rx="1.854"/><rect width="3.708" height="3.707" x="37.083" y="63.024" rx="1.854"/><rect width="3.708" height="3.707" x="37.083" y="70.438" rx="1.854"/><rect width="3.708" height="3.707" x="37.083" y="74.146" rx="1.854"/><rect width="3.708" height="3.707" x="37.083" y="77.853" rx="1.854"/><rect width="3.708" height="3.707" x="37.083" y="88.975" rx="1.854"/><rect width="3.708" height="3.707" x="37.083" y="92.682" rx="1.854"/><rect width="3.708" height="3.707" x="37.083" y="96.389" rx="1.854"/><rect width="3.708" height="3.707" x="37.083" y="100.097" rx="1.854"/><rect width="3.708" height="3.707" x="40.791" rx="1.854"/><rect width="3.708" height="3.707" x="40.791" y="14.829" rx="1.854"/><rect width="3.708" height="3.707" x="40.791" y="25.951" rx="1.854"/><rect width="3.708" height="3.707" x="40.791" y="66.731" rx="1.854"/><rect width="3.708" height="3.707" x="40.791" y="81.56" rx="1.854"/><rect width="3.708" height="3.707" x="40.791" y="88.975" rx="1.854"/><rect width="3.708" height="3.707" x="40.791" y="96.389" rx="1.854"/><rect width="3.708" height="3.707" x="44.499" y="11.122" rx="1.854"/><rect width="3.708" height="3.707" x="44.499" y="22.244" rx="1.854"/><rect width="3.708" height="3.707" x="44.499" y="29.658" rx="1.854"/><rect width="3.708" height="3.707" x="44.499" y="33.366" rx="1.854"/><rect width="3.708" height="3.707" x="44.499" y="37.073" rx="1.854"/><rect width="3.708" height="3.707" x="44.499" y="70.438" rx="1.854"/><rect width="3.708" height="3.707" x="44.499" y="74.146" rx="1.854"/><rect width="3.708" height="3.707" x="44.499" y="81.56" rx="1.854"/><rect width="3.708" height="3.707" x="44.499" y="92.682" rx="1.854"/><rect width="3.708" height="3.707" x="44.499" y="96.389" rx="1.854"/><rect width="3.708" height="3.707" x="44.499" y="100.097" rx="1.854"/><rect width="3.708" height="3.707" x="44.499" y="103.804" rx="1.854"/><rect width="3.708" height="3.707" x="48.208" y="25.951" rx="1.854"/><rect width="3.708" height="3.707" x="48.208" y="29.658" rx="1.854"/><rect width="3.708" height="3.707" x="48.208" y="33.366" rx="1.854"/><rect width="3.708" height="3.707" x="48.208" y="37.073" rx="1.854"/><rect width="3.708" height="3.707" x="48.208" y="74.146" rx="1.854"/><rect width="3.708" height="3.707" x="48.208" y="88.975" rx="1.854"/><rect width="3.708" height="3.707" x="48.208" y="92.682" rx="1.854"/><rect width="3.708" height="3.707" x="48.208" y="100.097" rx="1.854"/><rect width="3.708" height="3.707" x="51.916" y="14.829" rx="1.854"/><rect width="3.708" height="3.707" x="51.916" y="22.244" rx="1.854"/><rect width="3.708" height="3.707" x="51.916" y="70.438" rx="1.854"/><rect width="3.708" height="3.707" x="51.916" y="74.146" rx="1.854"/><rect width="3.708" height="3.707" x="51.916" y="77.853" rx="1.854"/><rect width="3.708" height="3.707" x="51.916" y="81.56" rx="1.854"/><rect width="3.708" height="3.707" x="51.916" y="85.267" rx="1.854"/><rect width="3.708" height="3.707" x="51.916" y="88.975" rx="1.854"/><rect width="3.708" height="3.707" x="51.916" y="96.389" rx="1.854"/><rect width="3.708" height="3.707" x="55.624" rx="1.854"/><rect width="3.708" height="3.707" x="55.624" y="7.415" rx="1.854"/><rect width="3.708" height="3.707" x="55.624" y="14.829" rx="1.854"/><rect width="3.708" height="3.707" x="55.624" y="18.536" rx="1.854"/><rect width="3.708" height="3.707" x="55.624" y="25.951" rx="1.854"/><rect width="3.708" height="3.707" x="55.624" y="37.073" rx="1.854"/><rect width="3.708" height="3.707" x="55.624" y="66.731" rx="1.854"/><rect width="3.708" height="3.707" x="55.624" y="74.146" rx="1.854"/><rect width="3.708" height="3.707" x="55.624" y="85.267" rx="1.854"/><rect width="3.708" height="3.707" x="55.624" y="96.389" rx="1.854"/><rect width="3.708" height="3.707" x="55.624" y="103.804" rx="1.854"/><rect width="3.708" height="3.707" x="59.333" rx="1.854"/><rect width="3.708" height="3.707" x="59.333" y="3.707" rx="1.854"/><rect width="3.708" height="3.707" x="59.333" y="7.415" rx="1.854"/><rect width="3.708" height="3.707" x="59.333" y="11.122" rx="1.854"/><rect width="3.708" height="3.707" x="59.333" y="14.829" rx="1.854"/><rect width="3.708" height="3.707" x="59.333" y="18.536" rx="1.854"/><rect width="3.708" height="3.707" x="59.333" y="22.244" rx="1.854"/><rect width="3.708" height="3.707" x="59.333" y="25.951" rx="1.854"/><rect width="3.708" height="3.707" x="59.333" y="33.366" rx="1.854"/><rect width="3.708" height="3.707" x="59.333" y="37.073" rx="1.854"/><rect width="3.708" height="3.707" x="59.333" y="74.146" rx="1.854"/><rect width="3.708" height="3.707" x="59.333" y="100.097" rx="1.854"/><rect width="3.708" height="3.707" x="63.041" rx="1.854"/><rect width="3.708" height="3.707" x="63.041" y="11.122" rx="1.854"/><rect width="3.708" height="3.707" x="63.041" y="29.658" rx="1.854"/><rect width="3.708" height="3.707" x="66.749" y="40.78" rx="1.854"/><rect width="3.708" height="3.707" x="66.749" y="44.487" rx="1.854"/><rect width="3.708" height="3.707" x="63.041" y="66.731" rx="1.854"/><rect width="3.708" height="3.707" x="63.041" y="74.146" rx="1.854"/><rect width="3.708" height="3.707" x="63.041" y="85.267" rx="1.854"/><rect width="3.708" height="3.707" x="63.041" y="88.975" rx="1.854"/><rect width="3.708" height="3.707" x="63.041" y="92.682" rx="1.854"/><rect width="3.708" height="3.707" x="63.041" y="96.389" rx="1.854"/><rect width="3.708" height="3.707" x="63.041" y="100.097" rx="1.854"/><rect width="3.708" height="3.707" x="63.041" y="103.804" rx="1.854"/><rect width="3.708" height="3.707" x="66.749" rx="1.854"/><rect width="3.708" height="3.707" x="66.749" y="3.707" rx="1.854"/><rect width="3.708" height="3.707" x="66.749" y="11.122" rx="1.854"/><rect width="3.708" height="3.707" x="66.749" y="22.244" rx="1.854"/><rect width="3.708" height="3.707" x="66.749" y="37.073" rx="1.854"/><rect width="3.708" height="3.707" x="66.749" y="66.731" rx="1.854"/><rect width="3.708" height="3.707" x="66.749" y="81.56" rx="1.854"/><rect width="3.708" height="3.707" x="66.749" y="85.267" rx="1.854"/><rect width="3.708" height="3.707" x="66.749" y="88.975" rx="1.854"/><rect width="3.708" height="3.707" x="66.749" y="92.682" rx="1.854"/><rect width="3.708" height="3.707" x="66.749" y="100.097" rx="1.854"/><path d="M72.311 3.707h.001a1.854 1.854 0 1 1 0 3.708h-.001a1.854 1.854 0 1 1 0-3.708zm0 11.123h.001a1.854 1.854 0 1 1 0 3.706h-.001a1.854 1.854 0 0 1 0-3.707zm0 11.12h.001a1.854 1.854 0 0 1 0 3.708h-.001a1.854 1.854 0 1 1 0-3.707zm0 7.416h.001a1.854 1.854 0 0 1 0 3.707h-.001a1.854 1.854 0 1 1 0-3.707zm0 7.414h.001a1.854 1.854 0 1 1 0 3.707h-.001a1.854 1.854 0 1 1 0-3.707z"/><path d="M72.311 44.487h.001a1.854 1.854 0 0 1 0 3.708h-.001a1.854 1.854 0 0 1 0-3.708zm0 7.415h.001a1.854 1.854 0 0 1 0 3.707h-.001a1.854 1.854 0 0 1 0-3.707z"/><path d="M72.311 55.61h.001a1.854 1.854 0 1 1 0 3.706h-.001a1.854 1.854 0 0 1 0-3.707z"/><path d="M72.311 59.316h.001a1.854 1.854 0 0 1 0 3.708h-.001a1.854 1.854 0 1 1 0-3.708z"/><path d="M72.311 63.024h.001a1.854 1.854 0 0 1 0 3.707h-.001a1.854 1.854 0 0 1 0-3.707z"/><path d="M72.311 66.731h.001a1.854 1.854 0 0 1 0 3.707h-.001a1.854 1.854 0 1 1 0-3.707z"/><path d="M72.311 70.438h.001a1.854 1.854 0 0 1 0 3.708h-.001a1.854 1.854 0 0 1 0-3.708zm0 11.122h.001a1.854 1.854 0 1 1 0 3.707h-.001a1.854 1.854 0 0 1 0-3.707z"/><path d="M72.311 85.267h.001a1.854 1.854 0 0 1 0 3.708h-.001a1.854 1.854 0 1 1 0-3.708zm0 3.708h.001a1.854 1.854 0 0 1 0 3.707h-.001a1.854 1.854 0 0 1 0-3.707zm0 14.829h.001a1.854 1.854 0 0 1 0 3.707h-.001a1.854 1.854 0 0 1 0-3.707zm3.709-85.268a1.854 1.854 0 0 1 0 3.708 1.854 1.854 0 0 1 0-3.708z"/><path d="M76.02 22.244a1.854 1.854 0 1 1 0 3.707 1.854 1.854 0 0 1 0-3.707z"/><path d="M76.02 25.95a1.854 1.854 0 0 1 0 3.708 1.854 1.854 0 1 1 0-3.707zm0 11.123a1.854 1.854 0 0 1 0 3.707 1.854 1.854 0 0 1 0-3.707z"/><path d="M76.02 40.78a1.854 1.854 0 1 1 0 3.707 1.854 1.854 0 1 1 0-3.707zm0 11.122a1.854 1.854 0 0 1 0 3.707 1.854 1.854 0 0 1 0-3.707zm0 7.414a1.854 1.854 0 0 1 0 3.708 1.854 1.854 0 1 1 0-3.708zm0 14.83a1.854 1.854 0 1 1 0 3.707 1.854 1.854 0 0 1 0-3.707z"/><path d="M76.02 77.853a1.854 1.854 0 0 1 0 3.707 1.854 1.854 0 0 1 0-3.707zm0 3.707a1.854 1.854 0 1 1 0 3.707 1.854 1.854 0 0 1 0-3.707z"/><path d="M76.02 85.267a1.854 1.854 0 0 1 0 3.708 1.854 1.854 0 1 1 0-3.708zm0 3.708a1.854 1.854 0 0 1 0 3.707 1.854 1.854 0 0 1 0-3.707zm0 7.415a1.854 1.854 0 0 1 0 3.707 1.854 1.854 0 0 1 0-3.708zm0 7.414a1.854 1.854 0 0 1 0 3.707 1.854 1.854 0 0 1 0-3.707zm3.708-74.146a1.854 1.854 0 0 1 0 3.708 1.854 1.854 0 0 1 0-3.708zm0 7.415a1.854 1.854 0 0 1 0 3.707 1.854 1.854 0 0 1 0-3.707z"/><path d="M79.728 40.78a1.854 1.854 0 1 1 0 3.707 1.854 1.854 0 1 1 0-3.707zm0 7.415a1.854 1.854 0 1 1 0 3.707 1.854 1.854 0 0 1 0-3.707z"/><path d="M79.728 51.902a1.854 1.854 0 0 1 0 3.707 1.854 1.854 0 0 1 0-3.707z"/><path d="M79.728 55.61a1.854 1.854 0 1 1 0 3.706 1.854 1.854 0 0 1 0-3.707z"/><path d="M79.728 59.316a1.854 1.854 0 0 1 0 3.708 1.854 1.854 0 1 1 0-3.708zm0 14.83a1.854 1.854 0 1 1 0 3.707 1.854 1.854 0 0 1 0-3.707zm0 14.829a1.854 1.854 0 0 1 0 3.707 1.854 1.854 0 0 1 0-3.707zm0 3.707a1.854 1.854 0 0 1 0 3.707 1.854 1.854 0 1 1 0-3.707z"/><path d="M79.728 96.39a1.854 1.854 0 0 1 0 3.707 1.854 1.854 0 0 1 0-3.708z"/><rect width="3.708" height="3.707" x="81.582" y="40.78" rx="1.854"/><rect width="3.708" height="3.707" x="81.582" y="44.487" rx="1.854"/><rect width="3.708" height="3.707" x="81.582" y="48.195" rx="1.854"/><rect width="3.708" height="3.707" x="81.582" y="55.609" rx="1.854"/><rect width="3.708" height="3.707" x="81.582" y="70.438" rx="1.854"/><rect width="3.708" height="3.707" x="81.582" y="74.146" rx="1.854"/><rect width="3.708" height="3.707" x="81.582" y="81.56" rx="1.854"/><rect width="3.708" height="3.707" x="81.582" y="88.975" rx="1.854"/><rect width="3.708" height="3.707" x="81.582" y="100.097" rx="1.854"/><rect width="3.708" height="3.707" x="81.582" y="103.804" rx="1.854"/><rect width="3.708" height="3.707" x="85.29" y="33.366" rx="1.854"/><rect width="3.708" height="3.707" x="85.29" y="37.073" rx="1.854"/><rect width="3.708" height="3.707" x="85.29" y="40.78" rx="1.854"/><rect width="3.708" height="3.707" x="85.29" y="48.195" rx="1.854"/><rect width="3.708" height="3.707" x="85.29" y="55.609" rx="1.854"/><rect width="3.708" height="3.707" x="85.29" y="74.146" rx="1.854"/><rect width="3.708" height="3.707" x="85.29" y="88.975" rx="1.854"/><rect width="3.708" height="3.707" x="85.29" y="96.389" rx="1.854"/><rect width="3.708" height="3.707" x="85.29" y="103.804" rx="1.854"/><rect width="3.708" height="3.707" x="88.999" y="29.658" rx="1.854"/><rect width="3.708" height="3.707" x="88.999" y="33.366" rx="1.854"/><rect width="3.708" height="3.707" x="88.999" y="37.073" rx="1.854"/><rect width="3.708" height="3.707" x="88.999" y="40.78" rx="1.854"/><rect width="3.708" height="3.707" x="88.999" y="48.195" rx="1.854"/><rect width="3.708" height="3.707" x="88.999" y="51.902" rx="1.854"/><rect width="3.708" height="3.707" x="88.999" y="55.609" rx="1.854"/><rect width="3.708" height="3.707" x="88.999" y="63.024" rx="1.854"/><rect width="3.708" height="3.707" x="88.999" y="66.731" rx="1.854"/><rect width="3.708" height="3.707" x="88.999" y="74.146" rx="1.854"/><rect width="3.708" height="3.707" x="88.999" y="77.853" rx="1.854"/><rect width="3.708" height="3.707" x="88.999" y="81.56" rx="1.854"/><rect width="3.708" height="3.707" x="88.999" y="85.267" rx="1.854"/><rect width="3.708" height="3.707" x="88.999" y="88.975" rx="1.854"/><rect width="3.708" height="3.707" x="88.999" y="96.389" rx="1.854"/><rect width="3.708" height="3.707" x="88.999" y="103.804" rx="1.854"/><rect width="3.708" height="3.707" x="92.707" y="40.78" rx="1.854"/><rect width="3.708" height="3.707" x="92.707" y="48.195" rx="1.854"/><rect width="3.708" height="3.707" x="92.707" y="59.316" rx="1.854"/><rect width="3.708" height="3.707" x="92.707" y="66.731" rx="1.854"/><rect width="3.708" height="3.707" x="92.707" y="70.438" rx="1.854"/><rect width="3.708" height="3.707" x="92.707" y="74.146" rx="1.854"/><rect width="3.708" height="3.707" x="92.707" y="77.853" rx="1.854"/><rect width="3.708" height="3.707" x="92.707" y="81.56" rx="1.854"/><rect width="3.708" height="3.707" x="92.707" y="88.975" rx="1.854"/><rect width="3.708" height="3.707" x="92.707" y="100.097" rx="1.854"/><rect width="3.708" height="3.707" x="96.415" y="29.658" rx="1.854"/><rect width="3.708" height="3.707" x="96.415" y="33.366" rx="1.854"/><rect width="3.708" height="3.707" x="96.415" y="37.073" rx="1.854"/><rect width="3.708" height="3.707" x="96.415" y="48.195" rx="1.854"/><rect width="3.708" height="3.707" x="96.415" y="51.902" rx="1.854"/><rect width="3.708" height="3.707" x="96.415" y="55.609" rx="1.854"/><rect width="3.708" height="3.707" x="96.415" y="63.024" rx="1.854"/><rect width="3.708" height="3.707" x="96.415" y="70.438" rx="1.854"/><rect width="3.708" height="3.707" x="96.415" y="74.146" rx="1.854"/><rect width="3.708" height="3.707" x="96.415" y="96.389" rx="1.854"/><rect width="3.708" height="3.707" x="96.415" y="100.097" rx="1.854"/><rect width="3.708" height="3.707" x="100.124" y="29.658" rx="1.854"/><rect width="3.708" height="3.707" x="100.124" y="33.366" rx="1.854"/><rect width="3.708" height="3.707" x="100.124" y="48.195" rx="1.854"/><rect width="3.708" height="3.707" x="100.124" y="63.024" rx="1.854"/><rect width="3.708" height="3.707" x="100.124" y="74.146" rx="1.854"/><rect width="3.708" height="3.707" x="100.124" y="92.682" rx="1.854"/><rect width="3.708" height="3.707" x="100.124" y="96.389" rx="1.854"/><rect width="3.708" height="3.707" x="103.832" y="29.658" rx="1.854"/><rect width="3.708" height="3.707" x="103.832" y="40.78" rx="1.854"/><rect width="3.708" height="3.707" x="103.832" y="44.487" rx="1.854"/><rect width="3.708" height="3.707" x="103.832" y="48.195" rx="1.854"/><rect width="3.708" height="3.707" x="103.832" y="51.902" rx="1.854"/><rect width="3.708" height="3.707" x="103.832" y="55.609" rx="1.854"/><rect width="3.708" height="3.707" x="103.832" y="66.731" rx="1.854"/><rect width="3.708" height="3.707" x="103.832" y="85.267" rx="1.854"/><rect width="3.708" height="3.707" x="103.832" y="96.389" rx="1.854"/><rect width="3.708" height="3.707" x="103.832" y="100.097" rx="1.854"/></g><g transform="translate(86.568 95.479)"><mask id="d" fill="#fff"><use xlink:href="#c"/></mask><use xlink:href="#c" fill="#F7931A"/><path fill="#FFF" d="M10.845 7.76c-.237.96-1.792.496-2.298.378l.428-1.704c.495.118 2.118.323 1.87 1.326zm-.248 2.75c-.259 1.058-2.13.508-2.726.368L8.333 9c.608.14 2.534.399 2.264 1.51zm2.005-2.75c.147-1.035-.676-1.574-1.802-1.941l.35-1.402-.891-.205-.338 1.37a16.016 16.016 0 0 0-.71-.151l.338-1.37-.9-.205-.35 1.402c-.192-.043-.383-.075-.575-.119l-1.228-.28-.225.906s.665.14.642.151c.36.086.428.313.417.485l-.394 1.597c.022.01.056.01.09.032-.034-.01-.057-.01-.09-.021l-.541 2.232c-.045.108-.158.259-.406.205.011.01-.653-.151-.653-.151l-.429.982 1.16.258c.215.054.43.097.632.151l-.35 1.413.89.205.35-1.402c.248.065.484.119.71.173l-.35 1.391.89.205.35-1.413c1.52.259 2.658.14 3.12-1.186.372-1.057-.033-1.661-.844-2.06.597-.13 1.025-.496 1.137-1.252z" mask="url(#d)"/></g><g stroke="#5070F8" stroke-width="1.25" transform="translate(25 22)"><rect width="7.36" height="9.28" x="2.3" y="2.159" rx=".4"/><path stroke-linecap="round" stroke-linejoin="round" d="M7.201 0H0v8.276"/></g></g></svg>