<svg xmlns="http://www.w3.org/2000/svg" width="50" height="50" fill="none"><circle cx="25" cy="25" r="25" fill="#214497" transform="rotate(-180 25 25)"/><mask id="a" width="50" height="50" x="0" y="0" maskUnits="userSpaceOnUse" style="mask-type:alpha"><circle cx="25" cy="25" r="25" fill="#fff" transform="rotate(-180 25 25)"/></mask><g mask="url(#a)"><circle cx="34.444" cy="36.665" r="26.667" fill="#1A2C57" transform="rotate(-180 34.444 36.665)"/><g clip-path="url(#b)"><g fill="#4F6EF7" clip-path="url(#c)"><path d="M24.063 33.348c2.013 0 3.645-1.668 3.645-3.727 0-2.058-1.632-3.726-3.645-3.726-2.014 0-3.646 1.668-3.646 3.726 0 2.059 1.632 3.727 3.646 3.727Z"/><path d="m32.737 14.95-10.85 5.539-2.535-6.306 8.96-9.16-2.062-2.107-10.744 10.982L1.63 12.323l-.322 2.963L12.52 16.56l3.52 8.219V37.82h2.917V25.314l15.08-7.696-1.301-2.669Z"/></g></g></g><defs><clipPath id="b"><path fill="#fff" d="M2 6.021h31v31.69H2z"/></clipPath><clipPath id="c"><path fill="#fff" d="M0 2.043h35v35.778H0z"/></clipPath></defs></svg>