<svg xmlns="http://www.w3.org/2000/svg" xmlns:xlink="http://www.w3.org/1999/xlink" width="62" height="62"><defs><circle id="a" cx="31" cy="31" r="31"/></defs><g fill="none" fill-rule="evenodd"><mask id="b" fill="#fff"><use xlink:href="#a"/></mask><use xlink:href="#a" fill="#214497" fill-rule="nonzero"/><g mask="url(#b)"><g fill-rule="nonzero" transform="translate(3 10)"><ellipse cx="37.372" cy="6.109" fill="#BADEFC" rx="6.102" ry="6.109"/><path fill="#4F6EF7" d="m12.709 14.888 5.72-3.818 2.674 1.703a93.147 93.147 0 0 1 1.5-1.596 6.812 6.812 0 0 1 3.183-1.801l-6.398-2.993c-.745-.4-1.65-.36-2.354.112l-6.864 4.582a2.293 2.293 0 0 0-.635 3.176 2.287 2.287 0 0 0 3.174.635ZM26.226 25.01a579.539 579.539 0 0 0-5.074 3.91l3.254 3.916-8.65 4.823a2.291 2.291 0 0 0 2.046 4.099l12.204-6.11a2.293 2.293 0 0 0 .79-3.445l-4.57-7.194Z"/><path fill="#BADEFC" d="M44.836 20.531a2.286 2.286 0 0 0-2.975-1.276L35.71 21.72s-2.907-7.89-4.477-9.462a5.334 5.334 0 0 0-7.55 0C22.241 13.7.75 37.251.75 37.251a2.292 2.292 0 0 0 1.54 3.985 2.28 2.28 0 0 0 1.537-.595s24.01-19.135 25.182-19.49l4.383 4.826a2.288 2.288 0 0 0 2.543.587l7.627-3.055a2.293 2.293 0 0 0 1.275-2.978Z"/></g></g></g></svg>