<svg xmlns="http://www.w3.org/2000/svg" xmlns:xlink="http://www.w3.org/1999/xlink" width="190" height="133"><defs><path id="a" d="M5.338 0h161.324A5.338 5.338 0 0 1 172 5.338v104.324a5.338 5.338 0 0 1-5.338 5.338H5.338A5.338 5.338 0 0 1 0 109.662V5.338A5.338 5.338 0 0 1 5.338 0Z"/><path id="c" d="M4.579 8v-.635h-3.24V5.556h2.945V4.94H1.34V3.32h3.184v-.653H.635V8H4.58Zm1.619 0V4.768a36.26 36.26 0 0 0-.01-.506 36.444 36.444 0 0 1-.008-.597V3.5L7.712 8h.715L9.95 3.501c0 .288-.003.558-.008.81s-.007.432-.007.541V8h.686V2.666H9.596l-1.521 4.51-1.532-4.51H5.508V8h.69Zm5.806 0 .577-1.598h2.11L15.23 8h.792l-1.935-5.334h-.817L11.263 8h.74Zm2.454-2.186h-1.67l.86-2.356.81 2.356ZM17.573 8V2.666h-.73V8h.73Zm4.597 0v-.635h-2.701V2.666h-.723V8h3.424Z"/><path id="d" d="m.85 8 .577-1.598h2.11L4.076 8h.792L2.934 2.666h-.817L.109 8h.74Zm2.454-2.186h-1.67l.86-2.356.81 2.356ZM6.198 8V4.768a36.26 36.26 0 0 0-.01-.506 36.444 36.444 0 0 1-.008-.597V3.5L7.712 8h.715L9.95 3.501c0 .288-.003.558-.008.81s-.007.432-.007.541V8h.686V2.666H9.596l-1.521 4.51-1.532-4.51H5.508V8h.69Zm7.81.156c.879 0 1.555-.31 2.03-.93.404-.527.606-1.19.606-1.985 0-.736-.177-1.34-.53-1.812-.453-.605-1.15-.908-2.092-.908-.9 0-1.58.33-2.04.988-.358.513-.538 1.13-.538 1.851 0 .8.21 1.46.629 1.983.47.542 1.114.813 1.935.813Zm.087-.646c-.67 0-1.155-.203-1.454-.608-.3-.406-.449-.904-.449-1.494 0-.739.175-1.297.523-1.676.349-.379.8-.568 1.35-.568.57 0 1.018.19 1.346.573.328.383.492.888.492 1.514 0 .593-.142 1.118-.426 1.574-.285.457-.745.685-1.382.685Zm5.559.632c.9 0 1.513-.322 1.837-.966.177-.354.265-.858.265-1.514V2.666h-.733v3.297c0 .385-.06.691-.178.919-.22.418-.637.628-1.25.628-.51 0-.873-.194-1.089-.581-.145-.257-.217-.579-.217-.966V2.666h-.734v2.996c0 .656.089 1.16.265 1.514.322.644.933.966 1.834.966ZM23.564 8V3.683L26.298 8h.81V2.666h-.686v4.321l-2.694-4.32h-.854V8h.69Zm6.765 0V3.302h1.797v-.636h-4.328v.636h1.797V8h.734Z"/><path id="e" d="M2.783 7V.628H2.15c-.114.494-.285.808-.514.94-.23.133-.635.227-1.216.284v.617h1.506V7h.858Zm4.322.174c.852 0 1.465-.408 1.84-1.224.26-.57.39-1.289.39-2.159 0-.917-.144-1.64-.43-2.167C8.536.942 7.937.601 7.11.601c-.92 0-1.557.485-1.908 1.457-.188.52-.282 1.145-.282 1.872 0 .938.157 1.686.47 2.243.375.668.947 1.001 1.716 1.001ZM7.1 6.441c-.518 0-.885-.302-1.1-.907-.14-.396-.21-.92-.21-1.573 0-.867.11-1.523.33-1.968.218-.446.564-.668 1.038-.668.516 0 .863.234 1.041.704.18.469.268 1.067.268 1.794 0 1.007-.123 1.695-.37 2.064-.248.37-.58.554-.997.554Zm5.094.733c.852 0 1.466-.408 1.842-1.224.259-.57.388-1.289.388-2.159 0-.917-.143-1.64-.429-2.167C13.625.942 13.027.601 12.2.601c-.92 0-1.557.485-1.908 1.457-.188.52-.282 1.145-.282 1.872 0 .938.157 1.686.47 2.243.375.668.947 1.001 1.715 1.001Zm-.004-.733c-.518 0-.885-.302-1.1-.907-.14-.396-.21-.92-.21-1.573 0-.867.11-1.523.33-1.968.218-.446.564-.668 1.038-.668.515 0 .863.234 1.041.704.179.469.268 1.067.268 1.794 0 1.007-.123 1.695-.37 2.064-.248.37-.58.554-.997.554Zm8.508.733c1.109 0 1.862-.396 2.262-1.188.217-.435.326-1.057.326-1.864V.435h-.903v4.058c0 .474-.073.85-.219 1.13-.27.516-.783.774-1.537.774-.629 0-1.076-.239-1.34-.715-.18-.316-.269-.712-.269-1.189V.435h-.902v3.687c0 .807.108 1.429.326 1.864.396.792 1.148 1.188 2.256 1.188Zm6.306.018c.7 0 1.314-.156 1.843-.47.529-.312.793-.832.793-1.559 0-.584-.208-1.029-.625-1.336-.242-.176-.584-.314-1.028-.415l-.92-.21c-.62-.143-1.018-.263-1.194-.358-.268-.149-.402-.384-.402-.706 0-.292.115-.548.344-.769.23-.22.606-.33 1.13-.33.65 0 1.11.171 1.382.514.146.187.24.457.286.808h.835c0-.73-.24-1.26-.721-1.593C28.245.436 27.66.27 26.973.27c-.748 0-1.326.19-1.734.568-.408.378-.613.862-.613 1.452 0 .545.209.955.626 1.229.241.158.653.302 1.233.433l.89.201c.482.11.837.24 1.063.39.224.151.335.406.335.763 0 .477-.265.808-.795.992a2.76 2.76 0 0 1-.912.143c-.744 0-1.264-.217-1.56-.652-.154-.232-.242-.535-.263-.907h-.835c-.01.709.217 1.27.679 1.685.462.417 1.1.625 1.917.625ZM33.457 7c1.126 0 1.92-.498 2.382-1.493.262-.563.393-1.193.393-1.89 0-.903-.222-1.643-.666-2.22-.498-.641-1.198-.962-2.1-.962h-2.66V7h2.65Zm-.17-.76H31.7V1.2h1.577c.718 0 1.239.224 1.562.674.323.45.485 1.082.485 1.895 0 .212-.023.441-.067.688-.078.414-.204.754-.38 1.02-.22.33-.504.553-.85.67a2.47 2.47 0 0 1-.741.093Z"/><filter id="b" width="115.7%" height="123.5%" x="-7.8%" y="-11.7%" filterUnits="objectBoundingBox"><feMorphology in="SourceAlpha" operator="dilate" radius="1" result="shadowSpreadOuter1"/><feOffset in="shadowSpreadOuter1" result="shadowOffsetOuter1"/><feGaussianBlur in="shadowOffsetOuter1" result="shadowBlurOuter1" stdDeviation="3.5"/><feColorMatrix in="shadowBlurOuter1" values="0 0 0 0 0 0 0 0 0 0 0 0 0 0 0 0 0 0 0.05 0"/></filter></defs><g fill="none" fill-rule="evenodd" transform="translate(9 9)"><use xlink:href="#a" fill="#000" filter="url(#b)"/><use xlink:href="#a" fill="#FFF"/><path d="M0 0h172v115H0z"/><rect width="157.443" height="31.031" x="7.215" y="17.942" fill="#FFF" fill-rule="nonzero" stroke="#9BA3AE" stroke-width=".55" opacity=".598" rx="2.288"/><g fill-rule="nonzero" opacity=".751" transform="translate(7.572 4)"><use xlink:href="#c" fill="#000"/><use xlink:href="#c" fill="#434D5A"/></g><path fill="#000" fill-rule="nonzero" d="M17.364 36.088c.366 0 .689-.06.967-.178a1.49 1.49 0 0 0 .646-.497c.152-.212.229-.456.229-.731 0-.255-.061-.472-.183-.65a1.403 1.403 0 0 0-.556-.453 4.474 4.474 0 0 0-.97-.321 3.924 3.924 0 0 1-.68-.198c-.157-.067-.265-.143-.325-.226a.524.524 0 0 1-.09-.314.646.646 0 0 1 .409-.605c.14-.066.317-.099.531-.099.202 0 .379.04.53.121a.89.89 0 0 1 .345.31.725.725 0 0 1 .118.391h.822a1.35 1.35 0 0 0-.217-.75 1.499 1.499 0 0 0-.63-.533 2.216 2.216 0 0 0-.968-.198 2.14 2.14 0 0 0-.92.19 1.525 1.525 0 0 0-.622.505c-.147.21-.22.442-.22.694 0 .372.144.663.433.874.289.211.716.375 1.28.493.3.061.528.133.686.215.159.082.266.171.321.268a.67.67 0 0 1 .084.343.57.57 0 0 1-.119.354.783.783 0 0 1-.35.246c-.153.06-.337.09-.55.09-.185 0-.36-.03-.526-.088a.856.856 0 0 1-.6-.804h-.822c0 .27.077.523.229.76.152.237.376.428.67.573.295.145.644.218 1.048.218Zm4.368 0c.276 0 .528-.054.758-.16.23-.107.427-.249.592-.425.026.217.064.383.114.497h.857v-.07a1.966 1.966 0 0 1-.123-.45 3.165 3.165 0 0 1-.044-.517v-2.215c0-.346-.075-.638-.224-.877a1.38 1.38 0 0 0-.622-.536 2.246 2.246 0 0 0-.925-.178c-.37 0-.698.068-.985.205-.287.136-.51.312-.668.53-.158.216-.237.44-.237.671h.822a.61.61 0 0 1 .13-.375.89.89 0 0 1 .362-.277c.155-.069.331-.103.527-.103.323 0 .57.082.74.248.172.165.258.393.258.683v.378h-.8c-.436 0-.815.06-1.136.178-.32.119-.568.295-.743.53-.174.234-.261.52-.261.857 0 .26.067.498.2.712.133.213.322.383.567.507.244.125.525.187.841.187Zm.12-.703c-.194 0-.358-.036-.493-.108a.75.75 0 0 1-.308-.292.826.826 0 0 1-.105-.418c0-.29.124-.509.373-.657.25-.148.608-.222 1.077-.222h.668v.985c-.062.126-.15.243-.268.351a1.384 1.384 0 0 1-.945.36Zm4.697.703c.231 0 .44-.03.628-.088l-.004-.655a1.538 1.538 0 0 1-.176.033c-.073.01-.14.016-.202.016a.581.581 0 0 1-.382-.117c-.094-.078-.141-.23-.141-.455v-2.957h.888v-.62h-.888V30.09h-.822v1.156h-.866v.62h.866v2.953c0 .448.1.772.301.971.2.2.467.299.798.299Zm3.384 0c.436 0 .818-.105 1.144-.314.327-.21.578-.497.754-.862.176-.364.264-.777.264-1.237v-.1c0-.46-.088-.874-.264-1.24a2.056 2.056 0 0 0-.756-.864 2.093 2.093 0 0 0-1.151-.314c-.434 0-.814.105-1.14.314a2.06 2.06 0 0 0-.754.864c-.176.366-.264.78-.264 1.24v.1c0 .46.089.873.266 1.237.177.365.43.652.756.862.327.21.708.314 1.145.314Zm0-.66c-.29 0-.537-.078-.739-.234a1.418 1.418 0 0 1-.454-.635 2.474 2.474 0 0 1-.152-.884v-.1c0-.323.05-.617.152-.884a1.44 1.44 0 0 1 .452-.637c.2-.158.445-.238.732-.238.29 0 .536.08.738.238.202.158.355.37.457.637.103.267.154.561.154.883v.101c0 .323-.05.617-.152.884a1.418 1.418 0 0 1-.454.635 1.162 1.162 0 0 1-.734.235Zm4.93.66c.366 0 .689-.06.967-.178a1.49 1.49 0 0 0 .646-.497c.152-.212.229-.456.229-.731 0-.255-.061-.472-.183-.65a1.403 1.403 0 0 0-.556-.453 4.474 4.474 0 0 0-.97-.321 3.924 3.924 0 0 1-.68-.198c-.157-.067-.265-.143-.325-.226a.524.524 0 0 1-.09-.314.646.646 0 0 1 .409-.605c.14-.066.317-.099.531-.099.202 0 .379.04.53.121a.89.89 0 0 1 .345.31.725.725 0 0 1 .118.391h.822a1.35 1.35 0 0 0-.217-.75 1.499 1.499 0 0 0-.63-.533 2.216 2.216 0 0 0-.968-.198 2.14 2.14 0 0 0-.92.19 1.525 1.525 0 0 0-.622.505c-.147.21-.22.442-.22.694 0 .372.144.663.433.874.289.211.716.375 1.281.493.299.061.527.133.686.215.158.082.265.171.32.268a.67.67 0 0 1 .084.343.57.57 0 0 1-.119.354.783.783 0 0 1-.35.246c-.153.06-.337.09-.55.09-.185 0-.36-.03-.526-.088a.856.856 0 0 1-.6-.804h-.821c0 .27.076.523.228.76.152.237.376.428.67.573.295.145.644.218 1.048.218ZM38.581 36v-3.401c.117-.232.276-.416.477-.554.2-.138.427-.207.679-.207.316 0 .553.082.71.246.156.165.235.428.235.791V36h.821v-3.116c0-1.151-.508-1.727-1.524-1.727a1.8 1.8 0 0 0-.783.17 1.794 1.794 0 0 0-.615.48V29.25h-.822V36h.822Zm4.623-5.563a.484.484 0 0 0 .358-.13.444.444 0 0 0 .13-.328.457.457 0 0 0-.13-.333.48.48 0 0 0-.358-.132.465.465 0 0 0-.354.132.465.465 0 0 0-.125.333c0 .132.042.241.125.328.084.086.202.13.354.13ZM43.608 36v-4.755h-.821V36h.821Zm4.601 1.99c.293 0 .592-.033.895-.1a2.26 2.26 0 0 0 .745-.29l-.167-.497a2.428 2.428 0 0 1-.668.25 3.452 3.452 0 0 1-.787.093c-.589 0-1.093-.13-1.512-.391a2.484 2.484 0 0 1-.958-1.123c-.22-.488-.33-1.069-.33-1.743a7.6 7.6 0 0 1 .01-.29c.029-.714.172-1.344.43-1.89.258-.544.615-.967 1.07-1.27.456-.301.985-.452 1.589-.452.946 0 1.654.274 2.122.822.47.548.704 1.331.704 2.351 0 .067-.003.177-.01.33-.014.336-.067.64-.157.91-.091.269-.22.481-.385.636a.834.834 0 0 1-.591.233.535.535 0 0 1-.404-.171c-.109-.114-.163-.32-.163-.62 0-.096.003-.171.009-.224l.224-2.434a3.75 3.75 0 0 0-.367-.253 1.588 1.588 0 0 0-.382-.156 1.961 1.961 0 0 0-.521-.062c-.302 0-.59.104-.864.31-.273.207-.503.501-.69.884a3.75 3.75 0 0 0-.344 1.32 5.252 5.252 0 0 0-.018.338c0 .493.104.88.312 1.165.208.284.504.426.888.426.22 0 .432-.063.637-.19a1.72 1.72 0 0 0 .536-.552c.073.237.2.42.38.549.18.129.405.193.675.193.401 0 .734-.111.997-.334a1.98 1.98 0 0 0 .587-.857 3.61 3.61 0 0 0 .213-1.111c.003-.065.004-.16.004-.286 0-.776-.13-1.45-.393-2.02a2.915 2.915 0 0 0-1.153-1.313c-.507-.306-1.117-.46-1.829-.46-.72 0-1.357.18-1.911.541a3.73 3.73 0 0 0-1.308 1.492c-.317.634-.494 1.353-.53 2.155a6.224 6.224 0 0 0-.003.273c0 .785.136 1.464.408 2.037a3 3 0 0 0 1.178 1.32c.513.308 1.123.462 1.832.462Zm-.118-2.526a.586.586 0 0 1-.517-.262c-.118-.174-.178-.424-.178-.749 0-.094.005-.19.014-.29.038-.419.115-.775.233-1.068.117-.293.265-.513.443-.661a.903.903 0 0 1 .59-.222c.187 0 .363.042.527.127L49 34.554l-.004.035c-.108.293-.245.512-.409.657-.164.145-.33.218-.496.218Zm7.075.624c.384 0 .715-.103.993-.31a1.92 1.92 0 0 0 .635-.857 3.35 3.35 0 0 0 .218-1.246v-.092c0-.486-.073-.912-.218-1.277a1.861 1.861 0 0 0-.635-.848c-.278-.2-.612-.3-1.002-.3-.577 0-1.028.198-1.353.597V29.25h-.822V36h.751l.04-.54c.328.418.792.628 1.393.628Zm-.207-.686c-.275 0-.509-.067-.7-.202a1.407 1.407 0 0 1-.455-.54v-2.08c.108-.228.257-.41.446-.543.189-.133.422-.2.7-.2.431 0 .746.16.943.482.198.32.297.742.297 1.263v.092c0 .51-.102.925-.305 1.246-.204.32-.512.481-.926.481Zm3.564-4.965a.484.484 0 0 0 .359-.13.444.444 0 0 0 .13-.328.457.457 0 0 0-.13-.333.48.48 0 0 0-.359-.132.465.465 0 0 0-.353.132.465.465 0 0 0-.126.333c0 .132.042.241.126.328.083.086.201.13.353.13ZM58.928 36v-4.755h-.822V36h.822Zm2.685.088c.231 0 .44-.03.628-.088l-.004-.655a1.538 1.538 0 0 1-.176.033c-.073.01-.14.016-.202.016a.581.581 0 0 1-.382-.117c-.094-.078-.141-.23-.141-.455v-2.957h.888v-.62h-.888V30.09h-.822v1.156h-.866v.62h.866v2.953c0 .448.1.772.301.971.2.2.467.299.798.299Zm2.377 1.74v-2.285c.331.363.784.545 1.358.545.384 0 .714-.103.991-.31.277-.206.488-.492.633-.857a3.35 3.35 0 0 0 .217-1.246v-.092c0-.486-.071-.912-.215-1.277a1.847 1.847 0 0 0-.633-.848c-.278-.2-.613-.3-1.006-.3-.586 0-1.044.201-1.376.606l-.043-.519h-.748v6.583h.822Zm1.108-2.4c-.495 0-.865-.215-1.108-.645v-2.29a1.31 1.31 0 0 1 .44-.479 1.19 1.19 0 0 1 .659-.176 1.1 1.1 0 0 1 .714.233c.192.156.334.364.426.627.093.262.139.557.139.885v.092c0 .328-.046.624-.139.888a1.39 1.39 0 0 1-.424.63c-.19.157-.426.236-.707.236Zm4.596.66c.276 0 .528-.054.758-.16.23-.107.427-.249.591-.425.027.217.065.383.115.497h.857v-.07a1.966 1.966 0 0 1-.123-.45 3.165 3.165 0 0 1-.044-.517v-2.215c0-.346-.075-.638-.224-.877a1.38 1.38 0 0 0-.622-.536 2.246 2.246 0 0 0-.925-.178c-.37 0-.698.068-.985.205-.287.136-.51.312-.668.53-.158.216-.237.44-.237.671h.822a.61.61 0 0 1 .13-.375.89.89 0 0 1 .362-.277c.155-.069.331-.103.527-.103.323 0 .57.082.74.248.172.165.258.393.258.683v.378h-.8c-.436 0-.815.06-1.136.178-.32.119-.568.295-.743.53-.174.234-.261.52-.261.857 0 .26.067.498.2.712.133.213.322.383.567.507.244.125.525.187.841.187Zm.119-.703c-.193 0-.357-.036-.492-.108a.75.75 0 0 1-.308-.292.826.826 0 0 1-.105-.418c0-.29.124-.509.373-.657.25-.148.608-.222 1.077-.222h.668v.985a1.199 1.199 0 0 1-.268.351 1.384 1.384 0 0 1-.945.36Zm3.524 2.535c.381 0 .682-.118.903-.353.222-.236.39-.514.508-.833l1.907-5.489h-.874l-1.103 3.56-1.178-3.56h-.896l1.696 4.702-.18.488c-.097.29-.222.493-.376.609-.154.115-.37.173-.648.173a1.532 1.532 0 0 1-.22-.022v.655c.05.015.124.03.222.046s.178.024.24.024Zm4.566-1.872a.513.513 0 0 0 .376-.131.46.46 0 0 0 .134-.343.488.488 0 0 0-.134-.354.499.499 0 0 0-.376-.138.493.493 0 0 0-.371.138.488.488 0 0 0-.134.354c0 .137.045.251.134.34a.5.5 0 0 0 .371.134Zm3.762.04c.328 0 .635-.073.92-.22.286-.146.517-.342.693-.587.176-.244.27-.506.285-.784h-.777a.912.912 0 0 1-.18.477 1.093 1.093 0 0 1-.407.334c-.166.08-.344.12-.534.12-.463 0-.795-.163-.995-.491-.201-.329-.301-.736-.301-1.222v-.185c0-.304.04-.585.123-.841.082-.257.22-.466.413-.629.193-.162.447-.244.76-.244.211 0 .398.047.563.141.164.094.294.222.39.385.097.162.153.342.168.538h.777a1.81 1.81 0 0 0-.263-.881 1.693 1.693 0 0 0-.666-.618 2.042 2.042 0 0 0-.969-.224c-.46 0-.849.106-1.167.319a1.957 1.957 0 0 0-.714.857 2.937 2.937 0 0 0-.237 1.197v.185c0 .44.079.838.237 1.197.158.36.396.645.714.857.318.213.707.319 1.167.319Zm4.764 0c.436 0 .818-.105 1.144-.314.327-.21.578-.497.754-.862.176-.364.264-.777.264-1.237v-.1c0-.46-.088-.874-.264-1.24a2.056 2.056 0 0 0-.756-.864 2.093 2.093 0 0 0-1.151-.314c-.434 0-.814.105-1.14.314a2.06 2.06 0 0 0-.754.864c-.176.366-.264.78-.264 1.24v.1c0 .46.089.873.266 1.237.177.365.43.652.756.862.327.21.708.314 1.145.314Zm0-.66c-.29 0-.536-.078-.739-.234a1.418 1.418 0 0 1-.454-.635 2.474 2.474 0 0 1-.152-.884v-.1c0-.323.05-.617.152-.884a1.44 1.44 0 0 1 .452-.637c.2-.158.445-.238.732-.238.29 0 .536.08.738.238.202.158.355.37.457.637.103.267.154.561.154.883v.101c0 .323-.05.617-.152.884a1.418 1.418 0 0 1-.454.635 1.162 1.162 0 0 1-.734.235Zm3.999.572v-3.49c.093-.21.23-.375.408-.494.18-.118.405-.178.677-.178.677 0 1.015.345 1.015 1.033V36h.822v-3.15a1.27 1.27 0 0 1 .165-.515.981.981 0 0 1 .371-.363c.158-.089.343-.134.554-.134.331 0 .582.077.754.231.171.154.257.42.257.798V36h.821v-3.125c0-.588-.134-1.022-.404-1.3-.27-.279-.665-.418-1.186-.418-.331 0-.625.068-.881.202-.257.135-.467.32-.631.554a1.202 1.202 0 0 0-.534-.569 1.74 1.74 0 0 0-.824-.187c-.302 0-.57.052-.804.156a1.652 1.652 0 0 0-.598.446l-.026-.514h-.778V36h.822Z"/><rect width="157.443" height="31.031" x="7.215" y="73.942" fill="#FFF" fill-rule="nonzero" stroke="#9BA3AE" stroke-width=".55" opacity=".598" rx="2.288"/><g fill-rule="nonzero" opacity=".751" transform="translate(7.572 60)"><use xlink:href="#d" fill="#000"/><use xlink:href="#d" fill="#434D5A"/></g><g fill="#000" fill-rule="nonzero" transform="translate(16.008 85.596)"><use xlink:href="#e"/><use xlink:href="#e"/></g></g></svg>