<svg xmlns="http://www.w3.org/2000/svg" viewBox="0 0 81.51 81"><defs><style>.cls-5{fill:#efd358}.cls-6{fill:#fff}</style></defs><g id="Layer_2" data-name="Layer 2"><g id="Layer_1-2" data-name="Layer 1"><circle cx="41.01" cy="40.5" r="40.5" style="fill:#1a3b8b"/><path d="M40.5 81a40.5 40.5 0 0 1 0-81v81Z" style="fill:#0c204e"/><circle cx="40.51" cy="40.74" r="27.37" style="fill:#badefc"/><path d="M40.51 12a28.74 28.74 0 1 0 28.74 28.74A28.77 28.77 0 0 0 40.51 12ZM14.58 42.11H25.5a51.51 51.51 0 0 0 1.38 10.94h-9.26a25.89 25.89 0 0 1-3.04-10.94Zm27.3-16.43V14.92c3.49.86 6.59 5 8.59 10.76Zm9.43 2.74a49.42 49.42 0 0 1 1.49 10.95H41.88V28.42Zm-12.16-13.5v10.76h-8.59c2-5.81 5.09-9.9 8.59-10.76Zm0 13.5v10.95H28.23a48.27 48.27 0 0 1 1.49-10.95ZM25.5 39.37H14.58a26 26 0 0 1 3-10.95h9.26a51.52 51.52 0 0 0-1.34 10.95Zm2.73 2.74h10.92v10.94h-9.43a48.18 48.18 0 0 1-1.49-10.94Zm10.92 13.68v10.77c-3.5-.86-6.59-5-8.59-10.77Zm2.73 10.77V55.79h8.59c-2 5.82-5.1 9.91-8.59 10.77Zm0-13.51V42.11H52.8a49.32 49.32 0 0 1-1.49 10.94Zm13.65-10.94h10.92a25.76 25.76 0 0 1-3.05 10.94h-9.25a51.51 51.51 0 0 0 1.38-10.94Zm0-2.74a51.52 51.52 0 0 0-1.38-10.95h9.25a25.84 25.84 0 0 1 3.05 10.95Zm6.14-13.69h-8.29a26.5 26.5 0 0 0-5.23-9.79 26.1 26.1 0 0 1 13.52 9.79Zm-28.79-9.79a26.51 26.51 0 0 0-5.24 9.79h-8.29a26.12 26.12 0 0 1 13.53-9.79Zm-13.53 39.9h8.29a26.56 26.56 0 0 0 5.24 9.8 26.09 26.09 0 0 1-13.53-9.8Zm28.8 9.8a26.55 26.55 0 0 0 5.23-9.8h8.29a26.06 26.06 0 0 1-13.52 9.8Z" style="fill:#4f6ef7"/><circle cx="29.57" cy="29.79" r="4.11" class="cls-5"/><path d="M29.57 35.26A5.47 5.47 0 1 1 35 29.79a5.48 5.48 0 0 1-5.43 5.47Zm0-8.21a2.74 2.74 0 1 0 2.73 2.74 2.74 2.74 0 0 0-2.73-2.74Z" class="cls-6"/><circle cx="52.83" cy="39.37" r="4.11" class="cls-5"/><path d="M52.83 44.84a5.47 5.47 0 1 1 5.47-5.47 5.47 5.47 0 0 1-5.47 5.47Zm0-8.21a2.74 2.74 0 1 0 2.74 2.74 2.74 2.74 0 0 0-2.74-2.74Z" class="cls-6"/><circle cx="40.51" cy="54.42" r="4.11" class="cls-5"/><path d="M40.51 59.9A5.48 5.48 0 1 1 46 54.42a5.48 5.48 0 0 1-5.49 5.48Zm0-8.21a2.74 2.74 0 1 0 2.74 2.73 2.73 2.73 0 0 0-2.74-2.73Z" class="cls-6"/></g></g></svg>